<?xml version="1.0" encoding="UTF-8" standalone="no"?>
<!DOCTYPE svg PUBLIC "-//W3C//DTD SVG 1.1//EN"
 "http://www.w3.org/Graphics/SVG/1.1/DTD/svg11.dtd">
<!-- Generated by graphviz version 2.40.1 (20161225.0304)
 -->
<!-- Title: dependencies Pages: 1 -->
<svg width="1524pt" height="284pt"
 viewBox="0.00 0.00 1524.00 284.00" xmlns="http://www.w3.org/2000/svg" xmlns:xlink="http://www.w3.org/1999/xlink">
<g id="graph0" class="graph" transform="scale(1 1) rotate(0) translate(4 280)">
<title>dependencies</title>
<polygon fill="#ffffff" stroke="transparent" points="-4,4 -4,-280 1520,-280 1520,4 -4,4"/>
<text text-anchor="start" x="737.0091" y="-42.4" font-family="sans-serif" font-weight="bold" font-size="14.00" fill="#000000">Legend</text>
<polygon fill="#ffffb3" stroke="transparent" points="524,-10 524,-30 544,-30 544,-10 524,-10"/>
<text text-anchor="start" x="547.629" y="-15.4" font-family="sans-serif" font-size="14.00" fill="#000000"> &#160;Declarations</text>
<polygon fill="#8dd3c7" stroke="transparent" points="637,-10 637,-30 657,-30 657,-10 637,-10"/>
<text text-anchor="start" x="660.7251" y="-15.4" font-family="sans-serif" font-size="14.00" fill="#000000"> &#160;Module</text>
<polygon fill="#80b1d3" stroke="transparent" points="723,-10 723,-30 743,-30 743,-10 723,-10"/>
<text text-anchor="start" x="746.7812" y="-15.4" font-family="sans-serif" font-size="14.00" fill="#000000"> &#160;Bootstrap</text>
<polygon fill="#fdb462" stroke="transparent" points="820,-10 820,-30 840,-30 840,-10 820,-10"/>
<text text-anchor="start" x="843.6732" y="-15.4" font-family="sans-serif" font-size="14.00" fill="#000000"> &#160;Providers</text>
<polygon fill="#fb8072" stroke="transparent" points="916,-10 916,-30 936,-30 936,-10 916,-10"/>
<text text-anchor="start" x="939.7258" y="-15.4" font-family="sans-serif" font-size="14.00" fill="#000000"> &#160;Exports</text>
<g id="clust1" class="cluster">
<title>cluster_CarrierModule</title>
<polygon fill="none" stroke="#000000" stroke-dasharray="1,5" points="8,-70 8,-268 1508,-268 1508,-70 8,-70"/>
</g>
<g id="clust2" class="cluster">
<title>cluster_CarrierModule_declarations</title>
<polygon fill="none" stroke="#000000" points="1364,-78 1364,-130 1500,-130 1500,-78 1364,-78"/>
</g>
<g id="clust4" class="cluster">
<title>cluster_CarrierModule_imports</title>
<polygon fill="none" stroke="#000000" points="170,-78 170,-130 1356,-130 1356,-78 170,-78"/>
</g>
<g id="clust5" class="cluster">
<title>cluster_CarrierModule_exports</title>
<polygon fill="none" stroke="#000000" points="653,-208 653,-260 793,-260 793,-208 653,-208"/>
</g>
<g id="clust7" class="cluster">
<title>cluster_CarrierModule_providers</title>
<polygon fill="none" stroke="#000000" points="16,-78 16,-130 162,-130 162,-78 16,-78"/>
</g>
<!-- CarrierComponent -->
<g id="node1" class="node">
<title>CarrierComponent</title>
<polygon fill="#ffffb3" stroke="#000000" points="1492.4706,-122 1371.5294,-122 1371.5294,-86 1492.4706,-86 1492.4706,-122"/>
<text text-anchor="middle" x="1432" y="-99.8" font-family="Times,serif" font-size="14.00" fill="#000000">CarrierComponent</text>
</g>
<!-- CarrierModule -->
<g id="node2" class="node">
<title>CarrierModule</title>
<polygon fill="#8dd3c7" stroke="#000000" points="772.6882,-187 769.6882,-191 748.6882,-191 745.6882,-187 673.3118,-187 673.3118,-151 772.6882,-151 772.6882,-187"/>
<text text-anchor="middle" x="723" y="-164.8" font-family="Times,serif" font-size="14.00" fill="#000000">CarrierModule</text>
</g>
<!-- CarrierComponent&#45;&gt;CarrierModule -->
<g id="edge1" class="edge">
<title>CarrierComponent&#45;&gt;CarrierModule</title>
<path fill="none" stroke="#000000" d="M1432,-122.0109C1432,-144.4852 1432,-180 1432,-180 1432,-180 782.8555,-180 782.8555,-180"/>
<polygon fill="#000000" stroke="#000000" points="782.8555,-176.5001 772.8555,-180 782.8555,-183.5001 782.8555,-176.5001"/>
</g>
<!-- CarrierComponent  -->
<g id="node10" class="node">
<title>CarrierComponent </title>
<polygon fill="#fb8072" stroke="#000000" points="785.4715,-252 660.5285,-252 660.5285,-216 785.4715,-216 785.4715,-252"/>
<text text-anchor="middle" x="723" y="-229.8" font-family="Times,serif" font-size="14.00" fill="#000000">CarrierComponent </text>
</g>
<!-- CarrierModule&#45;&gt;CarrierComponent  -->
<g id="edge9" class="edge">
<title>CarrierModule&#45;&gt;CarrierComponent </title>
<path fill="none" stroke="#000000" stroke-dasharray="5,2" d="M723,-187.1061C723,-187.1061 723,-205.991 723,-205.991"/>
<polygon fill="#000000" stroke="#000000" points="719.5001,-205.9909 723,-215.991 726.5001,-205.991 719.5001,-205.9909"/>
</g>
<!-- AuthorisedFooterModule -->
<g id="node3" class="node">
<title>AuthorisedFooterModule</title>
<polygon fill="#8dd3c7" stroke="#000000" points="1348.3061,-122 1345.3061,-126 1324.3061,-126 1321.3061,-122 1189.6939,-122 1189.6939,-86 1348.3061,-86 1348.3061,-122"/>
<text text-anchor="middle" x="1269" y="-99.8" font-family="Times,serif" font-size="14.00" fill="#000000">AuthorisedFooterModule</text>
</g>
<!-- AuthorisedFooterModule&#45;&gt;CarrierModule -->
<g id="edge2" class="edge">
<title>AuthorisedFooterModule&#45;&gt;CarrierModule</title>
<path fill="none" stroke="#000000" d="M1269,-122.1289C1269,-142.5724 1269,-173 1269,-173 1269,-173 782.9013,-173 782.9013,-173"/>
<polygon fill="#000000" stroke="#000000" points="782.9013,-169.5001 772.9013,-173 782.9013,-176.5001 782.9013,-169.5001"/>
</g>
<!-- AuthorisedHeaderModule -->
<g id="node4" class="node">
<title>AuthorisedHeaderModule</title>
<polygon fill="#8dd3c7" stroke="#000000" points="1172.1685,-122 1169.1685,-126 1148.1685,-126 1145.1685,-122 1009.8315,-122 1009.8315,-86 1172.1685,-86 1172.1685,-122"/>
<text text-anchor="middle" x="1091" y="-99.8" font-family="Times,serif" font-size="14.00" fill="#000000">AuthorisedHeaderModule</text>
</g>
<!-- AuthorisedHeaderModule&#45;&gt;CarrierModule -->
<g id="edge3" class="edge">
<title>AuthorisedHeaderModule&#45;&gt;CarrierModule</title>
<path fill="none" stroke="#000000" d="M1091,-122.2667C1091,-140.5552 1091,-166 1091,-166 1091,-166 782.6301,-166 782.6301,-166"/>
<polygon fill="#000000" stroke="#000000" points="782.6302,-162.5001 772.6301,-166 782.6301,-169.5001 782.6302,-162.5001"/>
</g>
<!-- CarrierAppRoutingModule -->
<g id="node5" class="node">
<title>CarrierAppRoutingModule</title>
<polygon fill="#8dd3c7" stroke="#000000" points="992.4129,-122 989.4129,-126 968.4129,-126 965.4129,-122 823.5871,-122 823.5871,-86 992.4129,-86 992.4129,-122"/>
<text text-anchor="middle" x="908" y="-99.8" font-family="Times,serif" font-size="14.00" fill="#000000">CarrierAppRoutingModule</text>
</g>
<!-- CarrierAppRoutingModule&#45;&gt;CarrierModule -->
<g id="edge4" class="edge">
<title>CarrierAppRoutingModule&#45;&gt;CarrierModule</title>
<path fill="none" stroke="#000000" d="M908,-122.0091C908,-138.0494 908,-159 908,-159 908,-159 783.0637,-159 783.0637,-159"/>
<polygon fill="#000000" stroke="#000000" points="783.0637,-155.5001 773.0637,-159 783.0636,-162.5001 783.0637,-155.5001"/>
</g>
<!-- CarrierInformationModule -->
<g id="node6" class="node">
<title>CarrierInformationModule</title>
<polygon fill="#8dd3c7" stroke="#000000" points="806.0562,-122 803.0562,-126 782.0562,-126 779.0562,-122 639.9438,-122 639.9438,-86 806.0562,-86 806.0562,-122"/>
<text text-anchor="middle" x="723" y="-99.8" font-family="Times,serif" font-size="14.00" fill="#000000">CarrierInformationModule</text>
</g>
<!-- CarrierInformationModule&#45;&gt;CarrierModule -->
<g id="edge5" class="edge">
<title>CarrierInformationModule&#45;&gt;CarrierModule</title>
<path fill="none" stroke="#000000" d="M723,-122.1061C723,-122.1061 723,-140.991 723,-140.991"/>
<polygon fill="#000000" stroke="#000000" points="719.5001,-140.9909 723,-150.991 726.5001,-140.991 719.5001,-140.9909"/>
</g>
<!-- PlanModule -->
<g id="node7" class="node">
<title>PlanModule</title>
<polygon fill="#8dd3c7" stroke="#000000" points="622.4387,-122 619.4387,-126 598.4387,-126 595.4387,-122 537.5613,-122 537.5613,-86 622.4387,-86 622.4387,-122"/>
<text text-anchor="middle" x="580" y="-99.8" font-family="Times,serif" font-size="14.00" fill="#000000">PlanModule</text>
</g>
<!-- PlanModule&#45;&gt;CarrierModule -->
<g id="edge6" class="edge">
<title>PlanModule&#45;&gt;CarrierModule</title>
<path fill="none" stroke="#000000" d="M580,-122.0091C580,-138.0494 580,-159 580,-159 580,-159 663.3869,-159 663.3869,-159"/>
<polygon fill="#000000" stroke="#000000" points="663.3869,-162.5001 673.3869,-159 663.3868,-155.5001 663.3869,-162.5001"/>
</g>
<!-- PolicyInformationModule -->
<g id="node8" class="node">
<title>PolicyInformationModule</title>
<polygon fill="#8dd3c7" stroke="#000000" points="520.1965,-122 517.1965,-126 496.1965,-126 493.1965,-122 357.8035,-122 357.8035,-86 520.1965,-86 520.1965,-122"/>
<text text-anchor="middle" x="439" y="-99.8" font-family="Times,serif" font-size="14.00" fill="#000000">PolicyInformationModule</text>
</g>
<!-- PolicyInformationModule&#45;&gt;CarrierModule -->
<g id="edge7" class="edge">
<title>PolicyInformationModule&#45;&gt;CarrierModule</title>
<path fill="none" stroke="#000000" d="M439,-122.2667C439,-140.5552 439,-166 439,-166 439,-166 663.206,-166 663.206,-166"/>
<polygon fill="#000000" stroke="#000000" points="663.206,-169.5001 673.206,-166 663.206,-162.5001 663.206,-169.5001"/>
</g>
<!-- RiderCommissionModule -->
<g id="node9" class="node">
<title>RiderCommissionModule</title>
<polygon fill="#8dd3c7" stroke="#000000" points="339.941,-122 336.941,-126 315.941,-126 312.941,-122 178.059,-122 178.059,-86 339.941,-86 339.941,-122"/>
<text text-anchor="middle" x="259" y="-99.8" font-family="Times,serif" font-size="14.00" fill="#000000">RiderCommissionModule</text>
</g>
<!-- RiderCommissionModule&#45;&gt;CarrierModule -->
<g id="edge8" class="edge">
<title>RiderCommissionModule&#45;&gt;CarrierModule</title>
<path fill="none" stroke="#000000" d="M259,-122.1289C259,-142.5724 259,-173 259,-173 259,-173 663.3439,-173 663.3439,-173"/>
<polygon fill="#000000" stroke="#000000" points="663.3439,-176.5001 673.3439,-173 663.3438,-169.5001 663.3439,-176.5001"/>
</g>
<!-- CarrierHelper -->
<g id="node11" class="node">
<title>CarrierHelper</title>
<ellipse fill="#fdb462" stroke="#000000" cx="89" cy="-104" rx="64.8002" ry="18"/>
<text text-anchor="middle" x="89" y="-99.8" font-family="Times,serif" font-size="14.00" fill="#000000">CarrierHelper</text>
</g>
<!-- CarrierHelper&#45;&gt;CarrierModule -->
<g id="edge10" class="edge">
<title>CarrierHelper&#45;&gt;CarrierModule</title>
<path fill="none" stroke="#000000" d="M89,-122.0109C89,-144.4852 89,-180 89,-180 89,-180 663.2511,-180 663.2511,-180"/>
<polygon fill="#000000" stroke="#000000" points="663.2511,-183.5001 673.2511,-180 663.251,-176.5001 663.2511,-183.5001"/>
</g>
</g>
</svg>
