<?xml version="1.0" encoding="UTF-8" standalone="no"?>
<!DOCTYPE svg PUBLIC "-//W3C//DTD SVG 1.1//EN"
 "http://www.w3.org/Graphics/SVG/1.1/DTD/svg11.dtd">
<!-- Generated by graphviz version 2.40.1 (20161225.0304)
 -->
<!-- Title: dependencies Pages: 1 -->
<svg width="818pt" height="349pt"
 viewBox="0.00 0.00 818.00 349.00" xmlns="http://www.w3.org/2000/svg" xmlns:xlink="http://www.w3.org/1999/xlink">
<g id="graph0" class="graph" transform="scale(1 1) rotate(0) translate(4 345)">
<title>dependencies</title>
<polygon fill="#ffffff" stroke="transparent" points="-4,4 -4,-345 814,-345 814,4 -4,4"/>
<text text-anchor="start" x="384.0091" y="-42.4" font-family="sans-serif" font-weight="bold" font-size="14.00" fill="#000000">Legend</text>
<polygon fill="#ffffb3" stroke="transparent" points="171,-10 171,-30 191,-30 191,-10 171,-10"/>
<text text-anchor="start" x="194.629" y="-15.4" font-family="sans-serif" font-size="14.00" fill="#000000"> &#160;Declarations</text>
<polygon fill="#8dd3c7" stroke="transparent" points="284,-10 284,-30 304,-30 304,-10 284,-10"/>
<text text-anchor="start" x="307.7251" y="-15.4" font-family="sans-serif" font-size="14.00" fill="#000000"> &#160;Module</text>
<polygon fill="#80b1d3" stroke="transparent" points="370,-10 370,-30 390,-30 390,-10 370,-10"/>
<text text-anchor="start" x="393.7812" y="-15.4" font-family="sans-serif" font-size="14.00" fill="#000000"> &#160;Bootstrap</text>
<polygon fill="#fdb462" stroke="transparent" points="467,-10 467,-30 487,-30 487,-10 467,-10"/>
<text text-anchor="start" x="490.6732" y="-15.4" font-family="sans-serif" font-size="14.00" fill="#000000"> &#160;Providers</text>
<polygon fill="#fb8072" stroke="transparent" points="563,-10 563,-30 583,-30 583,-10 563,-10"/>
<text text-anchor="start" x="586.7258" y="-15.4" font-family="sans-serif" font-size="14.00" fill="#000000"> &#160;Exports</text>
<g id="clust1" class="cluster">
<title>cluster_XmlfileModule</title>
<polygon fill="none" stroke="#000000" stroke-dasharray="1,5" points="8,-70 8,-333 802,-333 802,-70 8,-70"/>
</g>
<g id="clust2" class="cluster">
<title>cluster_XmlfileModule_declarations</title>
<polygon fill="none" stroke="#000000" points="406,-143 406,-195 546,-195 546,-143 406,-143"/>
</g>
<g id="clust3" class="cluster">
<title>cluster_XmlfileModule_XmlfileComponent_providers</title>
<polygon fill="none" stroke="#000000" points="16,-78 16,-130 794,-130 794,-78 16,-78"/>
</g>
<g id="clust4" class="cluster">
<title>cluster_XmlfileModule_imports</title>
<polygon fill="none" stroke="#000000" points="44,-143 44,-195 398,-195 398,-143 44,-143"/>
</g>
<g id="clust5" class="cluster">
<title>cluster_XmlfileModule_exports</title>
<polygon fill="none" stroke="#000000" points="239,-273 239,-325 383,-325 383,-273 239,-273"/>
</g>
<!-- XmlfileComponent -->
<g id="node1" class="node">
<title>XmlfileComponent</title>
<polygon fill="#ffffb3" stroke="#000000" points="538.3767,-187 413.6233,-187 413.6233,-151 538.3767,-151 538.3767,-187"/>
<text text-anchor="middle" x="476" y="-164.8" font-family="Times,serif" font-size="14.00" fill="#000000">XmlfileComponent</text>
</g>
<!-- XmlfileModule -->
<g id="node2" class="node">
<title>XmlfileModule</title>
<polygon fill="#8dd3c7" stroke="#000000" points="362.594,-252 359.594,-256 338.594,-256 335.594,-252 259.406,-252 259.406,-216 362.594,-216 362.594,-252"/>
<text text-anchor="middle" x="311" y="-229.8" font-family="Times,serif" font-size="14.00" fill="#000000">XmlfileModule</text>
</g>
<!-- XmlfileComponent&#45;&gt;XmlfileModule -->
<g id="edge1" class="edge">
<title>XmlfileComponent&#45;&gt;XmlfileModule</title>
<path fill="none" stroke="#000000" d="M476,-187.1061C476,-206.3391 476,-234 476,-234 476,-234 372.7543,-234 372.7543,-234"/>
<polygon fill="#000000" stroke="#000000" points="372.7544,-230.5001 362.7543,-234 372.7543,-237.5001 372.7544,-230.5001"/>
</g>
<!-- XmlfileComponent  -->
<g id="node9" class="node">
<title>XmlfileComponent </title>
<polygon fill="#fb8072" stroke="#000000" points="375.3772,-317 246.6228,-317 246.6228,-281 375.3772,-281 375.3772,-317"/>
<text text-anchor="middle" x="311" y="-294.8" font-family="Times,serif" font-size="14.00" fill="#000000">XmlfileComponent </text>
</g>
<!-- XmlfileModule&#45;&gt;XmlfileComponent  -->
<g id="edge8" class="edge">
<title>XmlfileModule&#45;&gt;XmlfileComponent </title>
<path fill="none" stroke="#000000" stroke-dasharray="5,2" d="M311,-252.1061C311,-252.1061 311,-270.991 311,-270.991"/>
<polygon fill="#000000" stroke="#000000" points="307.5001,-270.9909 311,-280.991 314.5001,-270.991 307.5001,-270.9909"/>
</g>
<!-- XmlfileService -->
<g id="node3" class="node">
<title>XmlfileService</title>
<ellipse fill="#fdb462" stroke="#000000" cx="716" cy="-104" rx="70.0558" ry="18"/>
<text text-anchor="middle" x="716" y="-99.8" font-family="Times,serif" font-size="14.00" fill="#000000">XmlfileService</text>
</g>
<!-- XmlfileService&#45;&gt;XmlfileComponent -->
<g id="edge2" class="edge">
<title>XmlfileService&#45;&gt;XmlfileComponent</title>
<path fill="none" stroke="#000000" d="M716,-122.1061C716,-141.3391 716,-169 716,-169 716,-169 548.4307,-169 548.4307,-169"/>
<polygon fill="#000000" stroke="#000000" points="548.4307,-165.5001 538.4307,-169 548.4306,-172.5001 548.4307,-165.5001"/>
</g>
<!-- CommonHttpAdapterService -->
<g id="node4" class="node">
<title>CommonHttpAdapterService</title>
<ellipse fill="#fdb462" stroke="#000000" cx="504" cy="-104" rx="124.4186" ry="18"/>
<text text-anchor="middle" x="504" y="-99.8" font-family="Times,serif" font-size="14.00" fill="#000000">CommonHttpAdapterService</text>
</g>
<!-- CommonHttpAdapterService&#45;&gt;XmlfileComponent -->
<g id="edge3" class="edge">
<title>CommonHttpAdapterService&#45;&gt;XmlfileComponent</title>
<path fill="none" stroke="#000000" d="M507.2192,-122.1061C507.2192,-122.1061 507.2192,-140.991 507.2192,-140.991"/>
<polygon fill="#000000" stroke="#000000" points="503.7192,-140.9909 507.2192,-150.991 510.7192,-140.991 503.7192,-140.9909"/>
</g>
<!-- CommonHelperService -->
<g id="node5" class="node">
<title>CommonHelperService</title>
<ellipse fill="#fdb462" stroke="#000000" cx="260" cy="-104" rx="102.4275" ry="18"/>
<text text-anchor="middle" x="260" y="-99.8" font-family="Times,serif" font-size="14.00" fill="#000000">CommonHelperService</text>
</g>
<!-- CommonHelperService&#45;&gt;XmlfileComponent -->
<g id="edge4" class="edge">
<title>CommonHelperService&#45;&gt;XmlfileComponent</title>
<path fill="none" stroke="#000000" d="M297.0303,-120.9337C297.0303,-126.8303 297.0303,-132 297.0303,-132 297.0303,-132 476,-132 476,-132 476,-132 476,-140.9336 476,-140.9336"/>
<polygon fill="#000000" stroke="#000000" points="472.5001,-140.9335 476,-150.9336 479.5001,-140.9336 472.5001,-140.9335"/>
</g>
<!-- RxJSHelper -->
<g id="node6" class="node">
<title>RxJSHelper</title>
<ellipse fill="#fdb462" stroke="#000000" cx="82" cy="-104" rx="57.9023" ry="18"/>
<text text-anchor="middle" x="82" y="-99.8" font-family="Times,serif" font-size="14.00" fill="#000000">RxJSHelper</text>
</g>
<!-- RxJSHelper&#45;&gt;XmlfileComponent -->
<g id="edge5" class="edge">
<title>RxJSHelper&#45;&gt;XmlfileComponent</title>
<path fill="none" stroke="#000000" d="M95.8083,-121.665C95.8083,-131.5885 95.8083,-142 95.8083,-142 95.8083,-142 444.7809,-142 444.7809,-142 444.7809,-142 444.7809,-142.8841 444.7809,-142.8841"/>
<polygon fill="#000000" stroke="#000000" points="441.281,-140.8408 444.7809,-150.8408 448.281,-140.8409 441.281,-140.8408"/>
</g>
<!-- AuthorisedFooterModule -->
<g id="node7" class="node">
<title>AuthorisedFooterModule</title>
<polygon fill="#8dd3c7" stroke="#000000" points="390.3061,-187 387.3061,-191 366.3061,-191 363.3061,-187 231.6939,-187 231.6939,-151 390.3061,-151 390.3061,-187"/>
<text text-anchor="middle" x="311" y="-164.8" font-family="Times,serif" font-size="14.00" fill="#000000">AuthorisedFooterModule</text>
</g>
<!-- AuthorisedFooterModule&#45;&gt;XmlfileModule -->
<g id="edge6" class="edge">
<title>AuthorisedFooterModule&#45;&gt;XmlfileModule</title>
<path fill="none" stroke="#000000" d="M311,-187.1061C311,-187.1061 311,-205.991 311,-205.991"/>
<polygon fill="#000000" stroke="#000000" points="307.5001,-205.9909 311,-215.991 314.5001,-205.991 307.5001,-205.9909"/>
</g>
<!-- AuthorisedHeaderModule -->
<g id="node8" class="node">
<title>AuthorisedHeaderModule</title>
<polygon fill="#8dd3c7" stroke="#000000" points="214.1685,-187 211.1685,-191 190.1685,-191 187.1685,-187 51.8315,-187 51.8315,-151 214.1685,-151 214.1685,-187"/>
<text text-anchor="middle" x="133" y="-164.8" font-family="Times,serif" font-size="14.00" fill="#000000">AuthorisedHeaderModule</text>
</g>
<!-- AuthorisedHeaderModule&#45;&gt;XmlfileModule -->
<g id="edge7" class="edge">
<title>AuthorisedHeaderModule&#45;&gt;XmlfileModule</title>
<path fill="none" stroke="#000000" d="M133,-187.1061C133,-206.3391 133,-234 133,-234 133,-234 249.0365,-234 249.0365,-234"/>
<polygon fill="#000000" stroke="#000000" points="249.0366,-237.5001 259.0365,-234 249.0365,-230.5001 249.0366,-237.5001"/>
</g>
</g>
</svg>
