<?xml version="1.0" encoding="UTF-8" standalone="no"?>
<!DOCTYPE svg PUBLIC "-//W3C//DTD SVG 1.1//EN"
 "http://www.w3.org/Graphics/SVG/1.1/DTD/svg11.dtd">
<!-- Generated by graphviz version 2.40.1 (20161225.0304)
 -->
<!-- Title: dependencies Pages: 1 -->
<svg width="1275pt" height="284pt"
 viewBox="0.00 0.00 1275.00 284.00" xmlns="http://www.w3.org/2000/svg" xmlns:xlink="http://www.w3.org/1999/xlink">
<g id="graph0" class="graph" transform="scale(1 1) rotate(0) translate(4 280)">
<title>dependencies</title>
<polygon fill="#ffffff" stroke="transparent" points="-4,4 -4,-280 1271,-280 1271,4 -4,4"/>
<text text-anchor="start" x="612.5091" y="-42.4" font-family="sans-serif" font-weight="bold" font-size="14.00" fill="#000000">Legend</text>
<polygon fill="#ffffb3" stroke="transparent" points="399.5,-10 399.5,-30 419.5,-30 419.5,-10 399.5,-10"/>
<text text-anchor="start" x="423.129" y="-15.4" font-family="sans-serif" font-size="14.00" fill="#000000"> &#160;Declarations</text>
<polygon fill="#8dd3c7" stroke="transparent" points="512.5,-10 512.5,-30 532.5,-30 532.5,-10 512.5,-10"/>
<text text-anchor="start" x="536.2251" y="-15.4" font-family="sans-serif" font-size="14.00" fill="#000000"> &#160;Module</text>
<polygon fill="#80b1d3" stroke="transparent" points="598.5,-10 598.5,-30 618.5,-30 618.5,-10 598.5,-10"/>
<text text-anchor="start" x="622.2812" y="-15.4" font-family="sans-serif" font-size="14.00" fill="#000000"> &#160;Bootstrap</text>
<polygon fill="#fdb462" stroke="transparent" points="695.5,-10 695.5,-30 715.5,-30 715.5,-10 695.5,-10"/>
<text text-anchor="start" x="719.1732" y="-15.4" font-family="sans-serif" font-size="14.00" fill="#000000"> &#160;Providers</text>
<polygon fill="#fb8072" stroke="transparent" points="791.5,-10 791.5,-30 811.5,-30 811.5,-10 791.5,-10"/>
<text text-anchor="start" x="815.2258" y="-15.4" font-family="sans-serif" font-size="14.00" fill="#000000"> &#160;Exports</text>
<g id="clust1" class="cluster">
<title>cluster_PreviewPipeModule</title>
<polygon fill="none" stroke="#000000" stroke-dasharray="1,5" points="8,-70 8,-268 1259,-268 1259,-70 8,-70"/>
</g>
<g id="clust2" class="cluster">
<title>cluster_PreviewPipeModule_declarations</title>
<polygon fill="none" stroke="#000000" points="28,-78 28,-130 1243,-130 1243,-78 28,-78"/>
</g>
<g id="clust10" class="cluster">
<title>cluster_PreviewPipeModule_exports</title>
<polygon fill="none" stroke="#000000" points="16,-208 16,-260 1251,-260 1251,-208 16,-208"/>
</g>
<!-- NumberFormatWithCurrencySymbolPipe -->
<g id="node1" class="node">
<title>NumberFormatWithCurrencySymbolPipe</title>
<polygon fill="#ffffb3" stroke="#000000" points="1235.3458,-122 984.6542,-122 984.6542,-86 1235.3458,-86 1235.3458,-122"/>
<text text-anchor="middle" x="1110" y="-99.8" font-family="Times,serif" font-size="14.00" fill="#000000">NumberFormatWithCurrencySymbolPipe</text>
</g>
<!-- PreviewPipeModule -->
<g id="node7" class="node">
<title>PreviewPipeModule</title>
<polygon fill="#8dd3c7" stroke="#000000" points="436.3076,-187 433.3076,-191 412.3076,-191 409.3076,-187 305.6924,-187 305.6924,-151 436.3076,-151 436.3076,-187"/>
<text text-anchor="middle" x="371" y="-164.8" font-family="Times,serif" font-size="14.00" fill="#000000">PreviewPipeModule</text>
</g>
<!-- NumberFormatWithCurrencySymbolPipe&#45;&gt;PreviewPipeModule -->
<g id="edge1" class="edge">
<title>NumberFormatWithCurrencySymbolPipe&#45;&gt;PreviewPipeModule</title>
<path fill="none" stroke="#000000" d="M1153.2243,-122.2667C1153.2243,-140.5552 1153.2243,-166 1153.2243,-166 1153.2243,-166 446.3466,-166 446.3466,-166"/>
<polygon fill="#000000" stroke="#000000" points="446.3466,-162.5001 436.3466,-166 446.3465,-169.5001 446.3466,-162.5001"/>
</g>
<!-- NumberFormatWithoutCurrencySymbolPipe -->
<g id="node2" class="node">
<title>NumberFormatWithoutCurrencySymbolPipe</title>
<polygon fill="#ffffb3" stroke="#000000" points="966.2365,-122 697.7635,-122 697.7635,-86 966.2365,-86 966.2365,-122"/>
<text text-anchor="middle" x="832" y="-99.8" font-family="Times,serif" font-size="14.00" fill="#000000">NumberFormatWithoutCurrencySymbolPipe</text>
</g>
<!-- NumberFormatWithoutCurrencySymbolPipe&#45;&gt;PreviewPipeModule -->
<g id="edge2" class="edge">
<title>NumberFormatWithoutCurrencySymbolPipe&#45;&gt;PreviewPipeModule</title>
<path fill="none" stroke="#000000" d="M877.2061,-122.0091C877.2061,-138.0494 877.2061,-159 877.2061,-159 877.2061,-159 446.3998,-159 446.3998,-159"/>
<polygon fill="#000000" stroke="#000000" points="446.3998,-155.5001 436.3998,-159 446.3997,-162.5001 446.3998,-155.5001"/>
</g>
<!-- NumberWithZeroCurrencySymbolPipe -->
<g id="node3" class="node">
<title>NumberWithZeroCurrencySymbolPipe</title>
<polygon fill="#ffffb3" stroke="#000000" points="679.3347,-122 442.6653,-122 442.6653,-86 679.3347,-86 679.3347,-122"/>
<text text-anchor="middle" x="561" y="-99.8" font-family="Times,serif" font-size="14.00" fill="#000000">NumberWithZeroCurrencySymbolPipe</text>
</g>
<!-- NumberWithZeroCurrencySymbolPipe&#45;&gt;PreviewPipeModule -->
<g id="edge3" class="edge">
<title>NumberWithZeroCurrencySymbolPipe&#45;&gt;PreviewPipeModule</title>
<path fill="none" stroke="#000000" d="M442.3262,-104C434.8572,-104 430.2609,-104 430.2609,-104 430.2609,-104 430.2609,-140.8939 430.2609,-140.8939"/>
<polygon fill="#000000" stroke="#000000" points="426.761,-140.8938 430.2609,-150.8939 433.761,-140.8939 426.761,-140.8938"/>
</g>
<!-- ValidateDatePipe -->
<g id="node4" class="node">
<title>ValidateDatePipe</title>
<polygon fill="#ffffb3" stroke="#000000" points="424.2367,-122 309.7633,-122 309.7633,-86 424.2367,-86 424.2367,-122"/>
<text text-anchor="middle" x="367" y="-99.8" font-family="Times,serif" font-size="14.00" fill="#000000">ValidateDatePipe</text>
</g>
<!-- ValidateDatePipe&#45;&gt;PreviewPipeModule -->
<g id="edge4" class="edge">
<title>ValidateDatePipe&#45;&gt;PreviewPipeModule</title>
<path fill="none" stroke="#000000" d="M367,-122.1061C367,-122.1061 367,-140.991 367,-140.991"/>
<polygon fill="#000000" stroke="#000000" points="363.5001,-140.9909 367,-150.991 370.5001,-140.991 363.5001,-140.9909"/>
</g>
<!-- ValidateISINPipe -->
<g id="node5" class="node">
<title>ValidateISINPipe</title>
<polygon fill="#ffffb3" stroke="#000000" points="291.5214,-122 176.4786,-122 176.4786,-86 291.5214,-86 291.5214,-122"/>
<text text-anchor="middle" x="234" y="-99.8" font-family="Times,serif" font-size="14.00" fill="#000000">ValidateISINPipe</text>
</g>
<!-- ValidateISINPipe&#45;&gt;PreviewPipeModule -->
<g id="edge5" class="edge">
<title>ValidateISINPipe&#45;&gt;PreviewPipeModule</title>
<path fill="none" stroke="#000000" d="M249.7534,-122.0091C249.7534,-138.0494 249.7534,-159 249.7534,-159 249.7534,-159 295.7629,-159 295.7629,-159"/>
<polygon fill="#000000" stroke="#000000" points="295.7629,-162.5001 305.7629,-159 295.7628,-155.5001 295.7629,-162.5001"/>
</g>
<!-- ValidateValuePipe -->
<g id="node6" class="node">
<title>ValidateValuePipe</title>
<polygon fill="#ffffb3" stroke="#000000" points="157.7367,-122 36.2633,-122 36.2633,-86 157.7367,-86 157.7367,-122"/>
<text text-anchor="middle" x="97" y="-99.8" font-family="Times,serif" font-size="14.00" fill="#000000">ValidateValuePipe</text>
</g>
<!-- ValidateValuePipe&#45;&gt;PreviewPipeModule -->
<g id="edge6" class="edge">
<title>ValidateValuePipe&#45;&gt;PreviewPipeModule</title>
<path fill="none" stroke="#000000" d="M153.7432,-122.2667C153.7432,-140.5552 153.7432,-166 153.7432,-166 153.7432,-166 295.8158,-166 295.8158,-166"/>
<polygon fill="#000000" stroke="#000000" points="295.8158,-169.5001 305.8158,-166 295.8158,-162.5001 295.8158,-169.5001"/>
</g>
<!-- NumberFormatWithCurrencySymbolPipe  -->
<g id="node8" class="node">
<title>NumberFormatWithCurrencySymbolPipe </title>
<polygon fill="#fb8072" stroke="#000000" points="1243.346,-252 988.654,-252 988.654,-216 1243.346,-216 1243.346,-252"/>
<text text-anchor="middle" x="1116" y="-229.8" font-family="Times,serif" font-size="14.00" fill="#000000">NumberFormatWithCurrencySymbolPipe </text>
</g>
<!-- PreviewPipeModule&#45;&gt;NumberFormatWithCurrencySymbolPipe  -->
<g id="edge7" class="edge">
<title>PreviewPipeModule&#45;&gt;NumberFormatWithCurrencySymbolPipe </title>
<path fill="none" stroke="#000000" stroke-dasharray="5,2" d="M436.2281,-173C610.0096,-173 1071.0257,-173 1071.0257,-173 1071.0257,-173 1071.0257,-205.698 1071.0257,-205.698"/>
<polygon fill="#000000" stroke="#000000" points="1067.5258,-205.698 1071.0257,-215.698 1074.5258,-205.698 1067.5258,-205.698"/>
</g>
<!-- NumberFormatWithoutCurrencySymbolPipe  -->
<g id="node9" class="node">
<title>NumberFormatWithoutCurrencySymbolPipe </title>
<polygon fill="#fb8072" stroke="#000000" points="971.2365,-252 698.7635,-252 698.7635,-216 971.2365,-216 971.2365,-252"/>
<text text-anchor="middle" x="835" y="-229.8" font-family="Times,serif" font-size="14.00" fill="#000000">NumberFormatWithoutCurrencySymbolPipe </text>
</g>
<!-- PreviewPipeModule&#45;&gt;NumberFormatWithoutCurrencySymbolPipe  -->
<g id="edge8" class="edge">
<title>PreviewPipeModule&#45;&gt;NumberFormatWithoutCurrencySymbolPipe </title>
<path fill="none" stroke="#000000" stroke-dasharray="5,2" d="M436.1631,-180C553.4567,-180 788.0439,-180 788.0439,-180 788.0439,-180 788.0439,-205.7181 788.0439,-205.7181"/>
<polygon fill="#000000" stroke="#000000" points="784.544,-205.718 788.0439,-215.7181 791.544,-205.7181 784.544,-205.718"/>
</g>
<!-- NumberWithZeroCurrencySymbolPipe  -->
<g id="node10" class="node">
<title>NumberWithZeroCurrencySymbolPipe </title>
<polygon fill="#fb8072" stroke="#000000" points="681.3348,-252 440.6652,-252 440.6652,-216 681.3348,-216 681.3348,-252"/>
<text text-anchor="middle" x="561" y="-229.8" font-family="Times,serif" font-size="14.00" fill="#000000">NumberWithZeroCurrencySymbolPipe </text>
</g>
<!-- PreviewPipeModule&#45;&gt;NumberWithZeroCurrencySymbolPipe  -->
<g id="edge9" class="edge">
<title>PreviewPipeModule&#45;&gt;NumberWithZeroCurrencySymbolPipe </title>
<path fill="none" stroke="#000000" stroke-dasharray="5,2" d="M429.6359,-187.1061C429.6359,-206.3391 429.6359,-234 429.6359,-234 429.6359,-234 430.7109,-234 430.7109,-234"/>
<polygon fill="#000000" stroke="#000000" points="430.386,-237.5001 440.386,-234 430.3859,-230.5001 430.386,-237.5001"/>
</g>
<!-- ValidateDatePipe  -->
<g id="node11" class="node">
<title>ValidateDatePipe </title>
<polygon fill="#fb8072" stroke="#000000" points="423.2366,-252 304.7634,-252 304.7634,-216 423.2366,-216 423.2366,-252"/>
<text text-anchor="middle" x="364" y="-229.8" font-family="Times,serif" font-size="14.00" fill="#000000">ValidateDatePipe </text>
</g>
<!-- PreviewPipeModule&#45;&gt;ValidateDatePipe  -->
<g id="edge10" class="edge">
<title>PreviewPipeModule&#45;&gt;ValidateDatePipe </title>
<path fill="none" stroke="#000000" stroke-dasharray="5,2" d="M364.4823,-187.1061C364.4823,-187.1061 364.4823,-205.991 364.4823,-205.991"/>
<polygon fill="#000000" stroke="#000000" points="360.9824,-205.9909 364.4823,-215.991 367.9824,-205.991 360.9824,-205.9909"/>
</g>
<!-- ValidateISINPipe  -->
<g id="node12" class="node">
<title>ValidateISINPipe </title>
<polygon fill="#fb8072" stroke="#000000" points="286.5204,-252 167.4796,-252 167.4796,-216 286.5204,-216 286.5204,-252"/>
<text text-anchor="middle" x="227" y="-229.8" font-family="Times,serif" font-size="14.00" fill="#000000">ValidateISINPipe </text>
</g>
<!-- PreviewPipeModule&#45;&gt;ValidateISINPipe  -->
<g id="edge11" class="edge">
<title>PreviewPipeModule&#45;&gt;ValidateISINPipe </title>
<path fill="none" stroke="#000000" stroke-dasharray="5,2" d="M305.8217,-180C262.2979,-180 212.9966,-180 212.9966,-180 212.9966,-180 212.9966,-205.7181 212.9966,-205.7181"/>
<polygon fill="#000000" stroke="#000000" points="209.4967,-205.718 212.9966,-215.7181 216.4967,-205.7181 209.4967,-205.718"/>
</g>
<!-- ValidateValuePipe  -->
<g id="node13" class="node">
<title>ValidateValuePipe </title>
<polygon fill="#fb8072" stroke="#000000" points="149.7366,-252 24.2634,-252 24.2634,-216 149.7366,-216 149.7366,-252"/>
<text text-anchor="middle" x="87" y="-229.8" font-family="Times,serif" font-size="14.00" fill="#000000">ValidateValuePipe </text>
</g>
<!-- PreviewPipeModule&#45;&gt;ValidateValuePipe  -->
<g id="edge12" class="edge">
<title>PreviewPipeModule&#45;&gt;ValidateValuePipe </title>
<path fill="none" stroke="#000000" stroke-dasharray="5,2" d="M305.792,-173C223.5867,-173 92.875,-173 92.875,-173 92.875,-173 92.875,-205.698 92.875,-205.698"/>
<polygon fill="#000000" stroke="#000000" points="89.3751,-205.698 92.875,-215.698 96.3751,-205.698 89.3751,-205.698"/>
</g>
</g>
</svg>
