<?xml version="1.0" encoding="UTF-8" standalone="no"?>
<!DOCTYPE svg PUBLIC "-//W3C//DTD SVG 1.1//EN"
 "http://www.w3.org/Graphics/SVG/1.1/DTD/svg11.dtd">
<!-- Generated by graphviz version 2.40.1 (20161225.0304)
 -->
<!-- Title: dependencies Pages: 1 -->
<svg width="1136pt" height="349pt"
 viewBox="0.00 0.00 1136.00 349.00" xmlns="http://www.w3.org/2000/svg" xmlns:xlink="http://www.w3.org/1999/xlink">
<g id="graph0" class="graph" transform="scale(1 1) rotate(0) translate(4 345)">
<title>dependencies</title>
<polygon fill="#ffffff" stroke="transparent" points="-4,4 -4,-345 1132,-345 1132,4 -4,4"/>
<text text-anchor="start" x="543.0091" y="-42.4" font-family="sans-serif" font-weight="bold" font-size="14.00" fill="#000000">Legend</text>
<polygon fill="#ffffb3" stroke="transparent" points="330,-10 330,-30 350,-30 350,-10 330,-10"/>
<text text-anchor="start" x="353.629" y="-15.4" font-family="sans-serif" font-size="14.00" fill="#000000"> &#160;Declarations</text>
<polygon fill="#8dd3c7" stroke="transparent" points="443,-10 443,-30 463,-30 463,-10 443,-10"/>
<text text-anchor="start" x="466.7251" y="-15.4" font-family="sans-serif" font-size="14.00" fill="#000000"> &#160;Module</text>
<polygon fill="#80b1d3" stroke="transparent" points="529,-10 529,-30 549,-30 549,-10 529,-10"/>
<text text-anchor="start" x="552.7812" y="-15.4" font-family="sans-serif" font-size="14.00" fill="#000000"> &#160;Bootstrap</text>
<polygon fill="#fdb462" stroke="transparent" points="626,-10 626,-30 646,-30 646,-10 626,-10"/>
<text text-anchor="start" x="649.6732" y="-15.4" font-family="sans-serif" font-size="14.00" fill="#000000"> &#160;Providers</text>
<polygon fill="#fb8072" stroke="transparent" points="722,-10 722,-30 742,-30 742,-10 722,-10"/>
<text text-anchor="start" x="745.7258" y="-15.4" font-family="sans-serif" font-size="14.00" fill="#000000"> &#160;Exports</text>
<g id="clust1" class="cluster">
<title>cluster_XmlViewerModule</title>
<polygon fill="none" stroke="#000000" stroke-dasharray="1,5" points="8,-70 8,-333 1120,-333 1120,-70 8,-70"/>
</g>
<g id="clust2" class="cluster">
<title>cluster_XmlViewerModule_declarations</title>
<polygon fill="none" stroke="#000000" points="942,-143 942,-195 1112,-195 1112,-143 942,-143"/>
</g>
<g id="clust3" class="cluster">
<title>cluster_XmlViewerModule_XMLViewerComponent_providers</title>
<polygon fill="none" stroke="#000000" points="516,-78 516,-130 1112,-130 1112,-78 516,-78"/>
</g>
<g id="clust4" class="cluster">
<title>cluster_XmlViewerModule_imports</title>
<polygon fill="none" stroke="#000000" points="244,-143 244,-195 934,-195 934,-143 244,-143"/>
</g>
<g id="clust5" class="cluster">
<title>cluster_XmlViewerModule_exports</title>
<polygon fill="none" stroke="#000000" points="508,-273 508,-325 682,-325 682,-273 508,-273"/>
</g>
<g id="clust7" class="cluster">
<title>cluster_XmlViewerModule_providers</title>
<polygon fill="none" stroke="#000000" points="16,-143 16,-195 236,-195 236,-143 16,-143"/>
</g>
<!-- XMLViewerComponent -->
<g id="node1" class="node">
<title>XMLViewerComponent</title>
<polygon fill="#ffffb3" stroke="#000000" points="1103.6302,-187 950.3698,-187 950.3698,-151 1103.6302,-151 1103.6302,-187"/>
<text text-anchor="middle" x="1027" y="-164.8" font-family="Times,serif" font-size="14.00" fill="#000000">XMLViewerComponent</text>
</g>
<!-- XmlViewerModule -->
<g id="node2" class="node">
<title>XmlViewerModule</title>
<polygon fill="#8dd3c7" stroke="#000000" points="657.6317,-252 654.6317,-256 633.6317,-256 630.6317,-252 532.3683,-252 532.3683,-216 657.6317,-216 657.6317,-252"/>
<text text-anchor="middle" x="595" y="-229.8" font-family="Times,serif" font-size="14.00" fill="#000000">XmlViewerModule</text>
</g>
<!-- XMLViewerComponent&#45;&gt;XmlViewerModule -->
<g id="edge1" class="edge">
<title>XMLViewerComponent&#45;&gt;XmlViewerModule</title>
<path fill="none" stroke="#000000" d="M1027,-187.2843C1027,-208.3211 1027,-240 1027,-240 1027,-240 667.8165,-240 667.8165,-240"/>
<polygon fill="#000000" stroke="#000000" points="667.8165,-236.5001 657.8165,-240 667.8165,-243.5001 667.8165,-236.5001"/>
</g>
<!-- XMLViewerComponent  -->
<g id="node10" class="node">
<title>XMLViewerComponent </title>
<polygon fill="#fb8072" stroke="#000000" points="673.6299,-317 516.3701,-317 516.3701,-281 673.6299,-281 673.6299,-317"/>
<text text-anchor="middle" x="595" y="-294.8" font-family="Times,serif" font-size="14.00" fill="#000000">XMLViewerComponent </text>
</g>
<!-- XmlViewerModule&#45;&gt;XMLViewerComponent  -->
<g id="edge9" class="edge">
<title>XmlViewerModule&#45;&gt;XMLViewerComponent </title>
<path fill="none" stroke="#000000" stroke-dasharray="5,2" d="M595,-252.1061C595,-252.1061 595,-270.991 595,-270.991"/>
<polygon fill="#000000" stroke="#000000" points="591.5001,-270.9909 595,-280.991 598.5001,-270.991 591.5001,-270.9909"/>
</g>
<!-- XMLViewerService -->
<g id="node3" class="node">
<title>XMLViewerService</title>
<ellipse fill="#fdb462" stroke="#000000" cx="1014" cy="-104" rx="89.7229" ry="18"/>
<text text-anchor="middle" x="1014" y="-99.8" font-family="Times,serif" font-size="14.00" fill="#000000">XMLViewerService</text>
</g>
<!-- XMLViewerService&#45;&gt;XMLViewerComponent -->
<g id="edge2" class="edge">
<title>XMLViewerService&#45;&gt;XMLViewerComponent</title>
<path fill="none" stroke="#000000" d="M1065.4075,-119.0757C1065.4075,-119.0757 1065.4075,-140.7642 1065.4075,-140.7642"/>
<polygon fill="#000000" stroke="#000000" points="1061.9075,-140.7642 1065.4075,-150.7642 1068.9075,-140.7642 1061.9075,-140.7642"/>
</g>
<!-- CommonHttpAdapterService -->
<g id="node4" class="node">
<title>CommonHttpAdapterService</title>
<ellipse fill="#fdb462" stroke="#000000" cx="782" cy="-104" rx="124.4186" ry="18"/>
<text text-anchor="middle" x="782" y="-99.8" font-family="Times,serif" font-size="14.00" fill="#000000">CommonHttpAdapterService</text>
</g>
<!-- CommonHttpAdapterService&#45;&gt;XMLViewerComponent -->
<g id="edge3" class="edge">
<title>CommonHttpAdapterService&#45;&gt;XMLViewerComponent</title>
<path fill="none" stroke="#000000" d="M837.0281,-120.2877C837.0281,-126.4475 837.0281,-132 837.0281,-132 837.0281,-132 1027,-132 1027,-132 1027,-132 1027,-140.9336 1027,-140.9336"/>
<polygon fill="#000000" stroke="#000000" points="1023.5001,-140.9335 1027,-150.9336 1030.5001,-140.9336 1023.5001,-140.9335"/>
</g>
<!-- RxJSHelper -->
<g id="node5" class="node">
<title>RxJSHelper</title>
<ellipse fill="#fdb462" stroke="#000000" cx="582" cy="-104" rx="57.9023" ry="18"/>
<text text-anchor="middle" x="582" y="-99.8" font-family="Times,serif" font-size="14.00" fill="#000000">RxJSHelper</text>
</g>
<!-- RxJSHelper&#45;&gt;XMLViewerComponent -->
<g id="edge4" class="edge">
<title>RxJSHelper&#45;&gt;XMLViewerComponent</title>
<path fill="none" stroke="#000000" d="M613.8083,-119.0186C613.8083,-129.6403 613.8083,-142 613.8083,-142 613.8083,-142 988.5926,-142 988.5926,-142 988.5926,-142 988.5926,-142.8841 988.5926,-142.8841"/>
<polygon fill="#000000" stroke="#000000" points="985.0927,-140.8408 988.5926,-150.8408 992.0927,-140.8409 985.0927,-140.8408"/>
</g>
<!-- AuthorisedFooterModule -->
<g id="node6" class="node">
<title>AuthorisedFooterModule</title>
<polygon fill="#8dd3c7" stroke="#000000" points="926.3061,-187 923.3061,-191 902.3061,-191 899.3061,-187 767.6939,-187 767.6939,-151 926.3061,-151 926.3061,-187"/>
<text text-anchor="middle" x="847" y="-164.8" font-family="Times,serif" font-size="14.00" fill="#000000">AuthorisedFooterModule</text>
</g>
<!-- AuthorisedFooterModule&#45;&gt;XmlViewerModule -->
<g id="edge5" class="edge">
<title>AuthorisedFooterModule&#45;&gt;XmlViewerModule</title>
<path fill="none" stroke="#000000" d="M847,-187.0225C847,-204.3734 847,-228 847,-228 847,-228 667.9402,-228 667.9402,-228"/>
<polygon fill="#000000" stroke="#000000" points="667.9402,-224.5001 657.9402,-228 667.9402,-231.5001 667.9402,-224.5001"/>
</g>
<!-- AuthorisedHeaderModule -->
<g id="node7" class="node">
<title>AuthorisedHeaderModule</title>
<polygon fill="#8dd3c7" stroke="#000000" points="750.1685,-187 747.1685,-191 726.1685,-191 723.1685,-187 587.8315,-187 587.8315,-151 750.1685,-151 750.1685,-187"/>
<text text-anchor="middle" x="669" y="-164.8" font-family="Times,serif" font-size="14.00" fill="#000000">AuthorisedHeaderModule</text>
</g>
<!-- AuthorisedHeaderModule&#45;&gt;XmlViewerModule -->
<g id="edge6" class="edge">
<title>AuthorisedHeaderModule&#45;&gt;XmlViewerModule</title>
<path fill="none" stroke="#000000" d="M622.8657,-187.1061C622.8657,-187.1061 622.8657,-205.991 622.8657,-205.991"/>
<polygon fill="#000000" stroke="#000000" points="619.3658,-205.9909 622.8657,-215.991 626.3658,-205.991 619.3658,-205.9909"/>
</g>
<!-- SharedModule -->
<g id="node8" class="node">
<title>SharedModule</title>
<polygon fill="#8dd3c7" stroke="#000000" points="570.4231,-187 567.4231,-191 546.4231,-191 543.4231,-187 471.5769,-187 471.5769,-151 570.4231,-151 570.4231,-187"/>
<text text-anchor="middle" x="521" y="-164.8" font-family="Times,serif" font-size="14.00" fill="#000000">SharedModule</text>
</g>
<!-- SharedModule&#45;&gt;XmlViewerModule -->
<g id="edge7" class="edge">
<title>SharedModule&#45;&gt;XmlViewerModule</title>
<path fill="none" stroke="#000000" d="M551.1978,-187.1061C551.1978,-187.1061 551.1978,-205.991 551.1978,-205.991"/>
<polygon fill="#000000" stroke="#000000" points="547.6978,-205.9909 551.1978,-215.991 554.6978,-205.991 547.6978,-205.9909"/>
</g>
<!-- XMLViewerAppRoutingModule -->
<g id="node9" class="node">
<title>XMLViewerAppRoutingModule</title>
<polygon fill="#8dd3c7" stroke="#000000" points="453.5716,-187 450.5716,-191 429.5716,-191 426.5716,-187 252.4284,-187 252.4284,-151 453.5716,-151 453.5716,-187"/>
<text text-anchor="middle" x="353" y="-164.8" font-family="Times,serif" font-size="14.00" fill="#000000">XMLViewerAppRoutingModule</text>
</g>
<!-- XMLViewerAppRoutingModule&#45;&gt;XmlViewerModule -->
<g id="edge8" class="edge">
<title>XMLViewerAppRoutingModule&#45;&gt;XmlViewerModule</title>
<path fill="none" stroke="#000000" d="M353,-187.0225C353,-204.3734 353,-228 353,-228 353,-228 522.3643,-228 522.3643,-228"/>
<polygon fill="#000000" stroke="#000000" points="522.3643,-231.5001 532.3643,-228 522.3642,-224.5001 522.3643,-231.5001"/>
</g>
<!-- CommonHelperService -->
<g id="node11" class="node">
<title>CommonHelperService</title>
<ellipse fill="#fdb462" stroke="#000000" cx="126" cy="-169" rx="102.4275" ry="18"/>
<text text-anchor="middle" x="126" y="-164.8" font-family="Times,serif" font-size="14.00" fill="#000000">CommonHelperService</text>
</g>
<!-- CommonHelperService&#45;&gt;XmlViewerModule -->
<g id="edge10" class="edge">
<title>CommonHelperService&#45;&gt;XmlViewerModule</title>
<path fill="none" stroke="#000000" d="M126,-187.2843C126,-208.3211 126,-240 126,-240 126,-240 522.2352,-240 522.2352,-240"/>
<polygon fill="#000000" stroke="#000000" points="522.2353,-243.5001 532.2352,-240 522.2352,-236.5001 522.2353,-243.5001"/>
</g>
</g>
</svg>
