<?xml version="1.0" encoding="UTF-8" standalone="no"?>
<!DOCTYPE svg PUBLIC "-//W3C//DTD SVG 1.1//EN"
 "http://www.w3.org/Graphics/SVG/1.1/DTD/svg11.dtd">
<!-- Generated by graphviz version 2.40.1 (20161225.0304)
 -->
<!-- Title: dependencies Pages: 1 -->
<svg width="902pt" height="284pt"
 viewBox="0.00 0.00 902.00 284.00" xmlns="http://www.w3.org/2000/svg" xmlns:xlink="http://www.w3.org/1999/xlink">
<g id="graph0" class="graph" transform="scale(1 1) rotate(0) translate(4 280)">
<title>dependencies</title>
<polygon fill="#ffffff" stroke="transparent" points="-4,4 -4,-280 898,-280 898,4 -4,4"/>
<text text-anchor="start" x="426.0091" y="-42.4" font-family="sans-serif" font-weight="bold" font-size="14.00" fill="#000000">Legend</text>
<polygon fill="#ffffb3" stroke="transparent" points="213,-10 213,-30 233,-30 233,-10 213,-10"/>
<text text-anchor="start" x="236.629" y="-15.4" font-family="sans-serif" font-size="14.00" fill="#000000"> &#160;Declarations</text>
<polygon fill="#8dd3c7" stroke="transparent" points="326,-10 326,-30 346,-30 346,-10 326,-10"/>
<text text-anchor="start" x="349.7251" y="-15.4" font-family="sans-serif" font-size="14.00" fill="#000000"> &#160;Module</text>
<polygon fill="#80b1d3" stroke="transparent" points="412,-10 412,-30 432,-30 432,-10 412,-10"/>
<text text-anchor="start" x="435.7812" y="-15.4" font-family="sans-serif" font-size="14.00" fill="#000000"> &#160;Bootstrap</text>
<polygon fill="#fdb462" stroke="transparent" points="509,-10 509,-30 529,-30 529,-10 509,-10"/>
<text text-anchor="start" x="532.6732" y="-15.4" font-family="sans-serif" font-size="14.00" fill="#000000"> &#160;Providers</text>
<polygon fill="#fb8072" stroke="transparent" points="605,-10 605,-30 625,-30 625,-10 605,-10"/>
<text text-anchor="start" x="628.7258" y="-15.4" font-family="sans-serif" font-size="14.00" fill="#000000"> &#160;Exports</text>
<g id="clust1" class="cluster">
<title>cluster_SharedModule</title>
<polygon fill="none" stroke="#000000" stroke-dasharray="1,5" points="8,-70 8,-268 886,-268 886,-70 8,-70"/>
</g>
<g id="clust2" class="cluster">
<title>cluster_SharedModule_declarations</title>
<polygon fill="none" stroke="#000000" points="204,-78 204,-130 878,-130 878,-78 204,-78"/>
</g>
<g id="clust7" class="cluster">
<title>cluster_SharedModule_imports</title>
<polygon fill="none" stroke="#000000" points="16,-78 16,-130 196,-130 196,-78 16,-78"/>
</g>
<g id="clust8" class="cluster">
<title>cluster_SharedModule_exports</title>
<polygon fill="none" stroke="#000000" points="119,-208 119,-260 807,-260 807,-208 119,-208"/>
</g>
<!-- CommonNotificationComponent -->
<g id="node1" class="node">
<title>CommonNotificationComponent</title>
<polygon fill="#ffffb3" stroke="#000000" points="869.5996,-122 668.4004,-122 668.4004,-86 869.5996,-86 869.5996,-122"/>
<text text-anchor="middle" x="769" y="-99.8" font-family="Times,serif" font-size="14.00" fill="#000000">CommonNotificationComponent</text>
</g>
<!-- SharedModule -->
<g id="node5" class="node">
<title>SharedModule</title>
<polygon fill="#8dd3c7" stroke="#000000" points="493.4231,-187 490.4231,-191 469.4231,-191 466.4231,-187 394.5769,-187 394.5769,-151 493.4231,-151 493.4231,-187"/>
<text text-anchor="middle" x="444" y="-164.8" font-family="Times,serif" font-size="14.00" fill="#000000">SharedModule</text>
</g>
<!-- CommonNotificationComponent&#45;&gt;SharedModule -->
<g id="edge1" class="edge">
<title>CommonNotificationComponent&#45;&gt;SharedModule</title>
<path fill="none" stroke="#000000" d="M733.875,-122.1061C733.875,-141.3391 733.875,-169 733.875,-169 733.875,-169 503.5019,-169 503.5019,-169"/>
<polygon fill="#000000" stroke="#000000" points="503.502,-165.5001 493.5019,-169 503.5019,-172.5001 503.502,-165.5001"/>
</g>
<!-- DeleteComponent -->
<g id="node2" class="node">
<title>DeleteComponent</title>
<polygon fill="#ffffb3" stroke="#000000" points="650.8641,-122 533.1359,-122 533.1359,-86 650.8641,-86 650.8641,-122"/>
<text text-anchor="middle" x="592" y="-99.8" font-family="Times,serif" font-size="14.00" fill="#000000">DeleteComponent</text>
</g>
<!-- DeleteComponent&#45;&gt;SharedModule -->
<g id="edge2" class="edge">
<title>DeleteComponent&#45;&gt;SharedModule</title>
<path fill="none" stroke="#000000" d="M554.875,-122.027C554.875,-138.3976 554.875,-160 554.875,-160 554.875,-160 503.2771,-160 503.2771,-160"/>
<polygon fill="#000000" stroke="#000000" points="503.2771,-156.5001 493.2771,-160 503.277,-163.5001 503.2771,-156.5001"/>
</g>
<!-- DropdownComponent -->
<g id="node3" class="node">
<title>DropdownComponent</title>
<polygon fill="#ffffb3" stroke="#000000" points="514.7064,-122 373.2936,-122 373.2936,-86 514.7064,-86 514.7064,-122"/>
<text text-anchor="middle" x="444" y="-99.8" font-family="Times,serif" font-size="14.00" fill="#000000">DropdownComponent</text>
</g>
<!-- DropdownComponent&#45;&gt;SharedModule -->
<g id="edge3" class="edge">
<title>DropdownComponent&#45;&gt;SharedModule</title>
<path fill="none" stroke="#000000" d="M444,-122.1061C444,-122.1061 444,-140.991 444,-140.991"/>
<polygon fill="#000000" stroke="#000000" points="440.5001,-140.9909 444,-150.991 447.5001,-140.991 440.5001,-140.9909"/>
</g>
<!-- NewPolicyComponent -->
<g id="node4" class="node">
<title>NewPolicyComponent</title>
<polygon fill="#ffffb3" stroke="#000000" points="355.5393,-122 212.4607,-122 212.4607,-86 355.5393,-86 355.5393,-122"/>
<text text-anchor="middle" x="284" y="-99.8" font-family="Times,serif" font-size="14.00" fill="#000000">NewPolicyComponent</text>
</g>
<!-- NewPolicyComponent&#45;&gt;SharedModule -->
<g id="edge4" class="edge">
<title>NewPolicyComponent&#45;&gt;SharedModule</title>
<path fill="none" stroke="#000000" d="M324.2081,-122.027C324.2081,-138.3976 324.2081,-160 324.2081,-160 324.2081,-160 384.5844,-160 384.5844,-160"/>
<polygon fill="#000000" stroke="#000000" points="384.5845,-163.5001 394.5844,-160 384.5844,-156.5001 384.5845,-163.5001"/>
</g>
<!-- CommonNotificationComponent  -->
<g id="node7" class="node">
<title>CommonNotificationComponent </title>
<polygon fill="#fb8072" stroke="#000000" points="799.1,-252 594.9,-252 594.9,-216 799.1,-216 799.1,-252"/>
<text text-anchor="middle" x="697" y="-229.8" font-family="Times,serif" font-size="14.00" fill="#000000">CommonNotificationComponent </text>
</g>
<!-- SharedModule&#45;&gt;CommonNotificationComponent  -->
<g id="edge6" class="edge">
<title>SharedModule&#45;&gt;CommonNotificationComponent </title>
<path fill="none" stroke="#000000" stroke-dasharray="5,2" d="M493.3356,-178C546.2641,-178 622.8161,-178 622.8161,-178 622.8161,-178 622.8161,-205.973 622.8161,-205.973"/>
<polygon fill="#000000" stroke="#000000" points="619.3162,-205.973 622.8161,-215.973 626.3162,-205.973 619.3162,-205.973"/>
</g>
<!-- DeleteComponent  -->
<g id="node8" class="node">
<title>DeleteComponent </title>
<polygon fill="#fb8072" stroke="#000000" points="576.8645,-252 455.1355,-252 455.1355,-216 576.8645,-216 576.8645,-252"/>
<text text-anchor="middle" x="516" y="-229.8" font-family="Times,serif" font-size="14.00" fill="#000000">DeleteComponent </text>
</g>
<!-- SharedModule&#45;&gt;DeleteComponent  -->
<g id="edge7" class="edge">
<title>SharedModule&#45;&gt;DeleteComponent </title>
<path fill="none" stroke="#000000" stroke-dasharray="5,2" d="M474.2646,-187.1061C474.2646,-187.1061 474.2646,-205.991 474.2646,-205.991"/>
<polygon fill="#000000" stroke="#000000" points="470.7646,-205.9909 474.2646,-215.991 477.7646,-205.991 470.7646,-205.9909"/>
</g>
<!-- DropdownComponent  -->
<g id="node9" class="node">
<title>DropdownComponent </title>
<polygon fill="#fb8072" stroke="#000000" points="437.2065,-252 292.7935,-252 292.7935,-216 437.2065,-216 437.2065,-252"/>
<text text-anchor="middle" x="365" y="-229.8" font-family="Times,serif" font-size="14.00" fill="#000000">DropdownComponent </text>
</g>
<!-- SharedModule&#45;&gt;DropdownComponent  -->
<g id="edge8" class="edge">
<title>SharedModule&#45;&gt;DropdownComponent </title>
<path fill="none" stroke="#000000" stroke-dasharray="5,2" d="M416.071,-187.1061C416.071,-187.1061 416.071,-205.991 416.071,-205.991"/>
<polygon fill="#000000" stroke="#000000" points="412.5711,-205.9909 416.071,-215.991 419.5711,-205.991 412.5711,-205.9909"/>
</g>
<!-- NewPolicyComponent  -->
<g id="node10" class="node">
<title>NewPolicyComponent </title>
<polygon fill="#fb8072" stroke="#000000" points="274.5386,-252 127.4614,-252 127.4614,-216 274.5386,-216 274.5386,-252"/>
<text text-anchor="middle" x="201" y="-229.8" font-family="Times,serif" font-size="14.00" fill="#000000">NewPolicyComponent </text>
</g>
<!-- SharedModule&#45;&gt;NewPolicyComponent  -->
<g id="edge9" class="edge">
<title>SharedModule&#45;&gt;NewPolicyComponent </title>
<path fill="none" stroke="#000000" stroke-dasharray="5,2" d="M394.6647,-178C335.2615,-178 243.375,-178 243.375,-178 243.375,-178 243.375,-205.973 243.375,-205.973"/>
<polygon fill="#000000" stroke="#000000" points="239.8751,-205.973 243.375,-215.973 246.8751,-205.973 239.8751,-205.973"/>
</g>
<!-- CommonDirectiveModule -->
<g id="node6" class="node">
<title>CommonDirectiveModule</title>
<polygon fill="#8dd3c7" stroke="#000000" points="187.7506,-122 184.7506,-126 163.7506,-126 160.7506,-122 24.2494,-122 24.2494,-86 187.7506,-86 187.7506,-122"/>
<text text-anchor="middle" x="106" y="-99.8" font-family="Times,serif" font-size="14.00" fill="#000000">CommonDirectiveModule</text>
</g>
<!-- CommonDirectiveModule&#45;&gt;SharedModule -->
<g id="edge5" class="edge">
<title>CommonDirectiveModule&#45;&gt;SharedModule</title>
<path fill="none" stroke="#000000" d="M157.678,-122.1061C157.678,-141.3391 157.678,-169 157.678,-169 157.678,-169 384.7795,-169 384.7795,-169"/>
<polygon fill="#000000" stroke="#000000" points="384.7795,-172.5001 394.7795,-169 384.7794,-165.5001 384.7795,-172.5001"/>
</g>
</g>
</svg>
