<?xml version="1.0" encoding="UTF-8" standalone="no"?>
<!DOCTYPE svg PUBLIC "-//W3C//DTD SVG 1.1//EN"
 "http://www.w3.org/Graphics/SVG/1.1/DTD/svg11.dtd">
<!-- Generated by graphviz version 2.40.1 (20161225.0304)
 -->
<!-- Title: dependencies Pages: 1 -->
<svg width="1148pt" height="349pt"
 viewBox="0.00 0.00 1148.00 349.00" xmlns="http://www.w3.org/2000/svg" xmlns:xlink="http://www.w3.org/1999/xlink">
<g id="graph0" class="graph" transform="scale(1 1) rotate(0) translate(4 345)">
<title>dependencies</title>
<polygon fill="#ffffff" stroke="transparent" points="-4,4 -4,-345 1144,-345 1144,4 -4,4"/>
<text text-anchor="start" x="549.0091" y="-42.4" font-family="sans-serif" font-weight="bold" font-size="14.00" fill="#000000">Legend</text>
<polygon fill="#ffffb3" stroke="transparent" points="336,-10 336,-30 356,-30 356,-10 336,-10"/>
<text text-anchor="start" x="359.629" y="-15.4" font-family="sans-serif" font-size="14.00" fill="#000000"> &#160;Declarations</text>
<polygon fill="#8dd3c7" stroke="transparent" points="449,-10 449,-30 469,-30 469,-10 449,-10"/>
<text text-anchor="start" x="472.7251" y="-15.4" font-family="sans-serif" font-size="14.00" fill="#000000"> &#160;Module</text>
<polygon fill="#80b1d3" stroke="transparent" points="535,-10 535,-30 555,-30 555,-10 535,-10"/>
<text text-anchor="start" x="558.7812" y="-15.4" font-family="sans-serif" font-size="14.00" fill="#000000"> &#160;Bootstrap</text>
<polygon fill="#fdb462" stroke="transparent" points="632,-10 632,-30 652,-30 652,-10 632,-10"/>
<text text-anchor="start" x="655.6732" y="-15.4" font-family="sans-serif" font-size="14.00" fill="#000000"> &#160;Providers</text>
<polygon fill="#fb8072" stroke="transparent" points="728,-10 728,-30 748,-30 748,-10 728,-10"/>
<text text-anchor="start" x="751.7258" y="-15.4" font-family="sans-serif" font-size="14.00" fill="#000000"> &#160;Exports</text>
<g id="clust1" class="cluster">
<title>cluster_PreviewModule</title>
<polygon fill="none" stroke="#000000" stroke-dasharray="1,5" points="8,-70 8,-333 1132,-333 1132,-70 8,-70"/>
</g>
<g id="clust2" class="cluster">
<title>cluster_PreviewModule_declarations</title>
<polygon fill="none" stroke="#000000" points="980,-143 980,-195 1124,-195 1124,-143 980,-143"/>
</g>
<g id="clust3" class="cluster">
<title>cluster_PreviewModule_PreviewComponent_providers</title>
<polygon fill="none" stroke="#000000" points="394,-78 394,-130 1124,-130 1124,-78 394,-78"/>
</g>
<g id="clust4" class="cluster">
<title>cluster_PreviewModule_imports</title>
<polygon fill="none" stroke="#000000" points="244,-143 244,-195 972,-195 972,-143 244,-143"/>
</g>
<g id="clust5" class="cluster">
<title>cluster_PreviewModule_exports</title>
<polygon fill="none" stroke="#000000" points="543,-273 543,-325 689,-325 689,-273 543,-273"/>
</g>
<g id="clust7" class="cluster">
<title>cluster_PreviewModule_providers</title>
<polygon fill="none" stroke="#000000" points="16,-143 16,-195 236,-195 236,-143 16,-143"/>
</g>
<!-- PreviewComponent -->
<g id="node1" class="node">
<title>PreviewComponent</title>
<polygon fill="#ffffb3" stroke="#000000" points="1115.7022,-187 988.2978,-187 988.2978,-151 1115.7022,-151 1115.7022,-187"/>
<text text-anchor="middle" x="1052" y="-164.8" font-family="Times,serif" font-size="14.00" fill="#000000">PreviewComponent</text>
</g>
<!-- PreviewModule -->
<g id="node2" class="node">
<title>PreviewModule</title>
<polygon fill="#8dd3c7" stroke="#000000" points="668.9202,-252 665.9202,-256 644.9202,-256 641.9202,-252 563.0798,-252 563.0798,-216 668.9202,-216 668.9202,-252"/>
<text text-anchor="middle" x="616" y="-229.8" font-family="Times,serif" font-size="14.00" fill="#000000">PreviewModule</text>
</g>
<!-- PreviewComponent&#45;&gt;PreviewModule -->
<g id="edge1" class="edge">
<title>PreviewComponent&#45;&gt;PreviewModule</title>
<path fill="none" stroke="#000000" d="M1052,-187.2843C1052,-208.3211 1052,-240 1052,-240 1052,-240 679.0263,-240 679.0263,-240"/>
<polygon fill="#000000" stroke="#000000" points="679.0263,-236.5001 669.0263,-240 679.0262,-243.5001 679.0263,-236.5001"/>
</g>
<!-- PreviewComponent  -->
<g id="node11" class="node">
<title>PreviewComponent </title>
<polygon fill="#fb8072" stroke="#000000" points="681.2023,-317 550.7977,-317 550.7977,-281 681.2023,-281 681.2023,-317"/>
<text text-anchor="middle" x="616" y="-294.8" font-family="Times,serif" font-size="14.00" fill="#000000">PreviewComponent </text>
</g>
<!-- PreviewModule&#45;&gt;PreviewComponent  -->
<g id="edge10" class="edge">
<title>PreviewModule&#45;&gt;PreviewComponent </title>
<path fill="none" stroke="#000000" stroke-dasharray="5,2" d="M616,-252.1061C616,-252.1061 616,-270.991 616,-270.991"/>
<polygon fill="#000000" stroke="#000000" points="612.5001,-270.9909 616,-280.991 619.5001,-270.991 612.5001,-270.9909"/>
</g>
<!-- PreviewService -->
<g id="node3" class="node">
<title>PreviewService</title>
<ellipse fill="#fdb462" stroke="#000000" cx="1044" cy="-104" rx="71.7641" ry="18"/>
<text text-anchor="middle" x="1044" y="-99.8" font-family="Times,serif" font-size="14.00" fill="#000000">PreviewService</text>
</g>
<!-- PreviewService&#45;&gt;PreviewComponent -->
<g id="edge2" class="edge">
<title>PreviewService&#45;&gt;PreviewComponent</title>
<path fill="none" stroke="#000000" d="M1083.8005,-119.0757C1083.8005,-119.0757 1083.8005,-140.7642 1083.8005,-140.7642"/>
<polygon fill="#000000" stroke="#000000" points="1080.3006,-140.7642 1083.8005,-150.7642 1087.3006,-140.7642 1080.3006,-140.7642"/>
</g>
<!-- CommonHttpAdapterService -->
<g id="node4" class="node">
<title>CommonHttpAdapterService</title>
<ellipse fill="#fdb462" stroke="#000000" cx="830" cy="-104" rx="124.4186" ry="18"/>
<text text-anchor="middle" x="830" y="-99.8" font-family="Times,serif" font-size="14.00" fill="#000000">CommonHttpAdapterService</text>
</g>
<!-- CommonHttpAdapterService&#45;&gt;PreviewComponent -->
<g id="edge3" class="edge">
<title>CommonHttpAdapterService&#45;&gt;PreviewComponent</title>
<path fill="none" stroke="#000000" d="M954.2425,-104C962.8803,-104 968.2605,-104 968.2605,-104 968.2605,-104 968.2605,-169 968.2605,-169 968.2605,-169 978.1056,-169 978.1056,-169"/>
<polygon fill="#000000" stroke="#000000" points="978.1056,-172.5001 988.1056,-169 978.1056,-165.5001 978.1056,-172.5001"/>
</g>
<!-- CommonService -->
<g id="node5" class="node">
<title>CommonService</title>
<ellipse fill="#fdb462" stroke="#000000" cx="612" cy="-104" rx="75.8836" ry="18"/>
<text text-anchor="middle" x="612" y="-99.8" font-family="Times,serif" font-size="14.00" fill="#000000">CommonService</text>
</g>
<!-- CommonService&#45;&gt;PreviewComponent -->
<g id="edge4" class="edge">
<title>CommonService&#45;&gt;PreviewComponent</title>
<path fill="none" stroke="#000000" d="M656.9288,-118.656C656.9288,-125.4307 656.9288,-132 656.9288,-132 656.9288,-132 1052,-132 1052,-132 1052,-132 1052,-140.9336 1052,-140.9336"/>
<polygon fill="#000000" stroke="#000000" points="1048.5001,-140.9335 1052,-150.9336 1055.5001,-140.9336 1048.5001,-140.9335"/>
</g>
<!-- RxJSHelper -->
<g id="node6" class="node">
<title>RxJSHelper</title>
<ellipse fill="#fdb462" stroke="#000000" cx="460" cy="-104" rx="57.9023" ry="18"/>
<text text-anchor="middle" x="460" y="-99.8" font-family="Times,serif" font-size="14.00" fill="#000000">RxJSHelper</text>
</g>
<!-- RxJSHelper&#45;&gt;PreviewComponent -->
<g id="edge5" class="edge">
<title>RxJSHelper&#45;&gt;PreviewComponent</title>
<path fill="none" stroke="#000000" d="M480.9128,-120.778C480.9128,-130.9576 480.9128,-142 480.9128,-142 480.9128,-142 1020.1995,-142 1020.1995,-142 1020.1995,-142 1020.1995,-142.8841 1020.1995,-142.8841"/>
<polygon fill="#000000" stroke="#000000" points="1016.6996,-140.8408 1020.1995,-150.8408 1023.6996,-140.8409 1016.6996,-140.8408"/>
</g>
<!-- AuthorisedFooterModule -->
<g id="node7" class="node">
<title>AuthorisedFooterModule</title>
<polygon fill="#8dd3c7" stroke="#000000" points="964.3061,-187 961.3061,-191 940.3061,-191 937.3061,-187 805.6939,-187 805.6939,-151 964.3061,-151 964.3061,-187"/>
<text text-anchor="middle" x="885" y="-164.8" font-family="Times,serif" font-size="14.00" fill="#000000">AuthorisedFooterModule</text>
</g>
<!-- AuthorisedFooterModule&#45;&gt;PreviewModule -->
<g id="edge6" class="edge">
<title>AuthorisedFooterModule&#45;&gt;PreviewModule</title>
<path fill="none" stroke="#000000" d="M885,-187.0225C885,-204.3734 885,-228 885,-228 885,-228 678.8248,-228 678.8248,-228"/>
<polygon fill="#000000" stroke="#000000" points="678.8248,-224.5001 668.8248,-228 678.8247,-231.5001 678.8248,-224.5001"/>
</g>
<!-- AuthorisedHeaderModule -->
<g id="node8" class="node">
<title>AuthorisedHeaderModule</title>
<polygon fill="#8dd3c7" stroke="#000000" points="788.1685,-187 785.1685,-191 764.1685,-191 761.1685,-187 625.8315,-187 625.8315,-151 788.1685,-151 788.1685,-187"/>
<text text-anchor="middle" x="707" y="-164.8" font-family="Times,serif" font-size="14.00" fill="#000000">AuthorisedHeaderModule</text>
</g>
<!-- AuthorisedHeaderModule&#45;&gt;PreviewModule -->
<g id="edge7" class="edge">
<title>AuthorisedHeaderModule&#45;&gt;PreviewModule</title>
<path fill="none" stroke="#000000" d="M647.3128,-187.1061C647.3128,-187.1061 647.3128,-205.991 647.3128,-205.991"/>
<polygon fill="#000000" stroke="#000000" points="643.8128,-205.9909 647.3128,-215.991 650.8128,-205.991 643.8128,-205.9909"/>
</g>
<!-- CommonDirectiveModule -->
<g id="node9" class="node">
<title>CommonDirectiveModule</title>
<polygon fill="#8dd3c7" stroke="#000000" points="607.7506,-187 604.7506,-191 583.7506,-191 580.7506,-187 444.2494,-187 444.2494,-151 607.7506,-151 607.7506,-187"/>
<text text-anchor="middle" x="526" y="-164.8" font-family="Times,serif" font-size="14.00" fill="#000000">CommonDirectiveModule</text>
</g>
<!-- CommonDirectiveModule&#45;&gt;PreviewModule -->
<g id="edge8" class="edge">
<title>CommonDirectiveModule&#45;&gt;PreviewModule</title>
<path fill="none" stroke="#000000" d="M585.5828,-187.1061C585.5828,-187.1061 585.5828,-205.991 585.5828,-205.991"/>
<polygon fill="#000000" stroke="#000000" points="582.0828,-205.9909 585.5828,-215.991 589.0828,-205.991 582.0828,-205.9909"/>
</g>
<!-- PreviewAppRoutingModule -->
<g id="node10" class="node">
<title>PreviewAppRoutingModule</title>
<polygon fill="#8dd3c7" stroke="#000000" points="426.1442,-187 423.1442,-191 402.1442,-191 399.1442,-187 251.8558,-187 251.8558,-151 426.1442,-151 426.1442,-187"/>
<text text-anchor="middle" x="339" y="-164.8" font-family="Times,serif" font-size="14.00" fill="#000000">PreviewAppRoutingModule</text>
</g>
<!-- PreviewAppRoutingModule&#45;&gt;PreviewModule -->
<g id="edge9" class="edge">
<title>PreviewAppRoutingModule&#45;&gt;PreviewModule</title>
<path fill="none" stroke="#000000" d="M339,-187.0225C339,-204.3734 339,-228 339,-228 339,-228 553.2464,-228 553.2464,-228"/>
<polygon fill="#000000" stroke="#000000" points="553.2465,-231.5001 563.2464,-228 553.2464,-224.5001 553.2465,-231.5001"/>
</g>
<!-- CommonHelperService -->
<g id="node12" class="node">
<title>CommonHelperService</title>
<ellipse fill="#fdb462" stroke="#000000" cx="126" cy="-169" rx="102.4275" ry="18"/>
<text text-anchor="middle" x="126" y="-164.8" font-family="Times,serif" font-size="14.00" fill="#000000">CommonHelperService</text>
</g>
<!-- CommonHelperService&#45;&gt;PreviewModule -->
<g id="edge11" class="edge">
<title>CommonHelperService&#45;&gt;PreviewModule</title>
<path fill="none" stroke="#000000" d="M126,-187.2843C126,-208.3211 126,-240 126,-240 126,-240 553.0959,-240 553.0959,-240"/>
<polygon fill="#000000" stroke="#000000" points="553.0959,-243.5001 563.0959,-240 553.0958,-236.5001 553.0959,-243.5001"/>
</g>
</g>
</svg>
