<?xml version="1.0" encoding="UTF-8" standalone="no"?>
<!DOCTYPE svg PUBLIC "-//W3C//DTD SVG 1.1//EN"
 "http://www.w3.org/Graphics/SVG/1.1/DTD/svg11.dtd">
<!-- Generated by graphviz version 2.40.1 (20161225.0304)
 -->
<!-- Title: dependencies Pages: 1 -->
<svg width="1368pt" height="284pt"
 viewBox="0.00 0.00 1368.00 284.00" xmlns="http://www.w3.org/2000/svg" xmlns:xlink="http://www.w3.org/1999/xlink">
<g id="graph0" class="graph" transform="scale(1 1) rotate(0) translate(4 280)">
<title>dependencies</title>
<polygon fill="#ffffff" stroke="transparent" points="-4,4 -4,-280 1364,-280 1364,4 -4,4"/>
<text text-anchor="start" x="659.0091" y="-42.4" font-family="sans-serif" font-weight="bold" font-size="14.00" fill="#000000">Legend</text>
<polygon fill="#ffffb3" stroke="transparent" points="446,-10 446,-30 466,-30 466,-10 446,-10"/>
<text text-anchor="start" x="469.629" y="-15.4" font-family="sans-serif" font-size="14.00" fill="#000000"> &#160;Declarations</text>
<polygon fill="#8dd3c7" stroke="transparent" points="559,-10 559,-30 579,-30 579,-10 559,-10"/>
<text text-anchor="start" x="582.7251" y="-15.4" font-family="sans-serif" font-size="14.00" fill="#000000"> &#160;Module</text>
<polygon fill="#80b1d3" stroke="transparent" points="645,-10 645,-30 665,-30 665,-10 645,-10"/>
<text text-anchor="start" x="668.7812" y="-15.4" font-family="sans-serif" font-size="14.00" fill="#000000"> &#160;Bootstrap</text>
<polygon fill="#fdb462" stroke="transparent" points="742,-10 742,-30 762,-30 762,-10 742,-10"/>
<text text-anchor="start" x="765.6732" y="-15.4" font-family="sans-serif" font-size="14.00" fill="#000000"> &#160;Providers</text>
<polygon fill="#fb8072" stroke="transparent" points="838,-10 838,-30 858,-30 858,-10 838,-10"/>
<text text-anchor="start" x="861.7258" y="-15.4" font-family="sans-serif" font-size="14.00" fill="#000000"> &#160;Exports</text>
<g id="clust1" class="cluster">
<title>cluster_ClientAdvisorsModule</title>
<polygon fill="none" stroke="#000000" stroke-dasharray="1,5" points="8,-70 8,-268 1352,-268 1352,-70 8,-70"/>
</g>
<g id="clust2" class="cluster">
<title>cluster_ClientAdvisorsModule_declarations</title>
<polygon fill="none" stroke="#000000" points="1162,-78 1162,-130 1344,-130 1344,-78 1162,-78"/>
</g>
<g id="clust4" class="cluster">
<title>cluster_ClientAdvisorsModule_imports</title>
<polygon fill="none" stroke="#000000" points="452,-78 452,-130 1154,-130 1154,-78 452,-78"/>
</g>
<g id="clust5" class="cluster">
<title>cluster_ClientAdvisorsModule_exports</title>
<polygon fill="none" stroke="#000000" points="590,-208 590,-260 776,-260 776,-208 590,-208"/>
</g>
<g id="clust7" class="cluster">
<title>cluster_ClientAdvisorsModule_providers</title>
<polygon fill="none" stroke="#000000" points="16,-78 16,-130 444,-130 444,-78 16,-78"/>
</g>
<!-- ClientAdvisorsComponent -->
<g id="node1" class="node">
<title>ClientAdvisorsComponent</title>
<polygon fill="#ffffb3" stroke="#000000" points="1336.1024,-122 1169.8976,-122 1169.8976,-86 1336.1024,-86 1336.1024,-122"/>
<text text-anchor="middle" x="1253" y="-99.8" font-family="Times,serif" font-size="14.00" fill="#000000">ClientAdvisorsComponent</text>
</g>
<!-- ClientAdvisorsModule -->
<g id="node2" class="node">
<title>ClientAdvisorsModule</title>
<polygon fill="#8dd3c7" stroke="#000000" points="755.3202,-187 752.3202,-191 731.3202,-191 728.3202,-187 610.6798,-187 610.6798,-151 755.3202,-151 755.3202,-187"/>
<text text-anchor="middle" x="683" y="-164.8" font-family="Times,serif" font-size="14.00" fill="#000000">ClientAdvisorsModule</text>
</g>
<!-- ClientAdvisorsComponent&#45;&gt;ClientAdvisorsModule -->
<g id="edge1" class="edge">
<title>ClientAdvisorsComponent&#45;&gt;ClientAdvisorsModule</title>
<path fill="none" stroke="#000000" d="M1253,-122.2921C1253,-144.2057 1253,-178 1253,-178 1253,-178 765.1909,-178 765.1909,-178"/>
<polygon fill="#000000" stroke="#000000" points="765.1909,-174.5001 755.1909,-178 765.1909,-181.5001 765.1909,-174.5001"/>
</g>
<!-- ClientAdvisorsComponent  -->
<g id="node7" class="node">
<title>ClientAdvisorsComponent </title>
<polygon fill="#fb8072" stroke="#000000" points="767.6029,-252 598.3971,-252 598.3971,-216 767.6029,-216 767.6029,-252"/>
<text text-anchor="middle" x="683" y="-229.8" font-family="Times,serif" font-size="14.00" fill="#000000">ClientAdvisorsComponent </text>
</g>
<!-- ClientAdvisorsModule&#45;&gt;ClientAdvisorsComponent  -->
<g id="edge6" class="edge">
<title>ClientAdvisorsModule&#45;&gt;ClientAdvisorsComponent </title>
<path fill="none" stroke="#000000" stroke-dasharray="5,2" d="M683,-187.1061C683,-187.1061 683,-205.991 683,-205.991"/>
<polygon fill="#000000" stroke="#000000" points="679.5001,-205.9909 683,-215.991 686.5001,-205.991 679.5001,-205.9909"/>
</g>
<!-- AuthorisedFooterModule -->
<g id="node3" class="node">
<title>AuthorisedFooterModule</title>
<polygon fill="#8dd3c7" stroke="#000000" points="1146.3061,-122 1143.3061,-126 1122.3061,-126 1119.3061,-122 987.6939,-122 987.6939,-86 1146.3061,-86 1146.3061,-122"/>
<text text-anchor="middle" x="1067" y="-99.8" font-family="Times,serif" font-size="14.00" fill="#000000">AuthorisedFooterModule</text>
</g>
<!-- AuthorisedFooterModule&#45;&gt;ClientAdvisorsModule -->
<g id="edge2" class="edge">
<title>AuthorisedFooterModule&#45;&gt;ClientAdvisorsModule</title>
<path fill="none" stroke="#000000" d="M1067,-122.1061C1067,-141.3391 1067,-169 1067,-169 1067,-169 765.2275,-169 765.2275,-169"/>
<polygon fill="#000000" stroke="#000000" points="765.2275,-165.5001 755.2275,-169 765.2274,-172.5001 765.2275,-165.5001"/>
</g>
<!-- AuthorisedHeaderModule -->
<g id="node4" class="node">
<title>AuthorisedHeaderModule</title>
<polygon fill="#8dd3c7" stroke="#000000" points="970.1685,-122 967.1685,-126 946.1685,-126 943.1685,-122 807.8315,-122 807.8315,-86 970.1685,-86 970.1685,-122"/>
<text text-anchor="middle" x="889" y="-99.8" font-family="Times,serif" font-size="14.00" fill="#000000">AuthorisedHeaderModule</text>
</g>
<!-- AuthorisedHeaderModule&#45;&gt;ClientAdvisorsModule -->
<g id="edge3" class="edge">
<title>AuthorisedHeaderModule&#45;&gt;ClientAdvisorsModule</title>
<path fill="none" stroke="#000000" d="M889,-122.027C889,-138.3976 889,-160 889,-160 889,-160 765.3382,-160 765.3382,-160"/>
<polygon fill="#000000" stroke="#000000" points="765.3383,-156.5001 755.3382,-160 765.3382,-163.5001 765.3383,-156.5001"/>
</g>
<!-- ClientAdvisorsAppRoutingModule -->
<g id="node5" class="node">
<title>ClientAdvisorsAppRoutingModule</title>
<polygon fill="#8dd3c7" stroke="#000000" points="789.5447,-122 786.5447,-126 765.5447,-126 762.5447,-122 576.4553,-122 576.4553,-86 789.5447,-86 789.5447,-122"/>
<text text-anchor="middle" x="683" y="-99.8" font-family="Times,serif" font-size="14.00" fill="#000000">ClientAdvisorsAppRoutingModule</text>
</g>
<!-- ClientAdvisorsAppRoutingModule&#45;&gt;ClientAdvisorsModule -->
<g id="edge4" class="edge">
<title>ClientAdvisorsAppRoutingModule&#45;&gt;ClientAdvisorsModule</title>
<path fill="none" stroke="#000000" d="M683,-122.1061C683,-122.1061 683,-140.991 683,-140.991"/>
<polygon fill="#000000" stroke="#000000" points="679.5001,-140.9909 683,-150.991 686.5001,-140.991 679.5001,-140.9909"/>
</g>
<!-- SharedModule -->
<g id="node6" class="node">
<title>SharedModule</title>
<polygon fill="#8dd3c7" stroke="#000000" points="558.4231,-122 555.4231,-126 534.4231,-126 531.4231,-122 459.5769,-122 459.5769,-86 558.4231,-86 558.4231,-122"/>
<text text-anchor="middle" x="509" y="-99.8" font-family="Times,serif" font-size="14.00" fill="#000000">SharedModule</text>
</g>
<!-- SharedModule&#45;&gt;ClientAdvisorsModule -->
<g id="edge5" class="edge">
<title>SharedModule&#45;&gt;ClientAdvisorsModule</title>
<path fill="none" stroke="#000000" d="M509,-122.027C509,-138.3976 509,-160 509,-160 509,-160 600.72,-160 600.72,-160"/>
<polygon fill="#000000" stroke="#000000" points="600.72,-163.5001 610.72,-160 600.7199,-156.5001 600.72,-163.5001"/>
</g>
<!-- AccountService -->
<g id="node8" class="node">
<title>AccountService</title>
<ellipse fill="#fdb462" stroke="#000000" cx="363" cy="-104" rx="72.9121" ry="18"/>
<text text-anchor="middle" x="363" y="-99.8" font-family="Times,serif" font-size="14.00" fill="#000000">AccountService</text>
</g>
<!-- AccountService&#45;&gt;ClientAdvisorsModule -->
<g id="edge7" class="edge">
<title>AccountService&#45;&gt;ClientAdvisorsModule</title>
<path fill="none" stroke="#000000" d="M363,-122.1061C363,-141.3391 363,-169 363,-169 363,-169 600.7868,-169 600.7868,-169"/>
<polygon fill="#000000" stroke="#000000" points="600.7868,-172.5001 610.7868,-169 600.7867,-165.5001 600.7868,-172.5001"/>
</g>
<!-- CommonHttpAdapterService -->
<g id="node9" class="node">
<title>CommonHttpAdapterService</title>
<ellipse fill="#fdb462" stroke="#000000" cx="148" cy="-104" rx="124.4186" ry="18"/>
<text text-anchor="middle" x="148" y="-99.8" font-family="Times,serif" font-size="14.00" fill="#000000">CommonHttpAdapterService</text>
</g>
<!-- CommonHttpAdapterService&#45;&gt;ClientAdvisorsModule -->
<g id="edge8" class="edge">
<title>CommonHttpAdapterService&#45;&gt;ClientAdvisorsModule</title>
<path fill="none" stroke="#000000" d="M148,-122.2921C148,-144.2057 148,-178 148,-178 148,-178 600.5693,-178 600.5693,-178"/>
<polygon fill="#000000" stroke="#000000" points="600.5694,-181.5001 610.5693,-178 600.5693,-174.5001 600.5694,-181.5001"/>
</g>
</g>
</svg>
