<?xml version="1.0" encoding="UTF-8" standalone="no"?>
<!DOCTYPE svg PUBLIC "-//W3C//DTD SVG 1.1//EN"
 "http://www.w3.org/Graphics/SVG/1.1/DTD/svg11.dtd">
<!-- Generated by graphviz version 2.40.1 (20161225.0304)
 -->
<!-- Title: dependencies Pages: 1 -->
<svg width="876pt" height="284pt"
 viewBox="0.00 0.00 876.00 284.00" xmlns="http://www.w3.org/2000/svg" xmlns:xlink="http://www.w3.org/1999/xlink">
<g id="graph0" class="graph" transform="scale(1 1) rotate(0) translate(4 280)">
<title>dependencies</title>
<polygon fill="#ffffff" stroke="transparent" points="-4,4 -4,-280 872,-280 872,4 -4,4"/>
<text text-anchor="start" x="413.0091" y="-42.4" font-family="sans-serif" font-weight="bold" font-size="14.00" fill="#000000">Legend</text>
<polygon fill="#ffffb3" stroke="transparent" points="200,-10 200,-30 220,-30 220,-10 200,-10"/>
<text text-anchor="start" x="223.629" y="-15.4" font-family="sans-serif" font-size="14.00" fill="#000000"> &#160;Declarations</text>
<polygon fill="#8dd3c7" stroke="transparent" points="313,-10 313,-30 333,-30 333,-10 313,-10"/>
<text text-anchor="start" x="336.7251" y="-15.4" font-family="sans-serif" font-size="14.00" fill="#000000"> &#160;Module</text>
<polygon fill="#80b1d3" stroke="transparent" points="399,-10 399,-30 419,-30 419,-10 399,-10"/>
<text text-anchor="start" x="422.7812" y="-15.4" font-family="sans-serif" font-size="14.00" fill="#000000"> &#160;Bootstrap</text>
<polygon fill="#fdb462" stroke="transparent" points="496,-10 496,-30 516,-30 516,-10 496,-10"/>
<text text-anchor="start" x="519.6732" y="-15.4" font-family="sans-serif" font-size="14.00" fill="#000000"> &#160;Providers</text>
<polygon fill="#fb8072" stroke="transparent" points="592,-10 592,-30 612,-30 612,-10 592,-10"/>
<text text-anchor="start" x="615.7258" y="-15.4" font-family="sans-serif" font-size="14.00" fill="#000000"> &#160;Exports</text>
<g id="clust1" class="cluster">
<title>cluster_CustomOutputModule</title>
<polygon fill="none" stroke="#000000" stroke-dasharray="1,5" points="8,-70 8,-268 860,-268 860,-70 8,-70"/>
</g>
<g id="clust2" class="cluster">
<title>cluster_CustomOutputModule_declarations</title>
<polygon fill="none" stroke="#000000" points="672,-78 672,-130 852,-130 852,-78 672,-78"/>
</g>
<g id="clust4" class="cluster">
<title>cluster_CustomOutputModule_imports</title>
<polygon fill="none" stroke="#000000" points="368,-78 368,-130 664,-130 664,-78 368,-78"/>
</g>
<g id="clust5" class="cluster">
<title>cluster_CustomOutputModule_exports</title>
<polygon fill="none" stroke="#000000" points="333,-208 333,-260 517,-260 517,-208 333,-208"/>
</g>
<g id="clust7" class="cluster">
<title>cluster_CustomOutputModule_providers</title>
<polygon fill="none" stroke="#000000" points="16,-78 16,-130 360,-130 360,-78 16,-78"/>
</g>
<!-- CustomOutputComponent -->
<g id="node1" class="node">
<title>CustomOutputComponent</title>
<polygon fill="#ffffb3" stroke="#000000" points="843.7827,-122 680.2173,-122 680.2173,-86 843.7827,-86 843.7827,-122"/>
<text text-anchor="middle" x="762" y="-99.8" font-family="Times,serif" font-size="14.00" fill="#000000">CustomOutputComponent</text>
</g>
<!-- CustomOutputModule -->
<g id="node2" class="node">
<title>CustomOutputModule</title>
<polygon fill="#8dd3c7" stroke="#000000" points="496,-187 493,-191 472,-191 469,-187 354,-187 354,-151 496,-151 496,-187"/>
<text text-anchor="middle" x="425" y="-164.8" font-family="Times,serif" font-size="14.00" fill="#000000">CustomOutputModule</text>
</g>
<!-- CustomOutputComponent&#45;&gt;CustomOutputModule -->
<g id="edge1" class="edge">
<title>CustomOutputComponent&#45;&gt;CustomOutputModule</title>
<path fill="none" stroke="#000000" d="M762,-122.2843C762,-143.3211 762,-175 762,-175 762,-175 506.0572,-175 506.0572,-175"/>
<polygon fill="#000000" stroke="#000000" points="506.0573,-171.5001 496.0572,-175 506.0572,-178.5001 506.0573,-171.5001"/>
</g>
<!-- CustomOutputComponent  -->
<g id="node5" class="node">
<title>CustomOutputComponent </title>
<polygon fill="#fb8072" stroke="#000000" points="508.7828,-252 341.2172,-252 341.2172,-216 508.7828,-216 508.7828,-252"/>
<text text-anchor="middle" x="425" y="-229.8" font-family="Times,serif" font-size="14.00" fill="#000000">CustomOutputComponent </text>
</g>
<!-- CustomOutputModule&#45;&gt;CustomOutputComponent  -->
<g id="edge4" class="edge">
<title>CustomOutputModule&#45;&gt;CustomOutputComponent </title>
<path fill="none" stroke="#000000" stroke-dasharray="5,2" d="M425,-187.1061C425,-187.1061 425,-205.991 425,-205.991"/>
<polygon fill="#000000" stroke="#000000" points="421.5001,-205.9909 425,-215.991 428.5001,-205.991 421.5001,-205.9909"/>
</g>
<!-- CommonDirectiveModule -->
<g id="node3" class="node">
<title>CommonDirectiveModule</title>
<polygon fill="#8dd3c7" stroke="#000000" points="655.7506,-122 652.7506,-126 631.7506,-126 628.7506,-122 492.2494,-122 492.2494,-86 655.7506,-86 655.7506,-122"/>
<text text-anchor="middle" x="574" y="-99.8" font-family="Times,serif" font-size="14.00" fill="#000000">CommonDirectiveModule</text>
</g>
<!-- CommonDirectiveModule&#45;&gt;CustomOutputModule -->
<g id="edge2" class="edge">
<title>CommonDirectiveModule&#45;&gt;CustomOutputModule</title>
<path fill="none" stroke="#000000" d="M502.3207,-122.0225C502.3207,-139.3734 502.3207,-163 502.3207,-163 502.3207,-163 501.7139,-163 501.7139,-163"/>
<polygon fill="#000000" stroke="#000000" points="506.2535,-159.5002 496.2534,-163 506.2534,-166.5002 506.2535,-159.5002"/>
</g>
<!-- SharedModule -->
<g id="node4" class="node">
<title>SharedModule</title>
<polygon fill="#8dd3c7" stroke="#000000" points="474.4231,-122 471.4231,-126 450.4231,-126 447.4231,-122 375.5769,-122 375.5769,-86 474.4231,-86 474.4231,-122"/>
<text text-anchor="middle" x="425" y="-99.8" font-family="Times,serif" font-size="14.00" fill="#000000">SharedModule</text>
</g>
<!-- SharedModule&#45;&gt;CustomOutputModule -->
<g id="edge3" class="edge">
<title>SharedModule&#45;&gt;CustomOutputModule</title>
<path fill="none" stroke="#000000" d="M425,-122.1061C425,-122.1061 425,-140.991 425,-140.991"/>
<polygon fill="#000000" stroke="#000000" points="421.5001,-140.9909 425,-150.991 428.5001,-140.991 421.5001,-140.9909"/>
</g>
<!-- CustomOutputService -->
<g id="node6" class="node">
<title>CustomOutputService</title>
<ellipse fill="#fdb462" stroke="#000000" cx="255" cy="-104" rx="96.7293" ry="18"/>
<text text-anchor="middle" x="255" y="-99.8" font-family="Times,serif" font-size="14.00" fill="#000000">CustomOutputService</text>
</g>
<!-- CustomOutputService&#45;&gt;CustomOutputModule -->
<g id="edge5" class="edge">
<title>CustomOutputService&#45;&gt;CustomOutputModule</title>
<path fill="none" stroke="#000000" d="M346.6116,-109.8728C346.6116,-124.7962 346.6116,-163 346.6116,-163 346.6116,-163 347.335,-163 347.335,-163"/>
<polygon fill="#000000" stroke="#000000" points="343.8458,-166.5002 353.8457,-163 343.8456,-159.5002 343.8458,-166.5002"/>
</g>
<!-- FormHelper -->
<g id="node7" class="node">
<title>FormHelper</title>
<ellipse fill="#fdb462" stroke="#000000" cx="82" cy="-104" rx="58.4648" ry="18"/>
<text text-anchor="middle" x="82" y="-99.8" font-family="Times,serif" font-size="14.00" fill="#000000">FormHelper</text>
</g>
<!-- FormHelper&#45;&gt;CustomOutputModule -->
<g id="edge6" class="edge">
<title>FormHelper&#45;&gt;CustomOutputModule</title>
<path fill="none" stroke="#000000" d="M82,-122.2843C82,-143.3211 82,-175 82,-175 82,-175 343.9302,-175 343.9302,-175"/>
<polygon fill="#000000" stroke="#000000" points="343.9302,-178.5001 353.9302,-175 343.9301,-171.5001 343.9302,-178.5001"/>
</g>
</g>
</svg>
