<?xml version="1.0" encoding="UTF-8" standalone="no"?>
<!DOCTYPE svg PUBLIC "-//W3C//DTD SVG 1.1//EN"
 "http://www.w3.org/Graphics/SVG/1.1/DTD/svg11.dtd">
<!-- Generated by graphviz version 2.40.1 (20161225.0304)
 -->
<!-- Title: dependencies Pages: 1 -->
<svg width="1272pt" height="349pt"
 viewBox="0.00 0.00 1272.00 349.00" xmlns="http://www.w3.org/2000/svg" xmlns:xlink="http://www.w3.org/1999/xlink">
<g id="graph0" class="graph" transform="scale(1 1) rotate(0) translate(4 345)">
<title>dependencies</title>
<polygon fill="#ffffff" stroke="transparent" points="-4,4 -4,-345 1268,-345 1268,4 -4,4"/>
<text text-anchor="start" x="611.0091" y="-42.4" font-family="sans-serif" font-weight="bold" font-size="14.00" fill="#000000">Legend</text>
<polygon fill="#ffffb3" stroke="transparent" points="398,-10 398,-30 418,-30 418,-10 398,-10"/>
<text text-anchor="start" x="421.629" y="-15.4" font-family="sans-serif" font-size="14.00" fill="#000000"> &#160;Declarations</text>
<polygon fill="#8dd3c7" stroke="transparent" points="511,-10 511,-30 531,-30 531,-10 511,-10"/>
<text text-anchor="start" x="534.7251" y="-15.4" font-family="sans-serif" font-size="14.00" fill="#000000"> &#160;Module</text>
<polygon fill="#80b1d3" stroke="transparent" points="597,-10 597,-30 617,-30 617,-10 597,-10"/>
<text text-anchor="start" x="620.7812" y="-15.4" font-family="sans-serif" font-size="14.00" fill="#000000"> &#160;Bootstrap</text>
<polygon fill="#fdb462" stroke="transparent" points="694,-10 694,-30 714,-30 714,-10 694,-10"/>
<text text-anchor="start" x="717.6732" y="-15.4" font-family="sans-serif" font-size="14.00" fill="#000000"> &#160;Providers</text>
<polygon fill="#fb8072" stroke="transparent" points="790,-10 790,-30 810,-30 810,-10 790,-10"/>
<text text-anchor="start" x="813.7258" y="-15.4" font-family="sans-serif" font-size="14.00" fill="#000000"> &#160;Exports</text>
<g id="clust1" class="cluster">
<title>cluster_RiderCommissionModule</title>
<polygon fill="none" stroke="#000000" stroke-dasharray="1,5" points="8,-70 8,-333 1256,-333 1256,-70 8,-70"/>
</g>
<g id="clust2" class="cluster">
<title>cluster_RiderCommissionModule_declarations</title>
<polygon fill="none" stroke="#000000" points="544,-143 544,-195 744,-195 744,-143 544,-143"/>
</g>
<g id="clust3" class="cluster">
<title>cluster_RiderCommissionModule_RiderCommissionComponent_providers</title>
<polygon fill="none" stroke="#000000" points="16,-78 16,-130 1248,-130 1248,-78 16,-78"/>
</g>
<g id="clust4" class="cluster">
<title>cluster_RiderCommissionModule_imports</title>
<polygon fill="none" stroke="#000000" points="266,-143 266,-195 536,-195 536,-143 266,-143"/>
</g>
<g id="clust5" class="cluster">
<title>cluster_RiderCommissionModule_exports</title>
<polygon fill="none" stroke="#000000" points="290,-273 290,-325 492,-325 492,-273 290,-273"/>
</g>
<g id="clust7" class="cluster">
<title>cluster_RiderCommissionModule_providers</title>
<polygon fill="none" stroke="#000000" points="16,-143 16,-195 258,-195 258,-143 16,-143"/>
</g>
<!-- RiderCommissionComponent -->
<g id="node1" class="node">
<title>RiderCommissionComponent</title>
<polygon fill="#ffffb3" stroke="#000000" points="735.7231,-187 552.2769,-187 552.2769,-151 735.7231,-151 735.7231,-187"/>
<text text-anchor="middle" x="644" y="-164.8" font-family="Times,serif" font-size="14.00" fill="#000000">RiderCommissionComponent</text>
</g>
<!-- RiderCommissionModule -->
<g id="node2" class="node">
<title>RiderCommissionModule</title>
<polygon fill="#8dd3c7" stroke="#000000" points="471.941,-252 468.941,-256 447.941,-256 444.941,-252 310.059,-252 310.059,-216 471.941,-216 471.941,-252"/>
<text text-anchor="middle" x="391" y="-229.8" font-family="Times,serif" font-size="14.00" fill="#000000">RiderCommissionModule</text>
</g>
<!-- RiderCommissionComponent&#45;&gt;RiderCommissionModule -->
<g id="edge1" class="edge">
<title>RiderCommissionComponent&#45;&gt;RiderCommissionModule</title>
<path fill="none" stroke="#000000" d="M644,-187.1061C644,-206.3391 644,-234 644,-234 644,-234 481.7464,-234 481.7464,-234"/>
<polygon fill="#000000" stroke="#000000" points="481.7464,-230.5001 471.7464,-234 481.7464,-237.5001 481.7464,-230.5001"/>
</g>
<!-- RiderCommissionComponent  -->
<g id="node11" class="node">
<title>RiderCommissionComponent </title>
<polygon fill="#fb8072" stroke="#000000" points="484.2232,-317 297.7768,-317 297.7768,-281 484.2232,-281 484.2232,-317"/>
<text text-anchor="middle" x="391" y="-294.8" font-family="Times,serif" font-size="14.00" fill="#000000">RiderCommissionComponent </text>
</g>
<!-- RiderCommissionModule&#45;&gt;RiderCommissionComponent  -->
<g id="edge10" class="edge">
<title>RiderCommissionModule&#45;&gt;RiderCommissionComponent </title>
<path fill="none" stroke="#000000" stroke-dasharray="5,2" d="M391,-252.1061C391,-252.1061 391,-270.991 391,-270.991"/>
<polygon fill="#000000" stroke="#000000" points="387.5001,-270.9909 391,-280.991 394.5001,-270.991 387.5001,-270.9909"/>
</g>
<!-- RiderCommissionService -->
<g id="node3" class="node">
<title>RiderCommissionService</title>
<ellipse fill="#fdb462" stroke="#000000" cx="1130" cy="-104" rx="110.0488" ry="18"/>
<text text-anchor="middle" x="1130" y="-99.8" font-family="Times,serif" font-size="14.00" fill="#000000">RiderCommissionService</text>
</g>
<!-- RiderCommissionService&#45;&gt;RiderCommissionComponent -->
<g id="edge2" class="edge">
<title>RiderCommissionService&#45;&gt;RiderCommissionComponent</title>
<path fill="none" stroke="#000000" d="M1130,-122.2843C1130,-143.3211 1130,-175 1130,-175 1130,-175 745.6984,-175 745.6984,-175"/>
<polygon fill="#000000" stroke="#000000" points="745.6984,-171.5001 735.6984,-175 745.6984,-178.5001 745.6984,-171.5001"/>
</g>
<!-- CommonHttpAdapterService -->
<g id="node4" class="node">
<title>CommonHttpAdapterService</title>
<ellipse fill="#fdb462" stroke="#000000" cx="878" cy="-104" rx="124.4186" ry="18"/>
<text text-anchor="middle" x="878" y="-99.8" font-family="Times,serif" font-size="14.00" fill="#000000">CommonHttpAdapterService</text>
</g>
<!-- CommonHttpAdapterService&#45;&gt;RiderCommissionComponent -->
<g id="edge3" class="edge">
<title>CommonHttpAdapterService&#45;&gt;RiderCommissionComponent</title>
<path fill="none" stroke="#000000" d="M878,-122.0225C878,-139.3734 878,-163 878,-163 878,-163 745.8114,-163 745.8114,-163"/>
<polygon fill="#000000" stroke="#000000" points="745.8114,-159.5001 735.8114,-163 745.8114,-166.5001 745.8114,-159.5001"/>
</g>
<!-- PolicyInformationService -->
<g id="node5" class="node">
<title>PolicyInformationService</title>
<ellipse fill="#fdb462" stroke="#000000" cx="625" cy="-104" rx="110.5917" ry="18"/>
<text text-anchor="middle" x="625" y="-99.8" font-family="Times,serif" font-size="14.00" fill="#000000">PolicyInformationService</text>
</g>
<!-- PolicyInformationService&#45;&gt;RiderCommissionComponent -->
<g id="edge4" class="edge">
<title>PolicyInformationService&#45;&gt;RiderCommissionComponent</title>
<path fill="none" stroke="#000000" d="M698.9669,-117.468C698.9669,-117.468 698.9669,-140.8642 698.9669,-140.8642"/>
<polygon fill="#000000" stroke="#000000" points="695.467,-140.8641 698.9669,-150.8642 702.467,-140.8642 695.467,-140.8641"/>
</g>
<!-- FormHelper -->
<g id="node6" class="node">
<title>FormHelper</title>
<ellipse fill="#fdb462" stroke="#000000" cx="438" cy="-104" rx="58.4648" ry="18"/>
<text text-anchor="middle" x="438" y="-99.8" font-family="Times,serif" font-size="14.00" fill="#000000">FormHelper</text>
</g>
<!-- FormHelper&#45;&gt;RiderCommissionComponent -->
<g id="edge5" class="edge">
<title>FormHelper&#45;&gt;RiderCommissionComponent</title>
<path fill="none" stroke="#000000" d="M443.1009,-122.0579C443.1009,-126.4945 443.1009,-130 443.1009,-130 443.1009,-130 662.3223,-130 662.3223,-130 662.3223,-130 662.3223,-140.8701 662.3223,-140.8701"/>
<polygon fill="#000000" stroke="#000000" points="658.8224,-140.8701 662.3223,-150.8701 665.8224,-140.8701 658.8224,-140.8701"/>
</g>
<!-- CommonHelperService -->
<g id="node7" class="node">
<title>CommonHelperService</title>
<ellipse fill="#fdb462" stroke="#000000" cx="260" cy="-104" rx="102.4275" ry="18"/>
<text text-anchor="middle" x="260" y="-99.8" font-family="Times,serif" font-size="14.00" fill="#000000">CommonHelperService</text>
</g>
<!-- CommonHelperService&#45;&gt;RiderCommissionComponent -->
<g id="edge6" class="edge">
<title>CommonHelperService&#45;&gt;RiderCommissionComponent</title>
<path fill="none" stroke="#000000" d="M318.0012,-118.9551C318.0012,-127.6865 318.0012,-137 318.0012,-137 318.0012,-137 625.6777,-137 625.6777,-137 625.6777,-137 625.6777,-140.7566 625.6777,-140.7566"/>
<polygon fill="#000000" stroke="#000000" points="622.1778,-140.7566 625.6777,-150.7566 629.1778,-140.7566 622.1778,-140.7566"/>
</g>
<!-- RxJSHelper -->
<g id="node8" class="node">
<title>RxJSHelper</title>
<ellipse fill="#fdb462" stroke="#000000" cx="82" cy="-104" rx="57.9023" ry="18"/>
<text text-anchor="middle" x="82" y="-99.8" font-family="Times,serif" font-size="14.00" fill="#000000">RxJSHelper</text>
</g>
<!-- RxJSHelper&#45;&gt;RiderCommissionComponent -->
<g id="edge7" class="edge">
<title>RxJSHelper&#45;&gt;RiderCommissionComponent</title>
<path fill="none" stroke="#000000" d="M82,-122.1274C82,-132.7109 82,-144 82,-144 82,-144 589.0331,-144 589.0331,-144 589.0331,-144 589.0331,-144.6831 589.0331,-144.6831"/>
<polygon fill="#000000" stroke="#000000" points="585.5333,-140.8313 589.0331,-150.8314 592.5333,-140.8314 585.5333,-140.8313"/>
</g>
<!-- CarrierSharedModule -->
<g id="node9" class="node">
<title>CarrierSharedModule</title>
<polygon fill="#8dd3c7" stroke="#000000" points="528.0604,-187 525.0604,-191 504.0604,-191 501.0604,-187 389.9396,-187 389.9396,-151 528.0604,-151 528.0604,-187"/>
<text text-anchor="middle" x="459" y="-164.8" font-family="Times,serif" font-size="14.00" fill="#000000">CarrierSharedModule</text>
</g>
<!-- CarrierSharedModule&#45;&gt;RiderCommissionModule -->
<g id="edge8" class="edge">
<title>CarrierSharedModule&#45;&gt;RiderCommissionModule</title>
<path fill="none" stroke="#000000" d="M430.845,-187.1061C430.845,-187.1061 430.845,-205.991 430.845,-205.991"/>
<polygon fill="#000000" stroke="#000000" points="427.3451,-205.9909 430.845,-215.991 434.3451,-205.991 427.3451,-205.9909"/>
</g>
<!-- SharedModule -->
<g id="node10" class="node">
<title>SharedModule</title>
<polygon fill="#8dd3c7" stroke="#000000" points="372.4231,-187 369.4231,-191 348.4231,-191 345.4231,-187 273.5769,-187 273.5769,-151 372.4231,-151 372.4231,-187"/>
<text text-anchor="middle" x="323" y="-164.8" font-family="Times,serif" font-size="14.00" fill="#000000">SharedModule</text>
</g>
<!-- SharedModule&#45;&gt;RiderCommissionModule -->
<g id="edge9" class="edge">
<title>SharedModule&#45;&gt;RiderCommissionModule</title>
<path fill="none" stroke="#000000" d="M341.2455,-187.1061C341.2455,-187.1061 341.2455,-205.991 341.2455,-205.991"/>
<polygon fill="#000000" stroke="#000000" points="337.7455,-205.9909 341.2455,-215.991 344.7455,-205.991 337.7455,-205.9909"/>
</g>
<!-- CarrierInformationService -->
<g id="node12" class="node">
<title>CarrierInformationService</title>
<ellipse fill="#fdb462" stroke="#000000" cx="137" cy="-169" rx="113.4161" ry="18"/>
<text text-anchor="middle" x="137" y="-164.8" font-family="Times,serif" font-size="14.00" fill="#000000">CarrierInformationService</text>
</g>
<!-- CarrierInformationService&#45;&gt;RiderCommissionModule -->
<g id="edge11" class="edge">
<title>CarrierInformationService&#45;&gt;RiderCommissionModule</title>
<path fill="none" stroke="#000000" d="M137,-187.1061C137,-206.3391 137,-234 137,-234 137,-234 299.9345,-234 299.9345,-234"/>
<polygon fill="#000000" stroke="#000000" points="299.9345,-237.5001 309.9345,-234 299.9344,-230.5001 299.9345,-237.5001"/>
</g>
</g>
</svg>
