<?xml version="1.0" encoding="UTF-8" standalone="no"?>
<!DOCTYPE svg PUBLIC "-//W3C//DTD SVG 1.1//EN"
 "http://www.w3.org/Graphics/SVG/1.1/DTD/svg11.dtd">
<!-- Generated by graphviz version 2.40.1 (20161225.0304)
 -->
<!-- Title: dependencies Pages: 1 -->
<svg width="686pt" height="349pt"
 viewBox="0.00 0.00 686.00 349.00" xmlns="http://www.w3.org/2000/svg" xmlns:xlink="http://www.w3.org/1999/xlink">
<g id="graph0" class="graph" transform="scale(1 1) rotate(0) translate(4 345)">
<title>dependencies</title>
<polygon fill="#ffffff" stroke="transparent" points="-4,4 -4,-345 682,-345 682,4 -4,4"/>
<text text-anchor="start" x="318.0091" y="-42.4" font-family="sans-serif" font-weight="bold" font-size="14.00" fill="#000000">Legend</text>
<polygon fill="#ffffb3" stroke="transparent" points="105,-10 105,-30 125,-30 125,-10 105,-10"/>
<text text-anchor="start" x="128.629" y="-15.4" font-family="sans-serif" font-size="14.00" fill="#000000"> &#160;Declarations</text>
<polygon fill="#8dd3c7" stroke="transparent" points="218,-10 218,-30 238,-30 238,-10 218,-10"/>
<text text-anchor="start" x="241.7251" y="-15.4" font-family="sans-serif" font-size="14.00" fill="#000000"> &#160;Module</text>
<polygon fill="#80b1d3" stroke="transparent" points="304,-10 304,-30 324,-30 324,-10 304,-10"/>
<text text-anchor="start" x="327.7812" y="-15.4" font-family="sans-serif" font-size="14.00" fill="#000000"> &#160;Bootstrap</text>
<polygon fill="#fdb462" stroke="transparent" points="401,-10 401,-30 421,-30 421,-10 401,-10"/>
<text text-anchor="start" x="424.6732" y="-15.4" font-family="sans-serif" font-size="14.00" fill="#000000"> &#160;Providers</text>
<polygon fill="#fb8072" stroke="transparent" points="497,-10 497,-30 517,-30 517,-10 497,-10"/>
<text text-anchor="start" x="520.7258" y="-15.4" font-family="sans-serif" font-size="14.00" fill="#000000"> &#160;Exports</text>
<g id="clust1" class="cluster">
<title>cluster_BatchReportModule</title>
<polygon fill="none" stroke="#000000" stroke-dasharray="1,5" points="8,-70 8,-333 670,-333 670,-70 8,-70"/>
</g>
<g id="clust2" class="cluster">
<title>cluster_BatchReportModule_declarations</title>
<polygon fill="none" stroke="#000000" points="494,-143 494,-195 662,-195 662,-143 494,-143"/>
</g>
<g id="clust3" class="cluster">
<title>cluster_BatchReportModule_BatchReportComponent_providers</title>
<polygon fill="none" stroke="#000000" points="68,-78 68,-130 662,-130 662,-78 68,-78"/>
</g>
<g id="clust4" class="cluster">
<title>cluster_BatchReportModule_imports</title>
<polygon fill="none" stroke="#000000" points="16,-143 16,-195 486,-195 486,-143 16,-143"/>
</g>
<g id="clust5" class="cluster">
<title>cluster_BatchReportModule_exports</title>
<polygon fill="none" stroke="#000000" points="224,-273 224,-325 396,-325 396,-273 224,-273"/>
</g>
<!-- BatchReportComponent -->
<g id="node1" class="node">
<title>BatchReportComponent</title>
<polygon fill="#ffffb3" stroke="#000000" points="654.0912,-187 501.9088,-187 501.9088,-151 654.0912,-151 654.0912,-187"/>
<text text-anchor="middle" x="578" y="-164.8" font-family="Times,serif" font-size="14.00" fill="#000000">BatchReportComponent</text>
</g>
<!-- BatchReportModule -->
<g id="node2" class="node">
<title>BatchReportModule</title>
<polygon fill="#8dd3c7" stroke="#000000" points="375.309,-252 372.309,-256 351.309,-256 348.309,-252 244.691,-252 244.691,-216 375.309,-216 375.309,-252"/>
<text text-anchor="middle" x="310" y="-229.8" font-family="Times,serif" font-size="14.00" fill="#000000">BatchReportModule</text>
</g>
<!-- BatchReportComponent&#45;&gt;BatchReportModule -->
<g id="edge1" class="edge">
<title>BatchReportComponent&#45;&gt;BatchReportModule</title>
<path fill="none" stroke="#000000" d="M578,-187.1061C578,-206.3391 578,-234 578,-234 578,-234 385.2175,-234 385.2175,-234"/>
<polygon fill="#000000" stroke="#000000" points="385.2175,-230.5001 375.2175,-234 385.2174,-237.5001 385.2175,-230.5001"/>
</g>
<!-- BatchReportComponent  -->
<g id="node9" class="node">
<title>BatchReportComponent </title>
<polygon fill="#fb8072" stroke="#000000" points="387.5917,-317 232.4083,-317 232.4083,-281 387.5917,-281 387.5917,-317"/>
<text text-anchor="middle" x="310" y="-294.8" font-family="Times,serif" font-size="14.00" fill="#000000">BatchReportComponent </text>
</g>
<!-- BatchReportModule&#45;&gt;BatchReportComponent  -->
<g id="edge8" class="edge">
<title>BatchReportModule&#45;&gt;BatchReportComponent </title>
<path fill="none" stroke="#000000" stroke-dasharray="5,2" d="M310,-252.1061C310,-252.1061 310,-270.991 310,-270.991"/>
<polygon fill="#000000" stroke="#000000" points="306.5001,-270.9909 310,-280.991 313.5001,-270.991 306.5001,-270.9909"/>
</g>
<!-- BatchReportService -->
<g id="node3" class="node">
<title>BatchReportService</title>
<ellipse fill="#fdb462" stroke="#000000" cx="565" cy="-104" rx="88.6005" ry="18"/>
<text text-anchor="middle" x="565" y="-99.8" font-family="Times,serif" font-size="14.00" fill="#000000">BatchReportService</text>
</g>
<!-- BatchReportService&#45;&gt;BatchReportComponent -->
<g id="edge2" class="edge">
<title>BatchReportService&#45;&gt;BatchReportComponent</title>
<path fill="none" stroke="#000000" d="M615.8386,-119.0757C615.8386,-119.0757 615.8386,-140.7642 615.8386,-140.7642"/>
<polygon fill="#000000" stroke="#000000" points="612.3387,-140.7642 615.8386,-150.7642 619.3387,-140.7642 612.3387,-140.7642"/>
</g>
<!-- CommonHttpAdapterService -->
<g id="node4" class="node">
<title>CommonHttpAdapterService</title>
<ellipse fill="#fdb462" stroke="#000000" cx="334" cy="-104" rx="124.4186" ry="18"/>
<text text-anchor="middle" x="334" y="-99.8" font-family="Times,serif" font-size="14.00" fill="#000000">CommonHttpAdapterService</text>
</g>
<!-- CommonHttpAdapterService&#45;&gt;BatchReportComponent -->
<g id="edge3" class="edge">
<title>CommonHttpAdapterService&#45;&gt;BatchReportComponent</title>
<path fill="none" stroke="#000000" d="M389.0281,-120.2877C389.0281,-126.4475 389.0281,-132 389.0281,-132 389.0281,-132 577.8772,-132 577.8772,-132 577.8772,-132 577.8772,-140.9336 577.8772,-140.9336"/>
<polygon fill="#000000" stroke="#000000" points="574.3773,-140.9335 577.8772,-150.9336 581.3773,-140.9336 574.3773,-140.9335"/>
</g>
<!-- RxJSHelper -->
<g id="node5" class="node">
<title>RxJSHelper</title>
<ellipse fill="#fdb462" stroke="#000000" cx="134" cy="-104" rx="57.9023" ry="18"/>
<text text-anchor="middle" x="134" y="-99.8" font-family="Times,serif" font-size="14.00" fill="#000000">RxJSHelper</text>
</g>
<!-- RxJSHelper&#45;&gt;BatchReportComponent -->
<g id="edge4" class="edge">
<title>RxJSHelper&#45;&gt;BatchReportComponent</title>
<path fill="none" stroke="#000000" d="M165.8083,-119.0186C165.8083,-129.6403 165.8083,-142 165.8083,-142 165.8083,-142 539.9158,-142 539.9158,-142 539.9158,-142 539.9158,-142.8841 539.9158,-142.8841"/>
<polygon fill="#000000" stroke="#000000" points="536.4159,-140.8408 539.9158,-150.8408 543.4159,-140.8409 536.4159,-140.8408"/>
</g>
<!-- AuthorisedFooterModule -->
<g id="node6" class="node">
<title>AuthorisedFooterModule</title>
<polygon fill="#8dd3c7" stroke="#000000" points="478.3061,-187 475.3061,-191 454.3061,-191 451.3061,-187 319.6939,-187 319.6939,-151 478.3061,-151 478.3061,-187"/>
<text text-anchor="middle" x="399" y="-164.8" font-family="Times,serif" font-size="14.00" fill="#000000">AuthorisedFooterModule</text>
</g>
<!-- AuthorisedFooterModule&#45;&gt;BatchReportModule -->
<g id="edge5" class="edge">
<title>AuthorisedFooterModule&#45;&gt;BatchReportModule</title>
<path fill="none" stroke="#000000" d="M347.5007,-187.1061C347.5007,-187.1061 347.5007,-205.991 347.5007,-205.991"/>
<polygon fill="#000000" stroke="#000000" points="344.0008,-205.9909 347.5007,-215.991 351.0008,-205.991 344.0008,-205.9909"/>
</g>
<!-- AuthorisedHeaderModule -->
<g id="node7" class="node">
<title>AuthorisedHeaderModule</title>
<polygon fill="#8dd3c7" stroke="#000000" points="302.1685,-187 299.1685,-191 278.1685,-191 275.1685,-187 139.8315,-187 139.8315,-151 302.1685,-151 302.1685,-187"/>
<text text-anchor="middle" x="221" y="-164.8" font-family="Times,serif" font-size="14.00" fill="#000000">AuthorisedHeaderModule</text>
</g>
<!-- AuthorisedHeaderModule&#45;&gt;BatchReportModule -->
<g id="edge6" class="edge">
<title>AuthorisedHeaderModule&#45;&gt;BatchReportModule</title>
<path fill="none" stroke="#000000" d="M273.465,-187.1061C273.465,-187.1061 273.465,-205.991 273.465,-205.991"/>
<polygon fill="#000000" stroke="#000000" points="269.965,-205.9909 273.465,-215.991 276.965,-205.991 269.965,-205.9909"/>
</g>
<!-- SharedModule -->
<g id="node8" class="node">
<title>SharedModule</title>
<polygon fill="#8dd3c7" stroke="#000000" points="122.4231,-187 119.4231,-191 98.4231,-191 95.4231,-187 23.5769,-187 23.5769,-151 122.4231,-151 122.4231,-187"/>
<text text-anchor="middle" x="73" y="-164.8" font-family="Times,serif" font-size="14.00" fill="#000000">SharedModule</text>
</g>
<!-- SharedModule&#45;&gt;BatchReportModule -->
<g id="edge7" class="edge">
<title>SharedModule&#45;&gt;BatchReportModule</title>
<path fill="none" stroke="#000000" d="M73,-187.1061C73,-206.3391 73,-234 73,-234 73,-234 234.6113,-234 234.6113,-234"/>
<polygon fill="#000000" stroke="#000000" points="234.6114,-237.5001 244.6113,-234 234.6113,-230.5001 234.6114,-237.5001"/>
</g>
</g>
</svg>
