<?xml version="1.0" encoding="UTF-8" standalone="no"?>
<!DOCTYPE svg PUBLIC "-//W3C//DTD SVG 1.1//EN"
 "http://www.w3.org/Graphics/SVG/1.1/DTD/svg11.dtd">
<!-- Generated by graphviz version 2.40.1 (20161225.0304)
 -->
<!-- Title: dependencies Pages: 1 -->
<svg width="1209pt" height="349pt"
 viewBox="0.00 0.00 1209.00 349.00" xmlns="http://www.w3.org/2000/svg" xmlns:xlink="http://www.w3.org/1999/xlink">
<g id="graph0" class="graph" transform="scale(1 1) rotate(0) translate(4 345)">
<title>dependencies</title>
<polygon fill="#ffffff" stroke="transparent" points="-4,4 -4,-345 1205,-345 1205,4 -4,4"/>
<text text-anchor="start" x="579.5091" y="-42.4" font-family="sans-serif" font-weight="bold" font-size="14.00" fill="#000000">Legend</text>
<polygon fill="#ffffb3" stroke="transparent" points="366.5,-10 366.5,-30 386.5,-30 386.5,-10 366.5,-10"/>
<text text-anchor="start" x="390.129" y="-15.4" font-family="sans-serif" font-size="14.00" fill="#000000"> &#160;Declarations</text>
<polygon fill="#8dd3c7" stroke="transparent" points="479.5,-10 479.5,-30 499.5,-30 499.5,-10 479.5,-10"/>
<text text-anchor="start" x="503.2251" y="-15.4" font-family="sans-serif" font-size="14.00" fill="#000000"> &#160;Module</text>
<polygon fill="#80b1d3" stroke="transparent" points="565.5,-10 565.5,-30 585.5,-30 585.5,-10 565.5,-10"/>
<text text-anchor="start" x="589.2812" y="-15.4" font-family="sans-serif" font-size="14.00" fill="#000000"> &#160;Bootstrap</text>
<polygon fill="#fdb462" stroke="transparent" points="662.5,-10 662.5,-30 682.5,-30 682.5,-10 662.5,-10"/>
<text text-anchor="start" x="686.1732" y="-15.4" font-family="sans-serif" font-size="14.00" fill="#000000"> &#160;Providers</text>
<polygon fill="#fb8072" stroke="transparent" points="758.5,-10 758.5,-30 778.5,-30 778.5,-10 758.5,-10"/>
<text text-anchor="start" x="782.2258" y="-15.4" font-family="sans-serif" font-size="14.00" fill="#000000"> &#160;Exports</text>
<g id="clust1" class="cluster">
<title>cluster_CarrierInformationModule</title>
<polygon fill="none" stroke="#000000" stroke-dasharray="1,5" points="8,-70 8,-333 1193,-333 1193,-70 8,-70"/>
</g>
<g id="clust2" class="cluster">
<title>cluster_CarrierInformationModule_declarations</title>
<polygon fill="none" stroke="#000000" points="482,-143 482,-195 686,-195 686,-143 482,-143"/>
</g>
<g id="clust3" class="cluster">
<title>cluster_CarrierInformationModule_CarrierInformationComponent_providers</title>
<polygon fill="none" stroke="#000000" points="16,-78 16,-130 1185,-130 1185,-78 16,-78"/>
</g>
<g id="clust4" class="cluster">
<title>cluster_CarrierInformationModule_imports</title>
<polygon fill="none" stroke="#000000" points="22,-143 22,-195 474,-195 474,-143 22,-143"/>
</g>
<g id="clust5" class="cluster">
<title>cluster_CarrierInformationModule_exports</title>
<polygon fill="none" stroke="#000000" points="208,-273 208,-325 416,-325 416,-273 208,-273"/>
</g>
<!-- CarrierInformationComponent -->
<g id="node1" class="node">
<title>CarrierInformationComponent</title>
<polygon fill="#ffffb3" stroke="#000000" points="677.8389,-187 490.1611,-187 490.1611,-151 677.8389,-151 677.8389,-187"/>
<text text-anchor="middle" x="584" y="-164.8" font-family="Times,serif" font-size="14.00" fill="#000000">CarrierInformationComponent</text>
</g>
<!-- CarrierInformationModule -->
<g id="node2" class="node">
<title>CarrierInformationModule</title>
<polygon fill="#8dd3c7" stroke="#000000" points="395.0562,-252 392.0562,-256 371.0562,-256 368.0562,-252 228.9438,-252 228.9438,-216 395.0562,-216 395.0562,-252"/>
<text text-anchor="middle" x="312" y="-229.8" font-family="Times,serif" font-size="14.00" fill="#000000">CarrierInformationModule</text>
</g>
<!-- CarrierInformationComponent&#45;&gt;CarrierInformationModule -->
<g id="edge1" class="edge">
<title>CarrierInformationComponent&#45;&gt;CarrierInformationModule</title>
<path fill="none" stroke="#000000" d="M584,-187.1061C584,-206.3391 584,-234 584,-234 584,-234 405.0869,-234 405.0869,-234"/>
<polygon fill="#000000" stroke="#000000" points="405.087,-230.5001 395.0869,-234 405.0869,-237.5001 405.087,-230.5001"/>
</g>
<!-- CarrierInformationComponent  -->
<g id="node12" class="node">
<title>CarrierInformationComponent </title>
<polygon fill="#fb8072" stroke="#000000" points="407.8391,-317 216.1609,-317 216.1609,-281 407.8391,-281 407.8391,-317"/>
<text text-anchor="middle" x="312" y="-294.8" font-family="Times,serif" font-size="14.00" fill="#000000">CarrierInformationComponent </text>
</g>
<!-- CarrierInformationModule&#45;&gt;CarrierInformationComponent  -->
<g id="edge11" class="edge">
<title>CarrierInformationModule&#45;&gt;CarrierInformationComponent </title>
<path fill="none" stroke="#000000" stroke-dasharray="5,2" d="M312,-252.1061C312,-252.1061 312,-270.991 312,-270.991"/>
<polygon fill="#000000" stroke="#000000" points="308.5001,-270.9909 312,-280.991 315.5001,-270.991 308.5001,-270.9909"/>
</g>
<!-- CarrierInformationService -->
<g id="node3" class="node">
<title>CarrierInformationService</title>
<ellipse fill="#fdb462" stroke="#000000" cx="1064" cy="-104" rx="113.4161" ry="18"/>
<text text-anchor="middle" x="1064" y="-99.8" font-family="Times,serif" font-size="14.00" fill="#000000">CarrierInformationService</text>
</g>
<!-- CarrierInformationService&#45;&gt;CarrierInformationComponent -->
<g id="edge2" class="edge">
<title>CarrierInformationService&#45;&gt;CarrierInformationComponent</title>
<path fill="none" stroke="#000000" d="M1064,-122.1061C1064,-141.3391 1064,-169 1064,-169 1064,-169 687.9739,-169 687.9739,-169"/>
<polygon fill="#000000" stroke="#000000" points="687.974,-165.5001 677.9739,-169 687.9739,-172.5001 687.974,-165.5001"/>
</g>
<!-- CommonHttpAdapterService -->
<g id="node4" class="node">
<title>CommonHttpAdapterService</title>
<ellipse fill="#fdb462" stroke="#000000" cx="808" cy="-104" rx="124.4186" ry="18"/>
<text text-anchor="middle" x="808" y="-99.8" font-family="Times,serif" font-size="14.00" fill="#000000">CommonHttpAdapterService</text>
</g>
<!-- CommonHttpAdapterService&#45;&gt;CarrierInformationComponent -->
<g id="edge3" class="edge">
<title>CommonHttpAdapterService&#45;&gt;CarrierInformationComponent</title>
<path fill="none" stroke="#000000" d="M683.5318,-104C676.324,-104 671.9306,-104 671.9306,-104 671.9306,-104 671.9306,-140.8939 671.9306,-140.8939"/>
<polygon fill="#000000" stroke="#000000" points="668.4307,-140.8938 671.9306,-150.8939 675.4307,-140.8939 668.4307,-140.8938"/>
</g>
<!-- CommonService -->
<g id="node5" class="node">
<title>CommonService</title>
<ellipse fill="#fdb462" stroke="#000000" cx="590" cy="-104" rx="75.8836" ry="18"/>
<text text-anchor="middle" x="590" y="-99.8" font-family="Times,serif" font-size="14.00" fill="#000000">CommonService</text>
</g>
<!-- CommonService&#45;&gt;CarrierInformationComponent -->
<g id="edge4" class="edge">
<title>CommonService&#45;&gt;CarrierInformationComponent</title>
<path fill="none" stroke="#000000" d="M590,-122.1061C590,-122.1061 590,-140.991 590,-140.991"/>
<polygon fill="#000000" stroke="#000000" points="586.5001,-140.9909 590,-150.991 593.5001,-140.991 586.5001,-140.9909"/>
</g>
<!-- CommonHelperService -->
<g id="node6" class="node">
<title>CommonHelperService</title>
<ellipse fill="#fdb462" stroke="#000000" cx="394" cy="-104" rx="102.4275" ry="18"/>
<text text-anchor="middle" x="394" y="-99.8" font-family="Times,serif" font-size="14.00" fill="#000000">CommonHelperService</text>
</g>
<!-- CommonHelperService&#45;&gt;CarrierInformationComponent -->
<g id="edge5" class="edge">
<title>CommonHelperService&#45;&gt;CarrierInformationComponent</title>
<path fill="none" stroke="#000000" d="M496.3366,-104C504.4536,-104 509.597,-104 509.597,-104 509.597,-104 509.597,-140.8939 509.597,-140.8939"/>
<polygon fill="#000000" stroke="#000000" points="506.0971,-140.8938 509.597,-150.8939 513.0971,-140.8939 506.0971,-140.8938"/>
</g>
<!-- FormHelper -->
<g id="node7" class="node">
<title>FormHelper</title>
<ellipse fill="#fdb462" stroke="#000000" cx="216" cy="-104" rx="58.4648" ry="18"/>
<text text-anchor="middle" x="216" y="-99.8" font-family="Times,serif" font-size="14.00" fill="#000000">FormHelper</text>
</g>
<!-- FormHelper&#45;&gt;CarrierInformationComponent -->
<g id="edge6" class="edge">
<title>FormHelper&#45;&gt;CarrierInformationComponent</title>
<path fill="none" stroke="#000000" d="M216,-122.207C216,-127.5549 216,-132 216,-132 216,-132 505.1359,-132 505.1359,-132 505.1359,-132 505.1359,-140.9336 505.1359,-140.9336"/>
<polygon fill="#000000" stroke="#000000" points="501.636,-140.9335 505.1359,-150.9336 508.636,-140.9336 501.636,-140.9335"/>
</g>
<!-- RxJSHelper -->
<g id="node8" class="node">
<title>RxJSHelper</title>
<ellipse fill="#fdb462" stroke="#000000" cx="82" cy="-104" rx="57.9023" ry="18"/>
<text text-anchor="middle" x="82" y="-99.8" font-family="Times,serif" font-size="14.00" fill="#000000">RxJSHelper</text>
</g>
<!-- RxJSHelper&#45;&gt;CarrierInformationComponent -->
<g id="edge7" class="edge">
<title>RxJSHelper&#45;&gt;CarrierInformationComponent</title>
<path fill="none" stroke="#000000" d="M133.9559,-112.0588C133.9559,-123.2134 133.9559,-142 133.9559,-142 133.9559,-142 500.6747,-142 500.6747,-142 500.6747,-142 500.6747,-142.8841 500.6747,-142.8841"/>
<polygon fill="#000000" stroke="#000000" points="497.1748,-140.8408 500.6747,-150.8408 504.1748,-140.8409 497.1748,-140.8408"/>
</g>
<!-- CarrierSharedModule -->
<g id="node9" class="node">
<title>CarrierSharedModule</title>
<polygon fill="#8dd3c7" stroke="#000000" points="466.0604,-187 463.0604,-191 442.0604,-191 439.0604,-187 327.9396,-187 327.9396,-151 466.0604,-151 466.0604,-187"/>
<text text-anchor="middle" x="397" y="-164.8" font-family="Times,serif" font-size="14.00" fill="#000000">CarrierSharedModule</text>
</g>
<!-- CarrierSharedModule&#45;&gt;CarrierInformationModule -->
<g id="edge8" class="edge">
<title>CarrierSharedModule&#45;&gt;CarrierInformationModule</title>
<path fill="none" stroke="#000000" d="M361.499,-187.1061C361.499,-187.1061 361.499,-205.991 361.499,-205.991"/>
<polygon fill="#000000" stroke="#000000" points="357.999,-205.9909 361.499,-215.991 364.999,-205.991 357.999,-205.9909"/>
</g>
<!-- CommonDirectiveModule -->
<g id="node10" class="node">
<title>CommonDirectiveModule</title>
<polygon fill="#8dd3c7" stroke="#000000" points="309.7506,-187 306.7506,-191 285.7506,-191 282.7506,-187 146.2494,-187 146.2494,-151 309.7506,-151 309.7506,-187"/>
<text text-anchor="middle" x="228" y="-164.8" font-family="Times,serif" font-size="14.00" fill="#000000">CommonDirectiveModule</text>
</g>
<!-- CommonDirectiveModule&#45;&gt;CarrierInformationModule -->
<g id="edge9" class="edge">
<title>CommonDirectiveModule&#45;&gt;CarrierInformationModule</title>
<path fill="none" stroke="#000000" d="M269.4236,-187.1061C269.4236,-187.1061 269.4236,-205.991 269.4236,-205.991"/>
<polygon fill="#000000" stroke="#000000" points="265.9236,-205.9909 269.4236,-215.991 272.9236,-205.991 265.9236,-205.9909"/>
</g>
<!-- SharedModule -->
<g id="node11" class="node">
<title>SharedModule</title>
<polygon fill="#8dd3c7" stroke="#000000" points="128.4231,-187 125.4231,-191 104.4231,-191 101.4231,-187 29.5769,-187 29.5769,-151 128.4231,-151 128.4231,-187"/>
<text text-anchor="middle" x="79" y="-164.8" font-family="Times,serif" font-size="14.00" fill="#000000">SharedModule</text>
</g>
<!-- SharedModule&#45;&gt;CarrierInformationModule -->
<g id="edge10" class="edge">
<title>SharedModule&#45;&gt;CarrierInformationModule</title>
<path fill="none" stroke="#000000" d="M79,-187.1061C79,-206.3391 79,-234 79,-234 79,-234 218.8684,-234 218.8684,-234"/>
<polygon fill="#000000" stroke="#000000" points="218.8685,-237.5001 228.8684,-234 218.8684,-230.5001 218.8685,-237.5001"/>
</g>
</g>
</svg>
