<?xml version="1.0" encoding="UTF-8" standalone="no"?>
<!DOCTYPE svg PUBLIC "-//W3C//DTD SVG 1.1//EN"
 "http://www.w3.org/Graphics/SVG/1.1/DTD/svg11.dtd">
<!-- Generated by graphviz version 2.40.1 (20161225.0304)
 -->
<!-- Title: dependencies Pages: 1 -->
<svg width="1024pt" height="349pt"
 viewBox="0.00 0.00 1024.00 349.00" xmlns="http://www.w3.org/2000/svg" xmlns:xlink="http://www.w3.org/1999/xlink">
<g id="graph0" class="graph" transform="scale(1 1) rotate(0) translate(4 345)">
<title>dependencies</title>
<polygon fill="#ffffff" stroke="transparent" points="-4,4 -4,-345 1020,-345 1020,4 -4,4"/>
<text text-anchor="start" x="487.0091" y="-42.4" font-family="sans-serif" font-weight="bold" font-size="14.00" fill="#000000">Legend</text>
<polygon fill="#ffffb3" stroke="transparent" points="274,-10 274,-30 294,-30 294,-10 274,-10"/>
<text text-anchor="start" x="297.629" y="-15.4" font-family="sans-serif" font-size="14.00" fill="#000000"> &#160;Declarations</text>
<polygon fill="#8dd3c7" stroke="transparent" points="387,-10 387,-30 407,-30 407,-10 387,-10"/>
<text text-anchor="start" x="410.7251" y="-15.4" font-family="sans-serif" font-size="14.00" fill="#000000"> &#160;Module</text>
<polygon fill="#80b1d3" stroke="transparent" points="473,-10 473,-30 493,-30 493,-10 473,-10"/>
<text text-anchor="start" x="496.7812" y="-15.4" font-family="sans-serif" font-size="14.00" fill="#000000"> &#160;Bootstrap</text>
<polygon fill="#fdb462" stroke="transparent" points="570,-10 570,-30 590,-30 590,-10 570,-10"/>
<text text-anchor="start" x="593.6732" y="-15.4" font-family="sans-serif" font-size="14.00" fill="#000000"> &#160;Providers</text>
<polygon fill="#fb8072" stroke="transparent" points="666,-10 666,-30 686,-30 686,-10 666,-10"/>
<text text-anchor="start" x="689.7258" y="-15.4" font-family="sans-serif" font-size="14.00" fill="#000000"> &#160;Exports</text>
<g id="clust1" class="cluster">
<title>cluster_CommonDirectiveModule</title>
<polygon fill="none" stroke="#000000" stroke-dasharray="1,5" points="8,-70 8,-333 1008,-333 1008,-70 8,-70"/>
</g>
<g id="clust2" class="cluster">
<title>cluster_CommonDirectiveModule_declarations</title>
<polygon fill="none" stroke="#000000" points="24,-143 24,-195 990,-195 990,-143 24,-143"/>
</g>
<g id="clust4" class="cluster">
<title>cluster_CommonDirectiveModule_MyCurrencyFormatterDirective_providers</title>
<polygon fill="none" stroke="#000000" points="345,-78 345,-130 631,-130 631,-78 345,-78"/>
</g>
<g id="clust9" class="cluster">
<title>cluster_CommonDirectiveModule_exports</title>
<polygon fill="none" stroke="#000000" points="16,-273 16,-325 1000,-325 1000,-273 16,-273"/>
</g>
<!-- AppRestrictSpecialCharDirective -->
<g id="node1" class="node">
<title>AppRestrictSpecialCharDirective</title>
<polygon fill="#ffffb3" stroke="#000000" points="982.1517,-187 777.8483,-187 777.8483,-151 982.1517,-151 982.1517,-187"/>
<text text-anchor="middle" x="880" y="-164.8" font-family="Times,serif" font-size="14.00" fill="#000000">AppRestrictSpecialCharDirective</text>
</g>
<!-- CommonDirectiveModule -->
<g id="node6" class="node">
<title>CommonDirectiveModule</title>
<polygon fill="#8dd3c7" stroke="#000000" points="558.7506,-252 555.7506,-256 534.7506,-256 531.7506,-252 395.2494,-252 395.2494,-216 558.7506,-216 558.7506,-252"/>
<text text-anchor="middle" x="477" y="-229.8" font-family="Times,serif" font-size="14.00" fill="#000000">CommonDirectiveModule</text>
</g>
<!-- AppRestrictSpecialCharDirective&#45;&gt;CommonDirectiveModule -->
<g id="edge1" class="edge">
<title>AppRestrictSpecialCharDirective&#45;&gt;CommonDirectiveModule</title>
<path fill="none" stroke="#000000" d="M916.1086,-187.0225C916.1086,-204.3734 916.1086,-228 916.1086,-228 916.1086,-228 568.8207,-228 568.8207,-228"/>
<polygon fill="#000000" stroke="#000000" points="568.8208,-224.5001 558.8207,-228 568.8207,-231.5001 568.8208,-224.5001"/>
</g>
<!-- MyCurrencyFormatterDirective -->
<g id="node2" class="node">
<title>MyCurrencyFormatterDirective</title>
<polygon fill="#ffffb3" stroke="#000000" points="760.3193,-187 565.6807,-187 565.6807,-151 760.3193,-151 760.3193,-187"/>
<text text-anchor="middle" x="663" y="-164.8" font-family="Times,serif" font-size="14.00" fill="#000000">MyCurrencyFormatterDirective</text>
</g>
<!-- MyCurrencyFormatterDirective&#45;&gt;CommonDirectiveModule -->
<g id="edge2" class="edge">
<title>MyCurrencyFormatterDirective&#45;&gt;CommonDirectiveModule</title>
<path fill="none" stroke="#000000" d="M565.5707,-169C558.1223,-169 553.4257,-169 553.4257,-169 553.4257,-169 553.4257,-205.8939 553.4257,-205.8939"/>
<polygon fill="#000000" stroke="#000000" points="549.9258,-205.8938 553.4257,-215.8939 556.9258,-205.8939 549.9258,-205.8938"/>
</g>
<!-- OnlyNumberDirective -->
<g id="node3" class="node">
<title>OnlyNumberDirective</title>
<polygon fill="#ffffb3" stroke="#000000" points="547.9524,-187 406.0476,-187 406.0476,-151 547.9524,-151 547.9524,-187"/>
<text text-anchor="middle" x="477" y="-164.8" font-family="Times,serif" font-size="14.00" fill="#000000">OnlyNumberDirective</text>
</g>
<!-- OnlyNumberDirective&#45;&gt;CommonDirectiveModule -->
<g id="edge5" class="edge">
<title>OnlyNumberDirective&#45;&gt;CommonDirectiveModule</title>
<path fill="none" stroke="#000000" d="M477,-187.1061C477,-187.1061 477,-205.991 477,-205.991"/>
<polygon fill="#000000" stroke="#000000" points="473.5001,-205.9909 477,-215.991 480.5001,-205.991 473.5001,-205.9909"/>
</g>
<!-- RestrictSpecialCharacterDirective -->
<g id="node4" class="node">
<title>RestrictSpecialCharacterDirective</title>
<polygon fill="#ffffb3" stroke="#000000" points="387.7401,-187 180.2599,-187 180.2599,-151 387.7401,-151 387.7401,-187"/>
<text text-anchor="middle" x="284" y="-164.8" font-family="Times,serif" font-size="14.00" fill="#000000">RestrictSpecialCharacterDirective</text>
</g>
<!-- RestrictSpecialCharacterDirective&#45;&gt;CommonDirectiveModule -->
<g id="edge6" class="edge">
<title>RestrictSpecialCharacterDirective&#45;&gt;CommonDirectiveModule</title>
<path fill="none" stroke="#000000" d="M387.6534,-169C395.5777,-169 400.5743,-169 400.5743,-169 400.5743,-169 400.5743,-205.8939 400.5743,-205.8939"/>
<polygon fill="#000000" stroke="#000000" points="397.0744,-205.8938 400.5743,-215.8939 404.0744,-205.8939 397.0744,-205.8938"/>
</g>
<!-- UpperCaseDirective -->
<g id="node5" class="node">
<title>UpperCaseDirective</title>
<polygon fill="#ffffb3" stroke="#000000" points="162.2753,-187 31.7247,-187 31.7247,-151 162.2753,-151 162.2753,-187"/>
<text text-anchor="middle" x="97" y="-164.8" font-family="Times,serif" font-size="14.00" fill="#000000">UpperCaseDirective</text>
</g>
<!-- UpperCaseDirective&#45;&gt;CommonDirectiveModule -->
<g id="edge8" class="edge">
<title>UpperCaseDirective&#45;&gt;CommonDirectiveModule</title>
<path fill="none" stroke="#000000" d="M115.8792,-187.0225C115.8792,-204.3734 115.8792,-228 115.8792,-228 115.8792,-228 385.0561,-228 385.0561,-228"/>
<polygon fill="#000000" stroke="#000000" points="385.0561,-231.5001 395.0561,-228 385.0561,-224.5001 385.0561,-231.5001"/>
</g>
<!-- AppRestrictSpecialCharDirective  -->
<g id="node9" class="node">
<title>AppRestrictSpecialCharDirective </title>
<polygon fill="#fb8072" stroke="#000000" points="991.6519,-317 784.3481,-317 784.3481,-281 991.6519,-281 991.6519,-317"/>
<text text-anchor="middle" x="888" y="-294.8" font-family="Times,serif" font-size="14.00" fill="#000000">AppRestrictSpecialCharDirective </text>
</g>
<!-- CommonDirectiveModule&#45;&gt;AppRestrictSpecialCharDirective  -->
<g id="edge10" class="edge">
<title>CommonDirectiveModule&#45;&gt;AppRestrictSpecialCharDirective </title>
<path fill="none" stroke="#000000" stroke-dasharray="5,2" d="M558.8875,-240C668.7278,-240 850.1414,-240 850.1414,-240 850.1414,-240 850.1414,-270.9775 850.1414,-270.9775"/>
<polygon fill="#000000" stroke="#000000" points="846.6415,-270.9774 850.1414,-280.9775 853.6415,-270.9775 846.6415,-270.9774"/>
</g>
<!-- MyCurrencyFormatterDirective  -->
<g id="node10" class="node">
<title>MyCurrencyFormatterDirective </title>
<polygon fill="#fb8072" stroke="#000000" points="766.3195,-317 567.6805,-317 567.6805,-281 766.3195,-281 766.3195,-317"/>
<text text-anchor="middle" x="667" y="-294.8" font-family="Times,serif" font-size="14.00" fill="#000000">MyCurrencyFormatterDirective </text>
</g>
<!-- CommonDirectiveModule&#45;&gt;MyCurrencyFormatterDirective  -->
<g id="edge11" class="edge">
<title>CommonDirectiveModule&#45;&gt;MyCurrencyFormatterDirective </title>
<path fill="none" stroke="#000000" stroke-dasharray="5,2" d="M554.3007,-252.1061C554.3007,-271.3391 554.3007,-299 554.3007,-299 554.3007,-299 557.6714,-299 557.6714,-299"/>
<polygon fill="#000000" stroke="#000000" points="557.6714,-302.5001 567.6714,-299 557.6713,-295.5001 557.6714,-302.5001"/>
</g>
<!-- OnlyNumberDirective  -->
<g id="node11" class="node">
<title>OnlyNumberDirective </title>
<polygon fill="#fb8072" stroke="#000000" points="549.9531,-317 404.0469,-317 404.0469,-281 549.9531,-281 549.9531,-317"/>
<text text-anchor="middle" x="477" y="-294.8" font-family="Times,serif" font-size="14.00" fill="#000000">OnlyNumberDirective </text>
</g>
<!-- CommonDirectiveModule&#45;&gt;OnlyNumberDirective  -->
<g id="edge12" class="edge">
<title>CommonDirectiveModule&#45;&gt;OnlyNumberDirective </title>
<path fill="none" stroke="#000000" stroke-dasharray="5,2" d="M477,-252.1061C477,-252.1061 477,-270.991 477,-270.991"/>
<polygon fill="#000000" stroke="#000000" points="473.5001,-270.9909 477,-280.991 480.5001,-270.991 473.5001,-270.9909"/>
</g>
<!-- RestrictSpecialCharacterDirective  -->
<g id="node12" class="node">
<title>RestrictSpecialCharacterDirective </title>
<polygon fill="#fb8072" stroke="#000000" points="386.2402,-317 175.7598,-317 175.7598,-281 386.2402,-281 386.2402,-317"/>
<text text-anchor="middle" x="281" y="-294.8" font-family="Times,serif" font-size="14.00" fill="#000000">RestrictSpecialCharacterDirective </text>
</g>
<!-- CommonDirectiveModule&#45;&gt;RestrictSpecialCharacterDirective  -->
<g id="edge13" class="edge">
<title>CommonDirectiveModule&#45;&gt;RestrictSpecialCharacterDirective </title>
<path fill="none" stroke="#000000" stroke-dasharray="5,2" d="M399.6993,-252.1061C399.6993,-271.3391 399.6993,-299 399.6993,-299 399.6993,-299 396.5429,-299 396.5429,-299"/>
<polygon fill="#000000" stroke="#000000" points="396.5429,-295.5001 386.5429,-299 396.5428,-302.5001 396.5429,-295.5001"/>
</g>
<!-- UpperCaseDirective  -->
<g id="node13" class="node">
<title>UpperCaseDirective </title>
<polygon fill="#fb8072" stroke="#000000" points="157.7752,-317 24.2248,-317 24.2248,-281 157.7752,-281 157.7752,-317"/>
<text text-anchor="middle" x="91" y="-294.8" font-family="Times,serif" font-size="14.00" fill="#000000">UpperCaseDirective </text>
</g>
<!-- CommonDirectiveModule&#45;&gt;UpperCaseDirective  -->
<g id="edge14" class="edge">
<title>CommonDirectiveModule&#45;&gt;UpperCaseDirective </title>
<path fill="none" stroke="#000000" stroke-dasharray="5,2" d="M394.9349,-240C277.0659,-240 73.8708,-240 73.8708,-240 73.8708,-240 73.8708,-270.9775 73.8708,-270.9775"/>
<polygon fill="#000000" stroke="#000000" points="70.3709,-270.9774 73.8708,-280.9775 77.3709,-270.9775 70.3709,-270.9774"/>
</g>
<!-- MyCurrencyPipe -->
<g id="node7" class="node">
<title>MyCurrencyPipe</title>
<ellipse fill="#fdb462" stroke="#000000" cx="545" cy="-104" rx="77.5897" ry="18"/>
<text text-anchor="middle" x="545" y="-99.8" font-family="Times,serif" font-size="14.00" fill="#000000">MyCurrencyPipe</text>
</g>
<!-- MyCurrencyPipe&#45;&gt;MyCurrencyFormatterDirective -->
<g id="edge3" class="edge">
<title>MyCurrencyPipe&#45;&gt;MyCurrencyFormatterDirective</title>
<path fill="none" stroke="#000000" d="M603.56,-115.922C603.56,-115.922 603.56,-140.7669 603.56,-140.7669"/>
<polygon fill="#000000" stroke="#000000" points="600.0601,-140.7669 603.56,-150.7669 607.0601,-140.7669 600.0601,-140.7669"/>
</g>
<!-- NgModel -->
<g id="node8" class="node">
<title>NgModel</title>
<ellipse fill="#fdb462" stroke="#000000" cx="401" cy="-104" rx="48.0955" ry="18"/>
<text text-anchor="middle" x="401" y="-99.8" font-family="Times,serif" font-size="14.00" fill="#000000">NgModel</text>
</g>
<!-- NgModel&#45;&gt;MyCurrencyFormatterDirective -->
<g id="edge4" class="edge">
<title>NgModel&#45;&gt;MyCurrencyFormatterDirective</title>
<path fill="none" stroke="#000000" d="M427.5358,-119.3407C427.5358,-127.9584 427.5358,-137 427.5358,-137 427.5358,-137 584.5752,-137 584.5752,-137 584.5752,-137 584.5752,-140.7566 584.5752,-140.7566"/>
<polygon fill="#000000" stroke="#000000" points="581.0753,-140.7566 584.5752,-150.7566 588.0753,-140.7566 581.0753,-140.7566"/>
</g>
<!-- NgModel&#45;&gt;RestrictSpecialCharacterDirective -->
<g id="edge7" class="edge">
<title>NgModel&#45;&gt;RestrictSpecialCharacterDirective</title>
<path fill="none" stroke="#000000" d="M370.2861,-118.104C370.2861,-118.104 370.2861,-140.7209 370.2861,-140.7209"/>
<polygon fill="#000000" stroke="#000000" points="366.7862,-140.7209 370.2861,-150.7209 373.7862,-140.7209 366.7862,-140.7209"/>
</g>
<!-- NgModel&#45;&gt;UpperCaseDirective -->
<g id="edge9" class="edge">
<title>NgModel&#45;&gt;UpperCaseDirective</title>
<path fill="none" stroke="#000000" d="M352.8303,-104C267.1105,-104 97,-104 97,-104 97,-104 97,-140.8939 97,-140.8939"/>
<polygon fill="#000000" stroke="#000000" points="93.5001,-140.8938 97,-150.8939 100.5001,-140.8939 93.5001,-140.8938"/>
</g>
</g>
</svg>
