<?xml version="1.0" encoding="UTF-8" standalone="no"?>
<!DOCTYPE svg PUBLIC "-//W3C//DTD SVG 1.1//EN"
 "http://www.w3.org/Graphics/SVG/1.1/DTD/svg11.dtd">
<!-- Generated by graphviz version 2.40.1 (20161225.0304)
 -->
<!-- Title: dependencies Pages: 1 -->
<svg width="1055pt" height="349pt"
 viewBox="0.00 0.00 1055.00 349.00" xmlns="http://www.w3.org/2000/svg" xmlns:xlink="http://www.w3.org/1999/xlink">
<g id="graph0" class="graph" transform="scale(1 1) rotate(0) translate(4 345)">
<title>dependencies</title>
<polygon fill="#ffffff" stroke="transparent" points="-4,4 -4,-345 1051,-345 1051,4 -4,4"/>
<text text-anchor="start" x="502.5091" y="-42.4" font-family="sans-serif" font-weight="bold" font-size="14.00" fill="#000000">Legend</text>
<polygon fill="#ffffb3" stroke="transparent" points="289.5,-10 289.5,-30 309.5,-30 309.5,-10 289.5,-10"/>
<text text-anchor="start" x="313.129" y="-15.4" font-family="sans-serif" font-size="14.00" fill="#000000"> &#160;Declarations</text>
<polygon fill="#8dd3c7" stroke="transparent" points="402.5,-10 402.5,-30 422.5,-30 422.5,-10 402.5,-10"/>
<text text-anchor="start" x="426.2251" y="-15.4" font-family="sans-serif" font-size="14.00" fill="#000000"> &#160;Module</text>
<polygon fill="#80b1d3" stroke="transparent" points="488.5,-10 488.5,-30 508.5,-30 508.5,-10 488.5,-10"/>
<text text-anchor="start" x="512.2812" y="-15.4" font-family="sans-serif" font-size="14.00" fill="#000000"> &#160;Bootstrap</text>
<polygon fill="#fdb462" stroke="transparent" points="585.5,-10 585.5,-30 605.5,-30 605.5,-10 585.5,-10"/>
<text text-anchor="start" x="609.1732" y="-15.4" font-family="sans-serif" font-size="14.00" fill="#000000"> &#160;Providers</text>
<polygon fill="#fb8072" stroke="transparent" points="681.5,-10 681.5,-30 701.5,-30 701.5,-10 681.5,-10"/>
<text text-anchor="start" x="705.2258" y="-15.4" font-family="sans-serif" font-size="14.00" fill="#000000"> &#160;Exports</text>
<g id="clust1" class="cluster">
<title>cluster_LoginModule</title>
<polygon fill="none" stroke="#000000" stroke-dasharray="1,5" points="8,-70 8,-333 1039,-333 1039,-70 8,-70"/>
</g>
<g id="clust2" class="cluster">
<title>cluster_LoginModule_declarations</title>
<polygon fill="none" stroke="#000000" points="901,-143 901,-195 1031,-195 1031,-143 901,-143"/>
</g>
<g id="clust3" class="cluster">
<title>cluster_LoginModule_LoginComponent_providers</title>
<polygon fill="none" stroke="#000000" points="183,-78 183,-130 1031,-130 1031,-78 183,-78"/>
</g>
<g id="clust4" class="cluster">
<title>cluster_LoginModule_imports</title>
<polygon fill="none" stroke="#000000" points="16,-143 16,-195 893,-195 893,-143 16,-143"/>
</g>
<g id="clust5" class="cluster">
<title>cluster_LoginModule_exports</title>
<polygon fill="none" stroke="#000000" points="502,-273 502,-325 636,-325 636,-273 502,-273"/>
</g>
<!-- LoginComponent -->
<g id="node1" class="node">
<title>LoginComponent</title>
<polygon fill="#ffffb3" stroke="#000000" points="1023.2758,-187 908.7242,-187 908.7242,-151 1023.2758,-151 1023.2758,-187"/>
<text text-anchor="middle" x="966" y="-164.8" font-family="Times,serif" font-size="14.00" fill="#000000">LoginComponent</text>
</g>
<!-- LoginModule -->
<g id="node2" class="node">
<title>LoginModule</title>
<polygon fill="#8dd3c7" stroke="#000000" points="615.493,-252 612.493,-256 591.493,-256 588.493,-252 522.507,-252 522.507,-216 615.493,-216 615.493,-252"/>
<text text-anchor="middle" x="569" y="-229.8" font-family="Times,serif" font-size="14.00" fill="#000000">LoginModule</text>
</g>
<!-- LoginComponent&#45;&gt;LoginModule -->
<g id="edge1" class="edge">
<title>LoginComponent&#45;&gt;LoginModule</title>
<path fill="none" stroke="#000000" d="M966,-187.2843C966,-208.3211 966,-240 966,-240 966,-240 625.7084,-240 625.7084,-240"/>
<polygon fill="#000000" stroke="#000000" points="625.7084,-236.5001 615.7084,-240 625.7083,-243.5001 625.7084,-236.5001"/>
</g>
<!-- LoginComponent  -->
<g id="node13" class="node">
<title>LoginComponent </title>
<polygon fill="#fb8072" stroke="#000000" points="628.2759,-317 509.7241,-317 509.7241,-281 628.2759,-281 628.2759,-317"/>
<text text-anchor="middle" x="569" y="-294.8" font-family="Times,serif" font-size="14.00" fill="#000000">LoginComponent </text>
</g>
<!-- LoginModule&#45;&gt;LoginComponent  -->
<g id="edge12" class="edge">
<title>LoginModule&#45;&gt;LoginComponent </title>
<path fill="none" stroke="#000000" stroke-dasharray="5,2" d="M569,-252.1061C569,-252.1061 569,-270.991 569,-270.991"/>
<polygon fill="#000000" stroke="#000000" points="565.5001,-270.9909 569,-280.991 572.5001,-270.991 565.5001,-270.9909"/>
</g>
<!-- AuthenticationService -->
<g id="node3" class="node">
<title>AuthenticationService</title>
<ellipse fill="#fdb462" stroke="#000000" cx="926" cy="-104" rx="97.2683" ry="18"/>
<text text-anchor="middle" x="926" y="-99.8" font-family="Times,serif" font-size="14.00" fill="#000000">AuthenticationService</text>
</g>
<!-- AuthenticationService&#45;&gt;LoginComponent -->
<g id="edge2" class="edge">
<title>AuthenticationService&#45;&gt;LoginComponent</title>
<path fill="none" stroke="#000000" d="M1004.2554,-114.7334C1004.2554,-114.7334 1004.2554,-140.8723 1004.2554,-140.8723"/>
<polygon fill="#000000" stroke="#000000" points="1000.7555,-140.8722 1004.2554,-150.8723 1007.7555,-140.8723 1000.7555,-140.8722"/>
</g>
<!-- AlertService -->
<g id="node4" class="node">
<title>AlertService</title>
<ellipse fill="#fdb462" stroke="#000000" cx="751" cy="-104" rx="59.6646" ry="18"/>
<text text-anchor="middle" x="751" y="-99.8" font-family="Times,serif" font-size="14.00" fill="#000000">AlertService</text>
</g>
<!-- AlertService&#45;&gt;LoginComponent -->
<g id="edge3" class="edge">
<title>AlertService&#45;&gt;LoginComponent</title>
<path fill="none" stroke="#000000" d="M782.8434,-119.3354C782.8434,-124.0391 782.8434,-128 782.8434,-128 782.8434,-128 985.1268,-128 985.1268,-128 985.1268,-128 985.1268,-140.8975 985.1268,-140.8975"/>
<polygon fill="#000000" stroke="#000000" points="981.6269,-140.8974 985.1268,-150.8975 988.6269,-140.8975 981.6269,-140.8974"/>
</g>
<!-- LoginService -->
<g id="node5" class="node">
<title>LoginService</title>
<ellipse fill="#fdb462" stroke="#000000" cx="610" cy="-104" rx="63.1209" ry="18"/>
<text text-anchor="middle" x="610" y="-99.8" font-family="Times,serif" font-size="14.00" fill="#000000">LoginService</text>
</g>
<!-- LoginService&#45;&gt;LoginComponent -->
<g id="edge4" class="edge">
<title>LoginService&#45;&gt;LoginComponent</title>
<path fill="none" stroke="#000000" d="M627.2259,-121.4511C627.2259,-128.0509 627.2259,-134 627.2259,-134 627.2259,-134 965.9981,-134 965.9981,-134 965.9981,-134 965.9981,-140.68 965.9981,-140.68"/>
<polygon fill="#000000" stroke="#000000" points="962.4982,-140.6799 965.9981,-150.68 969.4982,-140.68 962.4982,-140.6799"/>
</g>
<!-- CommonHelperService -->
<g id="node6" class="node">
<title>CommonHelperService</title>
<ellipse fill="#fdb462" stroke="#000000" cx="427" cy="-104" rx="102.4275" ry="18"/>
<text text-anchor="middle" x="427" y="-99.8" font-family="Times,serif" font-size="14.00" fill="#000000">CommonHelperService</text>
</g>
<!-- CommonHelperService&#45;&gt;LoginComponent -->
<g id="edge5" class="edge">
<title>CommonHelperService&#45;&gt;LoginComponent</title>
<path fill="none" stroke="#000000" d="M462.6997,-121.1565C462.6997,-130.4287 462.6997,-140 462.6997,-140 462.6997,-140 946.8695,-140 946.8695,-140 946.8695,-140 946.8695,-141.0799 946.8695,-141.0799"/>
<polygon fill="#000000" stroke="#000000" points="943.3696,-140.7985 946.8695,-150.7985 950.3696,-140.7986 943.3696,-140.7985"/>
</g>
<!-- RxJSHelper -->
<g id="node7" class="node">
<title>RxJSHelper</title>
<ellipse fill="#fdb462" stroke="#000000" cx="249" cy="-104" rx="57.9023" ry="18"/>
<text text-anchor="middle" x="249" y="-99.8" font-family="Times,serif" font-size="14.00" fill="#000000">RxJSHelper</text>
</g>
<!-- RxJSHelper&#45;&gt;LoginComponent -->
<g id="edge6" class="edge">
<title>RxJSHelper&#45;&gt;LoginComponent</title>
<path fill="none" stroke="#000000" d="M256.4776,-122.0555C256.4776,-133.439 256.4776,-146 256.4776,-146 256.4776,-146 927.7408,-146 927.7408,-146 927.7408,-146 927.7408,-146.4878 927.7408,-146.4878"/>
<polygon fill="#000000" stroke="#000000" points="924.2411,-140.8776 927.7408,-150.8777 931.2411,-140.8778 924.2411,-140.8776"/>
</g>
<!-- AlertServiceModule -->
<g id="node8" class="node">
<title>AlertServiceModule</title>
<polygon fill="#8dd3c7" stroke="#000000" points="885.2907,-187 882.2907,-191 861.2907,-191 858.2907,-187 754.7093,-187 754.7093,-151 885.2907,-151 885.2907,-187"/>
<text text-anchor="middle" x="820" y="-164.8" font-family="Times,serif" font-size="14.00" fill="#000000">AlertServiceModule</text>
</g>
<!-- AlertServiceModule&#45;&gt;LoginModule -->
<g id="edge7" class="edge">
<title>AlertServiceModule&#45;&gt;LoginModule</title>
<path fill="none" stroke="#000000" d="M820,-187.0225C820,-204.3734 820,-228 820,-228 820,-228 625.6229,-228 625.6229,-228"/>
<polygon fill="#000000" stroke="#000000" points="625.623,-224.5001 615.6229,-228 625.6229,-231.5001 625.623,-224.5001"/>
</g>
<!-- AppLoginRoutinModule -->
<g id="node9" class="node">
<title>AppLoginRoutinModule</title>
<polygon fill="#8dd3c7" stroke="#000000" points="736.7176,-187 733.7176,-191 712.7176,-191 709.7176,-187 581.2824,-187 581.2824,-151 736.7176,-151 736.7176,-187"/>
<text text-anchor="middle" x="659" y="-164.8" font-family="Times,serif" font-size="14.00" fill="#000000">AppLoginRoutinModule</text>
</g>
<!-- AppLoginRoutinModule&#45;&gt;LoginModule -->
<g id="edge8" class="edge">
<title>AppLoginRoutinModule&#45;&gt;LoginModule</title>
<path fill="none" stroke="#000000" d="M598.4439,-187.1061C598.4439,-187.1061 598.4439,-205.991 598.4439,-205.991"/>
<polygon fill="#000000" stroke="#000000" points="594.944,-205.9909 598.4439,-215.991 601.944,-205.991 594.944,-205.9909"/>
</g>
<!-- BeforeLoginFooterModule -->
<g id="node10" class="node">
<title>BeforeLoginFooterModule</title>
<polygon fill="#8dd3c7" stroke="#000000" points="563.6288,-187 560.6288,-191 539.6288,-191 536.6288,-187 396.3712,-187 396.3712,-151 563.6288,-151 563.6288,-187"/>
<text text-anchor="middle" x="480" y="-164.8" font-family="Times,serif" font-size="14.00" fill="#000000">BeforeLoginFooterModule</text>
</g>
<!-- BeforeLoginFooterModule&#45;&gt;LoginModule -->
<g id="edge9" class="edge">
<title>BeforeLoginFooterModule&#45;&gt;LoginModule</title>
<path fill="none" stroke="#000000" d="M543.1589,-187.1061C543.1589,-187.1061 543.1589,-205.991 543.1589,-205.991"/>
<polygon fill="#000000" stroke="#000000" points="539.6589,-205.9909 543.1589,-215.991 546.6589,-205.991 539.6589,-205.9909"/>
</g>
<!-- BeforeLoginHeaderModule -->
<g id="node11" class="node">
<title>BeforeLoginHeaderModule</title>
<polygon fill="#8dd3c7" stroke="#000000" points="377.9917,-187 374.9917,-191 353.9917,-191 350.9917,-187 206.0083,-187 206.0083,-151 377.9917,-151 377.9917,-187"/>
<text text-anchor="middle" x="292" y="-164.8" font-family="Times,serif" font-size="14.00" fill="#000000">BeforeLoginHeaderModule</text>
</g>
<!-- BeforeLoginHeaderModule&#45;&gt;LoginModule -->
<g id="edge10" class="edge">
<title>BeforeLoginHeaderModule&#45;&gt;LoginModule</title>
<path fill="none" stroke="#000000" d="M292,-187.0225C292,-204.3734 292,-228 292,-228 292,-228 512.324,-228 512.324,-228"/>
<polygon fill="#000000" stroke="#000000" points="512.324,-231.5001 522.324,-228 512.3239,-224.5001 512.324,-231.5001"/>
</g>
<!-- CommonDirectiveModule -->
<g id="node12" class="node">
<title>CommonDirectiveModule</title>
<polygon fill="#8dd3c7" stroke="#000000" points="187.7506,-187 184.7506,-191 163.7506,-191 160.7506,-187 24.2494,-187 24.2494,-151 187.7506,-151 187.7506,-187"/>
<text text-anchor="middle" x="106" y="-164.8" font-family="Times,serif" font-size="14.00" fill="#000000">CommonDirectiveModule</text>
</g>
<!-- CommonDirectiveModule&#45;&gt;LoginModule -->
<g id="edge11" class="edge">
<title>CommonDirectiveModule&#45;&gt;LoginModule</title>
<path fill="none" stroke="#000000" d="M106,-187.2843C106,-208.3211 106,-240 106,-240 106,-240 512.4859,-240 512.4859,-240"/>
<polygon fill="#000000" stroke="#000000" points="512.4859,-243.5001 522.4859,-240 512.4859,-236.5001 512.4859,-243.5001"/>
</g>
</g>
</svg>
