<?xml version="1.0" encoding="UTF-8" standalone="no"?>
<!DOCTYPE svg PUBLIC "-//W3C//DTD SVG 1.1//EN"
 "http://www.w3.org/Graphics/SVG/1.1/DTD/svg11.dtd">
<!-- Generated by graphviz version 2.40.1 (20161225.0304)
 -->
<!-- Title: dependencies Pages: 1 -->
<svg width="1529pt" height="349pt"
 viewBox="0.00 0.00 1529.00 349.00" xmlns="http://www.w3.org/2000/svg" xmlns:xlink="http://www.w3.org/1999/xlink">
<g id="graph0" class="graph" transform="scale(1 1) rotate(0) translate(4 345)">
<title>dependencies</title>
<polygon fill="#ffffff" stroke="transparent" points="-4,4 -4,-345 1525,-345 1525,4 -4,4"/>
<text text-anchor="start" x="739.5091" y="-42.4" font-family="sans-serif" font-weight="bold" font-size="14.00" fill="#000000">Legend</text>
<polygon fill="#ffffb3" stroke="transparent" points="526.5,-10 526.5,-30 546.5,-30 546.5,-10 526.5,-10"/>
<text text-anchor="start" x="550.129" y="-15.4" font-family="sans-serif" font-size="14.00" fill="#000000"> &#160;Declarations</text>
<polygon fill="#8dd3c7" stroke="transparent" points="639.5,-10 639.5,-30 659.5,-30 659.5,-10 639.5,-10"/>
<text text-anchor="start" x="663.2251" y="-15.4" font-family="sans-serif" font-size="14.00" fill="#000000"> &#160;Module</text>
<polygon fill="#80b1d3" stroke="transparent" points="725.5,-10 725.5,-30 745.5,-30 745.5,-10 725.5,-10"/>
<text text-anchor="start" x="749.2812" y="-15.4" font-family="sans-serif" font-size="14.00" fill="#000000"> &#160;Bootstrap</text>
<polygon fill="#fdb462" stroke="transparent" points="822.5,-10 822.5,-30 842.5,-30 842.5,-10 822.5,-10"/>
<text text-anchor="start" x="846.1732" y="-15.4" font-family="sans-serif" font-size="14.00" fill="#000000"> &#160;Providers</text>
<polygon fill="#fb8072" stroke="transparent" points="918.5,-10 918.5,-30 938.5,-30 938.5,-10 918.5,-10"/>
<text text-anchor="start" x="942.2258" y="-15.4" font-family="sans-serif" font-size="14.00" fill="#000000"> &#160;Exports</text>
<g id="clust1" class="cluster">
<title>cluster_BudgetModule</title>
<polygon fill="none" stroke="#000000" stroke-dasharray="1,5" points="8,-70 8,-333 1513,-333 1513,-70 8,-70"/>
</g>
<g id="clust2" class="cluster">
<title>cluster_BudgetModule_declarations</title>
<polygon fill="none" stroke="#000000" points="863,-143 863,-195 1001,-195 1001,-143 863,-143"/>
</g>
<g id="clust3" class="cluster">
<title>cluster_BudgetModule_BudgetComponent_providers</title>
<polygon fill="none" stroke="#000000" points="16,-78 16,-130 1505,-130 1505,-78 16,-78"/>
</g>
<g id="clust4" class="cluster">
<title>cluster_BudgetModule_imports</title>
<polygon fill="none" stroke="#000000" points="16,-143 16,-195 855,-195 855,-143 16,-143"/>
</g>
<g id="clust5" class="cluster">
<title>cluster_BudgetModule_exports</title>
<polygon fill="none" stroke="#000000" points="427,-273 427,-325 569,-325 569,-273 427,-273"/>
</g>
<!-- BudgetComponent -->
<g id="node1" class="node">
<title>BudgetComponent</title>
<polygon fill="#ffffb3" stroke="#000000" points="992.7744,-187 871.2256,-187 871.2256,-151 992.7744,-151 992.7744,-187"/>
<text text-anchor="middle" x="932" y="-164.8" font-family="Times,serif" font-size="14.00" fill="#000000">BudgetComponent</text>
</g>
<!-- BudgetModule -->
<g id="node2" class="node">
<title>BudgetModule</title>
<polygon fill="#8dd3c7" stroke="#000000" points="547.9916,-252 544.9916,-256 523.9916,-256 520.9916,-252 448.0084,-252 448.0084,-216 547.9916,-216 547.9916,-252"/>
<text text-anchor="middle" x="498" y="-229.8" font-family="Times,serif" font-size="14.00" fill="#000000">BudgetModule</text>
</g>
<!-- BudgetComponent&#45;&gt;BudgetModule -->
<g id="edge1" class="edge">
<title>BudgetComponent&#45;&gt;BudgetModule</title>
<path fill="none" stroke="#000000" d="M932,-187.2843C932,-208.3211 932,-240 932,-240 932,-240 558.2093,-240 558.2093,-240"/>
<polygon fill="#000000" stroke="#000000" points="558.2093,-236.5001 548.2093,-240 558.2093,-243.5001 558.2093,-236.5001"/>
</g>
<!-- BudgetComponent  -->
<g id="node16" class="node">
<title>BudgetComponent </title>
<polygon fill="#fb8072" stroke="#000000" points="560.7745,-317 435.2255,-317 435.2255,-281 560.7745,-281 560.7745,-317"/>
<text text-anchor="middle" x="498" y="-294.8" font-family="Times,serif" font-size="14.00" fill="#000000">BudgetComponent </text>
</g>
<!-- BudgetModule&#45;&gt;BudgetComponent  -->
<g id="edge15" class="edge">
<title>BudgetModule&#45;&gt;BudgetComponent </title>
<path fill="none" stroke="#000000" stroke-dasharray="5,2" d="M498,-252.1061C498,-252.1061 498,-270.991 498,-270.991"/>
<polygon fill="#000000" stroke="#000000" points="494.5001,-270.9909 498,-280.991 501.5001,-270.991 494.5001,-270.9909"/>
</g>
<!-- BudgetService -->
<g id="node3" class="node">
<title>BudgetService</title>
<ellipse fill="#fdb462" stroke="#000000" cx="1429" cy="-104" rx="67.776" ry="18"/>
<text text-anchor="middle" x="1429" y="-99.8" font-family="Times,serif" font-size="14.00" fill="#000000">BudgetService</text>
</g>
<!-- BudgetService&#45;&gt;BudgetComponent -->
<g id="edge2" class="edge">
<title>BudgetService&#45;&gt;BudgetComponent</title>
<path fill="none" stroke="#000000" d="M1429,-122.2843C1429,-143.3211 1429,-175 1429,-175 1429,-175 1002.942,-175 1002.942,-175"/>
<polygon fill="#000000" stroke="#000000" points="1002.942,-171.5001 992.942,-175 1002.9419,-178.5001 1002.942,-171.5001"/>
</g>
<!-- CommonHttpAdapterService -->
<g id="node4" class="node">
<title>CommonHttpAdapterService</title>
<ellipse fill="#fdb462" stroke="#000000" cx="1219" cy="-104" rx="124.4186" ry="18"/>
<text text-anchor="middle" x="1219" y="-99.8" font-family="Times,serif" font-size="14.00" fill="#000000">CommonHttpAdapterService</text>
</g>
<!-- CommonHttpAdapterService&#45;&gt;BudgetComponent -->
<g id="edge3" class="edge">
<title>CommonHttpAdapterService&#45;&gt;BudgetComponent</title>
<path fill="none" stroke="#000000" d="M1219,-122.0225C1219,-139.3734 1219,-163 1219,-163 1219,-163 1002.8653,-163 1002.8653,-163"/>
<polygon fill="#000000" stroke="#000000" points="1002.8654,-159.5001 992.8653,-163 1002.8653,-166.5001 1002.8654,-159.5001"/>
</g>
<!-- CommonHelperService -->
<g id="node5" class="node">
<title>CommonHelperService</title>
<ellipse fill="#fdb462" stroke="#000000" cx="975" cy="-104" rx="102.4275" ry="18"/>
<text text-anchor="middle" x="975" y="-99.8" font-family="Times,serif" font-size="14.00" fill="#000000">CommonHelperService</text>
</g>
<!-- CommonHelperService&#45;&gt;BudgetComponent -->
<g id="edge4" class="edge">
<title>CommonHelperService&#45;&gt;BudgetComponent</title>
<path fill="none" stroke="#000000" d="M972.8703,-122.1061C972.8703,-122.1061 972.8703,-140.991 972.8703,-140.991"/>
<polygon fill="#000000" stroke="#000000" points="969.3704,-140.9909 972.8703,-150.991 976.3704,-140.991 969.3704,-140.9909"/>
</g>
<!-- CommonService -->
<g id="node6" class="node">
<title>CommonService</title>
<ellipse fill="#fdb462" stroke="#000000" cx="779" cy="-104" rx="75.8836" ry="18"/>
<text text-anchor="middle" x="779" y="-99.8" font-family="Times,serif" font-size="14.00" fill="#000000">CommonService</text>
</g>
<!-- CommonService&#45;&gt;BudgetComponent -->
<g id="edge5" class="edge">
<title>CommonService&#45;&gt;BudgetComponent</title>
<path fill="none" stroke="#000000" d="M851.0473,-109.9985C851.0473,-126.0898 851.0473,-169 851.0473,-169 851.0473,-169 861.0581,-169 861.0581,-169"/>
<polygon fill="#000000" stroke="#000000" points="861.0582,-172.5001 871.0581,-169 861.0581,-165.5001 861.0582,-172.5001"/>
</g>
<!-- AccountService -->
<g id="node7" class="node">
<title>AccountService</title>
<ellipse fill="#fdb462" stroke="#000000" cx="612" cy="-104" rx="72.9121" ry="18"/>
<text text-anchor="middle" x="612" y="-99.8" font-family="Times,serif" font-size="14.00" fill="#000000">AccountService</text>
</g>
<!-- AccountService&#45;&gt;BudgetComponent -->
<g id="edge6" class="edge">
<title>AccountService&#45;&gt;BudgetComponent</title>
<path fill="none" stroke="#000000" d="M677.895,-111.8585C677.895,-118.8579 677.895,-128 677.895,-128 677.895,-128 952.8536,-128 952.8536,-128 952.8536,-128 952.8536,-140.8975 952.8536,-140.8975"/>
<polygon fill="#000000" stroke="#000000" points="949.3537,-140.8974 952.8536,-150.8975 956.3537,-140.8975 949.3537,-140.8974"/>
</g>
<!-- ChartHelperService -->
<g id="node8" class="node">
<title>ChartHelperService</title>
<ellipse fill="#fdb462" stroke="#000000" cx="434" cy="-104" rx="87.9355" ry="18"/>
<text text-anchor="middle" x="434" y="-99.8" font-family="Times,serif" font-size="14.00" fill="#000000">ChartHelperService</text>
</g>
<!-- ChartHelperService&#45;&gt;BudgetComponent -->
<g id="edge7" class="edge">
<title>ChartHelperService&#45;&gt;BudgetComponent</title>
<path fill="none" stroke="#000000" d="M515.3166,-110.958C515.3166,-119.8203 515.3166,-134 515.3166,-134 515.3166,-134 932.8368,-134 932.8368,-134 932.8368,-134 932.8368,-140.68 932.8368,-140.68"/>
<polygon fill="#000000" stroke="#000000" points="929.3369,-140.6799 932.8368,-150.68 936.3369,-140.68 929.3369,-140.6799"/>
</g>
<!-- TransactionService -->
<g id="node9" class="node">
<title>TransactionService</title>
<ellipse fill="#fdb462" stroke="#000000" cx="243" cy="-104" rx="85.6493" ry="18"/>
<text text-anchor="middle" x="243" y="-99.8" font-family="Times,serif" font-size="14.00" fill="#000000">TransactionService</text>
</g>
<!-- TransactionService&#45;&gt;BudgetComponent -->
<g id="edge8" class="edge">
<title>TransactionService&#45;&gt;BudgetComponent</title>
<path fill="none" stroke="#000000" d="M324.9833,-109.3119C324.9833,-119.3259 324.9833,-140 324.9833,-140 324.9833,-140 912.82,-140 912.82,-140 912.82,-140 912.82,-141.0799 912.82,-141.0799"/>
<polygon fill="#000000" stroke="#000000" points="909.3201,-140.7985 912.82,-150.7985 916.3201,-140.7986 909.3201,-140.7985"/>
</g>
<!-- RxJSHelper -->
<g id="node10" class="node">
<title>RxJSHelper</title>
<ellipse fill="#fdb462" stroke="#000000" cx="82" cy="-104" rx="57.9023" ry="18"/>
<text text-anchor="middle" x="82" y="-99.8" font-family="Times,serif" font-size="14.00" fill="#000000">RxJSHelper</text>
</g>
<!-- RxJSHelper&#45;&gt;BudgetComponent -->
<g id="edge9" class="edge">
<title>RxJSHelper&#45;&gt;BudgetComponent</title>
<path fill="none" stroke="#000000" d="M130.9559,-113.7412C130.9559,-126.1484 130.9559,-146 130.9559,-146 130.9559,-146 892.8033,-146 892.8033,-146 892.8033,-146 892.8033,-146.4878 892.8033,-146.4878"/>
<polygon fill="#000000" stroke="#000000" points="889.3035,-140.8776 892.8033,-150.8777 896.3035,-140.8778 889.3035,-140.8776"/>
</g>
<!-- AuthorisedFooterModule -->
<g id="node11" class="node">
<title>AuthorisedFooterModule</title>
<polygon fill="#8dd3c7" stroke="#000000" points="847.3061,-187 844.3061,-191 823.3061,-191 820.3061,-187 688.6939,-187 688.6939,-151 847.3061,-151 847.3061,-187"/>
<text text-anchor="middle" x="768" y="-164.8" font-family="Times,serif" font-size="14.00" fill="#000000">AuthorisedFooterModule</text>
</g>
<!-- AuthorisedFooterModule&#45;&gt;BudgetModule -->
<g id="edge10" class="edge">
<title>AuthorisedFooterModule&#45;&gt;BudgetModule</title>
<path fill="none" stroke="#000000" d="M768,-187.0225C768,-204.3734 768,-228 768,-228 768,-228 558.1522,-228 558.1522,-228"/>
<polygon fill="#000000" stroke="#000000" points="558.1522,-224.5001 548.1522,-228 558.1521,-231.5001 558.1522,-224.5001"/>
</g>
<!-- AuthorisedHeaderModule -->
<g id="node12" class="node">
<title>AuthorisedHeaderModule</title>
<polygon fill="#8dd3c7" stroke="#000000" points="671.1685,-187 668.1685,-191 647.1685,-191 644.1685,-187 508.8315,-187 508.8315,-151 671.1685,-151 671.1685,-187"/>
<text text-anchor="middle" x="590" y="-164.8" font-family="Times,serif" font-size="14.00" fill="#000000">AuthorisedHeaderModule</text>
</g>
<!-- AuthorisedHeaderModule&#45;&gt;BudgetModule -->
<g id="edge11" class="edge">
<title>AuthorisedHeaderModule&#45;&gt;BudgetModule</title>
<path fill="none" stroke="#000000" d="M528.4558,-187.1061C528.4558,-187.1061 528.4558,-205.991 528.4558,-205.991"/>
<polygon fill="#000000" stroke="#000000" points="524.9559,-205.9909 528.4558,-215.991 531.9559,-205.991 524.9559,-205.9909"/>
</g>
<!-- BudgetAppRoutingModule -->
<g id="node13" class="node">
<title>BudgetAppRoutingModule</title>
<polygon fill="#8dd3c7" stroke="#000000" points="490.7161,-187 487.7161,-191 466.7161,-191 463.7161,-187 321.2839,-187 321.2839,-151 490.7161,-151 490.7161,-187"/>
<text text-anchor="middle" x="406" y="-164.8" font-family="Times,serif" font-size="14.00" fill="#000000">BudgetAppRoutingModule</text>
</g>
<!-- BudgetAppRoutingModule&#45;&gt;BudgetModule -->
<g id="edge12" class="edge">
<title>BudgetAppRoutingModule&#45;&gt;BudgetModule</title>
<path fill="none" stroke="#000000" d="M469.3061,-187.1061C469.3061,-187.1061 469.3061,-205.991 469.3061,-205.991"/>
<polygon fill="#000000" stroke="#000000" points="465.8062,-205.9909 469.3061,-215.991 472.8062,-205.991 465.8062,-205.9909"/>
</g>
<!-- CommonDirectiveModule -->
<g id="node14" class="node">
<title>CommonDirectiveModule</title>
<polygon fill="#8dd3c7" stroke="#000000" points="303.7506,-187 300.7506,-191 279.7506,-191 276.7506,-187 140.2494,-187 140.2494,-151 303.7506,-151 303.7506,-187"/>
<text text-anchor="middle" x="222" y="-164.8" font-family="Times,serif" font-size="14.00" fill="#000000">CommonDirectiveModule</text>
</g>
<!-- CommonDirectiveModule&#45;&gt;BudgetModule -->
<g id="edge13" class="edge">
<title>CommonDirectiveModule&#45;&gt;BudgetModule</title>
<path fill="none" stroke="#000000" d="M222,-187.0225C222,-204.3734 222,-228 222,-228 222,-228 437.6983,-228 437.6983,-228"/>
<polygon fill="#000000" stroke="#000000" points="437.6983,-231.5001 447.6983,-228 437.6982,-224.5001 437.6983,-231.5001"/>
</g>
<!-- SharedModule -->
<g id="node15" class="node">
<title>SharedModule</title>
<polygon fill="#8dd3c7" stroke="#000000" points="122.4231,-187 119.4231,-191 98.4231,-191 95.4231,-187 23.5769,-187 23.5769,-151 122.4231,-151 122.4231,-187"/>
<text text-anchor="middle" x="73" y="-164.8" font-family="Times,serif" font-size="14.00" fill="#000000">SharedModule</text>
</g>
<!-- SharedModule&#45;&gt;BudgetModule -->
<g id="edge14" class="edge">
<title>SharedModule&#45;&gt;BudgetModule</title>
<path fill="none" stroke="#000000" d="M73,-187.2843C73,-208.3211 73,-240 73,-240 73,-240 437.9973,-240 437.9973,-240"/>
<polygon fill="#000000" stroke="#000000" points="437.9974,-243.5001 447.9973,-240 437.9973,-236.5001 437.9974,-243.5001"/>
</g>
</g>
</svg>
