<?xml version="1.0" encoding="UTF-8" standalone="no"?>
<!DOCTYPE svg PUBLIC "-//W3C//DTD SVG 1.1//EN"
 "http://www.w3.org/Graphics/SVG/1.1/DTD/svg11.dtd">
<!-- Generated by graphviz version 2.40.1 (20161225.0304)
 -->
<!-- Title: dependencies Pages: 1 -->
<svg width="804pt" height="349pt"
 viewBox="0.00 0.00 804.00 349.00" xmlns="http://www.w3.org/2000/svg" xmlns:xlink="http://www.w3.org/1999/xlink">
<g id="graph0" class="graph" transform="scale(1 1) rotate(0) translate(4 345)">
<title>dependencies</title>
<polygon fill="#ffffff" stroke="transparent" points="-4,4 -4,-345 800,-345 800,4 -4,4"/>
<text text-anchor="start" x="377.0091" y="-42.4" font-family="sans-serif" font-weight="bold" font-size="14.00" fill="#000000">Legend</text>
<polygon fill="#ffffb3" stroke="transparent" points="164,-10 164,-30 184,-30 184,-10 164,-10"/>
<text text-anchor="start" x="187.629" y="-15.4" font-family="sans-serif" font-size="14.00" fill="#000000"> &#160;Declarations</text>
<polygon fill="#8dd3c7" stroke="transparent" points="277,-10 277,-30 297,-30 297,-10 277,-10"/>
<text text-anchor="start" x="300.7251" y="-15.4" font-family="sans-serif" font-size="14.00" fill="#000000"> &#160;Module</text>
<polygon fill="#80b1d3" stroke="transparent" points="363,-10 363,-30 383,-30 383,-10 363,-10"/>
<text text-anchor="start" x="386.7812" y="-15.4" font-family="sans-serif" font-size="14.00" fill="#000000"> &#160;Bootstrap</text>
<polygon fill="#fdb462" stroke="transparent" points="460,-10 460,-30 480,-30 480,-10 460,-10"/>
<text text-anchor="start" x="483.6732" y="-15.4" font-family="sans-serif" font-size="14.00" fill="#000000"> &#160;Providers</text>
<polygon fill="#fb8072" stroke="transparent" points="556,-10 556,-30 576,-30 576,-10 556,-10"/>
<text text-anchor="start" x="579.7258" y="-15.4" font-family="sans-serif" font-size="14.00" fill="#000000"> &#160;Exports</text>
<g id="clust1" class="cluster">
<title>cluster_LogoutModule</title>
<polygon fill="none" stroke="#000000" stroke-dasharray="1,5" points="8,-70 8,-333 788,-333 788,-70 8,-70"/>
</g>
<g id="clust2" class="cluster">
<title>cluster_LogoutModule_declarations</title>
<polygon fill="none" stroke="#000000" points="423,-143 423,-195 561,-195 561,-143 423,-143"/>
</g>
<g id="clust3" class="cluster">
<title>cluster_LogoutModule_LogoutComponent_providers</title>
<polygon fill="none" stroke="#000000" points="16,-78 16,-130 780,-130 780,-78 16,-78"/>
</g>
<g id="clust4" class="cluster">
<title>cluster_LogoutModule_imports</title>
<polygon fill="none" stroke="#000000" points="229,-143 229,-195 415,-195 415,-143 229,-143"/>
</g>
<g id="clust5" class="cluster">
<title>cluster_LogoutModule_exports</title>
<polygon fill="none" stroke="#000000" points="421,-273 421,-325 563,-325 563,-273 421,-273"/>
</g>
<!-- LogoutComponent -->
<g id="node1" class="node">
<title>LogoutComponent</title>
<polygon fill="#ffffb3" stroke="#000000" points="552.7758,-187 431.2242,-187 431.2242,-151 552.7758,-151 552.7758,-187"/>
<text text-anchor="middle" x="492" y="-164.8" font-family="Times,serif" font-size="14.00" fill="#000000">LogoutComponent</text>
</g>
<!-- LogoutModule -->
<g id="node2" class="node">
<title>LogoutModule</title>
<polygon fill="#8dd3c7" stroke="#000000" points="541.993,-252 538.993,-256 517.993,-256 514.993,-252 442.007,-252 442.007,-216 541.993,-216 541.993,-252"/>
<text text-anchor="middle" x="492" y="-229.8" font-family="Times,serif" font-size="14.00" fill="#000000">LogoutModule</text>
</g>
<!-- LogoutComponent&#45;&gt;LogoutModule -->
<g id="edge1" class="edge">
<title>LogoutComponent&#45;&gt;LogoutModule</title>
<path fill="none" stroke="#000000" d="M492,-187.1061C492,-187.1061 492,-205.991 492,-205.991"/>
<polygon fill="#000000" stroke="#000000" points="488.5001,-205.9909 492,-215.991 495.5001,-205.991 488.5001,-205.9909"/>
</g>
<!-- LogoutComponent  -->
<g id="node8" class="node">
<title>LogoutComponent </title>
<polygon fill="#fb8072" stroke="#000000" points="554.7759,-317 429.2241,-317 429.2241,-281 554.7759,-281 554.7759,-317"/>
<text text-anchor="middle" x="492" y="-294.8" font-family="Times,serif" font-size="14.00" fill="#000000">LogoutComponent </text>
</g>
<!-- LogoutModule&#45;&gt;LogoutComponent  -->
<g id="edge7" class="edge">
<title>LogoutModule&#45;&gt;LogoutComponent </title>
<path fill="none" stroke="#000000" stroke-dasharray="5,2" d="M492,-252.1061C492,-252.1061 492,-270.991 492,-270.991"/>
<polygon fill="#000000" stroke="#000000" points="488.5001,-270.9909 492,-280.991 495.5001,-270.991 488.5001,-270.9909"/>
</g>
<!-- LogoutService -->
<g id="node3" class="node">
<title>LogoutService</title>
<ellipse fill="#fdb462" stroke="#000000" cx="492" cy="-104" rx="67.7779" ry="18"/>
<text text-anchor="middle" x="492" y="-99.8" font-family="Times,serif" font-size="14.00" fill="#000000">LogoutService</text>
</g>
<!-- LogoutService&#45;&gt;LogoutComponent -->
<g id="edge2" class="edge">
<title>LogoutService&#45;&gt;LogoutComponent</title>
<path fill="none" stroke="#000000" d="M512.2959,-121.4188C512.2959,-121.4188 512.2959,-140.6234 512.2959,-140.6234"/>
<polygon fill="#000000" stroke="#000000" points="508.796,-140.6234 512.2959,-150.6234 515.796,-140.6234 508.796,-140.6234"/>
</g>
<!-- AuthenticationService -->
<g id="node4" class="node">
<title>AuthenticationService</title>
<ellipse fill="#fdb462" stroke="#000000" cx="675" cy="-104" rx="97.2683" ry="18"/>
<text text-anchor="middle" x="675" y="-99.8" font-family="Times,serif" font-size="14.00" fill="#000000">AuthenticationService</text>
</g>
<!-- AuthenticationService&#45;&gt;LogoutComponent -->
<g id="edge3" class="edge">
<title>AuthenticationService&#45;&gt;LogoutComponent</title>
<path fill="none" stroke="#000000" d="M642.5386,-121.078C642.5386,-140.3364 642.5386,-169 642.5386,-169 642.5386,-169 562.7959,-169 562.7959,-169"/>
<polygon fill="#000000" stroke="#000000" points="562.7959,-165.5001 552.7959,-169 562.7959,-172.5001 562.7959,-165.5001"/>
</g>
<!-- AuthenticationService&#45;&gt;LogoutModule -->
<g id="edge8" class="edge">
<title>AuthenticationService&#45;&gt;LogoutModule</title>
<path fill="none" stroke="#000000" d="M707.4614,-120.9952C707.4614,-156.2333 707.4614,-234 707.4614,-234 707.4614,-234 552.2442,-234 552.2442,-234"/>
<polygon fill="#000000" stroke="#000000" points="552.2442,-230.5001 542.2442,-234 552.2442,-237.5001 552.2442,-230.5001"/>
</g>
<!-- CommonHttpAdapterService -->
<g id="node5" class="node">
<title>CommonHttpAdapterService</title>
<ellipse fill="#fdb462" stroke="#000000" cx="148" cy="-104" rx="124.4186" ry="18"/>
<text text-anchor="middle" x="148" y="-99.8" font-family="Times,serif" font-size="14.00" fill="#000000">CommonHttpAdapterService</text>
</g>
<!-- CommonHttpAdapterService&#45;&gt;LogoutComponent -->
<g id="edge4" class="edge">
<title>CommonHttpAdapterService&#45;&gt;LogoutComponent</title>
<path fill="none" stroke="#000000" d="M254.8002,-113.3682C254.8002,-123.1245 254.8002,-137 254.8002,-137 254.8002,-137 471.7041,-137 471.7041,-137 471.7041,-137 471.7041,-140.7566 471.7041,-140.7566"/>
<polygon fill="#000000" stroke="#000000" points="468.2042,-140.7566 471.7041,-150.7566 475.2042,-140.7566 468.2042,-140.7566"/>
</g>
<!-- RxJSHelper -->
<g id="node6" class="node">
<title>RxJSHelper</title>
<ellipse fill="#fdb462" stroke="#000000" cx="348" cy="-104" rx="57.9023" ry="18"/>
<text text-anchor="middle" x="348" y="-99.8" font-family="Times,serif" font-size="14.00" fill="#000000">RxJSHelper</text>
</g>
<!-- RxJSHelper&#45;&gt;LogoutComponent -->
<g id="edge5" class="edge">
<title>RxJSHelper&#45;&gt;LogoutComponent</title>
<path fill="none" stroke="#000000" d="M405.7089,-104C411.5354,-104 415.3599,-104 415.3599,-104 415.3599,-104 415.3599,-169 415.3599,-169 415.3599,-169 420.8692,-169 420.8692,-169"/>
<polygon fill="#000000" stroke="#000000" points="420.8692,-172.5001 430.8692,-169 420.8691,-165.5001 420.8692,-172.5001"/>
</g>
<!-- LogoutAppRoutingModule -->
<g id="node7" class="node">
<title>LogoutAppRoutingModule</title>
<polygon fill="#8dd3c7" stroke="#000000" points="406.7175,-187 403.7175,-191 382.7175,-191 379.7175,-187 237.2825,-187 237.2825,-151 406.7175,-151 406.7175,-187"/>
<text text-anchor="middle" x="322" y="-164.8" font-family="Times,serif" font-size="14.00" fill="#000000">LogoutAppRoutingModule</text>
</g>
<!-- LogoutAppRoutingModule&#45;&gt;LogoutModule -->
<g id="edge6" class="edge">
<title>LogoutAppRoutingModule&#45;&gt;LogoutModule</title>
<path fill="none" stroke="#000000" d="M322,-187.1061C322,-206.3391 322,-234 322,-234 322,-234 431.9139,-234 431.9139,-234"/>
<polygon fill="#000000" stroke="#000000" points="431.9139,-237.5001 441.9139,-234 431.9138,-230.5001 431.9139,-237.5001"/>
</g>
</g>
</svg>
