<?xml version="1.0" encoding="UTF-8" standalone="no"?>
<!DOCTYPE svg PUBLIC "-//W3C//DTD SVG 1.1//EN"
 "http://www.w3.org/Graphics/SVG/1.1/DTD/svg11.dtd">
<!-- Generated by graphviz version 2.40.1 (20161225.0304)
 -->
<!-- Title: dependencies Pages: 1 -->
<svg width="1183pt" height="349pt"
 viewBox="0.00 0.00 1183.00 349.00" xmlns="http://www.w3.org/2000/svg" xmlns:xlink="http://www.w3.org/1999/xlink">
<g id="graph0" class="graph" transform="scale(1 1) rotate(0) translate(4 345)">
<title>dependencies</title>
<polygon fill="#ffffff" stroke="transparent" points="-4,4 -4,-345 1179,-345 1179,4 -4,4"/>
<text text-anchor="start" x="566.5091" y="-42.4" font-family="sans-serif" font-weight="bold" font-size="14.00" fill="#000000">Legend</text>
<polygon fill="#ffffb3" stroke="transparent" points="353.5,-10 353.5,-30 373.5,-30 373.5,-10 353.5,-10"/>
<text text-anchor="start" x="377.129" y="-15.4" font-family="sans-serif" font-size="14.00" fill="#000000"> &#160;Declarations</text>
<polygon fill="#8dd3c7" stroke="transparent" points="466.5,-10 466.5,-30 486.5,-30 486.5,-10 466.5,-10"/>
<text text-anchor="start" x="490.2251" y="-15.4" font-family="sans-serif" font-size="14.00" fill="#000000"> &#160;Module</text>
<polygon fill="#80b1d3" stroke="transparent" points="552.5,-10 552.5,-30 572.5,-30 572.5,-10 552.5,-10"/>
<text text-anchor="start" x="576.2812" y="-15.4" font-family="sans-serif" font-size="14.00" fill="#000000"> &#160;Bootstrap</text>
<polygon fill="#fdb462" stroke="transparent" points="649.5,-10 649.5,-30 669.5,-30 669.5,-10 649.5,-10"/>
<text text-anchor="start" x="673.1732" y="-15.4" font-family="sans-serif" font-size="14.00" fill="#000000"> &#160;Providers</text>
<polygon fill="#fb8072" stroke="transparent" points="745.5,-10 745.5,-30 765.5,-30 765.5,-10 745.5,-10"/>
<text text-anchor="start" x="769.2258" y="-15.4" font-family="sans-serif" font-size="14.00" fill="#000000"> &#160;Exports</text>
<g id="clust1" class="cluster">
<title>cluster_TransactionModule</title>
<polygon fill="none" stroke="#000000" stroke-dasharray="1,5" points="8,-70 8,-333 1167,-333 1167,-70 8,-70"/>
</g>
<g id="clust2" class="cluster">
<title>cluster_TransactionModule_declarations</title>
<polygon fill="none" stroke="#000000" points="889,-143 889,-195 1053,-195 1053,-143 889,-143"/>
</g>
<g id="clust3" class="cluster">
<title>cluster_TransactionModule_TransactionComponent_providers</title>
<polygon fill="none" stroke="#000000" points="16,-78 16,-130 1159,-130 1159,-78 16,-78"/>
</g>
<g id="clust4" class="cluster">
<title>cluster_TransactionModule_imports</title>
<polygon fill="none" stroke="#000000" points="16,-143 16,-195 881,-195 881,-143 16,-143"/>
</g>
<g id="clust5" class="cluster">
<title>cluster_TransactionModule_exports</title>
<polygon fill="none" stroke="#000000" points="442,-273 442,-325 608,-325 608,-273 442,-273"/>
</g>
<!-- TransactionComponent -->
<g id="node1" class="node">
<title>TransactionComponent</title>
<polygon fill="#ffffb3" stroke="#000000" points="1044.9158,-187 897.0842,-187 897.0842,-151 1044.9158,-151 1044.9158,-187"/>
<text text-anchor="middle" x="971" y="-164.8" font-family="Times,serif" font-size="14.00" fill="#000000">TransactionComponent</text>
</g>
<!-- TransactionModule -->
<g id="node2" class="node">
<title>TransactionModule</title>
<polygon fill="#8dd3c7" stroke="#000000" points="587.6331,-252 584.6331,-256 563.6331,-256 560.6331,-252 462.3669,-252 462.3669,-216 587.6331,-216 587.6331,-252"/>
<text text-anchor="middle" x="525" y="-229.8" font-family="Times,serif" font-size="14.00" fill="#000000">TransactionModule</text>
</g>
<!-- TransactionComponent&#45;&gt;TransactionModule -->
<g id="edge1" class="edge">
<title>TransactionComponent&#45;&gt;TransactionModule</title>
<path fill="none" stroke="#000000" d="M971,-187.2843C971,-208.3211 971,-240 971,-240 971,-240 597.955,-240 597.955,-240"/>
<polygon fill="#000000" stroke="#000000" points="597.955,-236.5001 587.955,-240 597.9549,-243.5001 597.955,-236.5001"/>
</g>
<!-- TransactionComponent  -->
<g id="node14" class="node">
<title>TransactionComponent </title>
<polygon fill="#fb8072" stroke="#000000" points="600.4152,-317 449.5848,-317 449.5848,-281 600.4152,-281 600.4152,-317"/>
<text text-anchor="middle" x="525" y="-294.8" font-family="Times,serif" font-size="14.00" fill="#000000">TransactionComponent </text>
</g>
<!-- TransactionModule&#45;&gt;TransactionComponent  -->
<g id="edge13" class="edge">
<title>TransactionModule&#45;&gt;TransactionComponent </title>
<path fill="none" stroke="#000000" stroke-dasharray="5,2" d="M525,-252.1061C525,-252.1061 525,-270.991 525,-270.991"/>
<polygon fill="#000000" stroke="#000000" points="521.5001,-270.9909 525,-280.991 528.5001,-270.991 521.5001,-270.9909"/>
</g>
<!-- CommonHttpAdapterService -->
<g id="node3" class="node">
<title>CommonHttpAdapterService</title>
<ellipse fill="#fdb462" stroke="#000000" cx="1027" cy="-104" rx="124.4186" ry="18"/>
<text text-anchor="middle" x="1027" y="-99.8" font-family="Times,serif" font-size="14.00" fill="#000000">CommonHttpAdapterService</text>
</g>
<!-- CommonHttpAdapterService&#45;&gt;TransactionComponent -->
<g id="edge2" class="edge">
<title>CommonHttpAdapterService&#45;&gt;TransactionComponent</title>
<path fill="none" stroke="#000000" d="M1021.0548,-122.1061C1021.0548,-122.1061 1021.0548,-140.991 1021.0548,-140.991"/>
<polygon fill="#000000" stroke="#000000" points="1017.5549,-140.9909 1021.0548,-150.991 1024.5549,-140.991 1017.5549,-140.9909"/>
</g>
<!-- CommonHelperService -->
<g id="node4" class="node">
<title>CommonHelperService</title>
<ellipse fill="#fdb462" stroke="#000000" cx="783" cy="-104" rx="102.4275" ry="18"/>
<text text-anchor="middle" x="783" y="-99.8" font-family="Times,serif" font-size="14.00" fill="#000000">CommonHelperService</text>
</g>
<!-- CommonHelperService&#45;&gt;TransactionComponent -->
<g id="edge3" class="edge">
<title>CommonHelperService&#45;&gt;TransactionComponent</title>
<path fill="none" stroke="#000000" d="M879.1832,-110.4701C879.1832,-126.9111 879.1832,-169 879.1832,-169 879.1832,-169 886.8864,-169 886.8864,-169"/>
<polygon fill="#000000" stroke="#000000" points="886.8864,-172.5001 896.8864,-169 886.8864,-165.5001 886.8864,-172.5001"/>
</g>
<!-- TransactionService -->
<g id="node5" class="node">
<title>TransactionService</title>
<ellipse fill="#fdb462" stroke="#000000" cx="577" cy="-104" rx="85.6493" ry="18"/>
<text text-anchor="middle" x="577" y="-99.8" font-family="Times,serif" font-size="14.00" fill="#000000">TransactionService</text>
</g>
<!-- TransactionService&#45;&gt;TransactionComponent -->
<g id="edge4" class="edge">
<title>TransactionService&#45;&gt;TransactionComponent</title>
<path fill="none" stroke="#000000" d="M598.7452,-121.4419C598.7452,-125.1641 598.7452,-128 598.7452,-128 598.7452,-128 997.402,-128 997.402,-128 997.402,-128 997.402,-140.8975 997.402,-140.8975"/>
<polygon fill="#000000" stroke="#000000" points="993.9021,-140.8974 997.402,-150.8975 1000.9021,-140.8975 993.9021,-140.8974"/>
</g>
<!-- CommonService -->
<g id="node6" class="node">
<title>CommonService</title>
<ellipse fill="#fdb462" stroke="#000000" cx="397" cy="-104" rx="75.8836" ry="18"/>
<text text-anchor="middle" x="397" y="-99.8" font-family="Times,serif" font-size="14.00" fill="#000000">CommonService</text>
</g>
<!-- CommonService&#45;&gt;TransactionComponent -->
<g id="edge5" class="edge">
<title>CommonService&#45;&gt;TransactionComponent</title>
<path fill="none" stroke="#000000" d="M413.0333,-121.7979C413.0333,-128.2578 413.0333,-134 413.0333,-134 413.0333,-134 973.7492,-134 973.7492,-134 973.7492,-134 973.7492,-140.68 973.7492,-140.68"/>
<polygon fill="#000000" stroke="#000000" points="970.2493,-140.6799 973.7492,-150.68 977.2493,-140.68 970.2493,-140.6799"/>
</g>
<!-- AccountService -->
<g id="node7" class="node">
<title>AccountService</title>
<ellipse fill="#fdb462" stroke="#000000" cx="230" cy="-104" rx="72.9121" ry="18"/>
<text text-anchor="middle" x="230" y="-99.8" font-family="Times,serif" font-size="14.00" fill="#000000">AccountService</text>
</g>
<!-- AccountService&#45;&gt;TransactionComponent -->
<g id="edge6" class="edge">
<title>AccountService&#45;&gt;TransactionComponent</title>
<path fill="none" stroke="#000000" d="M269.7473,-119.4762C269.7473,-129.2334 269.7473,-140 269.7473,-140 269.7473,-140 950.0964,-140 950.0964,-140 950.0964,-140 950.0964,-141.0799 950.0964,-141.0799"/>
<polygon fill="#000000" stroke="#000000" points="946.5965,-140.7985 950.0964,-150.7985 953.5965,-140.7986 946.5965,-140.7985"/>
</g>
<!-- RxJSHelper -->
<g id="node8" class="node">
<title>RxJSHelper</title>
<ellipse fill="#fdb462" stroke="#000000" cx="82" cy="-104" rx="57.9023" ry="18"/>
<text text-anchor="middle" x="82" y="-99.8" font-family="Times,serif" font-size="14.00" fill="#000000">RxJSHelper</text>
</g>
<!-- RxJSHelper&#45;&gt;TransactionComponent -->
<g id="edge7" class="edge">
<title>RxJSHelper&#45;&gt;TransactionComponent</title>
<path fill="none" stroke="#000000" d="M82,-122.0555C82,-133.439 82,-146 82,-146 82,-146 926.4437,-146 926.4437,-146 926.4437,-146 926.4437,-146.4878 926.4437,-146.4878"/>
<polygon fill="#000000" stroke="#000000" points="922.9439,-140.8776 926.4437,-150.8777 929.9439,-140.8778 922.9439,-140.8776"/>
</g>
<!-- AuthorisedFooterModule -->
<g id="node9" class="node">
<title>AuthorisedFooterModule</title>
<polygon fill="#8dd3c7" stroke="#000000" points="873.3061,-187 870.3061,-191 849.3061,-191 846.3061,-187 714.6939,-187 714.6939,-151 873.3061,-151 873.3061,-187"/>
<text text-anchor="middle" x="794" y="-164.8" font-family="Times,serif" font-size="14.00" fill="#000000">AuthorisedFooterModule</text>
</g>
<!-- AuthorisedFooterModule&#45;&gt;TransactionModule -->
<g id="edge8" class="edge">
<title>AuthorisedFooterModule&#45;&gt;TransactionModule</title>
<path fill="none" stroke="#000000" d="M794,-187.0225C794,-204.3734 794,-228 794,-228 794,-228 597.7291,-228 597.7291,-228"/>
<polygon fill="#000000" stroke="#000000" points="597.7291,-224.5001 587.7291,-228 597.729,-231.5001 597.7291,-224.5001"/>
</g>
<!-- AuthorisedHeaderModule -->
<g id="node10" class="node">
<title>AuthorisedHeaderModule</title>
<polygon fill="#8dd3c7" stroke="#000000" points="697.1685,-187 694.1685,-191 673.1685,-191 670.1685,-187 534.8315,-187 534.8315,-151 697.1685,-151 697.1685,-187"/>
<text text-anchor="middle" x="616" y="-164.8" font-family="Times,serif" font-size="14.00" fill="#000000">AuthorisedHeaderModule</text>
</g>
<!-- AuthorisedHeaderModule&#45;&gt;TransactionModule -->
<g id="edge9" class="edge">
<title>AuthorisedHeaderModule&#45;&gt;TransactionModule</title>
<path fill="none" stroke="#000000" d="M561.3661,-187.1061C561.3661,-187.1061 561.3661,-205.991 561.3661,-205.991"/>
<polygon fill="#000000" stroke="#000000" points="557.8661,-205.9909 561.3661,-215.991 564.8661,-205.991 557.8661,-205.9909"/>
</g>
<!-- CommonDirectiveModule -->
<g id="node11" class="node">
<title>CommonDirectiveModule</title>
<polygon fill="#8dd3c7" stroke="#000000" points="516.7506,-187 513.7506,-191 492.7506,-191 489.7506,-187 353.2494,-187 353.2494,-151 516.7506,-151 516.7506,-187"/>
<text text-anchor="middle" x="435" y="-164.8" font-family="Times,serif" font-size="14.00" fill="#000000">CommonDirectiveModule</text>
</g>
<!-- CommonDirectiveModule&#45;&gt;TransactionModule -->
<g id="edge10" class="edge">
<title>CommonDirectiveModule&#45;&gt;TransactionModule</title>
<path fill="none" stroke="#000000" d="M489.5295,-187.1061C489.5295,-187.1061 489.5295,-205.991 489.5295,-205.991"/>
<polygon fill="#000000" stroke="#000000" points="486.0295,-205.9909 489.5295,-215.991 493.0295,-205.991 486.0295,-205.9909"/>
</g>
<!-- SharedModule -->
<g id="node12" class="node">
<title>SharedModule</title>
<polygon fill="#8dd3c7" stroke="#000000" points="335.4231,-187 332.4231,-191 311.4231,-191 308.4231,-187 236.5769,-187 236.5769,-151 335.4231,-151 335.4231,-187"/>
<text text-anchor="middle" x="286" y="-164.8" font-family="Times,serif" font-size="14.00" fill="#000000">SharedModule</text>
</g>
<!-- SharedModule&#45;&gt;TransactionModule -->
<g id="edge11" class="edge">
<title>SharedModule&#45;&gt;TransactionModule</title>
<path fill="none" stroke="#000000" d="M286,-187.0225C286,-204.3734 286,-228 286,-228 286,-228 452.2056,-228 452.2056,-228"/>
<polygon fill="#000000" stroke="#000000" points="452.2056,-231.5001 462.2056,-228 452.2055,-224.5001 452.2056,-231.5001"/>
</g>
<!-- TransactionAppRoutingModule -->
<g id="node13" class="node">
<title>TransactionAppRoutingModule</title>
<polygon fill="#8dd3c7" stroke="#000000" points="218.3571,-187 215.3571,-191 194.3571,-191 191.3571,-187 23.6429,-187 23.6429,-151 218.3571,-151 218.3571,-187"/>
<text text-anchor="middle" x="121" y="-164.8" font-family="Times,serif" font-size="14.00" fill="#000000">TransactionAppRoutingModule</text>
</g>
<!-- TransactionAppRoutingModule&#45;&gt;TransactionModule -->
<g id="edge12" class="edge">
<title>TransactionAppRoutingModule&#45;&gt;TransactionModule</title>
<path fill="none" stroke="#000000" d="M121,-187.2843C121,-208.3211 121,-240 121,-240 121,-240 452.3183,-240 452.3183,-240"/>
<polygon fill="#000000" stroke="#000000" points="452.3183,-243.5001 462.3183,-240 452.3182,-236.5001 452.3183,-243.5001"/>
</g>
</g>
</svg>
