<?xml version="1.0" encoding="UTF-8" standalone="no"?>
<!DOCTYPE svg PUBLIC "-//W3C//DTD SVG 1.1//EN"
 "http://www.w3.org/Graphics/SVG/1.1/DTD/svg11.dtd">
<!-- Generated by graphviz version 2.40.1 (20161225.0304)
 -->
<!-- Title: dependencies Pages: 1 -->
<svg width="1980pt" height="284pt"
 viewBox="0.00 0.00 1980.00 284.00" xmlns="http://www.w3.org/2000/svg" xmlns:xlink="http://www.w3.org/1999/xlink">
<g id="graph0" class="graph" transform="scale(1 1) rotate(0) translate(4 280)">
<title>dependencies</title>
<polygon fill="#ffffff" stroke="transparent" points="-4,4 -4,-280 1976,-280 1976,4 -4,4"/>
<text text-anchor="start" x="965.0091" y="-42.4" font-family="sans-serif" font-weight="bold" font-size="14.00" fill="#000000">Legend</text>
<polygon fill="#ffffb3" stroke="transparent" points="752,-10 752,-30 772,-30 772,-10 752,-10"/>
<text text-anchor="start" x="775.629" y="-15.4" font-family="sans-serif" font-size="14.00" fill="#000000"> &#160;Declarations</text>
<polygon fill="#8dd3c7" stroke="transparent" points="865,-10 865,-30 885,-30 885,-10 865,-10"/>
<text text-anchor="start" x="888.7251" y="-15.4" font-family="sans-serif" font-size="14.00" fill="#000000"> &#160;Module</text>
<polygon fill="#80b1d3" stroke="transparent" points="951,-10 951,-30 971,-30 971,-10 951,-10"/>
<text text-anchor="start" x="974.7812" y="-15.4" font-family="sans-serif" font-size="14.00" fill="#000000"> &#160;Bootstrap</text>
<polygon fill="#fdb462" stroke="transparent" points="1048,-10 1048,-30 1068,-30 1068,-10 1048,-10"/>
<text text-anchor="start" x="1071.6732" y="-15.4" font-family="sans-serif" font-size="14.00" fill="#000000"> &#160;Providers</text>
<polygon fill="#fb8072" stroke="transparent" points="1144,-10 1144,-30 1164,-30 1164,-10 1144,-10"/>
<text text-anchor="start" x="1167.7258" y="-15.4" font-family="sans-serif" font-size="14.00" fill="#000000"> &#160;Exports</text>
<g id="clust1" class="cluster">
<title>cluster_CommonPipeModule</title>
<polygon fill="none" stroke="#000000" stroke-dasharray="1,5" points="8,-70 8,-268 1964,-268 1964,-70 8,-70"/>
</g>
<g id="clust2" class="cluster">
<title>cluster_CommonPipeModule_declarations</title>
<polygon fill="none" stroke="#000000" points="49,-78 49,-130 1936,-130 1936,-78 49,-78"/>
</g>
<g id="clust18" class="cluster">
<title>cluster_CommonPipeModule_exports</title>
<polygon fill="none" stroke="#000000" points="16,-208 16,-260 1956,-260 1956,-208 16,-208"/>
</g>
<!-- CurrencySymbolPipe -->
<g id="node1" class="node">
<title>CurrencySymbolPipe</title>
<polygon fill="#ffffb3" stroke="#000000" points="1928.0394,-122 1791.9606,-122 1791.9606,-86 1928.0394,-86 1928.0394,-122"/>
<text text-anchor="middle" x="1860" y="-99.8" font-family="Times,serif" font-size="14.00" fill="#000000">CurrencySymbolPipe</text>
</g>
<!-- CommonPipeModule -->
<g id="node15" class="node">
<title>CommonPipeModule</title>
<polygon fill="#8dd3c7" stroke="#000000" points="1034.0561,-187 1031.0561,-191 1010.0561,-191 1007.0561,-187 897.9439,-187 897.9439,-151 1034.0561,-151 1034.0561,-187"/>
<text text-anchor="middle" x="966" y="-164.8" font-family="Times,serif" font-size="14.00" fill="#000000">CommonPipeModule</text>
</g>
<!-- CurrencySymbolPipe&#45;&gt;CommonPipeModule -->
<g id="edge1" class="edge">
<title>CurrencySymbolPipe&#45;&gt;CommonPipeModule</title>
<path fill="none" stroke="#000000" d="M1799.8557,-122.1686C1799.8557,-141.0898 1799.8557,-168 1799.8557,-168 1799.8557,-168 1044.2379,-168 1044.2379,-168"/>
<polygon fill="#000000" stroke="#000000" points="1044.2379,-164.5001 1034.2379,-168 1044.2379,-171.5001 1044.2379,-164.5001"/>
</g>
<!-- DateFormatNewPipe -->
<g id="node2" class="node">
<title>DateFormatNewPipe</title>
<polygon fill="#ffffb3" stroke="#000000" points="1774.1811,-122 1639.8189,-122 1639.8189,-86 1774.1811,-86 1774.1811,-122"/>
<text text-anchor="middle" x="1707" y="-99.8" font-family="Times,serif" font-size="14.00" fill="#000000">DateFormatNewPipe</text>
</g>
<!-- DateFormatNewPipe&#45;&gt;CommonPipeModule -->
<g id="edge2" class="edge">
<title>DateFormatNewPipe&#45;&gt;CommonPipeModule</title>
<path fill="none" stroke="#000000" d="M1646.0345,-122.302C1646.0345,-140.2699 1646.0345,-165 1646.0345,-165 1646.0345,-165 1044.3179,-165 1044.3179,-165"/>
<polygon fill="#000000" stroke="#000000" points="1044.3179,-161.5001 1034.3179,-165 1044.3179,-168.5001 1044.3179,-161.5001"/>
</g>
<!-- DateFormatPipe -->
<g id="node3" class="node">
<title>DateFormatPipe</title>
<polygon fill="#ffffb3" stroke="#000000" points="1621.7535,-122 1514.2465,-122 1514.2465,-86 1621.7535,-86 1621.7535,-122"/>
<text text-anchor="middle" x="1568" y="-99.8" font-family="Times,serif" font-size="14.00" fill="#000000">DateFormatPipe</text>
</g>
<!-- DateFormatPipe&#45;&gt;CommonPipeModule -->
<g id="edge3" class="edge">
<title>DateFormatPipe&#45;&gt;CommonPipeModule</title>
<path fill="none" stroke="#000000" d="M1518.7484,-122.0225C1518.7484,-139.3734 1518.7484,-163 1518.7484,-163 1518.7484,-163 1044.3322,-163 1044.3322,-163"/>
<polygon fill="#000000" stroke="#000000" points="1044.3322,-159.5001 1034.3322,-163 1044.3322,-166.5001 1044.3322,-159.5001"/>
</g>
<!-- ExactSearchFilterPipe -->
<g id="node4" class="node">
<title>ExactSearchFilterPipe</title>
<polygon fill="#ffffb3" stroke="#000000" points="1496.6769,-122 1355.3231,-122 1355.3231,-86 1496.6769,-86 1496.6769,-122"/>
<text text-anchor="middle" x="1426" y="-99.8" font-family="Times,serif" font-size="14.00" fill="#000000">ExactSearchFilterPipe</text>
</g>
<!-- ExactSearchFilterPipe&#45;&gt;CommonPipeModule -->
<g id="edge4" class="edge">
<title>ExactSearchFilterPipe&#45;&gt;CommonPipeModule</title>
<path fill="none" stroke="#000000" d="M1451.2795,-122.027C1451.2795,-138.3976 1451.2795,-160 1451.2795,-160 1451.2795,-160 1044.243,-160 1044.243,-160"/>
<polygon fill="#000000" stroke="#000000" points="1044.2431,-156.5001 1034.243,-160 1044.243,-163.5001 1044.2431,-156.5001"/>
</g>
<!-- FilterInputValue -->
<g id="node5" class="node">
<title>FilterInputValue</title>
<polygon fill="#ffffb3" stroke="#000000" points="1337.8076,-122 1228.1924,-122 1228.1924,-86 1337.8076,-86 1337.8076,-122"/>
<text text-anchor="middle" x="1283" y="-99.8" font-family="Times,serif" font-size="14.00" fill="#000000">FilterInputValue</text>
</g>
<!-- FilterInputValue&#45;&gt;CommonPipeModule -->
<g id="edge5" class="edge">
<title>FilterInputValue&#45;&gt;CommonPipeModule</title>
<path fill="none" stroke="#000000" d="M1301.6345,-122.2396C1301.6345,-137.5706 1301.6345,-157 1301.6345,-157 1301.6345,-157 1044.3252,-157 1044.3252,-157"/>
<polygon fill="#000000" stroke="#000000" points="1044.3252,-153.5001 1034.3252,-157 1044.3252,-160.5001 1044.3252,-153.5001"/>
</g>
<!-- FilterPipe -->
<g id="node6" class="node">
<title>FilterPipe</title>
<polygon fill="#ffffb3" stroke="#000000" points="1210.7177,-122 1139.2823,-122 1139.2823,-86 1210.7177,-86 1210.7177,-122"/>
<text text-anchor="middle" x="1175" y="-99.8" font-family="Times,serif" font-size="14.00" fill="#000000">FilterPipe</text>
</g>
<!-- FilterPipe&#45;&gt;CommonPipeModule -->
<g id="edge6" class="edge">
<title>FilterPipe&#45;&gt;CommonPipeModule</title>
<path fill="none" stroke="#000000" d="M1163.1304,-122.0511C1163.1304,-136.373 1163.1304,-154 1163.1304,-154 1163.1304,-154 1044.1171,-154 1044.1171,-154"/>
<polygon fill="#000000" stroke="#000000" points="1044.1172,-150.5001 1034.1171,-154 1044.1171,-157.5001 1044.1172,-150.5001"/>
</g>
<!-- GroupByPipe -->
<g id="node7" class="node">
<title>GroupByPipe</title>
<polygon fill="#ffffb3" stroke="#000000" points="1121.4916,-122 1028.5084,-122 1028.5084,-86 1121.4916,-86 1121.4916,-122"/>
<text text-anchor="middle" x="1075" y="-99.8" font-family="Times,serif" font-size="14.00" fill="#000000">GroupByPipe</text>
</g>
<!-- GroupByPipe&#45;&gt;CommonPipeModule -->
<g id="edge7" class="edge">
<title>GroupByPipe&#45;&gt;CommonPipeModule</title>
<path fill="none" stroke="#000000" d="M1028.297,-104C1022.9442,-104 1019.357,-104 1019.357,-104 1019.357,-104 1019.357,-140.8939 1019.357,-140.8939"/>
<polygon fill="#000000" stroke="#000000" points="1015.857,-140.8938 1019.357,-150.8939 1022.857,-140.8939 1015.857,-140.8938"/>
</g>
<!-- MyCurrencyPipe -->
<g id="node8" class="node">
<title>MyCurrencyPipe</title>
<polygon fill="#ffffb3" stroke="#000000" points="1010.4202,-122 897.5798,-122 897.5798,-86 1010.4202,-86 1010.4202,-122"/>
<text text-anchor="middle" x="954" y="-99.8" font-family="Times,serif" font-size="14.00" fill="#000000">MyCurrencyPipe</text>
</g>
<!-- MyCurrencyPipe&#45;&gt;CommonPipeModule -->
<g id="edge8" class="edge">
<title>MyCurrencyPipe&#45;&gt;CommonPipeModule</title>
<path fill="none" stroke="#000000" d="M954,-122.1061C954,-122.1061 954,-140.991 954,-140.991"/>
<polygon fill="#000000" stroke="#000000" points="950.5001,-140.9909 954,-150.991 957.5001,-140.991 950.5001,-140.9909"/>
</g>
<!-- SafeHtmlPipe -->
<g id="node9" class="node">
<title>SafeHtmlPipe</title>
<polygon fill="#ffffb3" stroke="#000000" points="880.0397,-122 785.9603,-122 785.9603,-86 880.0397,-86 880.0397,-122"/>
<text text-anchor="middle" x="833" y="-99.8" font-family="Times,serif" font-size="14.00" fill="#000000">SafeHtmlPipe</text>
</g>
<!-- SafeHtmlPipe&#45;&gt;CommonPipeModule -->
<g id="edge9" class="edge">
<title>SafeHtmlPipe&#45;&gt;CommonPipeModule</title>
<path fill="none" stroke="#000000" d="M875.1443,-122.0511C875.1443,-136.373 875.1443,-154 875.1443,-154 875.1443,-154 887.603,-154 887.603,-154"/>
<polygon fill="#000000" stroke="#000000" points="887.6031,-157.5001 897.603,-154 887.603,-150.5001 887.6031,-157.5001"/>
</g>
<!-- SearchFilterPipe -->
<g id="node10" class="node">
<title>SearchFilterPipe</title>
<polygon fill="#ffffb3" stroke="#000000" points="767.8048,-122 658.1952,-122 658.1952,-86 767.8048,-86 767.8048,-122"/>
<text text-anchor="middle" x="713" y="-99.8" font-family="Times,serif" font-size="14.00" fill="#000000">SearchFilterPipe</text>
</g>
<!-- SearchFilterPipe&#45;&gt;CommonPipeModule -->
<g id="edge10" class="edge">
<title>SearchFilterPipe&#45;&gt;CommonPipeModule</title>
<path fill="none" stroke="#000000" d="M761.0272,-122.2396C761.0272,-137.5706 761.0272,-157 761.0272,-157 761.0272,-157 887.747,-157 887.747,-157"/>
<polygon fill="#000000" stroke="#000000" points="887.7471,-160.5001 897.747,-157 887.747,-153.5001 887.7471,-160.5001"/>
</g>
<!-- StandardDateFormatPipe -->
<g id="node11" class="node">
<title>StandardDateFormatPipe</title>
<polygon fill="#ffffb3" stroke="#000000" points="640.5169,-122 483.4831,-122 483.4831,-86 640.5169,-86 640.5169,-122"/>
<text text-anchor="middle" x="562" y="-99.8" font-family="Times,serif" font-size="14.00" fill="#000000">StandardDateFormatPipe</text>
</g>
<!-- StandardDateFormatPipe&#45;&gt;CommonPipeModule -->
<g id="edge11" class="edge">
<title>StandardDateFormatPipe&#45;&gt;CommonPipeModule</title>
<path fill="none" stroke="#000000" d="M632.1331,-122.027C632.1331,-138.3976 632.1331,-160 632.1331,-160 632.1331,-160 887.6314,-160 887.6314,-160"/>
<polygon fill="#000000" stroke="#000000" points="887.6314,-163.5001 897.6314,-160 887.6314,-156.5001 887.6314,-163.5001"/>
</g>
<!-- TableFilterPipe -->
<g id="node12" class="node">
<title>TableFilterPipe</title>
<polygon fill="#ffffb3" stroke="#000000" points="465.5898,-122 362.4102,-122 362.4102,-86 465.5898,-86 465.5898,-122"/>
<text text-anchor="middle" x="414" y="-99.8" font-family="Times,serif" font-size="14.00" fill="#000000">TableFilterPipe</text>
</g>
<!-- TableFilterPipe&#45;&gt;CommonPipeModule -->
<g id="edge12" class="edge">
<title>TableFilterPipe&#45;&gt;CommonPipeModule</title>
<path fill="none" stroke="#000000" d="M453.3934,-122.0225C453.3934,-139.3734 453.3934,-163 453.3934,-163 453.3934,-163 887.9298,-163 887.9298,-163"/>
<polygon fill="#000000" stroke="#000000" points="887.9298,-166.5001 897.9298,-163 887.9298,-159.5001 887.9298,-166.5001"/>
</g>
<!-- ValidateValuePipe -->
<g id="node13" class="node">
<title>ValidateValuePipe</title>
<polygon fill="#ffffb3" stroke="#000000" points="344.7367,-122 223.2633,-122 223.2633,-86 344.7367,-86 344.7367,-122"/>
<text text-anchor="middle" x="284" y="-99.8" font-family="Times,serif" font-size="14.00" fill="#000000">ValidateValuePipe</text>
</g>
<!-- ValidateValuePipe&#45;&gt;CommonPipeModule -->
<g id="edge13" class="edge">
<title>ValidateValuePipe&#45;&gt;CommonPipeModule</title>
<path fill="none" stroke="#000000" d="M341.2867,-122.302C341.2867,-140.2699 341.2867,-165 341.2867,-165 341.2867,-165 887.6569,-165 887.6569,-165"/>
<polygon fill="#000000" stroke="#000000" points="887.6569,-168.5001 897.6569,-165 887.6568,-161.5001 887.6569,-168.5001"/>
</g>
<!-- ValidatetableValuePipe -->
<g id="node14" class="node">
<title>ValidatetableValuePipe</title>
<polygon fill="#ffffb3" stroke="#000000" points="205.4468,-122 56.5532,-122 56.5532,-86 205.4468,-86 205.4468,-122"/>
<text text-anchor="middle" x="131" y="-99.8" font-family="Times,serif" font-size="14.00" fill="#000000">ValidatetableValuePipe</text>
</g>
<!-- ValidatetableValuePipe&#45;&gt;CommonPipeModule -->
<g id="edge14" class="edge">
<title>ValidatetableValuePipe&#45;&gt;CommonPipeModule</title>
<path fill="none" stroke="#000000" d="M199.9276,-122.1686C199.9276,-141.0898 199.9276,-168 199.9276,-168 199.9276,-168 887.6794,-168 887.6794,-168"/>
<polygon fill="#000000" stroke="#000000" points="887.6795,-171.5001 897.6794,-168 887.6794,-164.5001 887.6795,-171.5001"/>
</g>
<!-- CurrencySymbolPipe  -->
<g id="node16" class="node">
<title>CurrencySymbolPipe </title>
<polygon fill="#fb8072" stroke="#000000" points="1948.0386,-252 1807.9614,-252 1807.9614,-216 1948.0386,-216 1948.0386,-252"/>
<text text-anchor="middle" x="1878" y="-229.8" font-family="Times,serif" font-size="14.00" fill="#000000">CurrencySymbolPipe </text>
</g>
<!-- CommonPipeModule&#45;&gt;CurrencySymbolPipe  -->
<g id="edge15" class="edge">
<title>CommonPipeModule&#45;&gt;CurrencySymbolPipe </title>
<path fill="none" stroke="#000000" stroke-dasharray="5,2" d="M1034.1758,-171C1244.3383,-171 1868.125,-171 1868.125,-171 1868.125,-171 1868.125,-205.7778 1868.125,-205.7778"/>
<polygon fill="#000000" stroke="#000000" points="1864.6251,-205.7778 1868.125,-215.7778 1871.6251,-205.7778 1864.6251,-205.7778"/>
</g>
<!-- DateFormatNewPipe  -->
<g id="node17" class="node">
<title>DateFormatNewPipe </title>
<polygon fill="#fb8072" stroke="#000000" points="1789.6814,-252 1652.3186,-252 1652.3186,-216 1789.6814,-216 1789.6814,-252"/>
<text text-anchor="middle" x="1721" y="-229.8" font-family="Times,serif" font-size="14.00" fill="#000000">DateFormatNewPipe </text>
</g>
<!-- CommonPipeModule&#45;&gt;DateFormatNewPipe  -->
<g id="edge16" class="edge">
<title>CommonPipeModule&#45;&gt;DateFormatNewPipe </title>
<path fill="none" stroke="#000000" stroke-dasharray="5,2" d="M1034.283,-174C1218.7194,-174 1713.125,-174 1713.125,-174 1713.125,-174 1713.125,-205.998 1713.125,-205.998"/>
<polygon fill="#000000" stroke="#000000" points="1709.6251,-205.998 1713.125,-215.998 1716.6251,-205.9981 1709.6251,-205.998"/>
</g>
<!-- DateFormatPipe  -->
<g id="node18" class="node">
<title>DateFormatPipe </title>
<polygon fill="#fb8072" stroke="#000000" points="1634.7535,-252 1523.2465,-252 1523.2465,-216 1634.7535,-216 1634.7535,-252"/>
<text text-anchor="middle" x="1579" y="-229.8" font-family="Times,serif" font-size="14.00" fill="#000000">DateFormatPipe </text>
</g>
<!-- CommonPipeModule&#45;&gt;DateFormatPipe  -->
<g id="edge17" class="edge">
<title>CommonPipeModule&#45;&gt;DateFormatPipe </title>
<path fill="none" stroke="#000000" stroke-dasharray="5,2" d="M1034.1149,-176C1192.5875,-176 1572.625,-176 1572.625,-176 1572.625,-176 1572.625,-205.9664 1572.625,-205.9664"/>
<polygon fill="#000000" stroke="#000000" points="1569.1251,-205.9663 1572.625,-215.9664 1576.1251,-205.9664 1569.1251,-205.9663"/>
</g>
<!-- ExactSearchFilterPipe  -->
<g id="node19" class="node">
<title>ExactSearchFilterPipe </title>
<polygon fill="#fb8072" stroke="#000000" points="1505.1772,-252 1360.8228,-252 1360.8228,-216 1505.1772,-216 1505.1772,-252"/>
<text text-anchor="middle" x="1433" y="-229.8" font-family="Times,serif" font-size="14.00" fill="#000000">ExactSearchFilterPipe </text>
</g>
<!-- CommonPipeModule&#45;&gt;ExactSearchFilterPipe  -->
<g id="edge18" class="edge">
<title>CommonPipeModule&#45;&gt;ExactSearchFilterPipe </title>
<path fill="none" stroke="#000000" stroke-dasharray="5,2" d="M1034.2627,-179C1157.8422,-179 1405.9705,-179 1405.9705,-179 1405.9705,-179 1405.9705,-205.9909 1405.9705,-205.9909"/>
<polygon fill="#000000" stroke="#000000" points="1402.4706,-205.9909 1405.9705,-215.9909 1409.4706,-205.991 1402.4706,-205.9909"/>
</g>
<!-- FilterInputValue  -->
<g id="node20" class="node">
<title>FilterInputValue </title>
<polygon fill="#fb8072" stroke="#000000" points="1342.3074,-252 1229.6926,-252 1229.6926,-216 1342.3074,-216 1342.3074,-252"/>
<text text-anchor="middle" x="1286" y="-229.8" font-family="Times,serif" font-size="14.00" fill="#000000">FilterInputValue </text>
</g>
<!-- CommonPipeModule&#45;&gt;FilterInputValue  -->
<g id="edge19" class="edge">
<title>CommonPipeModule&#45;&gt;FilterInputValue </title>
<path fill="none" stroke="#000000" stroke-dasharray="5,2" d="M1034.3623,-182C1122.7908,-182 1265.6155,-182 1265.6155,-182 1265.6155,-182 1265.6155,-205.8129 1265.6155,-205.8129"/>
<polygon fill="#000000" stroke="#000000" points="1262.1156,-205.8129 1265.6155,-215.8129 1269.1156,-205.813 1262.1156,-205.8129"/>
</g>
<!-- FilterPipe  -->
<g id="node21" class="node">
<title>FilterPipe </title>
<polygon fill="#fb8072" stroke="#000000" points="1211.2179,-252 1136.7821,-252 1136.7821,-216 1211.2179,-216 1211.2179,-252"/>
<text text-anchor="middle" x="1174" y="-229.8" font-family="Times,serif" font-size="14.00" fill="#000000">FilterPipe </text>
</g>
<!-- CommonPipeModule&#45;&gt;FilterPipe  -->
<g id="edge20" class="edge">
<title>CommonPipeModule&#45;&gt;FilterPipe </title>
<path fill="none" stroke="#000000" stroke-dasharray="5,2" d="M1034.0704,-185C1098.9671,-185 1186.8696,-185 1186.8696,-185 1186.8696,-185 1186.8696,-205.7542 1186.8696,-205.7542"/>
<polygon fill="#000000" stroke="#000000" points="1183.3697,-205.7542 1186.8696,-215.7542 1190.3697,-205.7542 1183.3697,-205.7542"/>
</g>
<!-- GroupByPipe  -->
<g id="node22" class="node">
<title>GroupByPipe </title>
<polygon fill="#fb8072" stroke="#000000" points="1118.4929,-252 1021.5071,-252 1021.5071,-216 1118.4929,-216 1118.4929,-252"/>
<text text-anchor="middle" x="1070" y="-229.8" font-family="Times,serif" font-size="14.00" fill="#000000">GroupByPipe </text>
</g>
<!-- CommonPipeModule&#45;&gt;GroupByPipe  -->
<g id="edge21" class="edge">
<title>CommonPipeModule&#45;&gt;GroupByPipe </title>
<path fill="none" stroke="#000000" stroke-dasharray="5,2" d="M1028.016,-187.1061C1028.016,-187.1061 1028.016,-205.991 1028.016,-205.991"/>
<polygon fill="#000000" stroke="#000000" points="1024.516,-205.9909 1028.016,-215.991 1031.516,-205.991 1024.516,-205.9909"/>
</g>
<!-- MyCurrencyPipe  -->
<g id="node23" class="node">
<title>MyCurrencyPipe </title>
<polygon fill="#fb8072" stroke="#000000" points="1003.9194,-252 888.0806,-252 888.0806,-216 1003.9194,-216 1003.9194,-252"/>
<text text-anchor="middle" x="946" y="-229.8" font-family="Times,serif" font-size="14.00" fill="#000000">MyCurrencyPipe </text>
</g>
<!-- CommonPipeModule&#45;&gt;MyCurrencyPipe  -->
<g id="edge22" class="edge">
<title>CommonPipeModule&#45;&gt;MyCurrencyPipe </title>
<path fill="none" stroke="#000000" stroke-dasharray="5,2" d="M950.841,-187.1061C950.841,-187.1061 950.841,-205.991 950.841,-205.991"/>
<polygon fill="#000000" stroke="#000000" points="947.3411,-205.9909 950.841,-215.991 954.3411,-205.991 947.3411,-205.9909"/>
</g>
<!-- SafeHtmlPipe  -->
<g id="node24" class="node">
<title>SafeHtmlPipe </title>
<polygon fill="#fb8072" stroke="#000000" points="870.0386,-252 771.9614,-252 771.9614,-216 870.0386,-216 870.0386,-252"/>
<text text-anchor="middle" x="821" y="-229.8" font-family="Times,serif" font-size="14.00" fill="#000000">SafeHtmlPipe </text>
</g>
<!-- CommonPipeModule&#45;&gt;SafeHtmlPipe  -->
<g id="edge23" class="edge">
<title>CommonPipeModule&#45;&gt;SafeHtmlPipe </title>
<path fill="none" stroke="#000000" stroke-dasharray="5,2" d="M897.7468,-185C862.9479,-185 827.875,-185 827.875,-185 827.875,-185 827.875,-205.7542 827.875,-205.7542"/>
<polygon fill="#000000" stroke="#000000" points="824.3751,-205.7542 827.875,-215.7542 831.3751,-205.7542 824.3751,-205.7542"/>
</g>
<!-- SearchFilterPipe  -->
<g id="node25" class="node">
<title>SearchFilterPipe </title>
<polygon fill="#fb8072" stroke="#000000" points="754.3046,-252 641.6954,-252 641.6954,-216 754.3046,-216 754.3046,-252"/>
<text text-anchor="middle" x="698" y="-229.8" font-family="Times,serif" font-size="14.00" fill="#000000">SearchFilterPipe </text>
</g>
<!-- CommonPipeModule&#45;&gt;SearchFilterPipe  -->
<g id="edge24" class="edge">
<title>CommonPipeModule&#45;&gt;SearchFilterPipe </title>
<path fill="none" stroke="#000000" stroke-dasharray="5,2" d="M897.7866,-182C820.8642,-182 706.375,-182 706.375,-182 706.375,-182 706.375,-205.8129 706.375,-205.8129"/>
<polygon fill="#000000" stroke="#000000" points="702.8751,-205.8129 706.375,-215.8129 709.8751,-205.813 702.8751,-205.8129"/>
</g>
<!-- StandardDateFormatPipe  -->
<g id="node26" class="node">
<title>StandardDateFormatPipe </title>
<polygon fill="#fb8072" stroke="#000000" points="623.5162,-252 462.4838,-252 462.4838,-216 623.5162,-216 623.5162,-252"/>
<text text-anchor="middle" x="543" y="-229.8" font-family="Times,serif" font-size="14.00" fill="#000000">StandardDateFormatPipe </text>
</g>
<!-- CommonPipeModule&#45;&gt;StandardDateFormatPipe  -->
<g id="edge25" class="edge">
<title>CommonPipeModule&#45;&gt;StandardDateFormatPipe </title>
<path fill="none" stroke="#000000" stroke-dasharray="5,2" d="M897.8634,-179C780.6663,-179 553.375,-179 553.375,-179 553.375,-179 553.375,-205.9909 553.375,-205.9909"/>
<polygon fill="#000000" stroke="#000000" points="549.8751,-205.9909 553.375,-215.9909 556.8751,-205.991 549.8751,-205.9909"/>
</g>
<!-- TableFilterPipe  -->
<g id="node27" class="node">
<title>TableFilterPipe </title>
<polygon fill="#fb8072" stroke="#000000" points="444.0906,-252 337.9094,-252 337.9094,-216 444.0906,-216 444.0906,-252"/>
<text text-anchor="middle" x="391" y="-229.8" font-family="Times,serif" font-size="14.00" fill="#000000">TableFilterPipe </text>
</g>
<!-- CommonPipeModule&#45;&gt;TableFilterPipe  -->
<g id="edge26" class="edge">
<title>CommonPipeModule&#45;&gt;TableFilterPipe </title>
<path fill="none" stroke="#000000" stroke-dasharray="5,2" d="M897.8542,-176C748.063,-176 403.375,-176 403.375,-176 403.375,-176 403.375,-205.9664 403.375,-205.9664"/>
<polygon fill="#000000" stroke="#000000" points="399.8751,-205.9663 403.375,-215.9664 406.8751,-205.9664 399.8751,-205.9663"/>
</g>
<!-- ValidateValuePipe  -->
<g id="node28" class="node">
<title>ValidateValuePipe </title>
<polygon fill="#fb8072" stroke="#000000" points="319.7366,-252 194.2634,-252 194.2634,-216 319.7366,-216 319.7366,-252"/>
<text text-anchor="middle" x="257" y="-229.8" font-family="Times,serif" font-size="14.00" fill="#000000">ValidateValuePipe </text>
</g>
<!-- CommonPipeModule&#45;&gt;ValidateValuePipe  -->
<g id="edge27" class="edge">
<title>CommonPipeModule&#45;&gt;ValidateValuePipe </title>
<path fill="none" stroke="#000000" stroke-dasharray="5,2" d="M897.814,-174C722.799,-174 271.375,-174 271.375,-174 271.375,-174 271.375,-205.998 271.375,-205.998"/>
<polygon fill="#000000" stroke="#000000" points="267.8751,-205.998 271.375,-215.998 274.8751,-205.9981 267.8751,-205.998"/>
</g>
<!-- ValidatetableValuePipe  -->
<g id="node29" class="node">
<title>ValidatetableValuePipe </title>
<polygon fill="#fb8072" stroke="#000000" points="176.4475,-252 23.5525,-252 23.5525,-216 176.4475,-216 176.4475,-252"/>
<text text-anchor="middle" x="100" y="-229.8" font-family="Times,serif" font-size="14.00" fill="#000000">ValidatetableValuePipe </text>
</g>
<!-- CommonPipeModule&#45;&gt;ValidatetableValuePipe  -->
<g id="edge28" class="edge">
<title>CommonPipeModule&#45;&gt;ValidatetableValuePipe </title>
<path fill="none" stroke="#000000" stroke-dasharray="5,2" d="M897.9078,-171C696.295,-171 116.375,-171 116.375,-171 116.375,-171 116.375,-205.7778 116.375,-205.7778"/>
<polygon fill="#000000" stroke="#000000" points="112.8751,-205.7778 116.375,-215.7778 119.8751,-205.7778 112.8751,-205.7778"/>
</g>
</g>
</svg>
