<?xml version="1.0" encoding="UTF-8" standalone="no"?>
<!DOCTYPE svg PUBLIC "-//W3C//DTD SVG 1.1//EN"
 "http://www.w3.org/Graphics/SVG/1.1/DTD/svg11.dtd">
<!-- Generated by graphviz version 2.40.1 (20161225.0304)
 -->
<!-- Title: dependencies Pages: 1 -->
<svg width="698pt" height="349pt"
 viewBox="0.00 0.00 698.00 349.00" xmlns="http://www.w3.org/2000/svg" xmlns:xlink="http://www.w3.org/1999/xlink">
<g id="graph0" class="graph" transform="scale(1 1) rotate(0) translate(4 345)">
<title>dependencies</title>
<polygon fill="#ffffff" stroke="transparent" points="-4,4 -4,-345 694,-345 694,4 -4,4"/>
<text text-anchor="start" x="324.0091" y="-42.4" font-family="sans-serif" font-weight="bold" font-size="14.00" fill="#000000">Legend</text>
<polygon fill="#ffffb3" stroke="transparent" points="111,-10 111,-30 131,-30 131,-10 111,-10"/>
<text text-anchor="start" x="134.629" y="-15.4" font-family="sans-serif" font-size="14.00" fill="#000000"> &#160;Declarations</text>
<polygon fill="#8dd3c7" stroke="transparent" points="224,-10 224,-30 244,-30 244,-10 224,-10"/>
<text text-anchor="start" x="247.7251" y="-15.4" font-family="sans-serif" font-size="14.00" fill="#000000"> &#160;Module</text>
<polygon fill="#80b1d3" stroke="transparent" points="310,-10 310,-30 330,-30 330,-10 310,-10"/>
<text text-anchor="start" x="333.7812" y="-15.4" font-family="sans-serif" font-size="14.00" fill="#000000"> &#160;Bootstrap</text>
<polygon fill="#fdb462" stroke="transparent" points="407,-10 407,-30 427,-30 427,-10 407,-10"/>
<text text-anchor="start" x="430.6732" y="-15.4" font-family="sans-serif" font-size="14.00" fill="#000000"> &#160;Providers</text>
<polygon fill="#fb8072" stroke="transparent" points="503,-10 503,-30 523,-30 523,-10 503,-10"/>
<text text-anchor="start" x="526.7258" y="-15.4" font-family="sans-serif" font-size="14.00" fill="#000000"> &#160;Exports</text>
<g id="clust1" class="cluster">
<title>cluster_StatementRepositoryModule</title>
<polygon fill="none" stroke="#000000" stroke-dasharray="1,5" points="8,-70 8,-333 682,-333 682,-70 8,-70"/>
</g>
<g id="clust2" class="cluster">
<title>cluster_StatementRepositoryModule_declarations</title>
<polygon fill="none" stroke="#000000" points="378,-143 378,-195 592,-195 592,-143 378,-143"/>
</g>
<g id="clust3" class="cluster">
<title>cluster_StatementRepositoryModule_StatementRepositoryComponent_providers</title>
<polygon fill="none" stroke="#000000" points="16,-78 16,-130 674,-130 674,-78 16,-78"/>
</g>
<g id="clust4" class="cluster">
<title>cluster_StatementRepositoryModule_imports</title>
<polygon fill="none" stroke="#000000" points="16,-143 16,-195 370,-195 370,-143 16,-143"/>
</g>
<g id="clust5" class="cluster">
<title>cluster_StatementRepositoryModule_exports</title>
<polygon fill="none" stroke="#000000" points="174,-273 174,-325 392,-325 392,-273 174,-273"/>
</g>
<!-- StatementRepositoryComponent -->
<g id="node1" class="node">
<title>StatementRepositoryComponent</title>
<polygon fill="#ffffb3" stroke="#000000" points="584.2589,-187 385.7411,-187 385.7411,-151 584.2589,-151 584.2589,-187"/>
<text text-anchor="middle" x="485" y="-164.8" font-family="Times,serif" font-size="14.00" fill="#000000">StatementRepositoryComponent</text>
</g>
<!-- StatementRepositoryModule -->
<g id="node2" class="node">
<title>StatementRepositoryModule</title>
<polygon fill="#8dd3c7" stroke="#000000" points="371.4762,-252 368.4762,-256 347.4762,-256 344.4762,-252 194.5238,-252 194.5238,-216 371.4762,-216 371.4762,-252"/>
<text text-anchor="middle" x="283" y="-229.8" font-family="Times,serif" font-size="14.00" fill="#000000">StatementRepositoryModule</text>
</g>
<!-- StatementRepositoryComponent&#45;&gt;StatementRepositoryModule -->
<g id="edge1" class="edge">
<title>StatementRepositoryComponent&#45;&gt;StatementRepositoryModule</title>
<path fill="none" stroke="#000000" d="M385.5464,-169C374.3226,-169 366.8205,-169 366.8205,-169 366.8205,-169 366.8205,-205.8939 366.8205,-205.8939"/>
<polygon fill="#000000" stroke="#000000" points="363.3206,-205.8938 366.8205,-215.8939 370.3206,-205.8939 363.3206,-205.8938"/>
</g>
<!-- StatementRepositoryComponent  -->
<g id="node8" class="node">
<title>StatementRepositoryComponent </title>
<polygon fill="#fb8072" stroke="#000000" points="384.259,-317 181.741,-317 181.741,-281 384.259,-281 384.259,-317"/>
<text text-anchor="middle" x="283" y="-294.8" font-family="Times,serif" font-size="14.00" fill="#000000">StatementRepositoryComponent </text>
</g>
<!-- StatementRepositoryModule&#45;&gt;StatementRepositoryComponent  -->
<g id="edge7" class="edge">
<title>StatementRepositoryModule&#45;&gt;StatementRepositoryComponent </title>
<path fill="none" stroke="#000000" stroke-dasharray="5,2" d="M283,-252.1061C283,-252.1061 283,-270.991 283,-270.991"/>
<polygon fill="#000000" stroke="#000000" points="279.5001,-270.9909 283,-280.991 286.5001,-270.991 279.5001,-270.9909"/>
</g>
<!-- StatementRepositoryService -->
<g id="node3" class="node">
<title>StatementRepositoryService</title>
<ellipse fill="#fdb462" stroke="#000000" cx="545" cy="-104" rx="120.981" ry="18"/>
<text text-anchor="middle" x="545" y="-99.8" font-family="Times,serif" font-size="14.00" fill="#000000">StatementRepositoryService</text>
</g>
<!-- StatementRepositoryService&#45;&gt;StatementRepositoryComponent -->
<g id="edge2" class="edge">
<title>StatementRepositoryService&#45;&gt;StatementRepositoryComponent</title>
<path fill="none" stroke="#000000" d="M504.1945,-121.078C504.1945,-121.078 504.1945,-140.8993 504.1945,-140.8993"/>
<polygon fill="#000000" stroke="#000000" points="500.6946,-140.8992 504.1945,-150.8993 507.6946,-140.8993 500.6946,-140.8992"/>
</g>
<!-- CommonHttpAdapterService -->
<g id="node4" class="node">
<title>CommonHttpAdapterService</title>
<ellipse fill="#fdb462" stroke="#000000" cx="282" cy="-104" rx="124.4186" ry="18"/>
<text text-anchor="middle" x="282" y="-99.8" font-family="Times,serif" font-size="14.00" fill="#000000">CommonHttpAdapterService</text>
</g>
<!-- CommonHttpAdapterService&#45;&gt;StatementRepositoryComponent -->
<g id="edge3" class="edge">
<title>CommonHttpAdapterService&#45;&gt;StatementRepositoryComponent</title>
<path fill="none" stroke="#000000" d="M399.3463,-109.9985C399.3463,-109.9985 399.3463,-140.7642 399.3463,-140.7642"/>
<polygon fill="#000000" stroke="#000000" points="395.8464,-140.7642 399.3463,-150.7642 402.8464,-140.7642 395.8464,-140.7642"/>
</g>
<!-- RxJSHelper -->
<g id="node5" class="node">
<title>RxJSHelper</title>
<ellipse fill="#fdb462" stroke="#000000" cx="82" cy="-104" rx="57.9023" ry="18"/>
<text text-anchor="middle" x="82" y="-99.8" font-family="Times,serif" font-size="14.00" fill="#000000">RxJSHelper</text>
</g>
<!-- RxJSHelper&#45;&gt;StatementRepositoryComponent -->
<g id="edge4" class="edge">
<title>RxJSHelper&#45;&gt;StatementRepositoryComponent</title>
<path fill="none" stroke="#000000" d="M82,-122.0449C82,-129.749 82,-137 82,-137 82,-137 392.4834,-137 392.4834,-137 392.4834,-137 392.4834,-140.7566 392.4834,-140.7566"/>
<polygon fill="#000000" stroke="#000000" points="388.9835,-140.7566 392.4834,-150.7566 395.9835,-140.7566 388.9835,-140.7566"/>
</g>
<!-- AuthorisedFooterModule -->
<g id="node6" class="node">
<title>AuthorisedFooterModule</title>
<polygon fill="#8dd3c7" stroke="#000000" points="362.3061,-187 359.3061,-191 338.3061,-191 335.3061,-187 203.6939,-187 203.6939,-151 362.3061,-151 362.3061,-187"/>
<text text-anchor="middle" x="283" y="-164.8" font-family="Times,serif" font-size="14.00" fill="#000000">AuthorisedFooterModule</text>
</g>
<!-- AuthorisedFooterModule&#45;&gt;StatementRepositoryModule -->
<g id="edge5" class="edge">
<title>AuthorisedFooterModule&#45;&gt;StatementRepositoryModule</title>
<path fill="none" stroke="#000000" d="M283,-187.1061C283,-187.1061 283,-205.991 283,-205.991"/>
<polygon fill="#000000" stroke="#000000" points="279.5001,-205.9909 283,-215.991 286.5001,-205.991 279.5001,-205.9909"/>
</g>
<!-- AuthorisedHeaderModule -->
<g id="node7" class="node">
<title>AuthorisedHeaderModule</title>
<polygon fill="#8dd3c7" stroke="#000000" points="186.1685,-187 183.1685,-191 162.1685,-191 159.1685,-187 23.8315,-187 23.8315,-151 186.1685,-151 186.1685,-187"/>
<text text-anchor="middle" x="105" y="-164.8" font-family="Times,serif" font-size="14.00" fill="#000000">AuthorisedHeaderModule</text>
</g>
<!-- AuthorisedHeaderModule&#45;&gt;StatementRepositoryModule -->
<g id="edge6" class="edge">
<title>AuthorisedHeaderModule&#45;&gt;StatementRepositoryModule</title>
<path fill="none" stroke="#000000" d="M186.0842,-169C194.0061,-169 199.1795,-169 199.1795,-169 199.1795,-169 199.1795,-205.8939 199.1795,-205.8939"/>
<polygon fill="#000000" stroke="#000000" points="195.6796,-205.8938 199.1795,-215.8939 202.6796,-205.8939 195.6796,-205.8938"/>
</g>
</g>
</svg>
