<?xml version="1.0" encoding="UTF-8" standalone="no"?>
<!DOCTYPE svg PUBLIC "-//W3C//DTD SVG 1.1//EN"
 "http://www.w3.org/Graphics/SVG/1.1/DTD/svg11.dtd">
<!-- Generated by graphviz version 2.40.1 (20161225.0304)
 -->
<!-- Title: dependencies Pages: 1 -->
<svg width="1404pt" height="349pt"
 viewBox="0.00 0.00 1404.00 349.00" xmlns="http://www.w3.org/2000/svg" xmlns:xlink="http://www.w3.org/1999/xlink">
<g id="graph0" class="graph" transform="scale(1 1) rotate(0) translate(4 345)">
<title>dependencies</title>
<polygon fill="#ffffff" stroke="transparent" points="-4,4 -4,-345 1400,-345 1400,4 -4,4"/>
<text text-anchor="start" x="677.0091" y="-42.4" font-family="sans-serif" font-weight="bold" font-size="14.00" fill="#000000">Legend</text>
<polygon fill="#ffffb3" stroke="transparent" points="464,-10 464,-30 484,-30 484,-10 464,-10"/>
<text text-anchor="start" x="487.629" y="-15.4" font-family="sans-serif" font-size="14.00" fill="#000000"> &#160;Declarations</text>
<polygon fill="#8dd3c7" stroke="transparent" points="577,-10 577,-30 597,-30 597,-10 577,-10"/>
<text text-anchor="start" x="600.7251" y="-15.4" font-family="sans-serif" font-size="14.00" fill="#000000"> &#160;Module</text>
<polygon fill="#80b1d3" stroke="transparent" points="663,-10 663,-30 683,-30 683,-10 663,-10"/>
<text text-anchor="start" x="686.7812" y="-15.4" font-family="sans-serif" font-size="14.00" fill="#000000"> &#160;Bootstrap</text>
<polygon fill="#fdb462" stroke="transparent" points="760,-10 760,-30 780,-30 780,-10 760,-10"/>
<text text-anchor="start" x="783.6732" y="-15.4" font-family="sans-serif" font-size="14.00" fill="#000000"> &#160;Providers</text>
<polygon fill="#fb8072" stroke="transparent" points="856,-10 856,-30 876,-30 876,-10 856,-10"/>
<text text-anchor="start" x="879.7258" y="-15.4" font-family="sans-serif" font-size="14.00" fill="#000000"> &#160;Exports</text>
<g id="clust1" class="cluster">
<title>cluster_AccountModule</title>
<polygon fill="none" stroke="#000000" stroke-dasharray="1,5" points="8,-70 8,-333 1388,-333 1388,-70 8,-70"/>
</g>
<g id="clust2" class="cluster">
<title>cluster_AccountModule_declarations</title>
<polygon fill="none" stroke="#000000" points="1236,-143 1236,-195 1380,-195 1380,-143 1236,-143"/>
</g>
<g id="clust3" class="cluster">
<title>cluster_AccountModule_AccountComponent_providers</title>
<polygon fill="none" stroke="#000000" points="625,-78 625,-130 1380,-130 1380,-78 625,-78"/>
</g>
<g id="clust4" class="cluster">
<title>cluster_AccountModule_imports</title>
<polygon fill="none" stroke="#000000" points="382,-143 382,-195 1228,-195 1228,-143 382,-143"/>
</g>
<g id="clust5" class="cluster">
<title>cluster_AccountModule_exports</title>
<polygon fill="none" stroke="#000000" points="604,-273 604,-325 752,-325 752,-273 604,-273"/>
</g>
<g id="clust7" class="cluster">
<title>cluster_AccountModule_providers</title>
<polygon fill="none" stroke="#000000" points="16,-143 16,-195 374,-195 374,-143 16,-143"/>
</g>
<!-- AccountComponent -->
<g id="node1" class="node">
<title>AccountComponent</title>
<polygon fill="#ffffb3" stroke="#000000" points="1372.259,-187 1243.741,-187 1243.741,-151 1372.259,-151 1372.259,-187"/>
<text text-anchor="middle" x="1308" y="-164.8" font-family="Times,serif" font-size="14.00" fill="#000000">AccountComponent</text>
</g>
<!-- AccountModule -->
<g id="node2" class="node">
<title>AccountModule</title>
<polygon fill="#8dd3c7" stroke="#000000" points="731.4762,-252 728.4762,-256 707.4762,-256 704.4762,-252 624.5238,-252 624.5238,-216 731.4762,-216 731.4762,-252"/>
<text text-anchor="middle" x="678" y="-229.8" font-family="Times,serif" font-size="14.00" fill="#000000">AccountModule</text>
</g>
<!-- AccountComponent&#45;&gt;AccountModule -->
<g id="edge1" class="edge">
<title>AccountComponent&#45;&gt;AccountModule</title>
<path fill="none" stroke="#000000" d="M1308,-187.2921C1308,-209.2057 1308,-243 1308,-243 1308,-243 741.7134,-243 741.7134,-243"/>
<polygon fill="#000000" stroke="#000000" points="741.7135,-239.5001 731.7134,-243 741.7134,-246.5001 741.7135,-239.5001"/>
</g>
<!-- AccountComponent  -->
<g id="node12" class="node">
<title>AccountComponent </title>
<polygon fill="#fb8072" stroke="#000000" points="744.2591,-317 611.7409,-317 611.7409,-281 744.2591,-281 744.2591,-317"/>
<text text-anchor="middle" x="678" y="-294.8" font-family="Times,serif" font-size="14.00" fill="#000000">AccountComponent </text>
</g>
<!-- AccountModule&#45;&gt;AccountComponent  -->
<g id="edge11" class="edge">
<title>AccountModule&#45;&gt;AccountComponent </title>
<path fill="none" stroke="#000000" stroke-dasharray="5,2" d="M678,-252.1061C678,-252.1061 678,-270.991 678,-270.991"/>
<polygon fill="#000000" stroke="#000000" points="674.5001,-270.9909 678,-280.991 681.5001,-270.991 674.5001,-270.9909"/>
</g>
<!-- AccountService -->
<g id="node3" class="node">
<title>AccountService</title>
<ellipse fill="#fdb462" stroke="#000000" cx="1299" cy="-104" rx="72.9121" ry="18"/>
<text text-anchor="middle" x="1299" y="-99.8" font-family="Times,serif" font-size="14.00" fill="#000000">AccountService</text>
</g>
<!-- AccountService&#45;&gt;AccountComponent -->
<g id="edge2" class="edge">
<title>AccountService&#45;&gt;AccountComponent</title>
<path fill="none" stroke="#000000" d="M1346.0887,-117.7848C1346.0887,-117.7848 1346.0887,-140.5475 1346.0887,-140.5475"/>
<polygon fill="#000000" stroke="#000000" points="1342.5888,-140.5474 1346.0887,-150.5475 1349.5888,-140.5475 1342.5888,-140.5474"/>
</g>
<!-- CommonHttpAdapterService -->
<g id="node4" class="node">
<title>CommonHttpAdapterService</title>
<ellipse fill="#fdb462" stroke="#000000" cx="1084" cy="-104" rx="124.4186" ry="18"/>
<text text-anchor="middle" x="1084" y="-99.8" font-family="Times,serif" font-size="14.00" fill="#000000">CommonHttpAdapterService</text>
</g>
<!-- CommonHttpAdapterService&#45;&gt;AccountComponent -->
<g id="edge3" class="edge">
<title>CommonHttpAdapterService&#45;&gt;AccountComponent</title>
<path fill="none" stroke="#000000" d="M1126.0544,-121.1976C1126.0544,-126.0327 1126.0544,-130 1126.0544,-130 1126.0544,-130 1320.4717,-130 1320.4717,-130 1320.4717,-130 1320.4717,-140.8701 1320.4717,-140.8701"/>
<polygon fill="#000000" stroke="#000000" points="1316.9718,-140.8701 1320.4717,-150.8701 1323.9718,-140.8701 1316.9718,-140.8701"/>
</g>
<!-- ChartHelperService -->
<g id="node5" class="node">
<title>ChartHelperService</title>
<ellipse fill="#fdb462" stroke="#000000" cx="854" cy="-104" rx="87.9355" ry="18"/>
<text text-anchor="middle" x="854" y="-99.8" font-family="Times,serif" font-size="14.00" fill="#000000">ChartHelperService</text>
</g>
<!-- ChartHelperService&#45;&gt;AccountComponent -->
<g id="edge4" class="edge">
<title>ChartHelperService&#45;&gt;AccountComponent</title>
<path fill="none" stroke="#000000" d="M904.7823,-118.9551C904.7823,-127.6865 904.7823,-137 904.7823,-137 904.7823,-137 1294.8547,-137 1294.8547,-137 1294.8547,-137 1294.8547,-140.7566 1294.8547,-140.7566"/>
<polygon fill="#000000" stroke="#000000" points="1291.3548,-140.7566 1294.8547,-150.7566 1298.3548,-140.7566 1291.3548,-140.7566"/>
</g>
<!-- RxJSHelper -->
<g id="node6" class="node">
<title>RxJSHelper</title>
<ellipse fill="#fdb462" stroke="#000000" cx="691" cy="-104" rx="57.9023" ry="18"/>
<text text-anchor="middle" x="691" y="-99.8" font-family="Times,serif" font-size="14.00" fill="#000000">RxJSHelper</text>
</g>
<!-- RxJSHelper&#45;&gt;AccountComponent -->
<g id="edge5" class="edge">
<title>RxJSHelper&#45;&gt;AccountComponent</title>
<path fill="none" stroke="#000000" d="M718.3083,-120.2695C718.3083,-131.3438 718.3083,-144 718.3083,-144 718.3083,-144 1269.2376,-144 1269.2376,-144 1269.2376,-144 1269.2376,-144.6831 1269.2376,-144.6831"/>
<polygon fill="#000000" stroke="#000000" points="1265.7378,-140.8313 1269.2376,-150.8314 1272.7378,-140.8314 1265.7378,-140.8313"/>
</g>
<!-- AccountAppRoutingModule -->
<g id="node7" class="node">
<title>AccountAppRoutingModule</title>
<polygon fill="#8dd3c7" stroke="#000000" points="1220.2007,-187 1217.2007,-191 1196.2007,-191 1193.2007,-187 1043.7993,-187 1043.7993,-151 1220.2007,-151 1220.2007,-187"/>
<text text-anchor="middle" x="1132" y="-164.8" font-family="Times,serif" font-size="14.00" fill="#000000">AccountAppRoutingModule</text>
</g>
<!-- AccountAppRoutingModule&#45;&gt;AccountModule -->
<g id="edge6" class="edge">
<title>AccountAppRoutingModule&#45;&gt;AccountModule</title>
<path fill="none" stroke="#000000" d="M1132,-187.1061C1132,-206.3391 1132,-234 1132,-234 1132,-234 741.8626,-234 741.8626,-234"/>
<polygon fill="#000000" stroke="#000000" points="741.8626,-230.5001 731.8626,-234 741.8626,-237.5001 741.8626,-230.5001"/>
</g>
<!-- AuthorisedFooterModule -->
<g id="node8" class="node">
<title>AuthorisedFooterModule</title>
<polygon fill="#8dd3c7" stroke="#000000" points="1026.3061,-187 1023.3061,-191 1002.3061,-191 999.3061,-187 867.6939,-187 867.6939,-151 1026.3061,-151 1026.3061,-187"/>
<text text-anchor="middle" x="947" y="-164.8" font-family="Times,serif" font-size="14.00" fill="#000000">AuthorisedFooterModule</text>
</g>
<!-- AuthorisedFooterModule&#45;&gt;AccountModule -->
<g id="edge7" class="edge">
<title>AuthorisedFooterModule&#45;&gt;AccountModule</title>
<path fill="none" stroke="#000000" d="M947,-187.027C947,-203.3976 947,-225 947,-225 947,-225 741.7896,-225 741.7896,-225"/>
<polygon fill="#000000" stroke="#000000" points="741.7897,-221.5001 731.7896,-225 741.7896,-228.5001 741.7897,-221.5001"/>
</g>
<!-- AuthorisedHeaderModule -->
<g id="node9" class="node">
<title>AuthorisedHeaderModule</title>
<polygon fill="#8dd3c7" stroke="#000000" points="850.1685,-187 847.1685,-191 826.1685,-191 823.1685,-187 687.8315,-187 687.8315,-151 850.1685,-151 850.1685,-187"/>
<text text-anchor="middle" x="769" y="-164.8" font-family="Times,serif" font-size="14.00" fill="#000000">AuthorisedHeaderModule</text>
</g>
<!-- AuthorisedHeaderModule&#45;&gt;AccountModule -->
<g id="edge8" class="edge">
<title>AuthorisedHeaderModule&#45;&gt;AccountModule</title>
<path fill="none" stroke="#000000" d="M709.702,-187.1061C709.702,-187.1061 709.702,-205.991 709.702,-205.991"/>
<polygon fill="#000000" stroke="#000000" points="706.202,-205.9909 709.702,-215.991 713.202,-205.991 706.202,-205.9909"/>
</g>
<!-- CommonDirectiveModule -->
<g id="node10" class="node">
<title>CommonDirectiveModule</title>
<polygon fill="#8dd3c7" stroke="#000000" points="669.7506,-187 666.7506,-191 645.7506,-191 642.7506,-187 506.2494,-187 506.2494,-151 669.7506,-151 669.7506,-187"/>
<text text-anchor="middle" x="588" y="-164.8" font-family="Times,serif" font-size="14.00" fill="#000000">CommonDirectiveModule</text>
</g>
<!-- CommonDirectiveModule&#45;&gt;AccountModule -->
<g id="edge9" class="edge">
<title>CommonDirectiveModule&#45;&gt;AccountModule</title>
<path fill="none" stroke="#000000" d="M647.1936,-187.1061C647.1936,-187.1061 647.1936,-205.991 647.1936,-205.991"/>
<polygon fill="#000000" stroke="#000000" points="643.6936,-205.9909 647.1936,-215.991 650.6936,-205.991 643.6936,-205.9909"/>
</g>
<!-- SharedModule -->
<g id="node11" class="node">
<title>SharedModule</title>
<polygon fill="#8dd3c7" stroke="#000000" points="488.4231,-187 485.4231,-191 464.4231,-191 461.4231,-187 389.5769,-187 389.5769,-151 488.4231,-151 488.4231,-187"/>
<text text-anchor="middle" x="439" y="-164.8" font-family="Times,serif" font-size="14.00" fill="#000000">SharedModule</text>
</g>
<!-- SharedModule&#45;&gt;AccountModule -->
<g id="edge10" class="edge">
<title>SharedModule&#45;&gt;AccountModule</title>
<path fill="none" stroke="#000000" d="M439,-187.027C439,-203.3976 439,-225 439,-225 439,-225 614.3637,-225 614.3637,-225"/>
<polygon fill="#000000" stroke="#000000" points="614.3638,-228.5001 624.3637,-225 614.3637,-221.5001 614.3638,-228.5001"/>
</g>
<!-- CarrierHelper -->
<g id="node13" class="node">
<title>CarrierHelper</title>
<ellipse fill="#fdb462" stroke="#000000" cx="301" cy="-169" rx="64.8002" ry="18"/>
<text text-anchor="middle" x="301" y="-164.8" font-family="Times,serif" font-size="14.00" fill="#000000">CarrierHelper</text>
</g>
<!-- CarrierHelper&#45;&gt;AccountModule -->
<g id="edge12" class="edge">
<title>CarrierHelper&#45;&gt;AccountModule</title>
<path fill="none" stroke="#000000" d="M301,-187.1061C301,-206.3391 301,-234 301,-234 301,-234 614.3855,-234 614.3855,-234"/>
<polygon fill="#000000" stroke="#000000" points="614.3855,-237.5001 624.3855,-234 614.3854,-230.5001 614.3855,-237.5001"/>
</g>
<!-- CustomOutputService -->
<g id="node14" class="node">
<title>CustomOutputService</title>
<ellipse fill="#fdb462" stroke="#000000" cx="121" cy="-169" rx="96.7293" ry="18"/>
<text text-anchor="middle" x="121" y="-164.8" font-family="Times,serif" font-size="14.00" fill="#000000">CustomOutputService</text>
</g>
<!-- CustomOutputService&#45;&gt;AccountModule -->
<g id="edge13" class="edge">
<title>CustomOutputService&#45;&gt;AccountModule</title>
<path fill="none" stroke="#000000" d="M121,-187.2921C121,-209.2057 121,-243 121,-243 121,-243 614.3397,-243 614.3397,-243"/>
<polygon fill="#000000" stroke="#000000" points="614.3397,-246.5001 624.3397,-243 614.3397,-239.5001 614.3397,-246.5001"/>
</g>
</g>
</svg>
