<?xml version="1.0" encoding="UTF-8" standalone="no"?>
<!DOCTYPE svg PUBLIC "-//W3C//DTD SVG 1.1//EN"
 "http://www.w3.org/Graphics/SVG/1.1/DTD/svg11.dtd">
<!-- Generated by graphviz version 2.40.1 (20161225.0304)
 -->
<!-- Title: dependencies Pages: 1 -->
<svg width="894pt" height="349pt"
 viewBox="0.00 0.00 894.00 349.00" xmlns="http://www.w3.org/2000/svg" xmlns:xlink="http://www.w3.org/1999/xlink">
<g id="graph0" class="graph" transform="scale(1 1) rotate(0) translate(4 345)">
<title>dependencies</title>
<polygon fill="#ffffff" stroke="transparent" points="-4,4 -4,-345 890,-345 890,4 -4,4"/>
<text text-anchor="start" x="422.0091" y="-42.4" font-family="sans-serif" font-weight="bold" font-size="14.00" fill="#000000">Legend</text>
<polygon fill="#ffffb3" stroke="transparent" points="209,-10 209,-30 229,-30 229,-10 209,-10"/>
<text text-anchor="start" x="232.629" y="-15.4" font-family="sans-serif" font-size="14.00" fill="#000000"> &#160;Declarations</text>
<polygon fill="#8dd3c7" stroke="transparent" points="322,-10 322,-30 342,-30 342,-10 322,-10"/>
<text text-anchor="start" x="345.7251" y="-15.4" font-family="sans-serif" font-size="14.00" fill="#000000"> &#160;Module</text>
<polygon fill="#80b1d3" stroke="transparent" points="408,-10 408,-30 428,-30 428,-10 408,-10"/>
<text text-anchor="start" x="431.7812" y="-15.4" font-family="sans-serif" font-size="14.00" fill="#000000"> &#160;Bootstrap</text>
<polygon fill="#fdb462" stroke="transparent" points="505,-10 505,-30 525,-30 525,-10 505,-10"/>
<text text-anchor="start" x="528.6732" y="-15.4" font-family="sans-serif" font-size="14.00" fill="#000000"> &#160;Providers</text>
<polygon fill="#fb8072" stroke="transparent" points="601,-10 601,-30 621,-30 621,-10 601,-10"/>
<text text-anchor="start" x="624.7258" y="-15.4" font-family="sans-serif" font-size="14.00" fill="#000000"> &#160;Exports</text>
<g id="clust1" class="cluster">
<title>cluster_SignupModule</title>
<polygon fill="none" stroke="#000000" stroke-dasharray="1,5" points="8,-70 8,-333 878,-333 878,-70 8,-70"/>
</g>
<g id="clust2" class="cluster">
<title>cluster_SignupModule_declarations</title>
<polygon fill="none" stroke="#000000" points="732,-143 732,-195 870,-195 870,-143 732,-143"/>
</g>
<g id="clust3" class="cluster">
<title>cluster_SignupModule_SignupComponent_providers</title>
<polygon fill="none" stroke="#000000" points="582,-78 582,-130 870,-130 870,-78 582,-78"/>
</g>
<g id="clust4" class="cluster">
<title>cluster_SignupModule_imports</title>
<polygon fill="none" stroke="#000000" points="16,-143 16,-195 724,-195 724,-143 16,-143"/>
</g>
<g id="clust5" class="cluster">
<title>cluster_SignupModule_exports</title>
<polygon fill="none" stroke="#000000" points="414,-273 414,-325 554,-325 554,-273 414,-273"/>
</g>
<!-- SignupComponent -->
<g id="node1" class="node">
<title>SignupComponent</title>
<polygon fill="#ffffb3" stroke="#000000" points="861.5056,-187 740.4944,-187 740.4944,-151 861.5056,-151 861.5056,-187"/>
<text text-anchor="middle" x="801" y="-164.8" font-family="Times,serif" font-size="14.00" fill="#000000">SignupComponent</text>
</g>
<!-- SignupModule -->
<g id="node2" class="node">
<title>SignupModule</title>
<polygon fill="#8dd3c7" stroke="#000000" points="533.7233,-252 530.7233,-256 509.7233,-256 506.7233,-252 434.2767,-252 434.2767,-216 533.7233,-216 533.7233,-252"/>
<text text-anchor="middle" x="484" y="-229.8" font-family="Times,serif" font-size="14.00" fill="#000000">SignupModule</text>
</g>
<!-- SignupComponent&#45;&gt;SignupModule -->
<g id="edge1" class="edge">
<title>SignupComponent&#45;&gt;SignupModule</title>
<path fill="none" stroke="#000000" d="M801,-187.2843C801,-208.3211 801,-240 801,-240 801,-240 543.88,-240 543.88,-240"/>
<polygon fill="#000000" stroke="#000000" points="543.88,-236.5001 533.88,-240 543.8799,-243.5001 543.88,-236.5001"/>
</g>
<!-- SignupComponent  -->
<g id="node9" class="node">
<title>SignupComponent </title>
<polygon fill="#fb8072" stroke="#000000" points="546.0066,-317 421.9934,-317 421.9934,-281 546.0066,-281 546.0066,-317"/>
<text text-anchor="middle" x="484" y="-294.8" font-family="Times,serif" font-size="14.00" fill="#000000">SignupComponent </text>
</g>
<!-- SignupModule&#45;&gt;SignupComponent  -->
<g id="edge8" class="edge">
<title>SignupModule&#45;&gt;SignupComponent </title>
<path fill="none" stroke="#000000" stroke-dasharray="5,2" d="M484,-252.1061C484,-252.1061 484,-270.991 484,-270.991"/>
<polygon fill="#000000" stroke="#000000" points="480.5001,-270.9909 484,-280.991 487.5001,-270.991 480.5001,-270.9909"/>
</g>
<!-- SignupService -->
<g id="node3" class="node">
<title>SignupService</title>
<ellipse fill="#fdb462" stroke="#000000" cx="795" cy="-104" rx="67.2158" ry="18"/>
<text text-anchor="middle" x="795" y="-99.8" font-family="Times,serif" font-size="14.00" fill="#000000">SignupService</text>
</g>
<!-- SignupService&#45;&gt;SignupComponent -->
<g id="edge2" class="edge">
<title>SignupService&#45;&gt;SignupComponent</title>
<path fill="none" stroke="#000000" d="M801,-122.1061C801,-122.1061 801,-140.991 801,-140.991"/>
<polygon fill="#000000" stroke="#000000" points="797.5001,-140.9909 801,-150.991 804.5001,-140.991 797.5001,-140.9909"/>
</g>
<!-- AlertService -->
<g id="node4" class="node">
<title>AlertService</title>
<ellipse fill="#fdb462" stroke="#000000" cx="650" cy="-104" rx="59.6646" ry="18"/>
<text text-anchor="middle" x="650" y="-99.8" font-family="Times,serif" font-size="14.00" fill="#000000">AlertService</text>
</g>
<!-- AlertService&#45;&gt;SignupComponent -->
<g id="edge3" class="edge">
<title>AlertService&#45;&gt;SignupComponent</title>
<path fill="none" stroke="#000000" d="M710.0219,-104C717.1151,-104 721.8937,-104 721.8937,-104 721.8937,-104 721.8937,-169 721.8937,-169 721.8937,-169 730.2411,-169 730.2411,-169"/>
<polygon fill="#000000" stroke="#000000" points="730.2412,-172.5001 740.2411,-169 730.2411,-165.5001 730.2412,-172.5001"/>
</g>
<!-- AlertServiceModule -->
<g id="node5" class="node">
<title>AlertServiceModule</title>
<polygon fill="#8dd3c7" stroke="#000000" points="716.2907,-187 713.2907,-191 692.2907,-191 689.2907,-187 585.7093,-187 585.7093,-151 716.2907,-151 716.2907,-187"/>
<text text-anchor="middle" x="651" y="-164.8" font-family="Times,serif" font-size="14.00" fill="#000000">AlertServiceModule</text>
</g>
<!-- AlertServiceModule&#45;&gt;SignupModule -->
<g id="edge4" class="edge">
<title>AlertServiceModule&#45;&gt;SignupModule</title>
<path fill="none" stroke="#000000" d="M651,-187.0225C651,-204.3734 651,-228 651,-228 651,-228 543.6534,-228 543.6534,-228"/>
<polygon fill="#000000" stroke="#000000" points="543.6534,-224.5001 533.6534,-228 543.6533,-231.5001 543.6534,-224.5001"/>
</g>
<!-- BeforeLoginFooterModule -->
<g id="node6" class="node">
<title>BeforeLoginFooterModule</title>
<polygon fill="#8dd3c7" stroke="#000000" points="567.6288,-187 564.6288,-191 543.6288,-191 540.6288,-187 400.3712,-187 400.3712,-151 567.6288,-151 567.6288,-187"/>
<text text-anchor="middle" x="484" y="-164.8" font-family="Times,serif" font-size="14.00" fill="#000000">BeforeLoginFooterModule</text>
</g>
<!-- BeforeLoginFooterModule&#45;&gt;SignupModule -->
<g id="edge5" class="edge">
<title>BeforeLoginFooterModule&#45;&gt;SignupModule</title>
<path fill="none" stroke="#000000" d="M484,-187.1061C484,-187.1061 484,-205.991 484,-205.991"/>
<polygon fill="#000000" stroke="#000000" points="480.5001,-205.9909 484,-215.991 487.5001,-205.991 480.5001,-205.9909"/>
</g>
<!-- BeforeLoginHeaderModule -->
<g id="node7" class="node">
<title>BeforeLoginHeaderModule</title>
<polygon fill="#8dd3c7" stroke="#000000" points="381.9917,-187 378.9917,-191 357.9917,-191 354.9917,-187 210.0083,-187 210.0083,-151 381.9917,-151 381.9917,-187"/>
<text text-anchor="middle" x="296" y="-164.8" font-family="Times,serif" font-size="14.00" fill="#000000">BeforeLoginHeaderModule</text>
</g>
<!-- BeforeLoginHeaderModule&#45;&gt;SignupModule -->
<g id="edge6" class="edge">
<title>BeforeLoginHeaderModule&#45;&gt;SignupModule</title>
<path fill="none" stroke="#000000" d="M296,-187.0225C296,-204.3734 296,-228 296,-228 296,-228 424.113,-228 424.113,-228"/>
<polygon fill="#000000" stroke="#000000" points="424.1131,-231.5001 434.113,-228 424.113,-224.5001 424.1131,-231.5001"/>
</g>
<!-- SignupAppRoutingModule -->
<g id="node8" class="node">
<title>SignupAppRoutingModule</title>
<polygon fill="#8dd3c7" stroke="#000000" points="192.448,-187 189.448,-191 168.448,-191 165.448,-187 23.552,-187 23.552,-151 192.448,-151 192.448,-187"/>
<text text-anchor="middle" x="108" y="-164.8" font-family="Times,serif" font-size="14.00" fill="#000000">SignupAppRoutingModule</text>
</g>
<!-- SignupAppRoutingModule&#45;&gt;SignupModule -->
<g id="edge7" class="edge">
<title>SignupAppRoutingModule&#45;&gt;SignupModule</title>
<path fill="none" stroke="#000000" d="M108,-187.2843C108,-208.3211 108,-240 108,-240 108,-240 424.0701,-240 424.0701,-240"/>
<polygon fill="#000000" stroke="#000000" points="424.0701,-243.5001 434.0701,-240 424.0701,-236.5001 424.0701,-243.5001"/>
</g>
</g>
</svg>
