<?xml version="1.0" encoding="UTF-8" standalone="no"?>
<!DOCTYPE svg PUBLIC "-//W3C//DTD SVG 1.1//EN"
 "http://www.w3.org/Graphics/SVG/1.1/DTD/svg11.dtd">
<!-- Generated by graphviz version 2.40.1 (20161225.0304)
 -->
<!-- Title: dependencies Pages: 1 -->
<svg width="504pt" height="349pt"
 viewBox="0.00 0.00 504.00 349.00" xmlns="http://www.w3.org/2000/svg" xmlns:xlink="http://www.w3.org/1999/xlink">
<g id="graph0" class="graph" transform="scale(1 1) rotate(0) translate(4 345)">
<title>dependencies</title>
<polygon fill="#ffffff" stroke="transparent" points="-4,4 -4,-345 500,-345 500,4 -4,4"/>
<text text-anchor="start" x="227.0091" y="-42.4" font-family="sans-serif" font-weight="bold" font-size="14.00" fill="#000000">Legend</text>
<polygon fill="#ffffb3" stroke="transparent" points="14,-10 14,-30 34,-30 34,-10 14,-10"/>
<text text-anchor="start" x="37.629" y="-15.4" font-family="sans-serif" font-size="14.00" fill="#000000"> &#160;Declarations</text>
<polygon fill="#8dd3c7" stroke="transparent" points="127,-10 127,-30 147,-30 147,-10 127,-10"/>
<text text-anchor="start" x="150.7251" y="-15.4" font-family="sans-serif" font-size="14.00" fill="#000000"> &#160;Module</text>
<polygon fill="#80b1d3" stroke="transparent" points="213,-10 213,-30 233,-30 233,-10 213,-10"/>
<text text-anchor="start" x="236.7812" y="-15.4" font-family="sans-serif" font-size="14.00" fill="#000000"> &#160;Bootstrap</text>
<polygon fill="#fdb462" stroke="transparent" points="310,-10 310,-30 330,-30 330,-10 310,-10"/>
<text text-anchor="start" x="333.6732" y="-15.4" font-family="sans-serif" font-size="14.00" fill="#000000"> &#160;Providers</text>
<polygon fill="#fb8072" stroke="transparent" points="406,-10 406,-30 426,-30 426,-10 406,-10"/>
<text text-anchor="start" x="429.7258" y="-15.4" font-family="sans-serif" font-size="14.00" fill="#000000"> &#160;Exports</text>
<g id="clust1" class="cluster">
<title>cluster_DropdownModule</title>
<polygon fill="none" stroke="#000000" stroke-dasharray="1,5" points="17.5,-70 17.5,-333 478.5,-333 478.5,-70 17.5,-70"/>
</g>
<g id="clust2" class="cluster">
<title>cluster_DropdownModule_declarations</title>
<polygon fill="none" stroke="#000000" points="165.5,-143 165.5,-195 361.5,-195 361.5,-143 165.5,-143"/>
</g>
<g id="clust3" class="cluster">
<title>cluster_DropdownModule_AdminDropdownComponent_providers</title>
<polygon fill="none" stroke="#000000" points="25.5,-78 25.5,-130 470.5,-130 470.5,-78 25.5,-78"/>
</g>
<g id="clust5" class="cluster">
<title>cluster_DropdownModule_exports</title>
<polygon fill="none" stroke="#000000" points="163.5,-273 163.5,-325 363.5,-325 363.5,-273 163.5,-273"/>
</g>
<!-- AdminDropdownComponent -->
<g id="node1" class="node">
<title>AdminDropdownComponent</title>
<polygon fill="#ffffb3" stroke="#000000" points="353.594,-187 173.406,-187 173.406,-151 353.594,-151 353.594,-187"/>
<text text-anchor="middle" x="263.5" y="-164.8" font-family="Times,serif" font-size="14.00" fill="#000000">AdminDropdownComponent</text>
</g>
<!-- DropdownModule -->
<g id="node2" class="node">
<title>DropdownModule</title>
<polygon fill="#8dd3c7" stroke="#000000" points="323.4244,-252 320.4244,-256 299.4244,-256 296.4244,-252 203.5756,-252 203.5756,-216 323.4244,-216 323.4244,-252"/>
<text text-anchor="middle" x="263.5" y="-229.8" font-family="Times,serif" font-size="14.00" fill="#000000">DropdownModule</text>
</g>
<!-- AdminDropdownComponent&#45;&gt;DropdownModule -->
<g id="edge1" class="edge">
<title>AdminDropdownComponent&#45;&gt;DropdownModule</title>
<path fill="none" stroke="#000000" d="M263.5,-187.1061C263.5,-187.1061 263.5,-205.991 263.5,-205.991"/>
<polygon fill="#000000" stroke="#000000" points="260.0001,-205.9909 263.5,-215.991 267.0001,-205.991 260.0001,-205.9909"/>
</g>
<!-- AdminDropdownComponent  -->
<g id="node5" class="node">
<title>AdminDropdownComponent </title>
<polygon fill="#fb8072" stroke="#000000" points="355.0944,-317 171.9056,-317 171.9056,-281 355.0944,-281 355.0944,-317"/>
<text text-anchor="middle" x="263.5" y="-294.8" font-family="Times,serif" font-size="14.00" fill="#000000">AdminDropdownComponent </text>
</g>
<!-- DropdownModule&#45;&gt;AdminDropdownComponent  -->
<g id="edge4" class="edge">
<title>DropdownModule&#45;&gt;AdminDropdownComponent </title>
<path fill="none" stroke="#000000" stroke-dasharray="5,2" d="M263.5,-252.1061C263.5,-252.1061 263.5,-270.991 263.5,-270.991"/>
<polygon fill="#000000" stroke="#000000" points="260.0001,-270.9909 263.5,-280.991 267.0001,-270.991 260.0001,-270.9909"/>
</g>
<!-- DropdownService -->
<g id="node3" class="node">
<title>DropdownService</title>
<ellipse fill="#fdb462" stroke="#000000" cx="381.5" cy="-104" rx="81.084" ry="18"/>
<text text-anchor="middle" x="381.5" y="-99.8" font-family="Times,serif" font-size="14.00" fill="#000000">DropdownService</text>
</g>
<!-- DropdownService&#45;&gt;AdminDropdownComponent -->
<g id="edge2" class="edge">
<title>DropdownService&#45;&gt;AdminDropdownComponent</title>
<path fill="none" stroke="#000000" d="M326.8776,-117.468C326.8776,-117.468 326.8776,-140.8642 326.8776,-140.8642"/>
<polygon fill="#000000" stroke="#000000" points="323.3777,-140.8641 326.8776,-150.8642 330.3777,-140.8642 323.3777,-140.8641"/>
</g>
<!-- CommonHttpAdapterService -->
<g id="node4" class="node">
<title>CommonHttpAdapterService</title>
<ellipse fill="#fdb462" stroke="#000000" cx="157.5" cy="-104" rx="124.4186" ry="18"/>
<text text-anchor="middle" x="157.5" y="-99.8" font-family="Times,serif" font-size="14.00" fill="#000000">CommonHttpAdapterService</text>
</g>
<!-- CommonHttpAdapterService&#45;&gt;AdminDropdownComponent -->
<g id="edge3" class="edge">
<title>CommonHttpAdapterService&#45;&gt;AdminDropdownComponent</title>
<path fill="none" stroke="#000000" d="M227.5811,-119.0757C227.5811,-119.0757 227.5811,-140.7642 227.5811,-140.7642"/>
<polygon fill="#000000" stroke="#000000" points="224.0812,-140.7642 227.5811,-150.7642 231.0812,-140.7642 224.0812,-140.7642"/>
</g>
</g>
</svg>
