<?xml version="1.0" encoding="UTF-8" standalone="no"?>
<!DOCTYPE svg PUBLIC "-//W3C//DTD SVG 1.1//EN"
 "http://www.w3.org/Graphics/SVG/1.1/DTD/svg11.dtd">
<!-- Generated by graphviz version 2.40.1 (20161225.0304)
 -->
<!-- Title: dependencies Pages: 1 -->
<svg width="1199pt" height="349pt"
 viewBox="0.00 0.00 1199.00 349.00" xmlns="http://www.w3.org/2000/svg" xmlns:xlink="http://www.w3.org/1999/xlink">
<g id="graph0" class="graph" transform="scale(1 1) rotate(0) translate(4 345)">
<title>dependencies</title>
<polygon fill="#ffffff" stroke="transparent" points="-4,4 -4,-345 1195,-345 1195,4 -4,4"/>
<text text-anchor="start" x="574.5091" y="-42.4" font-family="sans-serif" font-weight="bold" font-size="14.00" fill="#000000">Legend</text>
<polygon fill="#ffffb3" stroke="transparent" points="361.5,-10 361.5,-30 381.5,-30 381.5,-10 361.5,-10"/>
<text text-anchor="start" x="385.129" y="-15.4" font-family="sans-serif" font-size="14.00" fill="#000000"> &#160;Declarations</text>
<polygon fill="#8dd3c7" stroke="transparent" points="474.5,-10 474.5,-30 494.5,-30 494.5,-10 474.5,-10"/>
<text text-anchor="start" x="498.2251" y="-15.4" font-family="sans-serif" font-size="14.00" fill="#000000"> &#160;Module</text>
<polygon fill="#80b1d3" stroke="transparent" points="560.5,-10 560.5,-30 580.5,-30 580.5,-10 560.5,-10"/>
<text text-anchor="start" x="584.2812" y="-15.4" font-family="sans-serif" font-size="14.00" fill="#000000"> &#160;Bootstrap</text>
<polygon fill="#fdb462" stroke="transparent" points="657.5,-10 657.5,-30 677.5,-30 677.5,-10 657.5,-10"/>
<text text-anchor="start" x="681.1732" y="-15.4" font-family="sans-serif" font-size="14.00" fill="#000000"> &#160;Providers</text>
<polygon fill="#fb8072" stroke="transparent" points="753.5,-10 753.5,-30 773.5,-30 773.5,-10 753.5,-10"/>
<text text-anchor="start" x="777.2258" y="-15.4" font-family="sans-serif" font-size="14.00" fill="#000000"> &#160;Exports</text>
<g id="clust1" class="cluster">
<title>cluster_InvestmentModule</title>
<polygon fill="none" stroke="#000000" stroke-dasharray="1,5" points="8,-70 8,-333 1183,-333 1183,-70 8,-70"/>
</g>
<g id="clust2" class="cluster">
<title>cluster_InvestmentModule_declarations</title>
<polygon fill="none" stroke="#000000" points="885,-143 885,-195 1045,-195 1045,-143 885,-143"/>
</g>
<g id="clust3" class="cluster">
<title>cluster_InvestmentModule_InvestmentComponent_providers</title>
<polygon fill="none" stroke="#000000" points="16,-78 16,-130 1175,-130 1175,-78 16,-78"/>
</g>
<g id="clust4" class="cluster">
<title>cluster_InvestmentModule_imports</title>
<polygon fill="none" stroke="#000000" points="16,-143 16,-195 877,-195 877,-143 16,-143"/>
</g>
<g id="clust5" class="cluster">
<title>cluster_InvestmentModule_exports</title>
<polygon fill="none" stroke="#000000" points="439,-273 439,-325 603,-325 603,-273 439,-273"/>
</g>
<!-- InvestmentComponent -->
<g id="node1" class="node">
<title>InvestmentComponent</title>
<polygon fill="#ffffb3" stroke="#000000" points="1036.5393,-187 893.4607,-187 893.4607,-151 1036.5393,-151 1036.5393,-187"/>
<text text-anchor="middle" x="965" y="-164.8" font-family="Times,serif" font-size="14.00" fill="#000000">InvestmentComponent</text>
</g>
<!-- InvestmentModule -->
<g id="node2" class="node">
<title>InvestmentModule</title>
<polygon fill="#8dd3c7" stroke="#000000" points="581.7562,-252 578.7562,-256 557.7562,-256 554.7562,-252 460.2438,-252 460.2438,-216 581.7562,-216 581.7562,-252"/>
<text text-anchor="middle" x="521" y="-229.8" font-family="Times,serif" font-size="14.00" fill="#000000">InvestmentModule</text>
</g>
<!-- InvestmentComponent&#45;&gt;InvestmentModule -->
<g id="edge1" class="edge">
<title>InvestmentComponent&#45;&gt;InvestmentModule</title>
<path fill="none" stroke="#000000" d="M965,-187.2843C965,-208.3211 965,-240 965,-240 965,-240 591.8053,-240 591.8053,-240"/>
<polygon fill="#000000" stroke="#000000" points="591.8054,-236.5001 581.8053,-240 591.8053,-243.5001 591.8054,-236.5001"/>
</g>
<!-- InvestmentComponent  -->
<g id="node14" class="node">
<title>InvestmentComponent </title>
<polygon fill="#fb8072" stroke="#000000" points="594.5386,-317 447.4614,-317 447.4614,-281 594.5386,-281 594.5386,-317"/>
<text text-anchor="middle" x="521" y="-294.8" font-family="Times,serif" font-size="14.00" fill="#000000">InvestmentComponent </text>
</g>
<!-- InvestmentModule&#45;&gt;InvestmentComponent  -->
<g id="edge13" class="edge">
<title>InvestmentModule&#45;&gt;InvestmentComponent </title>
<path fill="none" stroke="#000000" stroke-dasharray="5,2" d="M521,-252.1061C521,-252.1061 521,-270.991 521,-270.991"/>
<polygon fill="#000000" stroke="#000000" points="517.5001,-270.9909 521,-280.991 524.5001,-270.991 517.5001,-270.9909"/>
</g>
<!-- InvestmentService -->
<g id="node3" class="node">
<title>InvestmentService</title>
<ellipse fill="#fdb462" stroke="#000000" cx="1084" cy="-104" rx="82.8013" ry="18"/>
<text text-anchor="middle" x="1084" y="-99.8" font-family="Times,serif" font-size="14.00" fill="#000000">InvestmentService</text>
</g>
<!-- InvestmentService&#45;&gt;InvestmentComponent -->
<g id="edge2" class="edge">
<title>InvestmentService&#45;&gt;InvestmentComponent</title>
<path fill="none" stroke="#000000" d="M1018.9344,-115.3221C1018.9344,-115.3221 1018.9344,-140.9424 1018.9344,-140.9424"/>
<polygon fill="#000000" stroke="#000000" points="1015.4345,-140.9424 1018.9344,-150.9424 1022.4345,-140.9425 1015.4345,-140.9424"/>
</g>
<!-- CommonHttpAdapterService -->
<g id="node4" class="node">
<title>CommonHttpAdapterService</title>
<ellipse fill="#fdb462" stroke="#000000" cx="859" cy="-104" rx="124.4186" ry="18"/>
<text text-anchor="middle" x="859" y="-99.8" font-family="Times,serif" font-size="14.00" fill="#000000">CommonHttpAdapterService</text>
</g>
<!-- CommonHttpAdapterService&#45;&gt;InvestmentComponent -->
<g id="edge3" class="edge">
<title>CommonHttpAdapterService&#45;&gt;InvestmentComponent</title>
<path fill="none" stroke="#000000" d="M968.2127,-112.7662C968.2127,-112.7662 968.2127,-140.802 968.2127,-140.802"/>
<polygon fill="#000000" stroke="#000000" points="964.7128,-140.802 968.2127,-150.802 971.7128,-140.8021 964.7128,-140.802"/>
</g>
<!-- PreviewService -->
<g id="node5" class="node">
<title>PreviewService</title>
<ellipse fill="#fdb462" stroke="#000000" cx="645" cy="-104" rx="71.7641" ry="18"/>
<text text-anchor="middle" x="645" y="-99.8" font-family="Times,serif" font-size="14.00" fill="#000000">PreviewService</text>
</g>
<!-- PreviewService&#45;&gt;InvestmentComponent -->
<g id="edge4" class="edge">
<title>PreviewService&#45;&gt;InvestmentComponent</title>
<path fill="none" stroke="#000000" d="M701.9657,-115.1569C701.9657,-121.4243 701.9657,-128 701.9657,-128 701.9657,-128 953.2163,-128 953.2163,-128 953.2163,-128 953.2163,-140.8975 953.2163,-140.8975"/>
<polygon fill="#000000" stroke="#000000" points="949.7164,-140.8974 953.2163,-150.8975 956.7164,-140.8975 949.7164,-140.8974"/>
</g>
<!-- CommonHelperService -->
<g id="node6" class="node">
<title>CommonHelperService</title>
<ellipse fill="#fdb462" stroke="#000000" cx="453" cy="-104" rx="102.4275" ry="18"/>
<text text-anchor="middle" x="453" y="-99.8" font-family="Times,serif" font-size="14.00" fill="#000000">CommonHelperService</text>
</g>
<!-- CommonHelperService&#45;&gt;InvestmentComponent -->
<g id="edge5" class="edge">
<title>CommonHelperService&#45;&gt;InvestmentComponent</title>
<path fill="none" stroke="#000000" d="M543.0647,-112.5166C543.0647,-121.3859 543.0647,-134 543.0647,-134 543.0647,-134 938.2199,-134 938.2199,-134 938.2199,-134 938.2199,-140.68 938.2199,-140.68"/>
<polygon fill="#000000" stroke="#000000" points="934.72,-140.6799 938.2199,-150.68 941.72,-140.68 934.72,-140.6799"/>
</g>
<!-- ChartHelperService -->
<g id="node7" class="node">
<title>ChartHelperService</title>
<ellipse fill="#fdb462" stroke="#000000" cx="245" cy="-104" rx="87.9355" ry="18"/>
<text text-anchor="middle" x="245" y="-99.8" font-family="Times,serif" font-size="14.00" fill="#000000">ChartHelperService</text>
</g>
<!-- ChartHelperService&#45;&gt;InvestmentComponent -->
<g id="edge6" class="edge">
<title>ChartHelperService&#45;&gt;InvestmentComponent</title>
<path fill="none" stroke="#000000" d="M244.3864,-122C244.3864,-131 244.3864,-140 244.3864,-140 244.3864,-140 923.2235,-140 923.2235,-140 923.2235,-140 923.2235,-141.0799 923.2235,-141.0799"/>
<polygon fill="#000000" stroke="#000000" points="919.7236,-140.7985 923.2235,-150.7985 926.7236,-140.7986 919.7236,-140.7985"/>
</g>
<!-- RxJSHelper -->
<g id="node8" class="node">
<title>RxJSHelper</title>
<ellipse fill="#fdb462" stroke="#000000" cx="82" cy="-104" rx="57.9023" ry="18"/>
<text text-anchor="middle" x="82" y="-99.8" font-family="Times,serif" font-size="14.00" fill="#000000">RxJSHelper</text>
</g>
<!-- RxJSHelper&#45;&gt;InvestmentComponent -->
<g id="edge7" class="edge">
<title>RxJSHelper&#45;&gt;InvestmentComponent</title>
<path fill="none" stroke="#000000" d="M130.9559,-113.7412C130.9559,-126.1484 130.9559,-146 130.9559,-146 130.9559,-146 908.2271,-146 908.2271,-146 908.2271,-146 908.2271,-146.4878 908.2271,-146.4878"/>
<polygon fill="#000000" stroke="#000000" points="904.7273,-140.8776 908.2271,-150.8777 911.7273,-140.8778 904.7273,-140.8776"/>
</g>
<!-- AuthorisedFooterModule -->
<g id="node9" class="node">
<title>AuthorisedFooterModule</title>
<polygon fill="#8dd3c7" stroke="#000000" points="869.3061,-187 866.3061,-191 845.3061,-191 842.3061,-187 710.6939,-187 710.6939,-151 869.3061,-151 869.3061,-187"/>
<text text-anchor="middle" x="790" y="-164.8" font-family="Times,serif" font-size="14.00" fill="#000000">AuthorisedFooterModule</text>
</g>
<!-- AuthorisedFooterModule&#45;&gt;InvestmentModule -->
<g id="edge8" class="edge">
<title>AuthorisedFooterModule&#45;&gt;InvestmentModule</title>
<path fill="none" stroke="#000000" d="M790,-187.0225C790,-204.3734 790,-228 790,-228 790,-228 592.0403,-228 592.0403,-228"/>
<polygon fill="#000000" stroke="#000000" points="592.0403,-224.5001 582.0403,-228 592.0402,-231.5001 592.0403,-224.5001"/>
</g>
<!-- AuthorisedHeaderModule -->
<g id="node10" class="node">
<title>AuthorisedHeaderModule</title>
<polygon fill="#8dd3c7" stroke="#000000" points="693.1685,-187 690.1685,-191 669.1685,-191 666.1685,-187 530.8315,-187 530.8315,-151 693.1685,-151 693.1685,-187"/>
<text text-anchor="middle" x="612" y="-164.8" font-family="Times,serif" font-size="14.00" fill="#000000">AuthorisedHeaderModule</text>
</g>
<!-- AuthorisedHeaderModule&#45;&gt;InvestmentModule -->
<g id="edge9" class="edge">
<title>AuthorisedHeaderModule&#45;&gt;InvestmentModule</title>
<path fill="none" stroke="#000000" d="M556.3969,-187.1061C556.3969,-187.1061 556.3969,-205.991 556.3969,-205.991"/>
<polygon fill="#000000" stroke="#000000" points="552.897,-205.9909 556.3969,-215.991 559.897,-205.991 552.897,-205.9909"/>
</g>
<!-- CommonDirectiveModule -->
<g id="node11" class="node">
<title>CommonDirectiveModule</title>
<polygon fill="#8dd3c7" stroke="#000000" points="512.7506,-187 509.7506,-191 488.7506,-191 485.7506,-187 349.2494,-187 349.2494,-151 512.7506,-151 512.7506,-187"/>
<text text-anchor="middle" x="431" y="-164.8" font-family="Times,serif" font-size="14.00" fill="#000000">CommonDirectiveModule</text>
</g>
<!-- CommonDirectiveModule&#45;&gt;InvestmentModule -->
<g id="edge10" class="edge">
<title>CommonDirectiveModule&#45;&gt;InvestmentModule</title>
<path fill="none" stroke="#000000" d="M486.4986,-187.1061C486.4986,-187.1061 486.4986,-205.991 486.4986,-205.991"/>
<polygon fill="#000000" stroke="#000000" points="482.9987,-205.9909 486.4986,-215.991 489.9987,-205.991 482.9987,-205.9909"/>
</g>
<!-- InvestmentAppRoutingModule -->
<g id="node12" class="node">
<title>InvestmentAppRoutingModule</title>
<polygon fill="#8dd3c7" stroke="#000000" points="331.4804,-187 328.4804,-191 307.4804,-191 304.4804,-187 140.5196,-187 140.5196,-151 331.4804,-151 331.4804,-187"/>
<text text-anchor="middle" x="236" y="-164.8" font-family="Times,serif" font-size="14.00" fill="#000000">InvestmentAppRoutingModule</text>
</g>
<!-- InvestmentAppRoutingModule&#45;&gt;InvestmentModule -->
<g id="edge11" class="edge">
<title>InvestmentAppRoutingModule&#45;&gt;InvestmentModule</title>
<path fill="none" stroke="#000000" d="M236,-187.0225C236,-204.3734 236,-228 236,-228 236,-228 450.2099,-228 450.2099,-228"/>
<polygon fill="#000000" stroke="#000000" points="450.21,-231.5001 460.2099,-228 450.2099,-224.5001 450.21,-231.5001"/>
</g>
<!-- SharedModule -->
<g id="node13" class="node">
<title>SharedModule</title>
<polygon fill="#8dd3c7" stroke="#000000" points="122.4231,-187 119.4231,-191 98.4231,-191 95.4231,-187 23.5769,-187 23.5769,-151 122.4231,-151 122.4231,-187"/>
<text text-anchor="middle" x="73" y="-164.8" font-family="Times,serif" font-size="14.00" fill="#000000">SharedModule</text>
</g>
<!-- SharedModule&#45;&gt;InvestmentModule -->
<g id="edge12" class="edge">
<title>SharedModule&#45;&gt;InvestmentModule</title>
<path fill="none" stroke="#000000" d="M73,-187.2843C73,-208.3211 73,-240 73,-240 73,-240 450.1145,-240 450.1145,-240"/>
<polygon fill="#000000" stroke="#000000" points="450.1145,-243.5001 460.1145,-240 450.1145,-236.5001 450.1145,-243.5001"/>
</g>
</g>
</svg>
