<?xml version="1.0" encoding="UTF-8" standalone="no"?>
<!DOCTYPE svg PUBLIC "-//W3C//DTD SVG 1.1//EN"
 "http://www.w3.org/Graphics/SVG/1.1/DTD/svg11.dtd">
<!-- Generated by graphviz version 2.40.1 (20161225.0304)
 -->
<!-- Title: dependencies Pages: 1 -->
<svg width="2921pt" height="284pt"
 viewBox="0.00 0.00 2921.00 284.00" xmlns="http://www.w3.org/2000/svg" xmlns:xlink="http://www.w3.org/1999/xlink">
<g id="graph0" class="graph" transform="scale(1 1) rotate(0) translate(4 280)">
<title>dependencies</title>
<polygon fill="#ffffff" stroke="transparent" points="-4,4 -4,-280 2917,-280 2917,4 -4,4"/>
<text text-anchor="start" x="1435.5091" y="-42.4" font-family="sans-serif" font-weight="bold" font-size="14.00" fill="#000000">Legend</text>
<polygon fill="#ffffb3" stroke="transparent" points="1222.5,-10 1222.5,-30 1242.5,-30 1242.5,-10 1222.5,-10"/>
<text text-anchor="start" x="1246.129" y="-15.4" font-family="sans-serif" font-size="14.00" fill="#000000"> &#160;Declarations</text>
<polygon fill="#8dd3c7" stroke="transparent" points="1335.5,-10 1335.5,-30 1355.5,-30 1355.5,-10 1335.5,-10"/>
<text text-anchor="start" x="1359.2251" y="-15.4" font-family="sans-serif" font-size="14.00" fill="#000000"> &#160;Module</text>
<polygon fill="#80b1d3" stroke="transparent" points="1421.5,-10 1421.5,-30 1441.5,-30 1441.5,-10 1421.5,-10"/>
<text text-anchor="start" x="1445.2812" y="-15.4" font-family="sans-serif" font-size="14.00" fill="#000000"> &#160;Bootstrap</text>
<polygon fill="#fdb462" stroke="transparent" points="1518.5,-10 1518.5,-30 1538.5,-30 1538.5,-10 1518.5,-10"/>
<text text-anchor="start" x="1542.1732" y="-15.4" font-family="sans-serif" font-size="14.00" fill="#000000"> &#160;Providers</text>
<polygon fill="#fb8072" stroke="transparent" points="1614.5,-10 1614.5,-30 1634.5,-30 1634.5,-10 1614.5,-10"/>
<text text-anchor="start" x="1638.2258" y="-15.4" font-family="sans-serif" font-size="14.00" fill="#000000"> &#160;Exports</text>
<g id="clust1" class="cluster">
<title>cluster_AppModule</title>
<polygon fill="none" stroke="#000000" stroke-dasharray="1,5" points="8,-70 8,-268 2905,-268 2905,-70 8,-70"/>
</g>
<g id="clust2" class="cluster">
<title>cluster_AppModule_declarations</title>
<polygon fill="none" stroke="#000000" points="2592,-78 2592,-130 2897,-130 2897,-78 2592,-78"/>
</g>
<g id="clust5" class="cluster">
<title>cluster_AppModule_imports</title>
<polygon fill="none" stroke="#000000" points="252,-78 252,-130 2584,-130 2584,-78 252,-78"/>
</g>
<g id="clust7" class="cluster">
<title>cluster_AppModule_bootstrap</title>
<polygon fill="none" stroke="#000000" points="1275,-208 1275,-260 1399,-260 1399,-208 1275,-208"/>
</g>
<g id="clust8" class="cluster">
<title>cluster_AppModule_providers</title>
<polygon fill="none" stroke="#000000" points="16,-78 16,-130 244,-130 244,-78 16,-78"/>
</g>
<!-- AppComponent -->
<g id="node1" class="node">
<title>AppComponent</title>
<polygon fill="#ffffb3" stroke="#000000" points="2888.9399,-122 2783.0601,-122 2783.0601,-86 2888.9399,-86 2888.9399,-122"/>
<text text-anchor="middle" x="2836" y="-99.8" font-family="Times,serif" font-size="14.00" fill="#000000">AppComponent</text>
</g>
<!-- AppModule -->
<g id="node3" class="node">
<title>AppModule</title>
<polygon fill="#8dd3c7" stroke="#000000" points="1378.6571,-187 1375.6571,-191 1354.6571,-191 1351.6571,-187 1295.3429,-187 1295.3429,-151 1378.6571,-151 1378.6571,-187"/>
<text text-anchor="middle" x="1337" y="-164.8" font-family="Times,serif" font-size="14.00" fill="#000000">AppModule</text>
</g>
<!-- AppComponent&#45;&gt;AppModule -->
<g id="edge1" class="edge">
<title>AppComponent&#45;&gt;AppModule</title>
<path fill="none" stroke="#000000" d="M2836,-122.1532C2836,-145.7566 2836,-184 2836,-184 2836,-184 1389.0511,-184 1389.0511,-184"/>
<polygon fill="#000000" stroke="#000000" points="1389.0511,-180.5001 1379.0511,-184 1389.051,-187.5001 1389.0511,-180.5001"/>
</g>
<!-- PageNotFoundComponent -->
<g id="node2" class="node">
<title>PageNotFoundComponent</title>
<polygon fill="#ffffb3" stroke="#000000" points="2765.8243,-122 2600.1757,-122 2600.1757,-86 2765.8243,-86 2765.8243,-122"/>
<text text-anchor="middle" x="2683" y="-99.8" font-family="Times,serif" font-size="14.00" fill="#000000">PageNotFoundComponent</text>
</g>
<!-- PageNotFoundComponent&#45;&gt;AppModule -->
<g id="edge2" class="edge">
<title>PageNotFoundComponent&#45;&gt;AppModule</title>
<path fill="none" stroke="#000000" d="M2683,-122.2479C2683,-145.0179 2683,-181 2683,-181 2683,-181 1388.7591,-181 1388.7591,-181"/>
<polygon fill="#000000" stroke="#000000" points="1388.7591,-177.5001 1378.7591,-181 1388.759,-184.5001 1388.7591,-177.5001"/>
</g>
<!-- AppComponent  -->
<g id="node21" class="node">
<title>AppComponent </title>
<polygon fill="#80b1d3" stroke="#000000" points="1391.439,-252 1282.561,-252 1282.561,-216 1391.439,-216 1391.439,-252"/>
<text text-anchor="middle" x="1337" y="-229.8" font-family="Times,serif" font-size="14.00" fill="#000000">AppComponent </text>
</g>
<!-- AppModule&#45;&gt;AppComponent  -->
<g id="edge20" class="edge">
<title>AppModule&#45;&gt;AppComponent </title>
<path fill="none" stroke="#000000" stroke-dasharray="1,5" d="M1337,-187.1061C1337,-187.1061 1337,-205.991 1337,-205.991"/>
<polygon fill="#000000" stroke="#000000" points="1333.5001,-205.9909 1337,-215.991 1340.5001,-205.991 1333.5001,-205.9909"/>
</g>
<!-- AccountModule -->
<g id="node4" class="node">
<title>AccountModule</title>
<polygon fill="#8dd3c7" stroke="#000000" points="2576.4762,-122 2573.4762,-126 2552.4762,-126 2549.4762,-122 2469.5238,-122 2469.5238,-86 2576.4762,-86 2576.4762,-122"/>
<text text-anchor="middle" x="2523" y="-99.8" font-family="Times,serif" font-size="14.00" fill="#000000">AccountModule</text>
</g>
<!-- AccountModule&#45;&gt;AppModule -->
<g id="edge3" class="edge">
<title>AccountModule&#45;&gt;AppModule</title>
<path fill="none" stroke="#000000" d="M2523,-122.2921C2523,-144.2057 2523,-178 2523,-178 2523,-178 1388.862,-178 1388.862,-178"/>
<polygon fill="#000000" stroke="#000000" points="1388.862,-174.5001 1378.862,-178 1388.862,-181.5001 1388.862,-174.5001"/>
</g>
<!-- AppConfigModule -->
<g id="node5" class="node">
<title>AppConfigModule</title>
<polygon fill="#8dd3c7" stroke="#000000" points="2451.045,-122 2448.045,-126 2427.045,-126 2424.045,-122 2328.955,-122 2328.955,-86 2451.045,-86 2451.045,-122"/>
<text text-anchor="middle" x="2390" y="-99.8" font-family="Times,serif" font-size="14.00" fill="#000000">AppConfigModule</text>
</g>
<!-- AppConfigModule&#45;&gt;AppModule -->
<g id="edge4" class="edge">
<title>AppConfigModule&#45;&gt;AppModule</title>
<path fill="none" stroke="#000000" d="M2390,-122.0267C2390,-142.7672 2390,-174 2390,-174 2390,-174 1388.9287,-174 1388.9287,-174"/>
<polygon fill="#000000" stroke="#000000" points="1388.9287,-170.5001 1378.9287,-174 1388.9286,-177.5001 1388.9287,-170.5001"/>
</g>
<!-- AppRoutingModule -->
<g id="node6" class="node">
<title>AppRoutingModule</title>
<polygon fill="#8dd3c7" stroke="#000000" points="2310.2744,-122 2307.2744,-126 2286.2744,-126 2283.2744,-122 2181.7256,-122 2181.7256,-86 2310.2744,-86 2310.2744,-122"/>
<text text-anchor="middle" x="2246" y="-99.8" font-family="Times,serif" font-size="14.00" fill="#000000">AppRoutingModule</text>
</g>
<!-- AppRoutingModule&#45;&gt;AppModule -->
<g id="edge5" class="edge">
<title>AppRoutingModule&#45;&gt;AppModule</title>
<path fill="none" stroke="#000000" d="M2246,-122.308C2246,-142.1455 2246,-171 2246,-171 2246,-171 1388.7194,-171 1388.7194,-171"/>
<polygon fill="#000000" stroke="#000000" points="1388.7194,-167.5001 1378.7194,-171 1388.7194,-174.5001 1388.7194,-167.5001"/>
</g>
<!-- BudgetModule -->
<g id="node7" class="node">
<title>BudgetModule</title>
<polygon fill="#8dd3c7" stroke="#000000" points="2163.9916,-122 2160.9916,-126 2139.9916,-126 2136.9916,-122 2064.0084,-122 2064.0084,-86 2163.9916,-86 2163.9916,-122"/>
<text text-anchor="middle" x="2114" y="-99.8" font-family="Times,serif" font-size="14.00" fill="#000000">BudgetModule</text>
</g>
<!-- BudgetModule&#45;&gt;AppModule -->
<g id="edge6" class="edge">
<title>BudgetModule&#45;&gt;AppModule</title>
<path fill="none" stroke="#000000" d="M2114,-122.1686C2114,-141.0898 2114,-168 2114,-168 2114,-168 1388.7749,-168 1388.7749,-168"/>
<polygon fill="#000000" stroke="#000000" points="1388.7749,-164.5001 1378.7749,-168 1388.7749,-171.5001 1388.7749,-164.5001"/>
</g>
<!-- CarrierModule -->
<g id="node8" class="node">
<title>CarrierModule</title>
<polygon fill="#8dd3c7" stroke="#000000" points="2045.6882,-122 2042.6882,-126 2021.6882,-126 2018.6882,-122 1946.3118,-122 1946.3118,-86 2045.6882,-86 2045.6882,-122"/>
<text text-anchor="middle" x="1996" y="-99.8" font-family="Times,serif" font-size="14.00" fill="#000000">CarrierModule</text>
</g>
<!-- CarrierModule&#45;&gt;AppModule -->
<g id="edge7" class="edge">
<title>CarrierModule&#45;&gt;AppModule</title>
<path fill="none" stroke="#000000" d="M1996,-122.302C1996,-140.2699 1996,-165 1996,-165 1996,-165 1388.7233,-165 1388.7233,-165"/>
<polygon fill="#000000" stroke="#000000" points="1388.7234,-161.5001 1378.7233,-165 1388.7233,-168.5001 1388.7234,-161.5001"/>
</g>
<!-- ClientAdvisorsModule -->
<g id="node9" class="node">
<title>ClientAdvisorsModule</title>
<polygon fill="#8dd3c7" stroke="#000000" points="1928.3202,-122 1925.3202,-126 1904.3202,-126 1901.3202,-122 1783.6798,-122 1783.6798,-86 1928.3202,-86 1928.3202,-122"/>
<text text-anchor="middle" x="1856" y="-99.8" font-family="Times,serif" font-size="14.00" fill="#000000">ClientAdvisorsModule</text>
</g>
<!-- ClientAdvisorsModule&#45;&gt;AppModule -->
<g id="edge8" class="edge">
<title>ClientAdvisorsModule&#45;&gt;AppModule</title>
<path fill="none" stroke="#000000" d="M1856,-122.0352C1856,-138.7344 1856,-161 1856,-161 1856,-161 1389.0323,-161 1389.0323,-161"/>
<polygon fill="#000000" stroke="#000000" points="1389.0324,-157.5001 1379.0323,-161 1389.0323,-164.5001 1389.0324,-157.5001"/>
</g>
<!-- CommonHttpAdapterModule -->
<g id="node10" class="node">
<title>CommonHttpAdapterModule</title>
<polygon fill="#8dd3c7" stroke="#000000" points="1765.6428,-122 1762.6428,-126 1741.6428,-126 1738.6428,-122 1584.3572,-122 1584.3572,-86 1765.6428,-86 1765.6428,-122"/>
<text text-anchor="middle" x="1675" y="-99.8" font-family="Times,serif" font-size="14.00" fill="#000000">CommonHttpAdapterModule</text>
</g>
<!-- CommonHttpAdapterModule&#45;&gt;AppModule -->
<g id="edge9" class="edge">
<title>CommonHttpAdapterModule&#45;&gt;AppModule</title>
<path fill="none" stroke="#000000" d="M1675,-122.2819C1675,-137.9478 1675,-158 1675,-158 1675,-158 1388.7844,-158 1388.7844,-158"/>
<polygon fill="#000000" stroke="#000000" points="1388.7845,-154.5001 1378.7844,-158 1388.7844,-161.5001 1388.7845,-154.5001"/>
</g>
<!-- ForgotPasswordModule -->
<g id="node11" class="node">
<title>ForgotPasswordModule</title>
<polygon fill="#8dd3c7" stroke="#000000" points="1566.0379,-122 1563.0379,-126 1542.0379,-126 1539.0379,-122 1415.9621,-122 1415.9621,-86 1566.0379,-86 1566.0379,-122"/>
<text text-anchor="middle" x="1491" y="-99.8" font-family="Times,serif" font-size="14.00" fill="#000000">ForgotPasswordModule</text>
</g>
<!-- ForgotPasswordModule&#45;&gt;AppModule -->
<g id="edge10" class="edge">
<title>ForgotPasswordModule&#45;&gt;AppModule</title>
<path fill="none" stroke="#000000" d="M1491,-122.1243C1491,-136.7832 1491,-155 1491,-155 1491,-155 1388.6746,-155 1388.6746,-155"/>
<polygon fill="#000000" stroke="#000000" points="1388.6747,-151.5001 1378.6746,-155 1388.6746,-158.5001 1388.6747,-151.5001"/>
</g>
<!-- InvestmentModule -->
<g id="node12" class="node">
<title>InvestmentModule</title>
<polygon fill="#8dd3c7" stroke="#000000" points="1397.7562,-122 1394.7562,-126 1373.7562,-126 1370.7562,-122 1276.2438,-122 1276.2438,-86 1397.7562,-86 1397.7562,-122"/>
<text text-anchor="middle" x="1337" y="-99.8" font-family="Times,serif" font-size="14.00" fill="#000000">InvestmentModule</text>
</g>
<!-- InvestmentModule&#45;&gt;AppModule -->
<g id="edge11" class="edge">
<title>InvestmentModule&#45;&gt;AppModule</title>
<path fill="none" stroke="#000000" d="M1337,-122.1061C1337,-122.1061 1337,-140.991 1337,-140.991"/>
<polygon fill="#000000" stroke="#000000" points="1333.5001,-140.9909 1337,-150.991 1340.5001,-140.991 1333.5001,-140.9909"/>
</g>
<!-- LoginModule -->
<g id="node13" class="node">
<title>LoginModule</title>
<polygon fill="#8dd3c7" stroke="#000000" points="1258.493,-122 1255.493,-126 1234.493,-126 1231.493,-122 1165.507,-122 1165.507,-86 1258.493,-86 1258.493,-122"/>
<text text-anchor="middle" x="1212" y="-99.8" font-family="Times,serif" font-size="14.00" fill="#000000">LoginModule</text>
</g>
<!-- LoginModule&#45;&gt;AppModule -->
<g id="edge12" class="edge">
<title>LoginModule&#45;&gt;AppModule</title>
<path fill="none" stroke="#000000" d="M1212,-122.1243C1212,-136.7832 1212,-155 1212,-155 1212,-155 1285.0291,-155 1285.0291,-155"/>
<polygon fill="#000000" stroke="#000000" points="1285.0291,-158.5001 1295.0291,-155 1285.029,-151.5001 1285.0291,-158.5001"/>
</g>
<!-- LogoutModule -->
<g id="node14" class="node">
<title>LogoutModule</title>
<polygon fill="#8dd3c7" stroke="#000000" points="1147.993,-122 1144.993,-126 1123.993,-126 1120.993,-122 1048.007,-122 1048.007,-86 1147.993,-86 1147.993,-122"/>
<text text-anchor="middle" x="1098" y="-99.8" font-family="Times,serif" font-size="14.00" fill="#000000">LogoutModule</text>
</g>
<!-- LogoutModule&#45;&gt;AppModule -->
<g id="edge13" class="edge">
<title>LogoutModule&#45;&gt;AppModule</title>
<path fill="none" stroke="#000000" d="M1098,-122.2819C1098,-137.9478 1098,-158 1098,-158 1098,-158 1285.0959,-158 1285.0959,-158"/>
<polygon fill="#000000" stroke="#000000" points="1285.0959,-161.5001 1295.0959,-158 1285.0959,-154.5001 1285.0959,-161.5001"/>
</g>
<!-- PreviewModule -->
<g id="node15" class="node">
<title>PreviewModule</title>
<polygon fill="#8dd3c7" stroke="#000000" points="1029.9202,-122 1026.9202,-126 1005.9202,-126 1002.9202,-122 924.0798,-122 924.0798,-86 1029.9202,-86 1029.9202,-122"/>
<text text-anchor="middle" x="977" y="-99.8" font-family="Times,serif" font-size="14.00" fill="#000000">PreviewModule</text>
</g>
<!-- PreviewModule&#45;&gt;AppModule -->
<g id="edge14" class="edge">
<title>PreviewModule&#45;&gt;AppModule</title>
<path fill="none" stroke="#000000" d="M977,-122.0352C977,-138.7344 977,-161 977,-161 977,-161 1284.9989,-161 1284.9989,-161"/>
<polygon fill="#000000" stroke="#000000" points="1284.9989,-164.5001 1294.9989,-161 1284.9988,-157.5001 1284.9989,-164.5001"/>
</g>
<!-- RepositoryModule -->
<g id="node16" class="node">
<title>RepositoryModule</title>
<polygon fill="#8dd3c7" stroke="#000000" points="906.4874,-122 903.4874,-126 882.4874,-126 879.4874,-122 785.5126,-122 785.5126,-86 906.4874,-86 906.4874,-122"/>
<text text-anchor="middle" x="846" y="-99.8" font-family="Times,serif" font-size="14.00" fill="#000000">RepositoryModule</text>
</g>
<!-- RepositoryModule&#45;&gt;AppModule -->
<g id="edge15" class="edge">
<title>RepositoryModule&#45;&gt;AppModule</title>
<path fill="none" stroke="#000000" d="M846,-122.302C846,-140.2699 846,-165 846,-165 846,-165 1285.1376,-165 1285.1376,-165"/>
<polygon fill="#000000" stroke="#000000" points="1285.1377,-168.5001 1295.1376,-165 1285.1376,-161.5001 1285.1377,-168.5001"/>
</g>
<!-- ReviewModule -->
<g id="node17" class="node">
<title>ReviewModule</title>
<polygon fill="#8dd3c7" stroke="#000000" points="767.3133,-122 764.3133,-126 743.3133,-126 740.3133,-122 664.6867,-122 664.6867,-86 767.3133,-86 767.3133,-122"/>
<text text-anchor="middle" x="716" y="-99.8" font-family="Times,serif" font-size="14.00" fill="#000000">ReviewModule</text>
</g>
<!-- ReviewModule&#45;&gt;AppModule -->
<g id="edge16" class="edge">
<title>ReviewModule&#45;&gt;AppModule</title>
<path fill="none" stroke="#000000" d="M716,-122.1686C716,-141.0898 716,-168 716,-168 716,-168 1285.2902,-168 1285.2902,-168"/>
<polygon fill="#000000" stroke="#000000" points="1285.2902,-171.5001 1295.2902,-168 1285.2901,-164.5001 1285.2902,-171.5001"/>
</g>
<!-- SignupModule -->
<g id="node18" class="node">
<title>SignupModule</title>
<polygon fill="#8dd3c7" stroke="#000000" points="646.7233,-122 643.7233,-126 622.7233,-126 619.7233,-122 547.2767,-122 547.2767,-86 646.7233,-86 646.7233,-122"/>
<text text-anchor="middle" x="597" y="-99.8" font-family="Times,serif" font-size="14.00" fill="#000000">SignupModule</text>
</g>
<!-- SignupModule&#45;&gt;AppModule -->
<g id="edge17" class="edge">
<title>SignupModule&#45;&gt;AppModule</title>
<path fill="none" stroke="#000000" d="M597,-122.308C597,-142.1455 597,-171 597,-171 597,-171 1285.0941,-171 1285.0941,-171"/>
<polygon fill="#000000" stroke="#000000" points="1285.0942,-174.5001 1295.0941,-171 1285.0941,-167.5001 1285.0942,-174.5001"/>
</g>
<!-- TransactionModule -->
<g id="node19" class="node">
<title>TransactionModule</title>
<polygon fill="#8dd3c7" stroke="#000000" points="529.6331,-122 526.6331,-126 505.6331,-126 502.6331,-122 404.3669,-122 404.3669,-86 529.6331,-86 529.6331,-122"/>
<text text-anchor="middle" x="467" y="-99.8" font-family="Times,serif" font-size="14.00" fill="#000000">TransactionModule</text>
</g>
<!-- TransactionModule&#45;&gt;AppModule -->
<g id="edge18" class="edge">
<title>TransactionModule&#45;&gt;AppModule</title>
<path fill="none" stroke="#000000" d="M467,-122.0267C467,-142.7672 467,-174 467,-174 467,-174 1285.3312,-174 1285.3312,-174"/>
<polygon fill="#000000" stroke="#000000" points="1285.3312,-177.5001 1295.3312,-174 1285.3312,-170.5001 1285.3312,-177.5001"/>
</g>
<!-- XmlViewerModule -->
<g id="node20" class="node">
<title>XmlViewerModule</title>
<polygon fill="#8dd3c7" stroke="#000000" points="385.6317,-122 382.6317,-126 361.6317,-126 358.6317,-122 260.3683,-122 260.3683,-86 385.6317,-86 385.6317,-122"/>
<text text-anchor="middle" x="323" y="-99.8" font-family="Times,serif" font-size="14.00" fill="#000000">XmlViewerModule</text>
</g>
<!-- XmlViewerModule&#45;&gt;AppModule -->
<g id="edge19" class="edge">
<title>XmlViewerModule&#45;&gt;AppModule</title>
<path fill="none" stroke="#000000" d="M323,-122.2921C323,-144.2057 323,-178 323,-178 323,-178 1285.0407,-178 1285.0407,-178"/>
<polygon fill="#000000" stroke="#000000" points="1285.0407,-181.5001 1295.0407,-178 1285.0406,-174.5001 1285.0407,-181.5001"/>
</g>
<!-- Logger -->
<g id="node22" class="node">
<title>Logger</title>
<ellipse fill="#fdb462" stroke="#000000" cx="197" cy="-104" rx="38.8459" ry="18"/>
<text text-anchor="middle" x="197" y="-99.8" font-family="Times,serif" font-size="14.00" fill="#000000">Logger</text>
</g>
<!-- Logger&#45;&gt;AppModule -->
<g id="edge21" class="edge">
<title>Logger&#45;&gt;AppModule</title>
<path fill="none" stroke="#000000" d="M197,-122.2479C197,-145.0179 197,-181 197,-181 197,-181 1285.0748,-181 1285.0748,-181"/>
<polygon fill="#000000" stroke="#000000" points="1285.0748,-184.5001 1295.0748,-181 1285.0748,-177.5001 1285.0748,-184.5001"/>
</g>
<!-- RxJSHelper -->
<g id="node23" class="node">
<title>RxJSHelper</title>
<ellipse fill="#fdb462" stroke="#000000" cx="82" cy="-104" rx="57.9023" ry="18"/>
<text text-anchor="middle" x="82" y="-99.8" font-family="Times,serif" font-size="14.00" fill="#000000">RxJSHelper</text>
</g>
<!-- RxJSHelper&#45;&gt;AppModule -->
<g id="edge22" class="edge">
<title>RxJSHelper&#45;&gt;AppModule</title>
<path fill="none" stroke="#000000" d="M82,-122.1532C82,-145.7566 82,-184 82,-184 82,-184 1285.2439,-184 1285.2439,-184"/>
<polygon fill="#000000" stroke="#000000" points="1285.2439,-187.5001 1295.2439,-184 1285.2439,-180.5001 1285.2439,-187.5001"/>
</g>
</g>
</svg>
