<?xml version="1.0" encoding="UTF-8" standalone="no"?>
<!DOCTYPE svg PUBLIC "-//W3C//DTD SVG 1.1//EN"
 "http://www.w3.org/Graphics/SVG/1.1/DTD/svg11.dtd">
<!-- Generated by graphviz version 2.40.1 (20161225.0304)
 -->
<!-- Title: dependencies Pages: 1 -->
<svg width="994pt" height="349pt"
 viewBox="0.00 0.00 994.00 349.00" xmlns="http://www.w3.org/2000/svg" xmlns:xlink="http://www.w3.org/1999/xlink">
<g id="graph0" class="graph" transform="scale(1 1) rotate(0) translate(4 345)">
<title>dependencies</title>
<polygon fill="#ffffff" stroke="transparent" points="-4,4 -4,-345 990,-345 990,4 -4,4"/>
<text text-anchor="start" x="472.0091" y="-42.4" font-family="sans-serif" font-weight="bold" font-size="14.00" fill="#000000">Legend</text>
<polygon fill="#ffffb3" stroke="transparent" points="259,-10 259,-30 279,-30 279,-10 259,-10"/>
<text text-anchor="start" x="282.629" y="-15.4" font-family="sans-serif" font-size="14.00" fill="#000000"> &#160;Declarations</text>
<polygon fill="#8dd3c7" stroke="transparent" points="372,-10 372,-30 392,-30 392,-10 372,-10"/>
<text text-anchor="start" x="395.7251" y="-15.4" font-family="sans-serif" font-size="14.00" fill="#000000"> &#160;Module</text>
<polygon fill="#80b1d3" stroke="transparent" points="458,-10 458,-30 478,-30 478,-10 458,-10"/>
<text text-anchor="start" x="481.7812" y="-15.4" font-family="sans-serif" font-size="14.00" fill="#000000"> &#160;Bootstrap</text>
<polygon fill="#fdb462" stroke="transparent" points="555,-10 555,-30 575,-30 575,-10 555,-10"/>
<text text-anchor="start" x="578.6732" y="-15.4" font-family="sans-serif" font-size="14.00" fill="#000000"> &#160;Providers</text>
<polygon fill="#fb8072" stroke="transparent" points="651,-10 651,-30 671,-30 671,-10 651,-10"/>
<text text-anchor="start" x="674.7258" y="-15.4" font-family="sans-serif" font-size="14.00" fill="#000000"> &#160;Exports</text>
<g id="clust1" class="cluster">
<title>cluster_AuthorisedHeaderModule</title>
<polygon fill="none" stroke="#000000" stroke-dasharray="1,5" points="8,-70 8,-333 978,-333 978,-70 8,-70"/>
</g>
<g id="clust2" class="cluster">
<title>cluster_AuthorisedHeaderModule_declarations</title>
<polygon fill="none" stroke="#000000" points="404,-143 404,-195 604,-195 604,-143 404,-143"/>
</g>
<g id="clust3" class="cluster">
<title>cluster_AuthorisedHeaderModule_AuthorisedHeaderComponent_providers</title>
<polygon fill="none" stroke="#000000" points="16,-78 16,-130 970,-130 970,-78 16,-78"/>
</g>
<g id="clust4" class="cluster">
<title>cluster_AuthorisedHeaderModule_imports</title>
<polygon fill="none" stroke="#000000" points="122,-143 122,-195 396,-195 396,-143 122,-143"/>
</g>
<g id="clust5" class="cluster">
<title>cluster_AuthorisedHeaderModule_exports</title>
<polygon fill="none" stroke="#000000" points="215,-273 215,-325 419,-325 419,-273 215,-273"/>
</g>
<!-- AuthorisedHeaderComponent -->
<g id="node1" class="node">
<title>AuthorisedHeaderComponent</title>
<polygon fill="#ffffb3" stroke="#000000" points="595.951,-187 412.049,-187 412.049,-151 595.951,-151 595.951,-187"/>
<text text-anchor="middle" x="504" y="-164.8" font-family="Times,serif" font-size="14.00" fill="#000000">AuthorisedHeaderComponent</text>
</g>
<!-- AuthorisedHeaderModule -->
<g id="node2" class="node">
<title>AuthorisedHeaderModule</title>
<polygon fill="#8dd3c7" stroke="#000000" points="398.1685,-252 395.1685,-256 374.1685,-256 371.1685,-252 235.8315,-252 235.8315,-216 398.1685,-216 398.1685,-252"/>
<text text-anchor="middle" x="317" y="-229.8" font-family="Times,serif" font-size="14.00" fill="#000000">AuthorisedHeaderModule</text>
</g>
<!-- AuthorisedHeaderComponent&#45;&gt;AuthorisedHeaderModule -->
<g id="edge1" class="edge">
<title>AuthorisedHeaderComponent&#45;&gt;AuthorisedHeaderModule</title>
<path fill="none" stroke="#000000" d="M411.8646,-169C400.6424,-169 393.0421,-169 393.0421,-169 393.0421,-169 393.0421,-205.8939 393.0421,-205.8939"/>
<polygon fill="#000000" stroke="#000000" points="389.5422,-205.8938 393.0421,-215.8939 396.5422,-205.8939 389.5422,-205.8938"/>
</g>
<!-- AuthorisedHeaderComponent  -->
<g id="node10" class="node">
<title>AuthorisedHeaderComponent </title>
<polygon fill="#fb8072" stroke="#000000" points="410.9515,-317 223.0485,-317 223.0485,-281 410.9515,-281 410.9515,-317"/>
<text text-anchor="middle" x="317" y="-294.8" font-family="Times,serif" font-size="14.00" fill="#000000">AuthorisedHeaderComponent </text>
</g>
<!-- AuthorisedHeaderModule&#45;&gt;AuthorisedHeaderComponent  -->
<g id="edge9" class="edge">
<title>AuthorisedHeaderModule&#45;&gt;AuthorisedHeaderComponent </title>
<path fill="none" stroke="#000000" stroke-dasharray="5,2" d="M317,-252.1061C317,-252.1061 317,-270.991 317,-270.991"/>
<polygon fill="#000000" stroke="#000000" points="313.5001,-270.9909 317,-280.991 320.5001,-270.991 313.5001,-270.9909"/>
</g>
<!-- AccountService -->
<g id="node3" class="node">
<title>AccountService</title>
<ellipse fill="#fdb462" stroke="#000000" cx="889" cy="-104" rx="72.9121" ry="18"/>
<text text-anchor="middle" x="889" y="-99.8" font-family="Times,serif" font-size="14.00" fill="#000000">AccountService</text>
</g>
<!-- AccountService&#45;&gt;AuthorisedHeaderComponent -->
<g id="edge2" class="edge">
<title>AccountService&#45;&gt;AuthorisedHeaderComponent</title>
<path fill="none" stroke="#000000" d="M889,-122.2843C889,-143.3211 889,-175 889,-175 889,-175 606.2171,-175 606.2171,-175"/>
<polygon fill="#000000" stroke="#000000" points="606.2171,-171.5001 596.2171,-175 606.2171,-178.5001 606.2171,-171.5001"/>
</g>
<!-- CommonService -->
<g id="node4" class="node">
<title>CommonService</title>
<ellipse fill="#fdb462" stroke="#000000" cx="722" cy="-104" rx="75.8836" ry="18"/>
<text text-anchor="middle" x="722" y="-99.8" font-family="Times,serif" font-size="14.00" fill="#000000">CommonService</text>
</g>
<!-- CommonService&#45;&gt;AuthorisedHeaderComponent -->
<g id="edge3" class="edge">
<title>CommonService&#45;&gt;AuthorisedHeaderComponent</title>
<path fill="none" stroke="#000000" d="M722,-122.0225C722,-139.3734 722,-163 722,-163 722,-163 606.1356,-163 606.1356,-163"/>
<polygon fill="#000000" stroke="#000000" points="606.1357,-159.5001 596.1356,-163 606.1356,-166.5001 606.1357,-159.5001"/>
</g>
<!-- CommonHttpAdapterService -->
<g id="node5" class="node">
<title>CommonHttpAdapterService</title>
<ellipse fill="#fdb462" stroke="#000000" cx="504" cy="-104" rx="124.4186" ry="18"/>
<text text-anchor="middle" x="504" y="-99.8" font-family="Times,serif" font-size="14.00" fill="#000000">CommonHttpAdapterService</text>
</g>
<!-- CommonHttpAdapterService&#45;&gt;AuthorisedHeaderComponent -->
<g id="edge4" class="edge">
<title>CommonHttpAdapterService&#45;&gt;AuthorisedHeaderComponent</title>
<path fill="none" stroke="#000000" d="M549.9878,-120.7391C549.9878,-120.7391 549.9878,-140.7182 549.9878,-140.7182"/>
<polygon fill="#000000" stroke="#000000" points="546.4878,-140.7182 549.9878,-150.7182 553.4878,-140.7182 546.4878,-140.7182"/>
</g>
<!-- CommonHelperService -->
<g id="node6" class="node">
<title>CommonHelperService</title>
<ellipse fill="#fdb462" stroke="#000000" cx="260" cy="-104" rx="102.4275" ry="18"/>
<text text-anchor="middle" x="260" y="-99.8" font-family="Times,serif" font-size="14.00" fill="#000000">CommonHelperService</text>
</g>
<!-- CommonHelperService&#45;&gt;AuthorisedHeaderComponent -->
<g id="edge5" class="edge">
<title>CommonHelperService&#45;&gt;AuthorisedHeaderComponent</title>
<path fill="none" stroke="#000000" d="M304.1068,-120.2877C304.1068,-126.4475 304.1068,-132 304.1068,-132 304.1068,-132 504,-132 504,-132 504,-132 504,-140.9336 504,-140.9336"/>
<polygon fill="#000000" stroke="#000000" points="500.5001,-140.9335 504,-150.9336 507.5001,-140.9336 500.5001,-140.9335"/>
</g>
<!-- RxJSHelper -->
<g id="node7" class="node">
<title>RxJSHelper</title>
<ellipse fill="#fdb462" stroke="#000000" cx="82" cy="-104" rx="57.9023" ry="18"/>
<text text-anchor="middle" x="82" y="-99.8" font-family="Times,serif" font-size="14.00" fill="#000000">RxJSHelper</text>
</g>
<!-- RxJSHelper&#45;&gt;AuthorisedHeaderComponent -->
<g id="edge6" class="edge">
<title>RxJSHelper&#45;&gt;AuthorisedHeaderComponent</title>
<path fill="none" stroke="#000000" d="M134.7448,-111.3268C134.7448,-122.3691 134.7448,-142 134.7448,-142 134.7448,-142 458.0123,-142 458.0123,-142 458.0123,-142 458.0123,-142.8841 458.0123,-142.8841"/>
<polygon fill="#000000" stroke="#000000" points="454.5124,-140.8408 458.0123,-150.8408 461.5124,-140.8409 454.5124,-140.8408"/>
</g>
<!-- CustomOutputModule -->
<g id="node8" class="node">
<title>CustomOutputModule</title>
<polygon fill="#8dd3c7" stroke="#000000" points="388,-187 385,-191 364,-191 361,-187 246,-187 246,-151 388,-151 388,-187"/>
<text text-anchor="middle" x="317" y="-164.8" font-family="Times,serif" font-size="14.00" fill="#000000">CustomOutputModule</text>
</g>
<!-- CustomOutputModule&#45;&gt;AuthorisedHeaderModule -->
<g id="edge7" class="edge">
<title>CustomOutputModule&#45;&gt;AuthorisedHeaderModule</title>
<path fill="none" stroke="#000000" d="M317,-187.1061C317,-187.1061 317,-205.991 317,-205.991"/>
<polygon fill="#000000" stroke="#000000" points="313.5001,-205.9909 317,-215.991 320.5001,-205.991 313.5001,-205.9909"/>
</g>
<!-- SharedModule -->
<g id="node9" class="node">
<title>SharedModule</title>
<polygon fill="#8dd3c7" stroke="#000000" points="228.4231,-187 225.4231,-191 204.4231,-191 201.4231,-187 129.5769,-187 129.5769,-151 228.4231,-151 228.4231,-187"/>
<text text-anchor="middle" x="179" y="-164.8" font-family="Times,serif" font-size="14.00" fill="#000000">SharedModule</text>
</g>
<!-- SharedModule&#45;&gt;AuthorisedHeaderModule -->
<g id="edge8" class="edge">
<title>SharedModule&#45;&gt;AuthorisedHeaderModule</title>
<path fill="none" stroke="#000000" d="M228.4198,-169C235.7809,-169 240.9579,-169 240.9579,-169 240.9579,-169 240.9579,-205.8939 240.9579,-205.8939"/>
<polygon fill="#000000" stroke="#000000" points="237.458,-205.8938 240.9579,-215.8939 244.458,-205.8939 237.458,-205.8938"/>
</g>
</g>
</svg>
