<?xml version="1.0" encoding="UTF-8" standalone="no"?>
<!DOCTYPE svg PUBLIC "-//W3C//DTD SVG 1.1//EN"
 "http://www.w3.org/Graphics/SVG/1.1/DTD/svg11.dtd">
<!-- Generated by graphviz version 2.40.1 (20161225.0304)
 -->
<!-- Title: dependencies Pages: 1 -->
<svg width="884pt" height="284pt"
 viewBox="0.00 0.00 884.00 284.00" xmlns="http://www.w3.org/2000/svg" xmlns:xlink="http://www.w3.org/1999/xlink">
<g id="graph0" class="graph" transform="scale(1 1) rotate(0) translate(4 280)">
<title>dependencies</title>
<polygon fill="#ffffff" stroke="transparent" points="-4,4 -4,-280 880,-280 880,4 -4,4"/>
<text text-anchor="start" x="417.0091" y="-42.4" font-family="sans-serif" font-weight="bold" font-size="14.00" fill="#000000">Legend</text>
<polygon fill="#ffffb3" stroke="transparent" points="204,-10 204,-30 224,-30 224,-10 204,-10"/>
<text text-anchor="start" x="227.629" y="-15.4" font-family="sans-serif" font-size="14.00" fill="#000000"> &#160;Declarations</text>
<polygon fill="#8dd3c7" stroke="transparent" points="317,-10 317,-30 337,-30 337,-10 317,-10"/>
<text text-anchor="start" x="340.7251" y="-15.4" font-family="sans-serif" font-size="14.00" fill="#000000"> &#160;Module</text>
<polygon fill="#80b1d3" stroke="transparent" points="403,-10 403,-30 423,-30 423,-10 403,-10"/>
<text text-anchor="start" x="426.7812" y="-15.4" font-family="sans-serif" font-size="14.00" fill="#000000"> &#160;Bootstrap</text>
<polygon fill="#fdb462" stroke="transparent" points="500,-10 500,-30 520,-30 520,-10 500,-10"/>
<text text-anchor="start" x="523.6732" y="-15.4" font-family="sans-serif" font-size="14.00" fill="#000000"> &#160;Providers</text>
<polygon fill="#fb8072" stroke="transparent" points="596,-10 596,-30 616,-30 616,-10 596,-10"/>
<text text-anchor="start" x="619.7258" y="-15.4" font-family="sans-serif" font-size="14.00" fill="#000000"> &#160;Exports</text>
<g id="clust1" class="cluster">
<title>cluster_PlanModule</title>
<polygon fill="none" stroke="#000000" stroke-dasharray="1,5" points="8,-70 8,-268 868,-268 868,-70 8,-70"/>
</g>
<g id="clust2" class="cluster">
<title>cluster_PlanModule_declarations</title>
<polygon fill="none" stroke="#000000" points="738,-78 738,-130 860,-130 860,-78 738,-78"/>
</g>
<g id="clust4" class="cluster">
<title>cluster_PlanModule_imports</title>
<polygon fill="none" stroke="#000000" points="16,-78 16,-130 730,-130 730,-78 16,-78"/>
</g>
<g id="clust5" class="cluster">
<title>cluster_PlanModule_exports</title>
<polygon fill="none" stroke="#000000" points="402,-208 402,-260 528,-260 528,-208 402,-208"/>
</g>
<!-- PlanComponent -->
<g id="node1" class="node">
<title>PlanComponent</title>
<polygon fill="#ffffb3" stroke="#000000" points="852.2204,-122 745.7796,-122 745.7796,-86 852.2204,-86 852.2204,-122"/>
<text text-anchor="middle" x="799" y="-99.8" font-family="Times,serif" font-size="14.00" fill="#000000">PlanComponent</text>
</g>
<!-- PlanModule -->
<g id="node2" class="node">
<title>PlanModule</title>
<polygon fill="#8dd3c7" stroke="#000000" points="507.4387,-187 504.4387,-191 483.4387,-191 480.4387,-187 422.5613,-187 422.5613,-151 507.4387,-151 507.4387,-187"/>
<text text-anchor="middle" x="465" y="-164.8" font-family="Times,serif" font-size="14.00" fill="#000000">PlanModule</text>
</g>
<!-- PlanComponent&#45;&gt;PlanModule -->
<g id="edge1" class="edge">
<title>PlanComponent&#45;&gt;PlanModule</title>
<path fill="none" stroke="#000000" d="M799,-122.2843C799,-143.3211 799,-175 799,-175 799,-175 517.3013,-175 517.3013,-175"/>
<polygon fill="#000000" stroke="#000000" points="517.3014,-171.5001 507.3013,-175 517.3013,-178.5001 517.3014,-171.5001"/>
</g>
<!-- PlanComponent  -->
<g id="node7" class="node">
<title>PlanComponent </title>
<polygon fill="#fb8072" stroke="#000000" points="519.7206,-252 410.2794,-252 410.2794,-216 519.7206,-216 519.7206,-252"/>
<text text-anchor="middle" x="465" y="-229.8" font-family="Times,serif" font-size="14.00" fill="#000000">PlanComponent </text>
</g>
<!-- PlanModule&#45;&gt;PlanComponent  -->
<g id="edge6" class="edge">
<title>PlanModule&#45;&gt;PlanComponent </title>
<path fill="none" stroke="#000000" stroke-dasharray="5,2" d="M465,-187.1061C465,-187.1061 465,-205.991 465,-205.991"/>
<polygon fill="#000000" stroke="#000000" points="461.5001,-205.9909 465,-215.991 468.5001,-205.991 461.5001,-205.9909"/>
</g>
<!-- AuthorisedFooterModule -->
<g id="node3" class="node">
<title>AuthorisedFooterModule</title>
<polygon fill="#8dd3c7" stroke="#000000" points="722.3061,-122 719.3061,-126 698.3061,-126 695.3061,-122 563.6939,-122 563.6939,-86 722.3061,-86 722.3061,-122"/>
<text text-anchor="middle" x="643" y="-99.8" font-family="Times,serif" font-size="14.00" fill="#000000">AuthorisedFooterModule</text>
</g>
<!-- AuthorisedFooterModule&#45;&gt;PlanModule -->
<g id="edge2" class="edge">
<title>AuthorisedFooterModule&#45;&gt;PlanModule</title>
<path fill="none" stroke="#000000" d="M643,-122.0225C643,-139.3734 643,-163 643,-163 643,-163 517.6354,-163 517.6354,-163"/>
<polygon fill="#000000" stroke="#000000" points="517.6355,-159.5001 507.6354,-163 517.6354,-166.5001 517.6355,-159.5001"/>
</g>
<!-- AuthorisedHeaderModule -->
<g id="node4" class="node">
<title>AuthorisedHeaderModule</title>
<polygon fill="#8dd3c7" stroke="#000000" points="546.1685,-122 543.1685,-126 522.1685,-126 519.1685,-122 383.8315,-122 383.8315,-86 546.1685,-86 546.1685,-122"/>
<text text-anchor="middle" x="465" y="-99.8" font-family="Times,serif" font-size="14.00" fill="#000000">AuthorisedHeaderModule</text>
</g>
<!-- AuthorisedHeaderModule&#45;&gt;PlanModule -->
<g id="edge3" class="edge">
<title>AuthorisedHeaderModule&#45;&gt;PlanModule</title>
<path fill="none" stroke="#000000" d="M465,-122.1061C465,-122.1061 465,-140.991 465,-140.991"/>
<polygon fill="#000000" stroke="#000000" points="461.5001,-140.9909 465,-150.991 468.5001,-140.991 461.5001,-140.9909"/>
</g>
<!-- PolicyInformationModule -->
<g id="node5" class="node">
<title>PolicyInformationModule</title>
<polygon fill="#8dd3c7" stroke="#000000" points="366.1965,-122 363.1965,-126 342.1965,-126 339.1965,-122 203.8035,-122 203.8035,-86 366.1965,-86 366.1965,-122"/>
<text text-anchor="middle" x="285" y="-99.8" font-family="Times,serif" font-size="14.00" fill="#000000">PolicyInformationModule</text>
</g>
<!-- PolicyInformationModule&#45;&gt;PlanModule -->
<g id="edge4" class="edge">
<title>PolicyInformationModule&#45;&gt;PlanModule</title>
<path fill="none" stroke="#000000" d="M285,-122.0225C285,-139.3734 285,-163 285,-163 285,-163 412.3425,-163 412.3425,-163"/>
<polygon fill="#000000" stroke="#000000" points="412.3425,-166.5001 422.3425,-163 412.3425,-159.5001 412.3425,-166.5001"/>
</g>
<!-- RiderCommissionModule -->
<g id="node6" class="node">
<title>RiderCommissionModule</title>
<polygon fill="#8dd3c7" stroke="#000000" points="185.941,-122 182.941,-126 161.941,-126 158.941,-122 24.059,-122 24.059,-86 185.941,-86 185.941,-122"/>
<text text-anchor="middle" x="105" y="-99.8" font-family="Times,serif" font-size="14.00" fill="#000000">RiderCommissionModule</text>
</g>
<!-- RiderCommissionModule&#45;&gt;PlanModule -->
<g id="edge5" class="edge">
<title>RiderCommissionModule&#45;&gt;PlanModule</title>
<path fill="none" stroke="#000000" d="M105,-122.2843C105,-143.3211 105,-175 105,-175 105,-175 412.6448,-175 412.6448,-175"/>
<polygon fill="#000000" stroke="#000000" points="412.6448,-178.5001 422.6448,-175 412.6448,-171.5001 412.6448,-178.5001"/>
</g>
</g>
</svg>
