<?xml version="1.0" encoding="UTF-8" standalone="no"?>
<!DOCTYPE svg PUBLIC "-//W3C//DTD SVG 1.1//EN"
 "http://www.w3.org/Graphics/SVG/1.1/DTD/svg11.dtd">
<!-- Generated by graphviz version 2.40.1 (20161225.0304)
 -->
<!-- Title: dependencies Pages: 1 -->
<svg width="987pt" height="349pt"
 viewBox="0.00 0.00 987.00 349.00" xmlns="http://www.w3.org/2000/svg" xmlns:xlink="http://www.w3.org/1999/xlink">
<g id="graph0" class="graph" transform="scale(1 1) rotate(0) translate(4 345)">
<title>dependencies</title>
<polygon fill="#ffffff" stroke="transparent" points="-4,4 -4,-345 983,-345 983,4 -4,4"/>
<text text-anchor="start" x="468.5091" y="-42.4" font-family="sans-serif" font-weight="bold" font-size="14.00" fill="#000000">Legend</text>
<polygon fill="#ffffb3" stroke="transparent" points="255.5,-10 255.5,-30 275.5,-30 275.5,-10 255.5,-10"/>
<text text-anchor="start" x="279.129" y="-15.4" font-family="sans-serif" font-size="14.00" fill="#000000"> &#160;Declarations</text>
<polygon fill="#8dd3c7" stroke="transparent" points="368.5,-10 368.5,-30 388.5,-30 388.5,-10 368.5,-10"/>
<text text-anchor="start" x="392.2251" y="-15.4" font-family="sans-serif" font-size="14.00" fill="#000000"> &#160;Module</text>
<polygon fill="#80b1d3" stroke="transparent" points="454.5,-10 454.5,-30 474.5,-30 474.5,-10 454.5,-10"/>
<text text-anchor="start" x="478.2812" y="-15.4" font-family="sans-serif" font-size="14.00" fill="#000000"> &#160;Bootstrap</text>
<polygon fill="#fdb462" stroke="transparent" points="551.5,-10 551.5,-30 571.5,-30 571.5,-10 551.5,-10"/>
<text text-anchor="start" x="575.1732" y="-15.4" font-family="sans-serif" font-size="14.00" fill="#000000"> &#160;Providers</text>
<polygon fill="#fb8072" stroke="transparent" points="647.5,-10 647.5,-30 667.5,-30 667.5,-10 647.5,-10"/>
<text text-anchor="start" x="671.2258" y="-15.4" font-family="sans-serif" font-size="14.00" fill="#000000"> &#160;Exports</text>
<g id="clust1" class="cluster">
<title>cluster_ReviewModule</title>
<polygon fill="none" stroke="#000000" stroke-dasharray="1,5" points="8,-70 8,-333 971,-333 971,-70 8,-70"/>
</g>
<g id="clust2" class="cluster">
<title>cluster_ReviewModule_declarations</title>
<polygon fill="none" stroke="#000000" points="750,-143 750,-195 890,-195 890,-143 750,-143"/>
</g>
<g id="clust3" class="cluster">
<title>cluster_ReviewModule_ReviewComponent_providers</title>
<polygon fill="none" stroke="#000000" points="16,-78 16,-130 963,-130 963,-78 16,-78"/>
</g>
<g id="clust4" class="cluster">
<title>cluster_ReviewModule_imports</title>
<polygon fill="none" stroke="#000000" points="16,-143 16,-195 742,-195 742,-143 16,-143"/>
</g>
<g id="clust5" class="cluster">
<title>cluster_ReviewModule_exports</title>
<polygon fill="none" stroke="#000000" points="405,-273 405,-325 549,-325 549,-273 405,-273"/>
</g>
<!-- ReviewComponent -->
<g id="node1" class="node">
<title>ReviewComponent</title>
<polygon fill="#ffffb3" stroke="#000000" points="882.0954,-187 757.9046,-187 757.9046,-151 882.0954,-151 882.0954,-187"/>
<text text-anchor="middle" x="820" y="-164.8" font-family="Times,serif" font-size="14.00" fill="#000000">ReviewComponent</text>
</g>
<!-- ReviewModule -->
<g id="node2" class="node">
<title>ReviewModule</title>
<polygon fill="#8dd3c7" stroke="#000000" points="528.3133,-252 525.3133,-256 504.3133,-256 501.3133,-252 425.6867,-252 425.6867,-216 528.3133,-216 528.3133,-252"/>
<text text-anchor="middle" x="477" y="-229.8" font-family="Times,serif" font-size="14.00" fill="#000000">ReviewModule</text>
</g>
<!-- ReviewComponent&#45;&gt;ReviewModule -->
<g id="edge1" class="edge">
<title>ReviewComponent&#45;&gt;ReviewModule</title>
<path fill="none" stroke="#000000" d="M820,-187.2843C820,-208.3211 820,-240 820,-240 820,-240 538.3506,-240 538.3506,-240"/>
<polygon fill="#000000" stroke="#000000" points="538.3506,-236.5001 528.3506,-240 538.3505,-243.5001 538.3506,-236.5001"/>
</g>
<!-- ReviewComponent  -->
<g id="node12" class="node">
<title>ReviewComponent </title>
<polygon fill="#fb8072" stroke="#000000" points="540.596,-317 413.404,-317 413.404,-281 540.596,-281 540.596,-317"/>
<text text-anchor="middle" x="477" y="-294.8" font-family="Times,serif" font-size="14.00" fill="#000000">ReviewComponent </text>
</g>
<!-- ReviewModule&#45;&gt;ReviewComponent  -->
<g id="edge11" class="edge">
<title>ReviewModule&#45;&gt;ReviewComponent </title>
<path fill="none" stroke="#000000" stroke-dasharray="5,2" d="M477,-252.1061C477,-252.1061 477,-270.991 477,-270.991"/>
<polygon fill="#000000" stroke="#000000" points="473.5001,-270.9909 477,-280.991 480.5001,-270.991 473.5001,-270.9909"/>
</g>
<!-- ReviewService -->
<g id="node3" class="node">
<title>ReviewService</title>
<ellipse fill="#fdb462" stroke="#000000" cx="886" cy="-104" rx="69.4781" ry="18"/>
<text text-anchor="middle" x="886" y="-99.8" font-family="Times,serif" font-size="14.00" fill="#000000">ReviewService</text>
</g>
<!-- ReviewService&#45;&gt;ReviewComponent -->
<g id="edge2" class="edge">
<title>ReviewService&#45;&gt;ReviewComponent</title>
<path fill="none" stroke="#000000" d="M849.2793,-119.4041C849.2793,-119.4041 849.2793,-140.9397 849.2793,-140.9397"/>
<polygon fill="#000000" stroke="#000000" points="845.7794,-140.9397 849.2793,-150.9397 852.7794,-140.9398 845.7794,-140.9397"/>
</g>
<!-- CommonHttpAdapterService -->
<g id="node4" class="node">
<title>CommonHttpAdapterService</title>
<ellipse fill="#fdb462" stroke="#000000" cx="674" cy="-104" rx="124.4186" ry="18"/>
<text text-anchor="middle" x="674" y="-99.8" font-family="Times,serif" font-size="14.00" fill="#000000">CommonHttpAdapterService</text>
</g>
<!-- CommonHttpAdapterService&#45;&gt;ReviewComponent -->
<g id="edge3" class="edge">
<title>CommonHttpAdapterService&#45;&gt;ReviewComponent</title>
<path fill="none" stroke="#000000" d="M790.1578,-110.4701C790.1578,-110.4701 790.1578,-140.7831 790.1578,-140.7831"/>
<polygon fill="#000000" stroke="#000000" points="786.6579,-140.7831 790.1578,-150.7831 793.6579,-140.7831 786.6579,-140.7831"/>
</g>
<!-- CommonHelperService -->
<g id="node5" class="node">
<title>CommonHelperService</title>
<ellipse fill="#fdb462" stroke="#000000" cx="430" cy="-104" rx="102.4275" ry="18"/>
<text text-anchor="middle" x="430" y="-99.8" font-family="Times,serif" font-size="14.00" fill="#000000">CommonHelperService</text>
</g>
<!-- CommonHelperService&#45;&gt;ReviewComponent -->
<g id="edge4" class="edge">
<title>CommonHelperService&#45;&gt;ReviewComponent</title>
<path fill="none" stroke="#000000" d="M464.0647,-121.1976C464.0647,-126.0327 464.0647,-130 464.0647,-130 464.0647,-130 782.1064,-130 782.1064,-130 782.1064,-130 782.1064,-140.8701 782.1064,-140.8701"/>
<polygon fill="#000000" stroke="#000000" points="778.6065,-140.8701 782.1064,-150.8701 785.6065,-140.8701 778.6065,-140.8701"/>
</g>
<!-- CommonService -->
<g id="node6" class="node">
<title>CommonService</title>
<ellipse fill="#fdb462" stroke="#000000" cx="234" cy="-104" rx="75.8836" ry="18"/>
<text text-anchor="middle" x="234" y="-99.8" font-family="Times,serif" font-size="14.00" fill="#000000">CommonService</text>
</g>
<!-- CommonService&#45;&gt;ReviewComponent -->
<g id="edge5" class="edge">
<title>CommonService&#45;&gt;ReviewComponent</title>
<path fill="none" stroke="#000000" d="M262.0333,-120.8867C262.0333,-129.0058 262.0333,-137 262.0333,-137 262.0333,-137 774.055,-137 774.055,-137 774.055,-137 774.055,-140.7566 774.055,-140.7566"/>
<polygon fill="#000000" stroke="#000000" points="770.5551,-140.7566 774.055,-150.7566 777.5551,-140.7566 770.5551,-140.7566"/>
</g>
<!-- RxJSHelper -->
<g id="node7" class="node">
<title>RxJSHelper</title>
<ellipse fill="#fdb462" stroke="#000000" cx="82" cy="-104" rx="57.9023" ry="18"/>
<text text-anchor="middle" x="82" y="-99.8" font-family="Times,serif" font-size="14.00" fill="#000000">RxJSHelper</text>
</g>
<!-- RxJSHelper&#45;&gt;ReviewComponent -->
<g id="edge6" class="edge">
<title>RxJSHelper&#45;&gt;ReviewComponent</title>
<path fill="none" stroke="#000000" d="M82,-122.1274C82,-132.7109 82,-144 82,-144 82,-144 766.0037,-144 766.0037,-144 766.0037,-144 766.0037,-144.6831 766.0037,-144.6831"/>
<polygon fill="#000000" stroke="#000000" points="762.5038,-140.8313 766.0037,-150.8314 769.5038,-140.8314 762.5038,-140.8313"/>
</g>
<!-- AuthorisedFooterModule -->
<g id="node8" class="node">
<title>AuthorisedFooterModule</title>
<polygon fill="#8dd3c7" stroke="#000000" points="734.3061,-187 731.3061,-191 710.3061,-191 707.3061,-187 575.6939,-187 575.6939,-151 734.3061,-151 734.3061,-187"/>
<text text-anchor="middle" x="655" y="-164.8" font-family="Times,serif" font-size="14.00" fill="#000000">AuthorisedFooterModule</text>
</g>
<!-- AuthorisedFooterModule&#45;&gt;ReviewModule -->
<g id="edge7" class="edge">
<title>AuthorisedFooterModule&#45;&gt;ReviewModule</title>
<path fill="none" stroke="#000000" d="M655,-187.0225C655,-204.3734 655,-228 655,-228 655,-228 538.485,-228 538.485,-228"/>
<polygon fill="#000000" stroke="#000000" points="538.485,-224.5001 528.485,-228 538.4849,-231.5001 538.485,-224.5001"/>
</g>
<!-- AuthorisedHeaderModule -->
<g id="node9" class="node">
<title>AuthorisedHeaderModule</title>
<polygon fill="#8dd3c7" stroke="#000000" points="558.1685,-187 555.1685,-191 534.1685,-191 531.1685,-187 395.8315,-187 395.8315,-151 558.1685,-151 558.1685,-187"/>
<text text-anchor="middle" x="477" y="-164.8" font-family="Times,serif" font-size="14.00" fill="#000000">AuthorisedHeaderModule</text>
</g>
<!-- AuthorisedHeaderModule&#45;&gt;ReviewModule -->
<g id="edge8" class="edge">
<title>AuthorisedHeaderModule&#45;&gt;ReviewModule</title>
<path fill="none" stroke="#000000" d="M477,-187.1061C477,-187.1061 477,-205.991 477,-205.991"/>
<polygon fill="#000000" stroke="#000000" points="473.5001,-205.9909 477,-215.991 480.5001,-205.991 473.5001,-205.9909"/>
</g>
<!-- CommonDirectiveModule -->
<g id="node10" class="node">
<title>CommonDirectiveModule</title>
<polygon fill="#8dd3c7" stroke="#000000" points="377.7506,-187 374.7506,-191 353.7506,-191 350.7506,-187 214.2494,-187 214.2494,-151 377.7506,-151 377.7506,-187"/>
<text text-anchor="middle" x="296" y="-164.8" font-family="Times,serif" font-size="14.00" fill="#000000">CommonDirectiveModule</text>
</g>
<!-- CommonDirectiveModule&#45;&gt;ReviewModule -->
<g id="edge9" class="edge">
<title>CommonDirectiveModule&#45;&gt;ReviewModule</title>
<path fill="none" stroke="#000000" d="M296,-187.0225C296,-204.3734 296,-228 296,-228 296,-228 415.6168,-228 415.6168,-228"/>
<polygon fill="#000000" stroke="#000000" points="415.6168,-231.5001 425.6168,-228 415.6168,-224.5001 415.6168,-231.5001"/>
</g>
<!-- ReviewAppRoutingModule -->
<g id="node11" class="node">
<title>ReviewAppRoutingModule</title>
<polygon fill="#8dd3c7" stroke="#000000" points="195.5378,-187 192.5378,-191 171.5378,-191 168.5378,-187 24.4622,-187 24.4622,-151 195.5378,-151 195.5378,-187"/>
<text text-anchor="middle" x="110" y="-164.8" font-family="Times,serif" font-size="14.00" fill="#000000">ReviewAppRoutingModule</text>
</g>
<!-- ReviewAppRoutingModule&#45;&gt;ReviewModule -->
<g id="edge10" class="edge">
<title>ReviewAppRoutingModule&#45;&gt;ReviewModule</title>
<path fill="none" stroke="#000000" d="M110,-187.2843C110,-208.3211 110,-240 110,-240 110,-240 415.5838,-240 415.5838,-240"/>
<polygon fill="#000000" stroke="#000000" points="415.5838,-243.5001 425.5838,-240 415.5838,-236.5001 415.5838,-243.5001"/>
</g>
</g>
</svg>
