<?xml version="1.0" encoding="utf-8"?>
<!-- Generator: Adobe Illustrator 21.0.0, SVG Export Plug-In . SVG Version: 6.00 Build 0)  -->
<svg version="1.1" id="Layer_1" xmlns="http://www.w3.org/2000/svg" xmlns:xlink="http://www.w3.org/1999/xlink" x="0px" y="0px"
	 viewBox="0 0 91 91" style="enable-background:new 0 0 91 91;" xml:space="preserve">
<style type="text/css">
	.st0{fill:#191919;}
</style>
<g>
	<path class="st0" d="M36.7,45.4L36.7,45.4L36.7,45.4c-0.1,0.1-0.2,0.3-0.3,0.5c0,0,0,0.1-0.1,0.1c0,0,0,0.1-0.1,0.1l-4,14.8
		c-0.2,0.6,0,1.2,0.4,1.6c0.3,0.3,0.8,0.5,1.2,0.5c0.1,0,0.3,0,0.4-0.1L48.5,59c0.1,0,0.2,0.1,0.3,0.1c0.4,0,0.9-0.2,1.2-0.5
		l23.1-23.1c1.2-1.2,1.9-2.9,1.9-4.6c0-1.7-0.7-3.4-1.9-4.6l-4.1-4c-2.5-2.5-6.8-2.5-9.2,0L36.7,45.4L36.7,45.4z M62.2,24.7
		c1.2-1.2,3.2-1.2,4.4,0l4.2,4.2c0.6,0.6,0.9,1.4,0.9,2.2s-0.3,1.6-0.9,2.2l-1.2,1.2L60.9,26L62.2,24.7z M58.5,28.4l8.6,8.6
		L48.9,55.2l-8.6-8.6L58.5,28.4z M39.3,50.4l6.1,6.1L36.3,59l2.5-9.1L39.3,50.4z"/>
	<path class="st0" d="M21,74.2h45.7c3.6,0,6.5-2.9,6.5-6.5v-23h-3.4v23c0,1.7-1.4,3.1-3.1,3.1h-44V25.7h29v-3.4H21
		c-0.9,0-1.7,0.8-1.7,1.7v48.5C19.3,73.4,20,74.2,21,74.2z"/>
</g>
</svg>
