<?xml version="1.0" encoding="UTF-8" standalone="no"?>
<!DOCTYPE svg PUBLIC "-//W3C//DTD SVG 1.1//EN"
 "http://www.w3.org/Graphics/SVG/1.1/DTD/svg11.dtd">
<!-- Generated by graphviz version 2.40.1 (20161225.0304)
 -->
<!-- Title: dependencies Pages: 1 -->
<svg width="1015pt" height="284pt"
 viewBox="0.00 0.00 1015.00 284.00" xmlns="http://www.w3.org/2000/svg" xmlns:xlink="http://www.w3.org/1999/xlink">
<g id="graph0" class="graph" transform="scale(1 1) rotate(0) translate(4 280)">
<title>dependencies</title>
<polygon fill="#ffffff" stroke="transparent" points="-4,4 -4,-280 1011,-280 1011,4 -4,4"/>
<text text-anchor="start" x="482.5091" y="-42.4" font-family="sans-serif" font-weight="bold" font-size="14.00" fill="#000000">Legend</text>
<polygon fill="#ffffb3" stroke="transparent" points="269.5,-10 269.5,-30 289.5,-30 289.5,-10 269.5,-10"/>
<text text-anchor="start" x="293.129" y="-15.4" font-family="sans-serif" font-size="14.00" fill="#000000"> &#160;Declarations</text>
<polygon fill="#8dd3c7" stroke="transparent" points="382.5,-10 382.5,-30 402.5,-30 402.5,-10 382.5,-10"/>
<text text-anchor="start" x="406.2251" y="-15.4" font-family="sans-serif" font-size="14.00" fill="#000000"> &#160;Module</text>
<polygon fill="#80b1d3" stroke="transparent" points="468.5,-10 468.5,-30 488.5,-30 488.5,-10 468.5,-10"/>
<text text-anchor="start" x="492.2812" y="-15.4" font-family="sans-serif" font-size="14.00" fill="#000000"> &#160;Bootstrap</text>
<polygon fill="#fdb462" stroke="transparent" points="565.5,-10 565.5,-30 585.5,-30 585.5,-10 565.5,-10"/>
<text text-anchor="start" x="589.1732" y="-15.4" font-family="sans-serif" font-size="14.00" fill="#000000"> &#160;Providers</text>
<polygon fill="#fb8072" stroke="transparent" points="661.5,-10 661.5,-30 681.5,-30 681.5,-10 661.5,-10"/>
<text text-anchor="start" x="685.2258" y="-15.4" font-family="sans-serif" font-size="14.00" fill="#000000"> &#160;Exports</text>
<g id="clust1" class="cluster">
<title>cluster_RepositoryModule</title>
<polygon fill="none" stroke="#000000" stroke-dasharray="1,5" points="8,-70 8,-268 999,-268 999,-70 8,-70"/>
</g>
<g id="clust2" class="cluster">
<title>cluster_RepositoryModule_declarations</title>
<polygon fill="none" stroke="#000000" points="833,-78 833,-130 991,-130 991,-78 833,-78"/>
</g>
<g id="clust4" class="cluster">
<title>cluster_RepositoryModule_imports</title>
<polygon fill="none" stroke="#000000" points="16,-78 16,-130 825,-130 825,-78 16,-78"/>
</g>
<g id="clust5" class="cluster">
<title>cluster_RepositoryModule_exports</title>
<polygon fill="none" stroke="#000000" points="441,-208 441,-260 603,-260 603,-208 441,-208"/>
</g>
<!-- RepositoryComponent -->
<g id="node1" class="node">
<title>RepositoryComponent</title>
<polygon fill="#ffffb3" stroke="#000000" points="983.2702,-122 840.7298,-122 840.7298,-86 983.2702,-86 983.2702,-122"/>
<text text-anchor="middle" x="912" y="-99.8" font-family="Times,serif" font-size="14.00" fill="#000000">RepositoryComponent</text>
</g>
<!-- RepositoryModule -->
<g id="node2" class="node">
<title>RepositoryModule</title>
<polygon fill="#8dd3c7" stroke="#000000" points="582.4874,-187 579.4874,-191 558.4874,-191 555.4874,-187 461.5126,-187 461.5126,-151 582.4874,-151 582.4874,-187"/>
<text text-anchor="middle" x="522" y="-164.8" font-family="Times,serif" font-size="14.00" fill="#000000">RepositoryModule</text>
</g>
<!-- RepositoryComponent&#45;&gt;RepositoryModule -->
<g id="edge1" class="edge">
<title>RepositoryComponent&#45;&gt;RepositoryModule</title>
<path fill="none" stroke="#000000" d="M912,-122.2843C912,-143.3211 912,-175 912,-175 912,-175 592.5096,-175 592.5096,-175"/>
<polygon fill="#000000" stroke="#000000" points="592.5096,-171.5001 582.5096,-175 592.5096,-178.5001 592.5096,-171.5001"/>
</g>
<!-- RepositoryComponent  -->
<g id="node8" class="node">
<title>RepositoryComponent </title>
<polygon fill="#fb8072" stroke="#000000" points="595.2702,-252 448.7298,-252 448.7298,-216 595.2702,-216 595.2702,-252"/>
<text text-anchor="middle" x="522" y="-229.8" font-family="Times,serif" font-size="14.00" fill="#000000">RepositoryComponent </text>
</g>
<!-- RepositoryModule&#45;&gt;RepositoryComponent  -->
<g id="edge7" class="edge">
<title>RepositoryModule&#45;&gt;RepositoryComponent </title>
<path fill="none" stroke="#000000" stroke-dasharray="5,2" d="M522,-187.1061C522,-187.1061 522,-205.991 522,-205.991"/>
<polygon fill="#000000" stroke="#000000" points="518.5001,-205.9909 522,-215.991 525.5001,-205.991 518.5001,-205.9909"/>
</g>
<!-- BatchReportModule -->
<g id="node3" class="node">
<title>BatchReportModule</title>
<polygon fill="#8dd3c7" stroke="#000000" points="817.309,-122 814.309,-126 793.309,-126 790.309,-122 686.691,-122 686.691,-86 817.309,-86 817.309,-122"/>
<text text-anchor="middle" x="752" y="-99.8" font-family="Times,serif" font-size="14.00" fill="#000000">BatchReportModule</text>
</g>
<!-- BatchReportModule&#45;&gt;RepositoryModule -->
<g id="edge2" class="edge">
<title>BatchReportModule&#45;&gt;RepositoryModule</title>
<path fill="none" stroke="#000000" d="M752,-122.0225C752,-139.3734 752,-163 752,-163 752,-163 592.7306,-163 592.7306,-163"/>
<polygon fill="#000000" stroke="#000000" points="592.7307,-159.5001 582.7306,-163 592.7306,-166.5001 592.7307,-159.5001"/>
</g>
<!-- FactFinderModule -->
<g id="node4" class="node">
<title>FactFinderModule</title>
<polygon fill="#8dd3c7" stroke="#000000" points="669.2008,-122 666.2008,-126 645.2008,-126 642.2008,-122 548.7992,-122 548.7992,-86 669.2008,-86 669.2008,-122"/>
<text text-anchor="middle" x="609" y="-99.8" font-family="Times,serif" font-size="14.00" fill="#000000">FactFinderModule</text>
</g>
<!-- FactFinderModule&#45;&gt;RepositoryModule -->
<g id="edge3" class="edge">
<title>FactFinderModule&#45;&gt;RepositoryModule</title>
<path fill="none" stroke="#000000" d="M565.6967,-122.1061C565.6967,-122.1061 565.6967,-140.991 565.6967,-140.991"/>
<polygon fill="#000000" stroke="#000000" points="562.1968,-140.9909 565.6967,-150.991 569.1968,-140.991 562.1968,-140.9909"/>
</g>
<!-- RepositoryAppRoutingModule -->
<g id="node5" class="node">
<title>RepositoryAppRoutingModule</title>
<polygon fill="#8dd3c7" stroke="#000000" points="531.2119,-122 528.2119,-126 507.2119,-126 504.2119,-122 340.7881,-122 340.7881,-86 531.2119,-86 531.2119,-122"/>
<text text-anchor="middle" x="436" y="-99.8" font-family="Times,serif" font-size="14.00" fill="#000000">RepositoryAppRoutingModule</text>
</g>
<!-- RepositoryAppRoutingModule&#45;&gt;RepositoryModule -->
<g id="edge4" class="edge">
<title>RepositoryAppRoutingModule&#45;&gt;RepositoryModule</title>
<path fill="none" stroke="#000000" d="M496.3061,-122.1061C496.3061,-122.1061 496.3061,-140.991 496.3061,-140.991"/>
<polygon fill="#000000" stroke="#000000" points="492.8062,-140.9909 496.3061,-150.991 499.8062,-140.991 492.8062,-140.9909"/>
</g>
<!-- StatementRepositoryModule -->
<g id="node6" class="node">
<title>StatementRepositoryModule</title>
<polygon fill="#8dd3c7" stroke="#000000" points="322.4762,-122 319.4762,-126 298.4762,-126 295.4762,-122 145.5238,-122 145.5238,-86 322.4762,-86 322.4762,-122"/>
<text text-anchor="middle" x="234" y="-99.8" font-family="Times,serif" font-size="14.00" fill="#000000">StatementRepositoryModule</text>
</g>
<!-- StatementRepositoryModule&#45;&gt;RepositoryModule -->
<g id="edge5" class="edge">
<title>StatementRepositoryModule&#45;&gt;RepositoryModule</title>
<path fill="none" stroke="#000000" d="M234,-122.0225C234,-139.3734 234,-163 234,-163 234,-163 451.2745,-163 451.2745,-163"/>
<polygon fill="#000000" stroke="#000000" points="451.2746,-166.5001 461.2745,-163 451.2745,-159.5001 451.2746,-166.5001"/>
</g>
<!-- XmlfileModule -->
<g id="node7" class="node">
<title>XmlfileModule</title>
<polygon fill="#8dd3c7" stroke="#000000" points="127.594,-122 124.594,-126 103.594,-126 100.594,-122 24.406,-122 24.406,-86 127.594,-86 127.594,-122"/>
<text text-anchor="middle" x="76" y="-99.8" font-family="Times,serif" font-size="14.00" fill="#000000">XmlfileModule</text>
</g>
<!-- XmlfileModule&#45;&gt;RepositoryModule -->
<g id="edge6" class="edge">
<title>XmlfileModule&#45;&gt;RepositoryModule</title>
<path fill="none" stroke="#000000" d="M76,-122.2843C76,-143.3211 76,-175 76,-175 76,-175 451.3863,-175 451.3863,-175"/>
<polygon fill="#000000" stroke="#000000" points="451.3863,-178.5001 461.3863,-175 451.3863,-171.5001 451.3863,-178.5001"/>
</g>
</g>
</svg>
