<?xml version="1.0" encoding="UTF-8" standalone="no"?>
<!DOCTYPE svg PUBLIC "-//W3C//DTD SVG 1.1//EN"
 "http://www.w3.org/Graphics/SVG/1.1/DTD/svg11.dtd">
<!-- Generated by graphviz version 2.40.1 (20161225.0304)
 -->
<!-- Title: dependencies Pages: 1 -->
<svg width="1173pt" height="349pt"
 viewBox="0.00 0.00 1173.00 349.00" xmlns="http://www.w3.org/2000/svg" xmlns:xlink="http://www.w3.org/1999/xlink">
<g id="graph0" class="graph" transform="scale(1 1) rotate(0) translate(4 345)">
<title>dependencies</title>
<polygon fill="#ffffff" stroke="transparent" points="-4,4 -4,-345 1169,-345 1169,4 -4,4"/>
<text text-anchor="start" x="561.5091" y="-42.4" font-family="sans-serif" font-weight="bold" font-size="14.00" fill="#000000">Legend</text>
<polygon fill="#ffffb3" stroke="transparent" points="348.5,-10 348.5,-30 368.5,-30 368.5,-10 348.5,-10"/>
<text text-anchor="start" x="372.129" y="-15.4" font-family="sans-serif" font-size="14.00" fill="#000000"> &#160;Declarations</text>
<polygon fill="#8dd3c7" stroke="transparent" points="461.5,-10 461.5,-30 481.5,-30 481.5,-10 461.5,-10"/>
<text text-anchor="start" x="485.2251" y="-15.4" font-family="sans-serif" font-size="14.00" fill="#000000"> &#160;Module</text>
<polygon fill="#80b1d3" stroke="transparent" points="547.5,-10 547.5,-30 567.5,-30 567.5,-10 547.5,-10"/>
<text text-anchor="start" x="571.2812" y="-15.4" font-family="sans-serif" font-size="14.00" fill="#000000"> &#160;Bootstrap</text>
<polygon fill="#fdb462" stroke="transparent" points="644.5,-10 644.5,-30 664.5,-30 664.5,-10 644.5,-10"/>
<text text-anchor="start" x="668.1732" y="-15.4" font-family="sans-serif" font-size="14.00" fill="#000000"> &#160;Providers</text>
<polygon fill="#fb8072" stroke="transparent" points="740.5,-10 740.5,-30 760.5,-30 760.5,-10 740.5,-10"/>
<text text-anchor="start" x="764.2258" y="-15.4" font-family="sans-serif" font-size="14.00" fill="#000000"> &#160;Exports</text>
<g id="clust1" class="cluster">
<title>cluster_ForgotPasswordModule</title>
<polygon fill="none" stroke="#000000" stroke-dasharray="1,5" points="8,-70 8,-333 1157,-333 1157,-70 8,-70"/>
</g>
<g id="clust2" class="cluster">
<title>cluster_ForgotPasswordModule_declarations</title>
<polygon fill="none" stroke="#000000" points="777,-143 777,-195 1149,-195 1149,-143 777,-143"/>
</g>
<g id="clust3" class="cluster">
<title>cluster_ForgotPasswordModule_ForgotPasswordComponent_providers</title>
<polygon fill="none" stroke="#000000" points="221,-78 221,-130 1149,-130 1149,-78 221,-78"/>
</g>
<g id="clust5" class="cluster">
<title>cluster_ForgotPasswordModule_imports</title>
<polygon fill="none" stroke="#000000" points="16,-143 16,-195 769,-195 769,-143 16,-143"/>
</g>
<g id="clust6" class="cluster">
<title>cluster_ForgotPasswordModule_exports</title>
<polygon fill="none" stroke="#000000" points="413,-273 413,-325 793,-325 793,-273 413,-273"/>
</g>
<!-- ForgotPasswordComponent -->
<g id="node1" class="node">
<title>ForgotPasswordComponent</title>
<polygon fill="#ffffb3" stroke="#000000" points="1141.3201,-187 968.6799,-187 968.6799,-151 1141.3201,-151 1141.3201,-187"/>
<text text-anchor="middle" x="1055" y="-164.8" font-family="Times,serif" font-size="14.00" fill="#000000">ForgotPasswordComponent</text>
</g>
<!-- ForgotPasswordModule -->
<g id="node3" class="node">
<title>ForgotPasswordModule</title>
<polygon fill="#8dd3c7" stroke="#000000" points="676.0379,-252 673.0379,-256 652.0379,-256 649.0379,-252 525.9621,-252 525.9621,-216 676.0379,-216 676.0379,-252"/>
<text text-anchor="middle" x="601" y="-229.8" font-family="Times,serif" font-size="14.00" fill="#000000">ForgotPasswordModule</text>
</g>
<!-- ForgotPasswordComponent&#45;&gt;ForgotPasswordModule -->
<g id="edge1" class="edge">
<title>ForgotPasswordComponent&#45;&gt;ForgotPasswordModule</title>
<path fill="none" stroke="#000000" d="M1055,-187.2843C1055,-208.3211 1055,-240 1055,-240 1055,-240 686.2235,-240 686.2235,-240"/>
<polygon fill="#000000" stroke="#000000" points="686.2236,-236.5001 676.2235,-240 686.2235,-243.5001 686.2236,-236.5001"/>
</g>
<!-- ResetPasswordComponent -->
<g id="node2" class="node">
<title>ResetPasswordComponent</title>
<polygon fill="#ffffb3" stroke="#000000" points="951.087,-187 784.913,-187 784.913,-151 951.087,-151 951.087,-187"/>
<text text-anchor="middle" x="868" y="-164.8" font-family="Times,serif" font-size="14.00" fill="#000000">ResetPasswordComponent</text>
</g>
<!-- ResetPasswordComponent&#45;&gt;ForgotPasswordModule -->
<g id="edge7" class="edge">
<title>ResetPasswordComponent&#45;&gt;ForgotPasswordModule</title>
<path fill="none" stroke="#000000" d="M868,-187.0225C868,-204.3734 868,-228 868,-228 868,-228 686.0849,-228 686.0849,-228"/>
<polygon fill="#000000" stroke="#000000" points="686.085,-224.5001 676.0849,-228 686.0849,-231.5001 686.085,-224.5001"/>
</g>
<!-- ForgotPasswordComponent  -->
<g id="node13" class="node">
<title>ForgotPasswordComponent </title>
<polygon fill="#fb8072" stroke="#000000" points="784.8199,-317 609.1801,-317 609.1801,-281 784.8199,-281 784.8199,-317"/>
<text text-anchor="middle" x="697" y="-294.8" font-family="Times,serif" font-size="14.00" fill="#000000">ForgotPasswordComponent </text>
</g>
<!-- ForgotPasswordModule&#45;&gt;ForgotPasswordComponent  -->
<g id="edge16" class="edge">
<title>ForgotPasswordModule&#45;&gt;ForgotPasswordComponent </title>
<path fill="none" stroke="#000000" stroke-dasharray="5,2" d="M642.6794,-252.1061C642.6794,-252.1061 642.6794,-270.991 642.6794,-270.991"/>
<polygon fill="#000000" stroke="#000000" points="639.1794,-270.9909 642.6794,-280.991 646.1794,-270.991 639.1794,-270.9909"/>
</g>
<!-- ResetPasswordComponent  -->
<g id="node14" class="node">
<title>ResetPasswordComponent </title>
<polygon fill="#fb8072" stroke="#000000" points="590.5875,-317 421.4125,-317 421.4125,-281 590.5875,-281 590.5875,-317"/>
<text text-anchor="middle" x="506" y="-294.8" font-family="Times,serif" font-size="14.00" fill="#000000">ResetPasswordComponent </text>
</g>
<!-- ForgotPasswordModule&#45;&gt;ResetPasswordComponent  -->
<g id="edge17" class="edge">
<title>ForgotPasswordModule&#45;&gt;ResetPasswordComponent </title>
<path fill="none" stroke="#000000" stroke-dasharray="5,2" d="M558.2624,-252.1061C558.2624,-252.1061 558.2624,-270.991 558.2624,-270.991"/>
<polygon fill="#000000" stroke="#000000" points="554.7625,-270.9909 558.2624,-280.991 561.7625,-270.991 554.7625,-270.9909"/>
</g>
<!-- CommonHttpAdapterService -->
<g id="node4" class="node">
<title>CommonHttpAdapterService</title>
<ellipse fill="#fdb462" stroke="#000000" cx="795" cy="-104" rx="124.4186" ry="18"/>
<text text-anchor="middle" x="795" y="-99.8" font-family="Times,serif" font-size="14.00" fill="#000000">CommonHttpAdapterService</text>
</g>
<!-- CommonHttpAdapterService&#45;&gt;ForgotPasswordComponent -->
<g id="edge2" class="edge">
<title>CommonHttpAdapterService&#45;&gt;ForgotPasswordComponent</title>
<path fill="none" stroke="#000000" d="M896.8337,-114.4845C896.8337,-120.1509 896.8337,-126 896.8337,-126 896.8337,-126 1083.72,-126 1083.72,-126 1083.72,-126 1083.72,-140.5146 1083.72,-140.5146"/>
<polygon fill="#000000" stroke="#000000" points="1080.2201,-140.5145 1083.72,-150.5146 1087.2201,-140.5146 1080.2201,-140.5145"/>
</g>
<!-- CommonHttpAdapterService&#45;&gt;ResetPasswordComponent -->
<g id="edge8" class="edge">
<title>CommonHttpAdapterService&#45;&gt;ResetPasswordComponent</title>
<path fill="none" stroke="#000000" d="M874.4583,-118.104C874.4583,-118.104 874.4583,-140.7209 874.4583,-140.7209"/>
<polygon fill="#000000" stroke="#000000" points="870.9584,-140.7209 874.4583,-150.7209 877.9584,-140.7209 870.9584,-140.7209"/>
</g>
<!-- CommonService -->
<g id="node5" class="node">
<title>CommonService</title>
<ellipse fill="#fdb462" stroke="#000000" cx="577" cy="-104" rx="75.8836" ry="18"/>
<text text-anchor="middle" x="577" y="-99.8" font-family="Times,serif" font-size="14.00" fill="#000000">CommonService</text>
</g>
<!-- CommonService&#45;&gt;ForgotPasswordComponent -->
<g id="edge3" class="edge">
<title>CommonService&#45;&gt;ForgotPasswordComponent</title>
<path fill="none" stroke="#000000" d="M645.5795,-111.9421C645.5795,-119.5883 645.5795,-130 645.5795,-130 645.5795,-130 1055,-130 1055,-130 1055,-130 1055,-140.8701 1055,-140.8701"/>
<polygon fill="#000000" stroke="#000000" points="1051.5001,-140.8701 1055,-150.8701 1058.5001,-140.8701 1051.5001,-140.8701"/>
</g>
<!-- CommonService&#45;&gt;ResetPasswordComponent -->
<g id="edge9" class="edge">
<title>CommonService&#45;&gt;ResetPasswordComponent</title>
<path fill="none" stroke="#000000" d="M638.2171,-114.9011C638.2171,-125.8152 638.2171,-141 638.2171,-141 638.2171,-141 852.0828,-141 852.0828,-141 852.0828,-141 852.0828,-141.9793 852.0828,-141.9793"/>
<polygon fill="#000000" stroke="#000000" points="848.5829,-140.793 852.0828,-150.793 855.5829,-140.7931 848.5829,-140.793"/>
</g>
<!-- AlertService -->
<g id="node6" class="node">
<title>AlertService</title>
<ellipse fill="#fdb462" stroke="#000000" cx="423" cy="-104" rx="59.6646" ry="18"/>
<text text-anchor="middle" x="423" y="-99.8" font-family="Times,serif" font-size="14.00" fill="#000000">AlertService</text>
</g>
<!-- AlertService&#45;&gt;ForgotPasswordComponent -->
<g id="edge4" class="edge">
<title>AlertService&#45;&gt;ForgotPasswordComponent</title>
<path fill="none" stroke="#000000" d="M455.0945,-119.5188C455.0945,-126.4138 455.0945,-133 455.0945,-133 455.0945,-133 1026.28,-133 1026.28,-133 1026.28,-133 1026.28,-140.5782 1026.28,-140.5782"/>
<polygon fill="#000000" stroke="#000000" points="1022.7801,-140.5781 1026.28,-150.5782 1029.7801,-140.5782 1022.7801,-140.5781"/>
</g>
<!-- AlertService&#45;&gt;ResetPasswordComponent -->
<g id="edge10" class="edge">
<title>AlertService&#45;&gt;ResetPasswordComponent</title>
<path fill="none" stroke="#000000" d="M427.3568,-122.1274C427.3568,-132.7109 427.3568,-144 427.3568,-144 427.3568,-144 829.7074,-144 829.7074,-144 829.7074,-144 829.7074,-144.6831 829.7074,-144.6831"/>
<polygon fill="#000000" stroke="#000000" points="826.2075,-140.8313 829.7074,-150.8314 833.2075,-140.8314 826.2075,-140.8313"/>
</g>
<!-- CommonHelperService -->
<g id="node7" class="node">
<title>CommonHelperService</title>
<ellipse fill="#fdb462" stroke="#000000" cx="1039" cy="-104" rx="102.4275" ry="18"/>
<text text-anchor="middle" x="1039" y="-99.8" font-family="Times,serif" font-size="14.00" fill="#000000">CommonHelperService</text>
</g>
<!-- CommonHelperService&#45;&gt;ForgotPasswordComponent -->
<g id="edge5" class="edge">
<title>CommonHelperService&#45;&gt;ForgotPasswordComponent</title>
<path fill="none" stroke="#000000" d="M1112.4399,-116.5327C1112.4399,-116.5327 1112.4399,-140.8507 1112.4399,-140.8507"/>
<polygon fill="#000000" stroke="#000000" points="1108.94,-140.8506 1112.4399,-150.8507 1115.94,-140.8507 1108.94,-140.8506"/>
</g>
<!-- RxJSHelper -->
<g id="node8" class="node">
<title>RxJSHelper</title>
<ellipse fill="#fdb462" stroke="#000000" cx="287" cy="-104" rx="57.9023" ry="18"/>
<text text-anchor="middle" x="287" y="-99.8" font-family="Times,serif" font-size="14.00" fill="#000000">RxJSHelper</text>
</g>
<!-- RxJSHelper&#45;&gt;ForgotPasswordComponent -->
<g id="edge6" class="edge">
<title>RxJSHelper&#45;&gt;ForgotPasswordComponent</title>
<path fill="none" stroke="#000000" d="M306.2336,-121.2732C306.2336,-129.2576 306.2336,-137 306.2336,-137 306.2336,-137 997.5601,-137 997.5601,-137 997.5601,-137 997.5601,-140.7566 997.5601,-140.7566"/>
<polygon fill="#000000" stroke="#000000" points="994.0602,-140.7566 997.5601,-150.7566 1001.0602,-140.7566 994.0602,-140.7566"/>
</g>
<!-- RxJSHelper&#45;&gt;ResetPasswordComponent -->
<g id="edge11" class="edge">
<title>RxJSHelper&#45;&gt;ResetPasswordComponent</title>
<path fill="none" stroke="#000000" d="M267.7664,-121.1375C267.7664,-133.492 267.7664,-148 267.7664,-148 267.7664,-148 807.3319,-148 807.3319,-148 807.3319,-148 807.3319,-148.292 807.3319,-148.292"/>
<polygon fill="#000000" stroke="#000000" points="803.8323,-140.9198 807.3319,-150.92 810.8323,-140.9201 803.8323,-140.9198"/>
</g>
<!-- AlertServiceModule -->
<g id="node9" class="node">
<title>AlertServiceModule</title>
<polygon fill="#8dd3c7" stroke="#000000" points="761.2907,-187 758.2907,-191 737.2907,-191 734.2907,-187 630.7093,-187 630.7093,-151 761.2907,-151 761.2907,-187"/>
<text text-anchor="middle" x="696" y="-164.8" font-family="Times,serif" font-size="14.00" fill="#000000">AlertServiceModule</text>
</g>
<!-- AlertServiceModule&#45;&gt;ForgotPasswordModule -->
<g id="edge12" class="edge">
<title>AlertServiceModule&#45;&gt;ForgotPasswordModule</title>
<path fill="none" stroke="#000000" d="M653.5617,-187.1061C653.5617,-187.1061 653.5617,-205.991 653.5617,-205.991"/>
<polygon fill="#000000" stroke="#000000" points="650.0618,-205.9909 653.5617,-215.991 657.0618,-205.991 650.0618,-205.9909"/>
</g>
<!-- AppForgotPasswordRoutinModule -->
<g id="node10" class="node">
<title>AppForgotPasswordRoutinModule</title>
<polygon fill="#8dd3c7" stroke="#000000" points="612.2617,-187 609.2617,-191 588.2617,-191 585.2617,-187 399.7383,-187 399.7383,-151 612.2617,-151 612.2617,-187"/>
<text text-anchor="middle" x="506" y="-164.8" font-family="Times,serif" font-size="14.00" fill="#000000">AppForgotPasswordRoutinModule</text>
</g>
<!-- AppForgotPasswordRoutinModule&#45;&gt;ForgotPasswordModule -->
<g id="edge13" class="edge">
<title>AppForgotPasswordRoutinModule&#45;&gt;ForgotPasswordModule</title>
<path fill="none" stroke="#000000" d="M569.0561,-187.1061C569.0561,-187.1061 569.0561,-205.991 569.0561,-205.991"/>
<polygon fill="#000000" stroke="#000000" points="565.5562,-205.9909 569.0561,-215.991 572.5562,-205.991 565.5562,-205.9909"/>
</g>
<!-- BeforeLoginFooterModule -->
<g id="node11" class="node">
<title>BeforeLoginFooterModule</title>
<polygon fill="#8dd3c7" stroke="#000000" points="381.6288,-187 378.6288,-191 357.6288,-191 354.6288,-187 214.3712,-187 214.3712,-151 381.6288,-151 381.6288,-187"/>
<text text-anchor="middle" x="298" y="-164.8" font-family="Times,serif" font-size="14.00" fill="#000000">BeforeLoginFooterModule</text>
</g>
<!-- BeforeLoginFooterModule&#45;&gt;ForgotPasswordModule -->
<g id="edge14" class="edge">
<title>BeforeLoginFooterModule&#45;&gt;ForgotPasswordModule</title>
<path fill="none" stroke="#000000" d="M298,-187.0225C298,-204.3734 298,-228 298,-228 298,-228 515.7118,-228 515.7118,-228"/>
<polygon fill="#000000" stroke="#000000" points="515.7118,-231.5001 525.7118,-228 515.7118,-224.5001 515.7118,-231.5001"/>
</g>
<!-- BeforeLoginHeaderModule -->
<g id="node12" class="node">
<title>BeforeLoginHeaderModule</title>
<polygon fill="#8dd3c7" stroke="#000000" points="195.9917,-187 192.9917,-191 171.9917,-191 168.9917,-187 24.0083,-187 24.0083,-151 195.9917,-151 195.9917,-187"/>
<text text-anchor="middle" x="110" y="-164.8" font-family="Times,serif" font-size="14.00" fill="#000000">BeforeLoginHeaderModule</text>
</g>
<!-- BeforeLoginHeaderModule&#45;&gt;ForgotPasswordModule -->
<g id="edge15" class="edge">
<title>BeforeLoginHeaderModule&#45;&gt;ForgotPasswordModule</title>
<path fill="none" stroke="#000000" d="M110,-187.2843C110,-208.3211 110,-240 110,-240 110,-240 515.8932,-240 515.8932,-240"/>
<polygon fill="#000000" stroke="#000000" points="515.8932,-243.5001 525.8932,-240 515.8932,-236.5001 515.8932,-243.5001"/>
</g>
</g>
</svg>
